<svg xmlns="http://www.w3.org/2000/svg" xmlns:xlink="http://www.w3.org/1999/xlink" width="500" zoomAndPan="magnify" viewBox="0 0 375 374.999991" height="500" preserveAspectRatio="xMidYMid meet" version="1.0"><defs><g/><clipPath id="97ea634fc0"><rect x="0" width="238" y="0" height="375"/></clipPath><clipPath id="2b518b0622"><rect x="0" width="237" y="0" height="375"/></clipPath><clipPath id="32b7556584"><rect x="0" width="375" y="0" height="375"/></clipPath></defs><g transform="matrix(1, 0, 0, 1, 0, 0)"><g clip-path="url(#32b7556584)"><g transform="matrix(1, 0, 0, 1, 0, 0)"><g clip-path="url(#97ea634fc0)"><g fill="#000000" fill-opacity="1"><g transform="translate(-7.164037, 251.528333)"><g><path d="M 21.0625 -116.203125 C 21.0625 -134.128906 24.316406 -150.742188 30.828125 -166.046875 C 37.335938 -181.359375 46.175781 -194.425781 57.34375 -205.25 C 81.019531 -227.914062 110.867188 -239.25 146.890625 -239.25 C 168.203125 -238.570312 186.722656 -233.582031 202.453125 -224.28125 C 218.523438 -214.976562 226.898438 -203.5625 227.578125 -190.03125 C 227.578125 -182.757812 222.753906 -177.9375 213.109375 -175.5625 C 210.578125 -175.0625 208.296875 -174.8125 206.265625 -174.8125 C 198.484375 -174.8125 192.140625 -180.132812 187.234375 -190.78125 C 177.597656 -210.914062 161.273438 -220.984375 138.265625 -220.984375 C 117.972656 -220.984375 100.976562 -212.609375 87.28125 -195.859375 C 72.726562 -178.097656 65.453125 -154.671875 65.453125 -125.578125 C 65.453125 -93.273438 72.976562 -67.316406 88.03125 -47.703125 C 103.757812 -27.066406 125.242188 -16.75 152.484375 -16.75 C 171.085938 -16.75 187.40625 -23.851562 201.4375 -38.0625 C 207.53125 -44.144531 212.097656 -47.1875 215.140625 -47.1875 C 221.398438 -47.1875 224.53125 -44.054688 224.53125 -37.796875 C 224.53125 -31.710938 218.523438 -24.269531 206.515625 -15.46875 C 187.066406 -0.925781 163.132812 6.34375 134.71875 6.34375 C 100.71875 6.34375 73.0625 -5.242188 51.75 -28.421875 C 31.289062 -50.910156 21.0625 -80.171875 21.0625 -116.203125 Z M 21.0625 -116.203125 "/></g></g></g></g></g><g transform="matrix(1, 0, 0, 1, 138, 0)"><g clip-path="url(#2b518b0622)"><g fill="#000000" fill-opacity="1"><g transform="translate(238.719671, 131.060329)"><g><path d="M -20.53125 113.328125 C -20.53125 130.816406 -23.707031 147.023438 -30.0625 161.953125 C -36.414062 176.890625 -45.035156 189.632812 -55.921875 200.1875 C -79.015625 222.289062 -108.132812 233.34375 -143.28125 233.34375 C -164.0625 232.6875 -182.125 227.820312 -197.46875 218.75 C -213.132812 209.675781 -221.300781 198.539062 -221.96875 185.34375 C -221.96875 178.25 -217.265625 173.546875 -207.859375 171.234375 C -205.378906 170.742188 -203.148438 170.5 -201.171875 170.5 C -193.585938 170.5 -187.40625 175.691406 -182.625 186.078125 C -173.21875 205.710938 -157.296875 215.53125 -134.859375 215.53125 C -115.066406 215.53125 -98.488281 207.363281 -85.125 191.03125 C -70.9375 173.707031 -63.84375 150.859375 -63.84375 122.484375 C -63.84375 90.972656 -71.179688 65.648438 -85.859375 46.515625 C -101.203125 26.390625 -122.15625 16.328125 -148.71875 16.328125 C -166.863281 16.328125 -182.785156 23.257812 -196.484375 37.125 C -202.421875 43.0625 -206.875 46.03125 -209.84375 46.03125 C -215.945312 46.03125 -219 42.976562 -219 36.875 C -219 30.9375 -213.140625 23.675781 -201.421875 15.09375 C -182.453125 0.90625 -159.109375 -6.1875 -131.390625 -6.1875 C -98.234375 -6.1875 -71.265625 5.113281 -50.484375 27.71875 C -30.515625 49.65625 -20.53125 78.191406 -20.53125 113.328125 Z M -20.53125 113.328125 "/></g></g></g></g></g></g></g></svg>