<svg xmlns="http://www.w3.org/2000/svg" xmlns:xlink="http://www.w3.org/1999/xlink" width="350" zoomAndPan="magnify" viewBox="0 0 262.5 74.999997" height="100" preserveAspectRatio="xMidYMid meet" version="1.0"><defs><g/><clipPath id="454df7f716"><path d="M 66 0.0703125 L 127 0.0703125 L 127 72 L 66 72 Z M 66 0.0703125 " clip-rule="nonzero"/></clipPath><clipPath id="d6be979c9a"><path d="M 0.113281 49 L 1 49 L 1 50 L 0.113281 50 Z M 0.113281 49 " clip-rule="nonzero"/></clipPath><clipPath id="6ba4b86c0f"><rect x="0" width="61" y="0" height="72"/></clipPath><clipPath id="9bc54f3290"><path d="M 110 6 L 150 6 L 150 74.925781 L 110 74.925781 Z M 110 6 " clip-rule="nonzero"/></clipPath><clipPath id="716413161d"><rect x="0" width="40" y="0" height="69"/></clipPath></defs><g clip-path="url(#454df7f716)"><g transform="matrix(1, 0, 0, 1, 66, 0.000000000000008313)"><g clip-path="url(#6ba4b86c0f)"><g clip-path="url(#d6be979c9a)"><g fill="#ffffff" fill-opacity="1"><g transform="translate(0.168264, 49.757244)"><g/></g></g></g><g fill="#ffffff" fill-opacity="1"><g transform="translate(21.490379, 49.757244)"><g><path d="M 3.375 -18.609375 C 3.375 -21.472656 3.894531 -24.128906 4.9375 -26.578125 C 5.976562 -29.035156 7.394531 -31.128906 9.1875 -32.859375 C 12.96875 -36.484375 17.742188 -38.296875 23.515625 -38.296875 C 26.929688 -38.191406 29.894531 -37.394531 32.40625 -35.90625 C 34.976562 -34.414062 36.320312 -32.585938 36.4375 -30.421875 C 36.4375 -29.253906 35.664062 -28.484375 34.125 -28.109375 C 33.71875 -28.023438 33.347656 -27.984375 33.015625 -27.984375 C 31.773438 -27.984375 30.765625 -28.835938 29.984375 -30.546875 C 28.429688 -33.765625 25.816406 -35.375 22.140625 -35.375 C 18.890625 -35.375 16.164062 -34.035156 13.96875 -31.359375 C 11.644531 -28.515625 10.484375 -24.765625 10.484375 -20.109375 C 10.484375 -14.929688 11.6875 -10.773438 14.09375 -7.640625 C 16.613281 -4.335938 20.050781 -2.6875 24.40625 -2.6875 C 27.382812 -2.6875 30 -3.820312 32.25 -6.09375 C 33.226562 -7.070312 33.957031 -7.5625 34.4375 -7.5625 C 35.445312 -7.5625 35.953125 -7.054688 35.953125 -6.046875 C 35.953125 -5.078125 34.988281 -3.890625 33.0625 -2.484375 C 29.945312 -0.148438 26.113281 1.015625 21.5625 1.015625 C 16.125 1.015625 11.695312 -0.835938 8.28125 -4.546875 C 5.007812 -8.148438 3.375 -12.835938 3.375 -18.609375 Z M 3.375 -18.609375 "/></g></g></g></g></g></g><g clip-path="url(#9bc54f3290)"><g transform="matrix(1, 0, 0, 1, 110, 6)"><g clip-path="url(#716413161d)"><g fill="#ffffff" fill-opacity="1"><g transform="translate(38.953564, 22.540398)"><g><path d="M -3.28125 18.140625 C -3.28125 20.941406 -3.789062 23.535156 -4.8125 25.921875 C -5.832031 28.316406 -7.210938 30.359375 -8.953125 32.046875 C -12.648438 35.585938 -17.3125 37.359375 -22.9375 37.359375 C -26.257812 37.253906 -29.148438 36.472656 -31.609375 35.015625 C -34.117188 33.566406 -35.425781 31.785156 -35.53125 29.671875 C -35.53125 28.535156 -34.78125 27.78125 -33.28125 27.40625 C -32.882812 27.332031 -32.523438 27.296875 -32.203125 27.296875 C -30.984375 27.296875 -29.992188 28.125 -29.234375 29.78125 C -27.722656 32.925781 -25.175781 34.5 -21.59375 34.5 C -18.414062 34.5 -15.757812 33.191406 -13.625 30.578125 C -11.351562 27.804688 -10.21875 24.148438 -10.21875 19.609375 C -10.21875 14.566406 -11.394531 10.515625 -13.75 7.453125 C -16.195312 4.222656 -19.550781 2.609375 -23.8125 2.609375 C -26.707031 2.609375 -29.253906 3.71875 -31.453125 5.9375 C -32.398438 6.894531 -33.113281 7.375 -33.59375 7.375 C -34.570312 7.375 -35.0625 6.882812 -35.0625 5.90625 C -35.0625 4.945312 -34.125 3.785156 -32.25 2.421875 C -29.207031 0.148438 -25.46875 -0.984375 -21.03125 -0.984375 C -15.726562 -0.984375 -11.410156 0.820312 -8.078125 4.4375 C -4.878906 7.945312 -3.28125 12.515625 -3.28125 18.140625 Z M -3.28125 18.140625 "/></g></g></g></g></g></g><g fill="#ffffff" fill-opacity="1"><g transform="translate(16.594715, 53.797868)"><g><path d="M 4.40625 0.5 C 2.96875 0.5 2.25 0.0859375 2.25 -0.734375 C 2.25 -1.367188 2.648438 -1.6875 3.453125 -1.6875 L 5.078125 -1.53125 C 6.398438 -1.53125 7.289062 -2.269531 7.75 -3.75 C 8.125 -5.007812 8.3125 -7.257812 8.3125 -10.5 L 8.3125 -33.90625 C 8.3125 -37.15625 8.15625 -39.28125 7.84375 -40.28125 C 7.539062 -41.289062 7.171875 -41.976562 6.734375 -42.34375 C 6.304688 -42.707031 5.753906 -42.890625 5.078125 -42.890625 L 3.453125 -42.75 C 2.648438 -42.75 2.25 -43.070312 2.25 -43.71875 C 2.25 -44.53125 2.859375 -44.9375 4.078125 -44.9375 C 5.296875 -44.9375 6.453125 -44.847656 7.546875 -44.671875 C 8.640625 -44.492188 9.78125 -44.40625 10.96875 -44.40625 C 12.164062 -44.40625 13.3125 -44.492188 14.40625 -44.671875 C 15.5 -44.847656 16.898438 -44.9375 18.609375 -44.9375 C 20.316406 -44.9375 22.15625 -44.660156 24.125 -44.109375 C 26.09375 -43.554688 27.75 -42.773438 29.09375 -41.765625 C 31.90625 -39.660156 33.3125 -36.875 33.3125 -33.40625 C 33.3125 -29.5625 31.726562 -26.25 28.5625 -23.46875 C 27.550781 -22.582031 26.425781 -21.832031 25.1875 -21.21875 L 35.953125 -5.5625 C 37.171875 -3.78125 38.507812 -2.695312 39.96875 -2.3125 C 40.382812 -2.207031 40.914062 -2.125 41.5625 -2.0625 C 42.6875 -1.945312 43.25 -1.570312 43.25 -0.9375 C 43.25 -0.3125 42.640625 0 41.421875 0 L 35.0625 0 C 33.539062 0 32.160156 -0.992188 30.921875 -2.984375 L 22.5625 -16.34375 C 21.8125 -17.507812 21.09375 -18.34375 20.40625 -18.84375 C 19.726562 -19.34375 18.675781 -19.59375 17.25 -19.59375 C 15.820312 -19.59375 14.578125 -19.554688 13.515625 -19.484375 L 13.515625 -10.5 C 13.515625 -7.164062 13.664062 -5.019531 13.96875 -4.0625 C 14.269531 -3.101562 14.632812 -2.441406 15.0625 -2.078125 C 15.488281 -1.710938 16.054688 -1.53125 16.765625 -1.53125 L 18.359375 -1.6875 C 19.148438 -1.6875 19.546875 -1.367188 19.546875 -0.734375 C 19.546875 0.0859375 18.84375 0.5 17.4375 0.5 C 16.707031 0.5 15.929688 0.429688 15.109375 0.296875 C 12.460938 -0.117188 10.191406 -0.191406 8.296875 0.078125 C 6.410156 0.359375 5.113281 0.5 4.40625 0.5 Z M 13.515625 -22.40625 C 14.953125 -22.25 16.335938 -22.171875 17.671875 -22.171875 L 19.75 -22.171875 C 21.894531 -22.171875 23.707031 -22.898438 25.1875 -24.359375 C 26.90625 -26.054688 27.765625 -28.375 27.765625 -31.3125 C 27.765625 -34.851562 26.695312 -37.648438 24.5625 -39.703125 C 22.550781 -41.648438 19.960938 -42.625 16.796875 -42.625 C 15.671875 -42.625 14.84375 -42.46875 14.3125 -42.15625 C 13.78125 -41.84375 13.515625 -41.3125 13.515625 -40.5625 Z M 13.515625 -22.40625 "/></g></g></g><g fill="#ffffff" fill-opacity="1"><g transform="translate(59.745474, 53.797868)"><g><path d="M 32.875 -4.4375 C 33.519531 -4.4375 33.84375 -4.144531 33.84375 -3.5625 C 33.84375 -2.976562 33.203125 -2.421875 31.921875 -1.890625 C 30.640625 -1.359375 29.742188 -0.875 29.234375 -0.4375 C 28.722656 -0.0078125 28.34375 0.304688 28.09375 0.515625 C 27.851562 0.722656 27.570312 0.828125 27.25 0.828125 C 26.582031 0.828125 26.023438 0.550781 25.578125 0 C 25.140625 -0.550781 24.546875 -1.734375 23.796875 -3.546875 C 22.535156 -2.109375 21.003906 -1.019531 19.203125 -0.28125 C 17.398438 0.457031 15.617188 0.828125 13.859375 0.828125 C 10.515625 0.828125 7.925781 -0.0195312 6.09375 -1.71875 C 4.257812 -3.425781 3.34375 -5.757812 3.34375 -8.71875 C 3.34375 -11.675781 4.726562 -14.078125 7.5 -15.921875 C 10.28125 -17.765625 13.820312 -18.6875 18.125 -18.6875 C 19.40625 -18.6875 21.097656 -18.46875 23.203125 -18.03125 L 23.203125 -20.609375 C 23.203125 -26.285156 20.800781 -29.125 16 -29.125 C 13.46875 -29.125 11.601562 -27.957031 10.40625 -25.625 C 9.363281 -23.519531 8.347656 -22.46875 7.359375 -22.46875 C 6.628906 -22.46875 5.992188 -22.675781 5.453125 -23.09375 C 4.910156 -23.519531 4.640625 -24.050781 4.640625 -24.6875 C 4.640625 -25.332031 4.96875 -26.046875 5.625 -26.828125 C 6.289062 -27.609375 7.175781 -28.320312 8.28125 -28.96875 C 10.894531 -30.488281 13.757812 -31.25 16.875 -31.25 C 22.394531 -31.25 25.960938 -29.445312 27.578125 -25.84375 C 28.171875 -24.5625 28.46875 -22.992188 28.46875 -21.140625 L 28.46875 -7.921875 C 28.46875 -6.222656 28.632812 -5.128906 28.96875 -4.640625 C 29.300781 -4.148438 29.765625 -3.90625 30.359375 -3.90625 C 30.953125 -3.90625 31.4375 -3.992188 31.8125 -4.171875 C 32.1875 -4.347656 32.539062 -4.4375 32.875 -4.4375 Z M 23.203125 -14.953125 C 21.609375 -15.859375 19.59375 -16.3125 17.15625 -16.3125 C 14.726562 -16.3125 12.78125 -15.703125 11.3125 -14.484375 C 9.84375 -13.265625 9.109375 -11.632812 9.109375 -9.59375 C 9.109375 -7.550781 9.671875 -5.847656 10.796875 -4.484375 C 11.929688 -3.128906 13.378906 -2.453125 15.140625 -2.453125 C 18.921875 -2.453125 21.640625 -3.691406 23.296875 -6.171875 C 23.234375 -6.785156 23.203125 -7.46875 23.203125 -8.21875 Z M 23.203125 -14.953125 "/></g></g></g><g fill="#ffffff" fill-opacity="1"><g transform="translate(93.990264, 53.797868)"><g/></g></g><g fill="#ffffff" fill-opacity="1"><g transform="translate(111.389769, 53.797868)"><g/></g></g><g fill="#ffffff" fill-opacity="1"><g transform="translate(128.789274, 53.797868)"><g/></g></g><g fill="#ffffff" fill-opacity="1"><g transform="translate(146.191609, 53.797868)"><g><path d="M 2.515625 -14.71875 C 2.515625 -16.863281 2.898438 -18.941406 3.671875 -20.953125 C 4.453125 -22.960938 5.546875 -24.726562 6.953125 -26.25 C 10.046875 -29.582031 13.90625 -31.25 18.53125 -31.25 C 23.65625 -31.25 27.597656 -29.710938 30.359375 -26.640625 C 32.859375 -23.859375 34.109375 -20.25 34.109375 -15.8125 C 34.109375 -11.320312 32.613281 -7.441406 29.625 -4.171875 C 26.582031 -0.835938 22.738281 0.828125 18.09375 0.828125 C 12.96875 0.828125 9.035156 -0.707031 6.296875 -3.78125 C 3.773438 -6.5625 2.515625 -10.207031 2.515625 -14.71875 Z M 8.125 -16.109375 C 8.125 -13.941406 8.421875 -11.914062 9.015625 -10.03125 C 9.609375 -8.15625 10.425781 -6.601562 11.46875 -5.375 C 13.519531 -2.851562 16.113281 -1.59375 19.25 -1.59375 C 22.039062 -1.59375 24.304688 -2.695312 26.046875 -4.90625 C 27.859375 -7.207031 28.765625 -10.164062 28.765625 -13.78125 C 28.765625 -18.582031 27.660156 -22.34375 25.453125 -25.0625 C 23.378906 -27.550781 20.769531 -28.796875 17.625 -28.796875 C 14.84375 -28.796875 12.582031 -27.691406 10.84375 -25.484375 C 9.03125 -23.191406 8.125 -20.066406 8.125 -16.109375 Z M 8.125 -16.109375 "/></g></g></g><g fill="#ffffff" fill-opacity="1"><g transform="translate(182.614566, 53.797868)"><g><path d="M 3.875 0.5 C 2.394531 0.5 1.65625 0.0859375 1.65625 -0.734375 C 1.65625 -1.367188 2.066406 -1.6875 2.890625 -1.6875 L 4.546875 -1.53125 C 5.046875 -1.53125 5.460938 -1.625 5.796875 -1.8125 C 6.128906 -2 6.382812 -2.398438 6.5625 -3.015625 C 6.914062 -4.140625 7.09375 -6.632812 7.09375 -10.5 L 7.09375 -20.421875 C 7.09375 -22.671875 6.953125 -24.078125 6.671875 -24.640625 C 6.398438 -25.203125 6.070312 -25.585938 5.6875 -25.796875 C 5.300781 -26.003906 4.671875 -26.175781 3.796875 -26.3125 C 2.921875 -26.445312 2.484375 -26.789062 2.484375 -27.34375 C 2.484375 -27.851562 3.046875 -28.21875 4.171875 -28.4375 C 6.804688 -28.988281 8.617188 -29.539062 9.609375 -30.09375 C 10.960938 -30.863281 11.882812 -31.25 12.375 -31.25 C 12.875 -31.25 13.125 -30.992188 13.125 -30.484375 C 13.125 -30.242188 13.070312 -29.988281 12.96875 -29.71875 C 12.875 -29.457031 12.769531 -29.140625 12.65625 -28.765625 C 12.476562 -28.015625 12.347656 -26.601562 12.265625 -24.53125 C 14.179688 -27.75 16.5 -29.757812 19.21875 -30.5625 C 20.019531 -30.800781 20.910156 -30.921875 21.890625 -30.921875 C 22.867188 -30.921875 23.738281 -30.566406 24.5 -29.859375 C 25.269531 -29.148438 25.65625 -28.398438 25.65625 -27.609375 C 25.65625 -26.816406 25.566406 -26.226562 25.390625 -25.84375 C 25.210938 -25.46875 24.988281 -25.148438 24.71875 -24.890625 C 24.144531 -24.316406 23.628906 -24.03125 23.171875 -24.03125 C 22.722656 -24.03125 22.378906 -24.144531 22.140625 -24.375 C 21.898438 -24.601562 21.625 -25.03125 21.3125 -25.65625 C 20.757812 -26.757812 20.140625 -27.3125 19.453125 -27.3125 C 18.765625 -27.3125 18.113281 -27.160156 17.5 -26.859375 C 16.882812 -26.566406 16.265625 -26.117188 15.640625 -25.515625 C 14.296875 -24.253906 13.160156 -22.539062 12.234375 -20.375 L 12.234375 -10.5 C 12.234375 -6.300781 12.347656 -3.832031 12.578125 -3.09375 C 12.804688 -2.351562 13.09375 -1.910156 13.4375 -1.765625 C 13.78125 -1.628906 14.25 -1.5625 14.84375 -1.5625 L 17.796875 -1.828125 C 18.234375 -1.828125 18.582031 -1.71875 18.84375 -1.5 C 19.113281 -1.289062 19.25 -1.035156 19.25 -0.734375 C 19.25 0.0859375 18.445312 0.5 16.84375 0.5 L 9.84375 0 C 8.71875 0 7.648438 0.0820312 6.640625 0.25 C 5.640625 0.414062 4.71875 0.5 3.875 0.5 Z M 3.875 0.5 "/></g></g></g><g fill="#ffffff" fill-opacity="1"><g transform="translate(208.896101, 53.797868)"><g><path d="M 26.28125 -2.953125 C 23.914062 -0.429688 20.8125 0.828125 16.96875 0.828125 C 12.457031 0.828125 8.898438 -0.726562 6.296875 -3.84375 C 3.890625 -6.757812 2.6875 -10.472656 2.6875 -14.984375 C 2.6875 -19.484375 4.164062 -23.316406 7.125 -26.484375 C 10.101562 -29.660156 13.816406 -31.25 18.265625 -31.25 C 21.179688 -31.25 23.617188 -30.695312 25.578125 -29.59375 L 25.578125 -36.59375 C 25.578125 -38.664062 25.410156 -40.015625 25.078125 -40.640625 C 24.753906 -41.273438 24.40625 -41.703125 24.03125 -41.921875 C 23.65625 -42.140625 23.050781 -42.316406 22.21875 -42.453125 C 21.394531 -42.585938 20.984375 -42.929688 20.984375 -43.484375 C 20.984375 -43.992188 21.546875 -44.359375 22.671875 -44.578125 C 25.316406 -45.128906 27.140625 -45.691406 28.140625 -46.265625 C 29.484375 -47.015625 30.390625 -47.390625 30.859375 -47.390625 C 31.367188 -47.390625 31.625 -47.132812 31.625 -46.625 C 31.625 -46.382812 31.578125 -46.132812 31.484375 -45.875 C 31.015625 -44.675781 30.769531 -43.160156 30.75 -41.328125 C 30.726562 -39.492188 30.71875 -38.003906 30.71875 -36.859375 L 30.71875 -9.703125 C 30.71875 -7.273438 30.859375 -5.707031 31.140625 -5 C 31.429688 -4.289062 31.722656 -3.832031 32.015625 -3.625 C 32.304688 -3.414062 32.648438 -3.3125 33.046875 -3.3125 L 35.03125 -3.75 C 35.675781 -3.75 36 -3.460938 36 -2.890625 C 36 -2.554688 35.859375 -2.273438 35.578125 -2.046875 C 35.296875 -1.828125 34.820312 -1.570312 34.15625 -1.28125 C 33.5 -1 32.945312 -0.703125 32.5 -0.390625 C 32.0625 -0.0859375 31.679688 0.195312 31.359375 0.46875 C 30.597656 1.101562 30.007812 1.421875 29.59375 1.421875 C 28.15625 1.421875 27.050781 -0.0351562 26.28125 -2.953125 Z M 25.578125 -24.65625 C 23.566406 -27.394531 20.785156 -28.765625 17.234375 -28.765625 C 14.554688 -28.765625 12.410156 -27.738281 10.796875 -25.6875 C 9.078125 -23.519531 8.21875 -20.554688 8.21875 -16.796875 C 8.21875 -12.421875 9.332031 -8.921875 11.5625 -6.296875 C 13.644531 -3.816406 16.132812 -2.578125 19.03125 -2.578125 C 21.96875 -2.578125 24.207031 -3.617188 25.75 -5.703125 C 25.632812 -6.515625 25.578125 -7.460938 25.578125 -8.546875 Z M 25.578125 -24.65625 "/></g></g></g></svg>