<svg xmlns="http://www.w3.org/2000/svg" xmlns:xlink="http://www.w3.org/1999/xlink" width="300" zoomAndPan="magnify" viewBox="0 0 224.87999 74.999997" height="100" preserveAspectRatio="xMidYMid meet" version="1.0"><defs><filter x="0%" y="0%" width="100%" height="100%" id="1d4eef1261"><feColorMatrix values="0 0 0 0 1 0 0 0 0 1 0 0 0 0 1 0 0 0 1 0" color-interpolation-filters="sRGB"/></filter><g/><clipPath id="92b4663855"><path d="M 0 0.0195312 L 224.761719 0.0195312 L 224.761719 74.980469 L 0 74.980469 Z M 0 0.0195312 " clip-rule="nonzero"/></clipPath><clipPath id="e7e50b6eca"><path d="M 0 0.0195312 L 224.761719 0.0195312 L 224.761719 74.980469 L 0 74.980469 Z M 0 0.0195312 " clip-rule="nonzero"/></clipPath><clipPath id="658a0ed153"><path d="M 0 0.0195312 L 224.761719 0.0195312 L 224.761719 74.980469 L 0 74.980469 Z M 0 0.0195312 " clip-rule="nonzero"/></clipPath><clipPath id="434165fa3e"><path d="M 0 0.0195312 L 224.761719 0.0195312 L 224.761719 74.980469 L 0 74.980469 Z M 0 0.0195312 " clip-rule="nonzero"/></clipPath><clipPath id="0e5faefef5"><path d="M 0 0.0195312 L 224.761719 0.0195312 L 224.761719 74.980469 L 0 74.980469 Z M 0 0.0195312 " clip-rule="nonzero"/></clipPath><linearGradient x1="-137.302485" gradientTransform="matrix(0.449503, 0, 0, 0.449609, 61.717871, -26.123104)" y1="97" x2="362.716591" gradientUnits="userSpaceOnUse" y2="97" id="306b014290"><stop stop-opacity="1" stop-color="rgb(36.468506%, 87.838745%, 90.19928%)" offset="0"/><stop stop-opacity="1" stop-color="rgb(36.468506%, 87.838745%, 90.19928%)" offset="0.25"/><stop stop-opacity="1" stop-color="rgb(36.468506%, 87.838745%, 90.19928%)" offset="0.265625"/><stop stop-opacity="1" stop-color="rgb(36.468506%, 87.838745%, 90.19928%)" offset="0.273438"/><stop stop-opacity="1" stop-color="rgb(35.862732%, 86.860657%, 89.826965%)" offset="0.277344"/><stop stop-opacity="1" stop-color="rgb(35.256958%, 85.884094%, 89.456177%)" offset="0.28125"/><stop stop-opacity="1" stop-color="rgb(34.545898%, 84.736633%, 89.019775%)" offset="0.285156"/><stop stop-opacity="1" stop-color="rgb(33.834839%, 83.590698%, 88.583374%)" offset="0.289062"/><stop stop-opacity="1" stop-color="rgb(33.122253%, 82.443237%, 88.146973%)" offset="0.292969"/><stop stop-opacity="1" stop-color="rgb(32.411194%, 81.295776%, 87.712097%)" offset="0.296875"/><stop stop-opacity="1" stop-color="rgb(31.700134%, 80.148315%, 87.275696%)" offset="0.300781"/><stop stop-opacity="1" stop-color="rgb(30.989075%, 79.000854%, 86.839294%)" offset="0.304688"/><stop stop-opacity="1" stop-color="rgb(30.278015%, 77.853394%, 86.402893%)" offset="0.308594"/><stop stop-opacity="1" stop-color="rgb(29.566956%, 76.705933%, 85.966492%)" offset="0.3125"/><stop stop-opacity="1" stop-color="rgb(28.85437%, 75.558472%, 85.53009%)" offset="0.316406"/><stop stop-opacity="1" stop-color="rgb(28.143311%, 74.412537%, 85.095215%)" offset="0.320312"/><stop stop-opacity="1" stop-color="rgb(27.432251%, 73.265076%, 84.658813%)" offset="0.324219"/><stop stop-opacity="1" stop-color="rgb(26.721191%, 72.117615%, 84.222412%)" offset="0.328125"/><stop stop-opacity="1" stop-color="rgb(26.010132%, 70.970154%, 83.786011%)" offset="0.332031"/><stop stop-opacity="1" stop-color="rgb(25.299072%, 69.822693%, 83.351135%)" offset="0.335938"/><stop stop-opacity="1" stop-color="rgb(24.586487%, 68.675232%, 82.914734%)" offset="0.339844"/><stop stop-opacity="1" stop-color="rgb(23.875427%, 67.527771%, 82.478333%)" offset="0.34375"/><stop stop-opacity="1" stop-color="rgb(23.164368%, 66.38031%, 82.041931%)" offset="0.347656"/><stop stop-opacity="1" stop-color="rgb(22.453308%, 65.234375%, 81.60553%)" offset="0.351563"/><stop stop-opacity="1" stop-color="rgb(21.742249%, 64.086914%, 81.169128%)" offset="0.355469"/><stop stop-opacity="1" stop-color="rgb(21.031189%, 62.939453%, 80.734253%)" offset="0.359375"/><stop stop-opacity="1" stop-color="rgb(20.318604%, 61.791992%, 80.297852%)" offset="0.363281"/><stop stop-opacity="1" stop-color="rgb(19.607544%, 60.644531%, 79.86145%)" offset="0.367188"/><stop stop-opacity="1" stop-color="rgb(18.896484%, 59.49707%, 79.425049%)" offset="0.371094"/><stop stop-opacity="1" stop-color="rgb(18.185425%, 58.351135%, 78.988647%)" offset="0.375"/><stop stop-opacity="1" stop-color="rgb(17.474365%, 57.203674%, 78.552246%)" offset="0.378906"/><stop stop-opacity="1" stop-color="rgb(16.763306%, 56.056213%, 78.117371%)" offset="0.382813"/><stop stop-opacity="1" stop-color="rgb(16.05072%, 54.908752%, 77.680969%)" offset="0.386719"/><stop stop-opacity="1" stop-color="rgb(15.339661%, 53.761292%, 77.244568%)" offset="0.390625"/><stop stop-opacity="1" stop-color="rgb(14.628601%, 52.613831%, 76.808167%)" offset="0.394531"/><stop stop-opacity="1" stop-color="rgb(13.917542%, 51.46637%, 76.373291%)" offset="0.398438"/><stop stop-opacity="1" stop-color="rgb(13.206482%, 50.318909%, 75.93689%)" offset="0.402344"/><stop stop-opacity="1" stop-color="rgb(12.495422%, 49.172974%, 75.500488%)" offset="0.40625"/><stop stop-opacity="1" stop-color="rgb(11.782837%, 48.025513%, 75.064087%)" offset="0.410156"/><stop stop-opacity="1" stop-color="rgb(11.071777%, 46.878052%, 74.627686%)" offset="0.414063"/><stop stop-opacity="1" stop-color="rgb(10.360718%, 45.730591%, 74.191284%)" offset="0.417969"/><stop stop-opacity="1" stop-color="rgb(9.649658%, 44.58313%, 73.756409%)" offset="0.421875"/><stop stop-opacity="1" stop-color="rgb(8.937073%, 43.435669%, 73.320007%)" offset="0.425781"/><stop stop-opacity="1" stop-color="rgb(8.226013%, 42.288208%, 72.883606%)" offset="0.429688"/><stop stop-opacity="1" stop-color="rgb(7.514954%, 41.140747%, 72.447205%)" offset="0.433594"/><stop stop-opacity="1" stop-color="rgb(6.803894%, 39.994812%, 72.010803%)" offset="0.4375"/><stop stop-opacity="1" stop-color="rgb(6.092834%, 38.847351%, 71.574402%)" offset="0.441406"/><stop stop-opacity="1" stop-color="rgb(5.381775%, 37.69989%, 71.139526%)" offset="0.445313"/><stop stop-opacity="1" stop-color="rgb(4.669189%, 36.552429%, 70.703125%)" offset="0.449219"/><stop stop-opacity="1" stop-color="rgb(3.95813%, 35.404968%, 70.266724%)" offset="0.453125"/><stop stop-opacity="1" stop-color="rgb(3.24707%, 34.257507%, 69.830322%)" offset="0.457031"/><stop stop-opacity="1" stop-color="rgb(2.536011%, 33.111572%, 69.393921%)" offset="0.460938"/><stop stop-opacity="1" stop-color="rgb(1.824951%, 31.964111%, 68.95752%)" offset="0.464844"/><stop stop-opacity="1" stop-color="rgb(1.113892%, 30.81665%, 68.522644%)" offset="0.46875"/><stop stop-opacity="1" stop-color="rgb(0.556946%, 29.917908%, 68.180847%)" offset="0.472656"/><stop stop-opacity="1" stop-color="rgb(0%, 29.019165%, 67.83905%)" offset="0.476563"/><stop stop-opacity="1" stop-color="rgb(0%, 29.019165%, 67.83905%)" offset="0.484375"/><stop stop-opacity="1" stop-color="rgb(0%, 29.019165%, 67.83905%)" offset="0.5"/><stop stop-opacity="1" stop-color="rgb(0%, 29.019165%, 67.83905%)" offset="1"/></linearGradient><clipPath id="e73a212514"><rect x="0" width="225" y="0" height="75"/></clipPath><clipPath id="90b1e53d98"><path d="M 0 0.0195312 L 224.761719 0.0195312 L 224.761719 74.980469 L 0 74.980469 Z M 0 0.0195312 " clip-rule="nonzero"/></clipPath><clipPath id="7794cfbc89"><rect x="0" width="225" y="0" height="75"/></clipPath><clipPath id="f74c73409a"><rect x="0" width="225" y="0" height="75"/></clipPath><mask id="97511eab6a"><g filter="url(#1d4eef1261)"><g transform="matrix(1, 0, 0, 1, 0, -0.000000000000000847)"><g clip-path="url(#f74c73409a)"><g clip-path="url(#90b1e53d98)"><g transform="matrix(1, 0, 0, 1, 0, -0.000000000000000847)"><g clip-path="url(#7794cfbc89)"><g fill="#000000" fill-opacity="1"><g transform="translate(61.738296, 35.927869)"><g/></g></g><g fill="#000000" fill-opacity="1"><g transform="translate(77.766897, 35.927869)"><g><path d="M 2.53125 -13.984375 C 2.53125 -16.140625 2.921875 -18.140625 3.703125 -19.984375 C 4.492188 -21.828125 5.5625 -23.398438 6.90625 -24.703125 C 9.75 -27.429688 13.335938 -28.796875 17.671875 -28.796875 C 20.242188 -28.710938 22.472656 -28.109375 24.359375 -26.984375 C 26.296875 -25.867188 27.304688 -24.5 27.390625 -22.875 C 27.390625 -22 26.804688 -21.414062 25.640625 -21.125 C 25.335938 -21.0625 25.066406 -21.03125 24.828125 -21.03125 C 23.890625 -21.03125 23.125 -21.671875 22.53125 -22.953125 C 21.375 -25.378906 19.410156 -26.59375 16.640625 -26.59375 C 14.191406 -26.59375 12.144531 -25.585938 10.5 -23.578125 C 8.75 -21.429688 7.875 -18.609375 7.875 -15.109375 C 7.875 -11.222656 8.78125 -8.097656 10.59375 -5.734375 C 12.488281 -3.253906 15.070312 -2.015625 18.34375 -2.015625 C 20.582031 -2.015625 22.550781 -2.867188 24.25 -4.578125 C 24.976562 -5.304688 25.523438 -5.671875 25.890625 -5.671875 C 26.640625 -5.671875 27.015625 -5.296875 27.015625 -4.546875 C 27.015625 -3.816406 26.296875 -2.921875 24.859375 -1.859375 C 22.515625 -0.109375 19.632812 0.765625 16.21875 0.765625 C 12.125 0.765625 8.796875 -0.628906 6.234375 -3.421875 C 3.765625 -6.128906 2.53125 -9.648438 2.53125 -13.984375 Z M 2.53125 -13.984375 "/></g></g></g></g></g></g></g></g></g></mask><clipPath id="449a392298"><path d="M 0 0.0195312 L 224.761719 0.0195312 L 224.761719 74.980469 L 0 74.980469 Z M 0 0.0195312 " clip-rule="nonzero"/></clipPath><clipPath id="09e3a03424"><rect x="0" width="225" y="0" height="75"/></clipPath><clipPath id="af09b20364"><rect x="0" width="225" y="0" height="75"/></clipPath><clipPath id="2374c2a1a1"><rect x="0" width="225" y="0" height="75"/></clipPath><clipPath id="38c56b2d6d"><path d="M 0 0.0195312 L 224.761719 0.0195312 L 224.761719 74.980469 L 0 74.980469 Z M 0 0.0195312 " clip-rule="nonzero"/></clipPath><clipPath id="1cda15d5dd"><path d="M 0 0.0195312 L 224.761719 0.0195312 L 224.761719 74.980469 L 0 74.980469 Z M 0 0.0195312 " clip-rule="nonzero"/></clipPath><clipPath id="6f16467771"><path d="M 0 0.0195312 L 224.761719 0.0195312 L 224.761719 74.980469 L 0 74.980469 Z M 0 0.0195312 " clip-rule="nonzero"/></clipPath><linearGradient x1="-212.319445" gradientTransform="matrix(-0.449451, 0, 0, -0.449424, 129.332958, 164.971485)" y1="283" x2="287.75794" gradientUnits="userSpaceOnUse" y2="283" id="4c3566f7b7"><stop stop-opacity="1" stop-color="rgb(54.899597%, 32.159424%, 100%)" offset="0"/><stop stop-opacity="1" stop-color="rgb(54.899597%, 32.159424%, 100%)" offset="0.25"/><stop stop-opacity="1" stop-color="rgb(54.899597%, 32.159424%, 100%)" offset="0.375"/><stop stop-opacity="1" stop-color="rgb(54.899597%, 32.159424%, 100%)" offset="0.4375"/><stop stop-opacity="1" stop-color="rgb(54.899597%, 32.159424%, 100%)" offset="0.445312"/><stop stop-opacity="1" stop-color="rgb(55.300903%, 32.37915%, 99.377441%)" offset="0.449219"/><stop stop-opacity="1" stop-color="rgb(55.703735%, 32.600403%, 98.754883%)" offset="0.453125"/><stop stop-opacity="1" stop-color="rgb(57.104492%, 33.366394%, 96.586609%)" offset="0.457031"/><stop stop-opacity="1" stop-color="rgb(58.505249%, 34.133911%, 94.419861%)" offset="0.460938"/><stop stop-opacity="1" stop-color="rgb(59.90448%, 34.899902%, 92.251587%)" offset="0.464844"/><stop stop-opacity="1" stop-color="rgb(61.305237%, 35.667419%, 90.084839%)" offset="0.46875"/><stop stop-opacity="1" stop-color="rgb(62.705994%, 36.434937%, 87.916565%)" offset="0.472656"/><stop stop-opacity="1" stop-color="rgb(64.10675%, 37.202454%, 85.749817%)" offset="0.476562"/><stop stop-opacity="1" stop-color="rgb(65.507507%, 37.968445%, 83.581543%)" offset="0.480469"/><stop stop-opacity="1" stop-color="rgb(66.908264%, 38.735962%, 81.414795%)" offset="0.484375"/><stop stop-opacity="1" stop-color="rgb(68.307495%, 39.501953%, 79.246521%)" offset="0.488281"/><stop stop-opacity="1" stop-color="rgb(69.708252%, 40.26947%, 77.079773%)" offset="0.492188"/><stop stop-opacity="1" stop-color="rgb(71.109009%, 41.036987%, 74.911499%)" offset="0.496094"/><stop stop-opacity="1" stop-color="rgb(72.509766%, 41.804504%, 72.744751%)" offset="0.5"/><stop stop-opacity="1" stop-color="rgb(73.908997%, 42.570496%, 70.576477%)" offset="0.503906"/><stop stop-opacity="1" stop-color="rgb(75.309753%, 43.338013%, 68.409729%)" offset="0.507812"/><stop stop-opacity="1" stop-color="rgb(76.71051%, 44.104004%, 66.241455%)" offset="0.511719"/><stop stop-opacity="1" stop-color="rgb(78.111267%, 44.871521%, 64.074707%)" offset="0.515625"/><stop stop-opacity="1" stop-color="rgb(79.512024%, 45.639038%, 61.906433%)" offset="0.519531"/><stop stop-opacity="1" stop-color="rgb(80.912781%, 46.406555%, 59.739685%)" offset="0.523438"/><stop stop-opacity="1" stop-color="rgb(82.312012%, 47.172546%, 57.571411%)" offset="0.527344"/><stop stop-opacity="1" stop-color="rgb(83.712769%, 47.940063%, 55.404663%)" offset="0.53125"/><stop stop-opacity="1" stop-color="rgb(85.113525%, 48.706055%, 53.236389%)" offset="0.535156"/><stop stop-opacity="1" stop-color="rgb(86.514282%, 49.473572%, 51.069641%)" offset="0.539062"/><stop stop-opacity="1" stop-color="rgb(87.915039%, 50.239563%, 48.901367%)" offset="0.542969"/><stop stop-opacity="1" stop-color="rgb(89.315796%, 51.00708%, 46.734619%)" offset="0.546875"/><stop stop-opacity="1" stop-color="rgb(90.715027%, 51.774597%, 44.566345%)" offset="0.550781"/><stop stop-opacity="1" stop-color="rgb(92.115784%, 52.542114%, 42.399597%)" offset="0.554688"/><stop stop-opacity="1" stop-color="rgb(93.516541%, 53.308105%, 40.231323%)" offset="0.558594"/><stop stop-opacity="1" stop-color="rgb(94.917297%, 54.075623%, 38.064575%)" offset="0.5625"/><stop stop-opacity="1" stop-color="rgb(96.316528%, 54.841614%, 35.896301%)" offset="0.566406"/><stop stop-opacity="1" stop-color="rgb(97.717285%, 55.609131%, 33.729553%)" offset="0.570312"/><stop stop-opacity="1" stop-color="rgb(98.858643%, 56.233215%, 31.964111%)" offset="0.574219"/><stop stop-opacity="1" stop-color="rgb(100%, 56.858826%, 30.198669%)" offset="0.578125"/><stop stop-opacity="1" stop-color="rgb(100%, 56.858826%, 30.198669%)" offset="0.59375"/><stop stop-opacity="1" stop-color="rgb(100%, 56.858826%, 30.198669%)" offset="0.625"/><stop stop-opacity="1" stop-color="rgb(100%, 56.858826%, 30.198669%)" offset="0.75"/><stop stop-opacity="1" stop-color="rgb(100%, 56.858826%, 30.198669%)" offset="1"/></linearGradient><clipPath id="dec2ca1204"><rect x="0" width="225" y="0" height="75"/></clipPath><clipPath id="cb95834939"><path d="M 0 0.0195312 L 224.761719 0.0195312 L 224.761719 74.980469 L 0 74.980469 Z M 0 0.0195312 " clip-rule="nonzero"/></clipPath><clipPath id="6a8f10f02c"><rect x="0" width="225" y="0" height="75"/></clipPath><clipPath id="3e1b9ad381"><rect x="0" width="225" y="0" height="75"/></clipPath><mask id="8abadf311e"><g filter="url(#1d4eef1261)"><g transform="matrix(1, 0, 0, 1, 0, -0.000000000000000847)"><g clip-path="url(#3e1b9ad381)"><g clip-path="url(#cb95834939)"><g transform="matrix(1, 0, 0, 1, 0, -0.000000000000000847)"><g clip-path="url(#6a8f10f02c)"><g fill="#000000" fill-opacity="1"><g transform="translate(123.379588, 19.79533)"><g><path d="M -2.46875 13.640625 C -2.46875 15.742188 -2.847656 17.691406 -3.609375 19.484375 C -4.378906 21.285156 -5.421875 22.820312 -6.734375 24.09375 C -9.515625 26.75 -13.015625 28.078125 -17.234375 28.078125 C -19.742188 28.003906 -21.921875 27.421875 -23.765625 26.328125 C -25.648438 25.234375 -26.628906 23.890625 -26.703125 22.296875 C -26.703125 21.441406 -26.140625 20.878906 -25.015625 20.609375 C -24.710938 20.546875 -24.441406 20.515625 -24.203125 20.515625 C -23.296875 20.515625 -22.550781 21.140625 -21.96875 22.390625 C -20.84375 24.753906 -18.929688 25.9375 -16.234375 25.9375 C -13.847656 25.9375 -11.851562 24.953125 -10.25 22.984375 C -8.539062 20.898438 -7.6875 18.148438 -7.6875 14.734375 C -7.6875 10.941406 -8.566406 7.894531 -10.328125 5.59375 C -12.179688 3.175781 -14.703125 1.96875 -17.890625 1.96875 C -20.078125 1.96875 -21.992188 2.800781 -23.640625 4.46875 C -24.359375 5.175781 -24.894531 5.53125 -25.25 5.53125 C -25.988281 5.53125 -26.359375 5.164062 -26.359375 4.4375 C -26.359375 3.71875 -25.648438 2.84375 -24.234375 1.8125 C -21.953125 0.101562 -19.144531 -0.75 -15.8125 -0.75 C -11.820312 -0.75 -8.578125 0.609375 -6.078125 3.328125 C -3.671875 5.972656 -2.46875 9.410156 -2.46875 13.640625 Z M -2.46875 13.640625 "/></g></g></g></g></g></g></g></g></g></mask><clipPath id="a21e04638e"><path d="M 0 0.0195312 L 224.761719 0.0195312 L 224.761719 74.980469 L 0 74.980469 Z M 0 0.0195312 " clip-rule="nonzero"/></clipPath><clipPath id="7d70b2a004"><rect x="0" width="225" y="0" height="75"/></clipPath><clipPath id="b877a03ee2"><rect x="0" width="225" y="0" height="75"/></clipPath><clipPath id="b23c44f67a"><rect x="0" width="225" y="0" height="75"/></clipPath><clipPath id="bf73e6b318"><path d="M 23 0.0195312 L 197 0.0195312 L 197 53 L 23 53 Z M 23 0.0195312 " clip-rule="nonzero"/></clipPath><clipPath id="67dbcfe742"><rect x="0" width="174" y="0" height="53"/></clipPath><clipPath id="5538d84baf"><path d="M 0.140625 1 L 2 1 L 2 4 L 0.140625 4 Z M 0.140625 1 " clip-rule="nonzero"/></clipPath><clipPath id="5e790bfcbc"><path d="M 141 1 L 143.582031 1 L 143.582031 4 L 141 4 Z M 141 1 " clip-rule="nonzero"/></clipPath><clipPath id="156e079c1c"><rect x="0" width="144" y="0" height="8"/></clipPath><clipPath id="5143d48bba"><rect x="0" width="225" y="0" height="75"/></clipPath></defs><g clip-path="url(#92b4663855)"><g transform="matrix(1, 0, 0, 1, 0, -0.000000000000000847)"><g clip-path="url(#5143d48bba)"><g clip-path="url(#e7e50b6eca)"><g transform="matrix(1, 0, 0, 1, 0, -0.000000000000000847)"><g clip-path="url(#2374c2a1a1)"><g clip-path="url(#658a0ed153)"><g transform="matrix(1, 0, 0, 1, 0, -0.000000000000000847)"><g clip-path="url(#af09b20364)"><g clip-path="url(#434165fa3e)"><g mask="url(#97511eab6a)"><g transform="matrix(1, 0, 0, 1, 0, -0.000000000000000847)"><g clip-path="url(#09e3a03424)"><g clip-path="url(#449a392298)"><path fill="url(#306b014290)" d="M 0 0.0195312 L 0 74.980469 L 224.761719 74.980469 L 224.761719 0.0195312 Z M 0 0.0195312 " fill-rule="nonzero"/></g></g></g></g></g></g></g></g></g></g><g transform="matrix(1, 0, 0, 1, 0, -0.000000000000000847)"><g clip-path="url(#b23c44f67a)"><g clip-path="url(#38c56b2d6d)"><g transform="matrix(1, 0, 0, 1, 0, -0.000000000000000847)"><g clip-path="url(#b877a03ee2)"><g clip-path="url(#1cda15d5dd)"><g mask="url(#8abadf311e)"><g transform="matrix(1, 0, 0, 1, 0, -0.000000000000000847)"><g clip-path="url(#7d70b2a004)"><g clip-path="url(#a21e04638e)"><path fill="url(#4c3566f7b7)" d="M 224.761719 74.980469 L 224.761719 0.0195312 L 0 0.0195312 L 0 74.980469 Z M 224.761719 74.980469 " fill-rule="nonzero"/></g></g></g></g></g></g></g></g></g></g></g><g clip-path="url(#bf73e6b318)"><g transform="matrix(1, 0, 0, 1, 23, -0.000000000000000847)"><g clip-path="url(#67dbcfe742)"><g fill="#ffffff" fill-opacity="1"><g transform="translate(0.894014, 38.41964)"><g><path d="M 3.3125 0.375 C 2.226562 0.375 1.6875 0.0664062 1.6875 -0.546875 C 1.6875 -1.023438 1.988281 -1.265625 2.59375 -1.265625 L 3.8125 -1.140625 C 4.8125 -1.140625 5.484375 -1.695312 5.828125 -2.8125 C 6.109375 -3.757812 6.25 -5.457031 6.25 -7.90625 L 6.25 -25.484375 C 6.25 -27.929688 6.132812 -29.53125 5.90625 -30.28125 C 5.675781 -31.039062 5.394531 -31.554688 5.0625 -31.828125 C 4.738281 -32.109375 4.320312 -32.25 3.8125 -32.25 L 2.59375 -32.140625 C 1.988281 -32.140625 1.6875 -32.378906 1.6875 -32.859375 C 1.6875 -33.472656 2.144531 -33.78125 3.0625 -33.78125 C 3.976562 -33.78125 4.847656 -33.710938 5.671875 -33.578125 C 6.492188 -33.453125 7.351562 -33.390625 8.25 -33.390625 C 9.144531 -33.390625 10.003906 -33.453125 10.828125 -33.578125 C 11.648438 -33.710938 12.703125 -33.78125 13.984375 -33.78125 C 15.273438 -33.78125 16.660156 -33.570312 18.140625 -33.15625 C 19.617188 -32.75 20.863281 -32.160156 21.875 -31.390625 C 23.988281 -29.816406 25.046875 -27.722656 25.046875 -25.109375 C 25.046875 -22.222656 23.859375 -19.734375 21.484375 -17.640625 C 20.710938 -16.972656 19.863281 -16.410156 18.9375 -15.953125 L 27.03125 -4.1875 C 27.945312 -2.84375 28.953125 -2.03125 30.046875 -1.75 C 30.367188 -1.664062 30.769531 -1.597656 31.25 -1.546875 C 32.09375 -1.460938 32.515625 -1.179688 32.515625 -0.703125 C 32.515625 -0.234375 32.054688 0 31.140625 0 L 26.359375 0 C 25.210938 0 24.175781 -0.75 23.25 -2.25 L 16.96875 -12.28125 C 16.40625 -13.164062 15.863281 -13.789062 15.34375 -14.15625 C 14.832031 -14.53125 14.039062 -14.71875 12.96875 -14.71875 C 11.894531 -14.71875 10.960938 -14.695312 10.171875 -14.65625 L 10.171875 -7.90625 C 10.171875 -5.394531 10.28125 -3.773438 10.5 -3.046875 C 10.726562 -2.328125 11.003906 -1.828125 11.328125 -1.546875 C 11.648438 -1.273438 12.078125 -1.140625 12.609375 -1.140625 L 13.796875 -1.265625 C 14.398438 -1.265625 14.703125 -1.023438 14.703125 -0.546875 C 14.703125 0.0664062 14.171875 0.375 13.109375 0.375 C 12.554688 0.375 11.972656 0.320312 11.359375 0.21875 C 9.367188 -0.09375 7.660156 -0.144531 6.234375 0.0625 C 4.816406 0.269531 3.84375 0.375 3.3125 0.375 Z M 10.171875 -16.84375 C 11.242188 -16.726562 12.28125 -16.671875 13.28125 -16.671875 L 14.84375 -16.671875 C 16.457031 -16.671875 17.820312 -17.21875 18.9375 -18.3125 C 20.226562 -19.59375 20.875 -21.335938 20.875 -23.546875 C 20.875 -26.203125 20.070312 -28.300781 18.46875 -29.84375 C 16.957031 -31.3125 15.015625 -32.046875 12.640625 -32.046875 C 11.785156 -32.046875 11.160156 -31.925781 10.765625 -31.6875 C 10.367188 -31.457031 10.171875 -31.0625 10.171875 -30.5 Z M 10.171875 -16.84375 "/></g></g></g><g fill="#ffffff" fill-opacity="1"><g transform="translate(33.331246, 38.41964)"><g><path d="M 24.71875 -3.34375 C 25.195312 -3.34375 25.4375 -3.117188 25.4375 -2.671875 C 25.4375 -2.234375 24.953125 -1.816406 23.984375 -1.421875 C 23.023438 -1.023438 22.351562 -0.660156 21.96875 -0.328125 C 21.59375 -0.00390625 21.3125 0.234375 21.125 0.390625 C 20.945312 0.546875 20.734375 0.625 20.484375 0.625 C 19.984375 0.625 19.566406 0.414062 19.234375 0 C 18.898438 -0.414062 18.453125 -1.304688 17.890625 -2.671875 C 16.941406 -1.585938 15.789062 -0.765625 14.4375 -0.203125 C 13.082031 0.347656 11.742188 0.625 10.421875 0.625 C 7.910156 0.625 5.960938 -0.015625 4.578125 -1.296875 C 3.203125 -2.578125 2.515625 -4.328125 2.515625 -6.546875 C 2.515625 -8.773438 3.554688 -10.582031 5.640625 -11.96875 C 7.722656 -13.351562 10.382812 -14.046875 13.625 -14.046875 C 14.59375 -14.046875 15.863281 -13.882812 17.4375 -13.5625 L 17.4375 -15.5 C 17.4375 -19.769531 15.632812 -21.90625 12.03125 -21.90625 C 10.125 -21.90625 8.722656 -21.023438 7.828125 -19.265625 C 7.046875 -17.679688 6.28125 -16.890625 5.53125 -16.890625 C 4.976562 -16.890625 4.5 -17.046875 4.09375 -17.359375 C 3.6875 -17.679688 3.484375 -18.082031 3.484375 -18.5625 C 3.484375 -19.039062 3.734375 -19.578125 4.234375 -20.171875 C 4.734375 -20.765625 5.398438 -21.300781 6.234375 -21.78125 C 8.191406 -22.925781 10.34375 -23.5 12.6875 -23.5 C 16.832031 -23.5 19.515625 -22.144531 20.734375 -19.4375 C 21.179688 -18.46875 21.40625 -17.285156 21.40625 -15.890625 L 21.40625 -5.953125 C 21.40625 -4.671875 21.53125 -3.847656 21.78125 -3.484375 C 22.03125 -3.117188 22.378906 -2.9375 22.828125 -2.9375 C 23.273438 -2.9375 23.640625 -3.003906 23.921875 -3.140625 C 24.203125 -3.273438 24.46875 -3.34375 24.71875 -3.34375 Z M 17.4375 -11.234375 C 16.238281 -11.921875 14.726562 -12.265625 12.90625 -12.265625 C 11.082031 -12.265625 9.617188 -11.804688 8.515625 -10.890625 C 7.410156 -9.972656 6.859375 -8.742188 6.859375 -7.203125 C 6.859375 -5.671875 7.28125 -4.394531 8.125 -3.375 C 8.96875 -2.351562 10.054688 -1.84375 11.390625 -1.84375 C 14.222656 -1.84375 16.265625 -2.773438 17.515625 -4.640625 C 17.460938 -5.097656 17.4375 -5.609375 17.4375 -6.171875 Z M 17.4375 -11.234375 "/></g></g></g><g fill="#ffffff" fill-opacity="1"><g transform="translate(59.069575, 38.41964)"><g/></g></g><g fill="#ffffff" fill-opacity="1"><g transform="translate(72.149104, 38.41964)"><g/></g></g><g fill="#ffffff" fill-opacity="1"><g transform="translate(85.228634, 38.41964)"><g/></g></g><g fill="#ffffff" fill-opacity="1"><g transform="translate(98.313857, 38.41964)"><g><path d="M 1.890625 -11.0625 C 1.890625 -12.675781 2.179688 -14.238281 2.765625 -15.75 C 3.347656 -17.257812 4.171875 -18.585938 5.234375 -19.734375 C 7.554688 -22.242188 10.453125 -23.5 13.921875 -23.5 C 17.773438 -23.5 20.742188 -22.34375 22.828125 -20.03125 C 24.703125 -17.9375 25.640625 -15.222656 25.640625 -11.890625 C 25.640625 -8.515625 24.519531 -5.597656 22.28125 -3.140625 C 19.988281 -0.628906 17.097656 0.625 13.609375 0.625 C 9.753906 0.625 6.796875 -0.53125 4.734375 -2.84375 C 2.835938 -4.9375 1.890625 -7.675781 1.890625 -11.0625 Z M 6.109375 -12.109375 C 6.109375 -10.484375 6.332031 -8.960938 6.78125 -7.546875 C 7.226562 -6.140625 7.84375 -4.96875 8.625 -4.03125 C 10.164062 -2.144531 12.117188 -1.203125 14.484375 -1.203125 C 16.566406 -1.203125 18.265625 -2.03125 19.578125 -3.6875 C 20.941406 -5.414062 21.625 -7.640625 21.625 -10.359375 C 21.625 -13.960938 20.796875 -16.789062 19.140625 -18.84375 C 17.578125 -20.71875 15.613281 -21.65625 13.25 -21.65625 C 11.15625 -21.65625 9.453125 -20.820312 8.140625 -19.15625 C 6.785156 -17.425781 6.109375 -15.078125 6.109375 -12.109375 Z M 6.109375 -12.109375 "/></g></g></g><g fill="#ffffff" fill-opacity="1"><g transform="translate(125.693671, 38.41964)"><g><path d="M 2.921875 0.375 C 1.804688 0.375 1.25 0.0664062 1.25 -0.546875 C 1.25 -1.023438 1.554688 -1.265625 2.171875 -1.265625 L 3.40625 -1.140625 C 3.789062 -1.140625 4.109375 -1.207031 4.359375 -1.34375 C 4.609375 -1.488281 4.800781 -1.796875 4.9375 -2.265625 C 5.195312 -3.109375 5.328125 -4.988281 5.328125 -7.90625 L 5.328125 -15.34375 C 5.328125 -17.039062 5.222656 -18.097656 5.015625 -18.515625 C 4.804688 -18.941406 4.554688 -19.234375 4.265625 -19.390625 C 3.984375 -19.554688 3.515625 -19.6875 2.859375 -19.78125 C 2.203125 -19.882812 1.875 -20.144531 1.875 -20.5625 C 1.875 -20.9375 2.296875 -21.207031 3.140625 -21.375 C 5.117188 -21.789062 6.476562 -22.207031 7.21875 -22.625 C 8.238281 -23.207031 8.9375 -23.5 9.3125 -23.5 C 9.6875 -23.5 9.875 -23.304688 9.875 -22.921875 C 9.875 -22.742188 9.832031 -22.550781 9.75 -22.34375 C 9.675781 -22.144531 9.597656 -21.90625 9.515625 -21.625 C 9.378906 -21.0625 9.28125 -20 9.21875 -18.4375 C 10.664062 -20.863281 12.410156 -22.375 14.453125 -22.96875 C 15.046875 -23.15625 15.710938 -23.25 16.453125 -23.25 C 17.191406 -23.25 17.847656 -22.984375 18.421875 -22.453125 C 18.992188 -21.921875 19.28125 -21.351562 19.28125 -20.75 C 19.28125 -20.15625 19.210938 -19.71875 19.078125 -19.4375 C 18.953125 -19.15625 18.789062 -18.914062 18.59375 -18.71875 C 18.15625 -18.28125 17.765625 -18.0625 17.421875 -18.0625 C 17.085938 -18.0625 16.828125 -18.148438 16.640625 -18.328125 C 16.460938 -18.503906 16.253906 -18.820312 16.015625 -19.28125 C 15.609375 -20.113281 15.144531 -20.53125 14.625 -20.53125 C 14.113281 -20.53125 13.625 -20.414062 13.15625 -20.1875 C 12.6875 -19.96875 12.222656 -19.632812 11.765625 -19.1875 C 10.742188 -18.238281 9.882812 -16.953125 9.1875 -15.328125 L 9.1875 -7.90625 C 9.1875 -4.75 9.273438 -2.890625 9.453125 -2.328125 C 9.628906 -1.773438 9.84375 -1.441406 10.09375 -1.328125 C 10.351562 -1.222656 10.707031 -1.171875 11.15625 -1.171875 L 13.375 -1.375 C 13.707031 -1.375 13.972656 -1.289062 14.171875 -1.125 C 14.378906 -0.96875 14.484375 -0.773438 14.484375 -0.546875 C 14.484375 0.0664062 13.875 0.375 12.65625 0.375 L 7.40625 0 C 6.550781 0 5.742188 0.0625 4.984375 0.1875 C 4.234375 0.3125 3.546875 0.375 2.921875 0.375 Z M 2.921875 0.375 "/></g></g></g><g fill="#ffffff" fill-opacity="1"><g transform="translate(145.449989, 38.41964)"><g><path d="M 19.765625 -2.21875 C 17.984375 -0.320312 15.648438 0.625 12.765625 0.625 C 9.367188 0.625 6.691406 -0.546875 4.734375 -2.890625 C 2.921875 -5.078125 2.015625 -7.867188 2.015625 -11.265625 C 2.015625 -14.648438 3.128906 -17.53125 5.359375 -19.90625 C 7.597656 -22.300781 10.390625 -23.5 13.734375 -23.5 C 15.921875 -23.5 17.753906 -23.082031 19.234375 -22.25 L 19.234375 -27.515625 C 19.234375 -29.066406 19.109375 -30.078125 18.859375 -30.546875 C 18.609375 -31.023438 18.34375 -31.347656 18.0625 -31.515625 C 17.78125 -31.679688 17.328125 -31.8125 16.703125 -31.90625 C 16.078125 -32.007812 15.765625 -32.269531 15.765625 -32.6875 C 15.765625 -33.070312 16.191406 -33.347656 17.046875 -33.515625 C 19.035156 -33.929688 20.40625 -34.351562 21.15625 -34.78125 C 22.164062 -35.34375 22.847656 -35.625 23.203125 -35.625 C 23.578125 -35.625 23.765625 -35.4375 23.765625 -35.0625 C 23.765625 -34.875 23.734375 -34.679688 23.671875 -34.484375 C 23.328125 -33.585938 23.144531 -32.445312 23.125 -31.0625 C 23.101562 -29.6875 23.09375 -28.566406 23.09375 -27.703125 L 23.09375 -7.296875 C 23.09375 -5.472656 23.203125 -4.296875 23.421875 -3.765625 C 23.640625 -3.234375 23.851562 -2.882812 24.0625 -2.71875 C 24.28125 -2.5625 24.539062 -2.484375 24.84375 -2.484375 L 26.34375 -2.8125 C 26.820312 -2.8125 27.0625 -2.597656 27.0625 -2.171875 C 27.0625 -1.921875 26.957031 -1.710938 26.75 -1.546875 C 26.539062 -1.378906 26.1875 -1.1875 25.6875 -0.96875 C 25.1875 -0.75 24.769531 -0.523438 24.4375 -0.296875 C 24.113281 -0.0664062 23.828125 0.144531 23.578125 0.34375 C 23.003906 0.832031 22.5625 1.078125 22.25 1.078125 C 21.164062 1.078125 20.335938 -0.0195312 19.765625 -2.21875 Z M 19.234375 -18.53125 C 17.722656 -20.59375 15.628906 -21.625 12.953125 -21.625 C 10.941406 -21.625 9.332031 -20.851562 8.125 -19.3125 C 6.820312 -17.6875 6.171875 -15.460938 6.171875 -12.640625 C 6.171875 -9.347656 7.015625 -6.710938 8.703125 -4.734375 C 10.253906 -2.867188 12.117188 -1.9375 14.296875 -1.9375 C 16.503906 -1.9375 18.191406 -2.71875 19.359375 -4.28125 C 19.273438 -4.894531 19.234375 -5.609375 19.234375 -6.421875 Z M 19.234375 -18.53125 "/></g></g></g></g></g></g><g transform="matrix(1, 0, 0, 1, 38, 65)"><g clip-path="url(#156e079c1c)"><g clip-path="url(#5538d84baf)"><g fill="#ffffff" fill-opacity="1"><g transform="translate(0.226233, 5.834322)"><g><path d="M 0.640625 -2.703125 L 0.203125 -2.703125 L 0.109375 -4.015625 L 0.6875 -4.015625 Z M 1.5 -2.703125 L 1.0625 -2.703125 L 1.03125 -4.015625 L 1.625 -4.015625 Z M 1.5 -2.703125 "/></g></g></g></g><g fill="#ffffff" fill-opacity="1"><g transform="translate(1.881374, 5.834322)"><g><path d="M 0 0 Z M 0 0 "/></g></g></g><g fill="#ffffff" fill-opacity="1"><g transform="translate(1.881374, 5.834322)"><g><path d="M 0.28125 -3.859375 L 1.546875 -3.859375 L 1.546875 -3.421875 L 1.140625 -3.421875 L 1.140625 -1.625 C 1.140625 -1.40625 1.164062 -1.21875 1.21875 -1.0625 C 1.269531 -0.914062 1.335938 -0.796875 1.421875 -0.703125 C 1.503906 -0.609375 1.601562 -0.535156 1.71875 -0.484375 C 1.84375 -0.441406 1.972656 -0.421875 2.109375 -0.421875 C 2.253906 -0.421875 2.390625 -0.441406 2.515625 -0.484375 C 2.640625 -0.523438 2.742188 -0.585938 2.828125 -0.671875 C 2.921875 -0.765625 2.988281 -0.890625 3.03125 -1.046875 C 3.082031 -1.203125 3.109375 -1.394531 3.109375 -1.625 L 3.109375 -3.421875 L 2.6875 -3.421875 L 2.6875 -3.859375 L 3.9375 -3.859375 L 3.9375 -3.421875 L 3.59375 -3.421875 L 3.59375 -1.671875 C 3.59375 -1.398438 3.550781 -1.15625 3.46875 -0.9375 C 3.394531 -0.71875 3.289062 -0.535156 3.15625 -0.390625 C 3.03125 -0.242188 2.875 -0.132812 2.6875 -0.0625 C 2.507812 0.0078125 2.316406 0.046875 2.109375 0.046875 C 1.898438 0.046875 1.707031 0.0078125 1.53125 -0.0625 C 1.351562 -0.132812 1.195312 -0.242188 1.0625 -0.390625 C 0.9375 -0.535156 0.832031 -0.710938 0.75 -0.921875 C 0.675781 -1.128906 0.640625 -1.367188 0.640625 -1.640625 L 0.640625 -3.421875 L 0.28125 -3.421875 Z M 0.28125 -3.859375 "/></g></g></g><g fill="#ffffff" fill-opacity="1"><g transform="translate(5.822179, 5.834322)"><g><path d="M 2 -0.4375 L 2.359375 -0.4375 L 2.359375 -1.640625 C 2.359375 -1.847656 2.304688 -2.003906 2.203125 -2.109375 C 2.109375 -2.210938 1.960938 -2.265625 1.765625 -2.265625 C 1.660156 -2.265625 1.550781 -2.238281 1.4375 -2.1875 C 1.320312 -2.132812 1.210938 -2.066406 1.109375 -1.984375 L 1.109375 -0.4375 L 1.484375 -0.4375 L 1.484375 0 L 0.25 0 L 0.25 -0.4375 L 0.625 -0.4375 L 0.625 -2.203125 L 0.25 -2.203125 L 0.25 -2.640625 L 1.09375 -2.640625 L 1.09375 -2.328125 C 1.15625 -2.378906 1.21875 -2.425781 1.28125 -2.46875 C 1.34375 -2.507812 1.40625 -2.546875 1.46875 -2.578125 C 1.539062 -2.609375 1.613281 -2.632812 1.6875 -2.65625 C 1.769531 -2.675781 1.851562 -2.6875 1.9375 -2.6875 C 2.070312 -2.6875 2.195312 -2.664062 2.3125 -2.625 C 2.425781 -2.59375 2.523438 -2.535156 2.609375 -2.453125 C 2.691406 -2.367188 2.753906 -2.265625 2.796875 -2.140625 C 2.835938 -2.015625 2.859375 -1.867188 2.859375 -1.703125 L 2.859375 -0.4375 L 3.21875 -0.4375 L 3.21875 0 L 2 0 Z M 2 -0.4375 "/></g></g></g><g fill="#ffffff" fill-opacity="1"><g transform="translate(9.295173, 5.834322)"><g><path d="M 0.234375 -2.640625 L 1.09375 -2.640625 L 1.09375 -0.4375 L 1.5 -0.4375 L 1.5 0 L 0.234375 0 L 0.234375 -0.4375 L 0.609375 -0.4375 L 0.609375 -2.203125 L 0.234375 -2.203125 Z M 0.53125 -3.578125 C 0.53125 -3.617188 0.535156 -3.660156 0.546875 -3.703125 C 0.566406 -3.742188 0.59375 -3.773438 0.625 -3.796875 C 0.65625 -3.828125 0.691406 -3.851562 0.734375 -3.875 C 0.773438 -3.894531 0.816406 -3.90625 0.859375 -3.90625 C 0.898438 -3.90625 0.941406 -3.894531 0.984375 -3.875 C 1.023438 -3.851562 1.0625 -3.828125 1.09375 -3.796875 C 1.125 -3.773438 1.144531 -3.742188 1.15625 -3.703125 C 1.175781 -3.660156 1.1875 -3.617188 1.1875 -3.578125 C 1.1875 -3.523438 1.175781 -3.476562 1.15625 -3.4375 C 1.144531 -3.40625 1.125 -3.375 1.09375 -3.34375 C 1.0625 -3.3125 1.023438 -3.285156 0.984375 -3.265625 C 0.941406 -3.242188 0.898438 -3.234375 0.859375 -3.234375 C 0.816406 -3.234375 0.773438 -3.242188 0.734375 -3.265625 C 0.691406 -3.285156 0.65625 -3.3125 0.625 -3.34375 C 0.59375 -3.375 0.566406 -3.40625 0.546875 -3.4375 C 0.535156 -3.476562 0.53125 -3.523438 0.53125 -3.578125 Z M 0.53125 -3.578125 "/></g></g></g><g fill="#ffffff" fill-opacity="1"><g transform="translate(10.965568, 5.834322)"><g><path d="M 0.703125 -1.265625 C 0.703125 -1.179688 0.707031 -1.109375 0.71875 -1.046875 C 0.726562 -0.984375 0.742188 -0.925781 0.765625 -0.875 C 0.828125 -0.707031 0.925781 -0.578125 1.0625 -0.484375 C 1.207031 -0.398438 1.367188 -0.359375 1.546875 -0.359375 C 1.679688 -0.359375 1.8125 -0.378906 1.9375 -0.421875 C 2.070312 -0.460938 2.207031 -0.519531 2.34375 -0.59375 L 2.546875 -0.28125 C 2.367188 -0.15625 2.191406 -0.0625 2.015625 0 C 1.835938 0.0507812 1.65625 0.078125 1.46875 0.078125 C 1.289062 0.078125 1.125 0.046875 0.96875 -0.015625 C 0.820312 -0.078125 0.691406 -0.164062 0.578125 -0.28125 C 0.472656 -0.394531 0.390625 -0.539062 0.328125 -0.71875 C 0.265625 -0.894531 0.234375 -1.097656 0.234375 -1.328125 C 0.234375 -1.515625 0.257812 -1.691406 0.3125 -1.859375 C 0.363281 -2.023438 0.441406 -2.171875 0.546875 -2.296875 C 0.648438 -2.421875 0.78125 -2.519531 0.9375 -2.59375 C 1.09375 -2.664062 1.273438 -2.703125 1.484375 -2.703125 C 1.679688 -2.703125 1.84375 -2.671875 1.96875 -2.609375 C 2.101562 -2.554688 2.210938 -2.476562 2.296875 -2.375 C 2.378906 -2.28125 2.441406 -2.164062 2.484375 -2.03125 C 2.535156 -1.90625 2.566406 -1.78125 2.578125 -1.65625 C 2.585938 -1.582031 2.59375 -1.515625 2.59375 -1.453125 C 2.601562 -1.390625 2.609375 -1.328125 2.609375 -1.265625 Z M 1.4375 -2.3125 C 1.332031 -2.3125 1.238281 -2.296875 1.15625 -2.265625 C 1.070312 -2.234375 1 -2.1875 0.9375 -2.125 C 0.882812 -2.070312 0.835938 -2 0.796875 -1.90625 C 0.765625 -1.820312 0.742188 -1.726562 0.734375 -1.625 L 2.09375 -1.625 C 2.09375 -1.726562 2.078125 -1.820312 2.046875 -1.90625 C 2.023438 -1.988281 1.988281 -2.054688 1.9375 -2.109375 C 1.882812 -2.171875 1.816406 -2.21875 1.734375 -2.25 C 1.660156 -2.289062 1.5625 -2.3125 1.4375 -2.3125 Z M 1.4375 -2.3125 "/></g></g></g><g fill="#ffffff" fill-opacity="1"><g transform="translate(13.952955, 5.834322)"><g><path d="M 2 -0.4375 L 2.359375 -0.4375 L 2.359375 -1.640625 C 2.359375 -1.847656 2.304688 -2.003906 2.203125 -2.109375 C 2.109375 -2.210938 1.960938 -2.265625 1.765625 -2.265625 C 1.660156 -2.265625 1.550781 -2.238281 1.4375 -2.1875 C 1.320312 -2.132812 1.210938 -2.066406 1.109375 -1.984375 L 1.109375 -0.4375 L 1.484375 -0.4375 L 1.484375 0 L 0.25 0 L 0.25 -0.4375 L 0.625 -0.4375 L 0.625 -2.203125 L 0.25 -2.203125 L 0.25 -2.640625 L 1.09375 -2.640625 L 1.09375 -2.328125 C 1.15625 -2.378906 1.21875 -2.425781 1.28125 -2.46875 C 1.34375 -2.507812 1.40625 -2.546875 1.46875 -2.578125 C 1.539062 -2.609375 1.613281 -2.632812 1.6875 -2.65625 C 1.769531 -2.675781 1.851562 -2.6875 1.9375 -2.6875 C 2.070312 -2.6875 2.195312 -2.664062 2.3125 -2.625 C 2.425781 -2.59375 2.523438 -2.535156 2.609375 -2.453125 C 2.691406 -2.367188 2.753906 -2.265625 2.796875 -2.140625 C 2.835938 -2.015625 2.859375 -1.867188 2.859375 -1.703125 L 2.859375 -0.4375 L 3.21875 -0.4375 L 3.21875 0 L 2 0 Z M 2 -0.4375 "/></g></g></g><g fill="#ffffff" fill-opacity="1"><g transform="translate(17.425949, 5.834322)"><g><path d="M 1.8125 -3.96875 L 2.640625 -3.96875 L 2.640625 -0.4375 L 3.03125 -0.4375 L 3.03125 0 L 2.171875 0 L 2.171875 -0.21875 C 2.085938 -0.132812 1.988281 -0.0664062 1.875 -0.015625 C 1.757812 0.0351562 1.632812 0.0625 1.5 0.0625 C 1.3125 0.0625 1.140625 0.03125 0.984375 -0.03125 C 0.835938 -0.09375 0.707031 -0.179688 0.59375 -0.296875 C 0.476562 -0.421875 0.390625 -0.570312 0.328125 -0.75 C 0.265625 -0.925781 0.234375 -1.125 0.234375 -1.34375 C 0.234375 -1.550781 0.265625 -1.738281 0.328125 -1.90625 C 0.390625 -2.070312 0.472656 -2.210938 0.578125 -2.328125 C 0.691406 -2.441406 0.828125 -2.53125 0.984375 -2.59375 C 1.148438 -2.664062 1.328125 -2.703125 1.515625 -2.703125 C 1.640625 -2.703125 1.753906 -2.6875 1.859375 -2.65625 C 1.972656 -2.632812 2.078125 -2.585938 2.171875 -2.515625 L 2.171875 -3.53125 L 1.8125 -3.53125 Z M 1.546875 -0.359375 C 1.691406 -0.359375 1.8125 -0.378906 1.90625 -0.421875 C 2 -0.460938 2.085938 -0.523438 2.171875 -0.609375 L 2.171875 -2.078125 C 2.085938 -2.148438 1.988281 -2.203125 1.875 -2.234375 C 1.769531 -2.265625 1.660156 -2.28125 1.546875 -2.28125 C 1.429688 -2.28125 1.320312 -2.257812 1.21875 -2.21875 C 1.125 -2.175781 1.039062 -2.113281 0.96875 -2.03125 C 0.894531 -1.957031 0.832031 -1.863281 0.78125 -1.75 C 0.738281 -1.632812 0.71875 -1.5 0.71875 -1.34375 C 0.71875 -1.1875 0.738281 -1.046875 0.78125 -0.921875 C 0.820312 -0.796875 0.878906 -0.691406 0.953125 -0.609375 C 1.023438 -0.523438 1.113281 -0.460938 1.21875 -0.421875 C 1.320312 -0.378906 1.429688 -0.359375 1.546875 -0.359375 Z M 1.546875 -0.359375 "/></g></g></g><g fill="#ffffff" fill-opacity="1"><g transform="translate(20.649782, 5.834322)"><g><path d="M 0.21875 -1.3125 C 0.21875 -1.53125 0.25 -1.722656 0.3125 -1.890625 C 0.382812 -2.054688 0.476562 -2.203125 0.59375 -2.328125 C 0.707031 -2.453125 0.84375 -2.546875 1 -2.609375 C 1.164062 -2.679688 1.347656 -2.71875 1.546875 -2.71875 C 1.742188 -2.71875 1.921875 -2.679688 2.078125 -2.609375 C 2.242188 -2.546875 2.382812 -2.453125 2.5 -2.328125 C 2.613281 -2.210938 2.703125 -2.066406 2.765625 -1.890625 C 2.828125 -1.722656 2.859375 -1.535156 2.859375 -1.328125 C 2.859375 -1.117188 2.828125 -0.925781 2.765625 -0.75 C 2.703125 -0.582031 2.613281 -0.4375 2.5 -0.3125 C 2.382812 -0.1875 2.242188 -0.0859375 2.078125 -0.015625 C 1.921875 0.046875 1.742188 0.078125 1.546875 0.078125 C 1.347656 0.078125 1.164062 0.046875 1 -0.015625 C 0.84375 -0.0859375 0.707031 -0.1875 0.59375 -0.3125 C 0.476562 -0.4375 0.382812 -0.582031 0.3125 -0.75 C 0.25 -0.925781 0.21875 -1.113281 0.21875 -1.3125 Z M 0.71875 -1.3125 C 0.71875 -1.164062 0.738281 -1.03125 0.78125 -0.90625 C 0.820312 -0.78125 0.878906 -0.675781 0.953125 -0.59375 C 1.035156 -0.507812 1.125 -0.441406 1.21875 -0.390625 C 1.320312 -0.347656 1.429688 -0.328125 1.546875 -0.328125 C 1.660156 -0.328125 1.765625 -0.347656 1.859375 -0.390625 C 1.960938 -0.441406 2.050781 -0.507812 2.125 -0.59375 C 2.207031 -0.675781 2.269531 -0.78125 2.3125 -0.90625 C 2.351562 -1.03125 2.375 -1.164062 2.375 -1.3125 C 2.375 -1.476562 2.351562 -1.625 2.3125 -1.75 C 2.269531 -1.875 2.210938 -1.976562 2.140625 -2.0625 C 2.066406 -2.144531 1.976562 -2.207031 1.875 -2.25 C 1.769531 -2.289062 1.660156 -2.3125 1.546875 -2.3125 C 1.429688 -2.3125 1.320312 -2.289062 1.21875 -2.25 C 1.125 -2.207031 1.035156 -2.144531 0.953125 -2.0625 C 0.878906 -1.976562 0.820312 -1.875 0.78125 -1.75 C 0.738281 -1.625 0.71875 -1.476562 0.71875 -1.3125 Z M 0.71875 -1.3125 "/></g></g></g><g fill="#ffffff" fill-opacity="1"><g transform="translate(23.764292, 5.834322)"><g><path d="M 0 0 Z M 0 0 "/></g></g></g><g fill="#ffffff" fill-opacity="1"><g transform="translate(24.903312, 5.834322)"><g><path d="M 0.359375 -3.859375 L 1.921875 -3.859375 C 2.097656 -3.859375 2.257812 -3.835938 2.40625 -3.796875 C 2.550781 -3.753906 2.675781 -3.6875 2.78125 -3.59375 C 2.882812 -3.507812 2.960938 -3.398438 3.015625 -3.265625 C 3.078125 -3.140625 3.109375 -2.988281 3.109375 -2.8125 C 3.109375 -2.675781 3.078125 -2.546875 3.015625 -2.421875 C 2.960938 -2.296875 2.882812 -2.1875 2.78125 -2.09375 C 2.675781 -2 2.550781 -1.921875 2.40625 -1.859375 C 2.257812 -1.804688 2.097656 -1.78125 1.921875 -1.78125 L 1.234375 -1.78125 L 1.234375 -0.4375 L 1.625 -0.4375 L 1.625 0 L 0.359375 0 L 0.359375 -0.4375 L 0.734375 -0.4375 L 0.734375 -3.421875 L 0.359375 -3.421875 Z M 1.234375 -3.421875 L 1.234375 -2.203125 L 1.921875 -2.203125 C 2.023438 -2.203125 2.113281 -2.210938 2.1875 -2.234375 C 2.269531 -2.265625 2.335938 -2.304688 2.390625 -2.359375 C 2.453125 -2.410156 2.5 -2.472656 2.53125 -2.546875 C 2.570312 -2.628906 2.59375 -2.71875 2.59375 -2.8125 C 2.59375 -3.007812 2.535156 -3.160156 2.421875 -3.265625 C 2.304688 -3.367188 2.117188 -3.421875 1.859375 -3.421875 Z M 1.234375 -3.421875 "/></g></g></g><g fill="#ffffff" fill-opacity="1"><g transform="translate(28.137315, 5.834322)"><g><path d="M 2.15625 -2.078125 L 1.671875 -2.078125 L 1.671875 -2.25 C 1.609375 -2.25 1.546875 -2.238281 1.484375 -2.21875 C 1.429688 -2.195312 1.378906 -2.160156 1.328125 -2.109375 C 1.273438 -2.066406 1.226562 -2.007812 1.1875 -1.9375 C 1.15625 -1.875 1.128906 -1.800781 1.109375 -1.71875 L 1.109375 -0.4375 L 1.5625 -0.4375 L 1.5625 0 L 0.25 0 L 0.25 -0.4375 L 0.625 -0.4375 L 0.625 -2.203125 L 0.25 -2.203125 L 0.25 -2.640625 L 1.09375 -2.640625 L 1.09375 -2.28125 C 1.125 -2.332031 1.160156 -2.378906 1.203125 -2.421875 C 1.242188 -2.472656 1.285156 -2.515625 1.328125 -2.546875 C 1.378906 -2.585938 1.429688 -2.613281 1.484375 -2.625 C 1.535156 -2.644531 1.597656 -2.65625 1.671875 -2.65625 C 1.753906 -2.65625 1.832031 -2.65625 1.90625 -2.65625 C 1.988281 -2.65625 2.070312 -2.65625 2.15625 -2.65625 Z M 2.15625 -2.078125 "/></g></g></g><g fill="#ffffff" fill-opacity="1"><g transform="translate(30.578071, 5.834322)"><g><path d="M 0.21875 -1.3125 C 0.21875 -1.53125 0.25 -1.722656 0.3125 -1.890625 C 0.382812 -2.054688 0.476562 -2.203125 0.59375 -2.328125 C 0.707031 -2.453125 0.84375 -2.546875 1 -2.609375 C 1.164062 -2.679688 1.347656 -2.71875 1.546875 -2.71875 C 1.742188 -2.71875 1.921875 -2.679688 2.078125 -2.609375 C 2.242188 -2.546875 2.382812 -2.453125 2.5 -2.328125 C 2.613281 -2.210938 2.703125 -2.066406 2.765625 -1.890625 C 2.828125 -1.722656 2.859375 -1.535156 2.859375 -1.328125 C 2.859375 -1.117188 2.828125 -0.925781 2.765625 -0.75 C 2.703125 -0.582031 2.613281 -0.4375 2.5 -0.3125 C 2.382812 -0.1875 2.242188 -0.0859375 2.078125 -0.015625 C 1.921875 0.046875 1.742188 0.078125 1.546875 0.078125 C 1.347656 0.078125 1.164062 0.046875 1 -0.015625 C 0.84375 -0.0859375 0.707031 -0.1875 0.59375 -0.3125 C 0.476562 -0.4375 0.382812 -0.582031 0.3125 -0.75 C 0.25 -0.925781 0.21875 -1.113281 0.21875 -1.3125 Z M 0.71875 -1.3125 C 0.71875 -1.164062 0.738281 -1.03125 0.78125 -0.90625 C 0.820312 -0.78125 0.878906 -0.675781 0.953125 -0.59375 C 1.035156 -0.507812 1.125 -0.441406 1.21875 -0.390625 C 1.320312 -0.347656 1.429688 -0.328125 1.546875 -0.328125 C 1.660156 -0.328125 1.765625 -0.347656 1.859375 -0.390625 C 1.960938 -0.441406 2.050781 -0.507812 2.125 -0.59375 C 2.207031 -0.675781 2.269531 -0.78125 2.3125 -0.90625 C 2.351562 -1.03125 2.375 -1.164062 2.375 -1.3125 C 2.375 -1.476562 2.351562 -1.625 2.3125 -1.75 C 2.269531 -1.875 2.210938 -1.976562 2.140625 -2.0625 C 2.066406 -2.144531 1.976562 -2.207031 1.875 -2.25 C 1.769531 -2.289062 1.660156 -2.3125 1.546875 -2.3125 C 1.429688 -2.3125 1.320312 -2.289062 1.21875 -2.25 C 1.125 -2.207031 1.035156 -2.144531 0.953125 -2.0625 C 0.878906 -1.976562 0.820312 -1.875 0.78125 -1.75 C 0.738281 -1.625 0.71875 -1.476562 0.71875 -1.3125 Z M 0.71875 -1.3125 "/></g></g></g><g fill="#ffffff" fill-opacity="1"><g transform="translate(33.692581, 5.834322)"><g><path d="M 1.8125 -3.96875 L 2.640625 -3.96875 L 2.640625 -0.4375 L 3.03125 -0.4375 L 3.03125 0 L 2.171875 0 L 2.171875 -0.21875 C 2.085938 -0.132812 1.988281 -0.0664062 1.875 -0.015625 C 1.757812 0.0351562 1.632812 0.0625 1.5 0.0625 C 1.3125 0.0625 1.140625 0.03125 0.984375 -0.03125 C 0.835938 -0.09375 0.707031 -0.179688 0.59375 -0.296875 C 0.476562 -0.421875 0.390625 -0.570312 0.328125 -0.75 C 0.265625 -0.925781 0.234375 -1.125 0.234375 -1.34375 C 0.234375 -1.550781 0.265625 -1.738281 0.328125 -1.90625 C 0.390625 -2.070312 0.472656 -2.210938 0.578125 -2.328125 C 0.691406 -2.441406 0.828125 -2.53125 0.984375 -2.59375 C 1.148438 -2.664062 1.328125 -2.703125 1.515625 -2.703125 C 1.640625 -2.703125 1.753906 -2.6875 1.859375 -2.65625 C 1.972656 -2.632812 2.078125 -2.585938 2.171875 -2.515625 L 2.171875 -3.53125 L 1.8125 -3.53125 Z M 1.546875 -0.359375 C 1.691406 -0.359375 1.8125 -0.378906 1.90625 -0.421875 C 2 -0.460938 2.085938 -0.523438 2.171875 -0.609375 L 2.171875 -2.078125 C 2.085938 -2.148438 1.988281 -2.203125 1.875 -2.234375 C 1.769531 -2.265625 1.660156 -2.28125 1.546875 -2.28125 C 1.429688 -2.28125 1.320312 -2.257812 1.21875 -2.21875 C 1.125 -2.175781 1.039062 -2.113281 0.96875 -2.03125 C 0.894531 -1.957031 0.832031 -1.863281 0.78125 -1.75 C 0.738281 -1.632812 0.71875 -1.5 0.71875 -1.34375 C 0.71875 -1.1875 0.738281 -1.046875 0.78125 -0.921875 C 0.820312 -0.796875 0.878906 -0.691406 0.953125 -0.609375 C 1.023438 -0.523438 1.113281 -0.460938 1.21875 -0.421875 C 1.320312 -0.378906 1.429688 -0.359375 1.546875 -0.359375 Z M 1.546875 -0.359375 "/></g></g></g><g fill="#ffffff" fill-opacity="1"><g transform="translate(36.916414, 5.834322)"><g><path d="M 1.84375 -2.640625 L 2.703125 -2.640625 L 2.703125 -0.4375 L 2.984375 -0.4375 L 2.984375 0 L 2.21875 0 L 2.21875 -0.25 C 2.101562 -0.15625 1.972656 -0.0820312 1.828125 -0.03125 C 1.691406 0.0195312 1.539062 0.046875 1.375 0.046875 C 1.25 0.046875 1.128906 0.03125 1.015625 0 C 0.910156 -0.0390625 0.816406 -0.101562 0.734375 -0.1875 C 0.660156 -0.269531 0.601562 -0.375 0.5625 -0.5 C 0.53125 -0.625 0.515625 -0.769531 0.515625 -0.9375 L 0.515625 -2.203125 L 0.15625 -2.203125 L 0.15625 -2.640625 L 1 -2.640625 L 1 -1 C 1 -0.789062 1.046875 -0.632812 1.140625 -0.53125 C 1.234375 -0.425781 1.367188 -0.375 1.546875 -0.375 C 1.648438 -0.375 1.757812 -0.394531 1.875 -0.4375 C 1.988281 -0.476562 2.097656 -0.53125 2.203125 -0.59375 L 2.203125 -2.203125 L 1.84375 -2.203125 Z M 1.84375 -2.640625 "/></g></g></g><g fill="#ffffff" fill-opacity="1"><g transform="translate(40.348729, 5.834322)"><g><path d="M 2.15625 -1.9375 C 2.082031 -2.0625 1.988281 -2.15625 1.875 -2.21875 C 1.769531 -2.28125 1.648438 -2.3125 1.515625 -2.3125 C 1.398438 -2.3125 1.289062 -2.285156 1.1875 -2.234375 C 1.09375 -2.191406 1.007812 -2.125 0.9375 -2.03125 C 0.863281 -1.945312 0.804688 -1.84375 0.765625 -1.71875 C 0.734375 -1.601562 0.71875 -1.472656 0.71875 -1.328125 C 0.71875 -1.179688 0.734375 -1.046875 0.765625 -0.921875 C 0.804688 -0.804688 0.863281 -0.707031 0.9375 -0.625 C 1.019531 -0.539062 1.109375 -0.472656 1.203125 -0.421875 C 1.296875 -0.378906 1.398438 -0.359375 1.515625 -0.359375 C 1.671875 -0.359375 1.804688 -0.394531 1.921875 -0.46875 C 2.046875 -0.550781 2.144531 -0.671875 2.21875 -0.828125 L 2.609375 -0.625 C 2.554688 -0.519531 2.492188 -0.421875 2.421875 -0.328125 C 2.347656 -0.242188 2.265625 -0.171875 2.171875 -0.109375 C 2.078125 -0.0546875 1.972656 -0.015625 1.859375 0.015625 C 1.742188 0.0546875 1.625 0.078125 1.5 0.078125 C 1.320312 0.078125 1.15625 0.046875 1 -0.015625 C 0.84375 -0.0859375 0.707031 -0.1875 0.59375 -0.3125 C 0.476562 -0.4375 0.390625 -0.582031 0.328125 -0.75 C 0.265625 -0.925781 0.234375 -1.117188 0.234375 -1.328125 C 0.234375 -1.523438 0.265625 -1.707031 0.328125 -1.875 C 0.398438 -2.050781 0.492188 -2.203125 0.609375 -2.328125 C 0.722656 -2.453125 0.859375 -2.546875 1.015625 -2.609375 C 1.171875 -2.679688 1.335938 -2.71875 1.515625 -2.71875 C 1.679688 -2.71875 1.835938 -2.6875 1.984375 -2.625 C 2.128906 -2.570312 2.257812 -2.488281 2.375 -2.375 L 2.640625 -2.375 L 2.640625 -1.9375 Z M 2.15625 -1.9375 "/></g></g></g><g fill="#ffffff" fill-opacity="1"><g transform="translate(43.191193, 5.834322)"><g><path d="M 2.15625 -1.9375 C 2.082031 -2.0625 1.988281 -2.15625 1.875 -2.21875 C 1.769531 -2.28125 1.648438 -2.3125 1.515625 -2.3125 C 1.398438 -2.3125 1.289062 -2.285156 1.1875 -2.234375 C 1.09375 -2.191406 1.007812 -2.125 0.9375 -2.03125 C 0.863281 -1.945312 0.804688 -1.84375 0.765625 -1.71875 C 0.734375 -1.601562 0.71875 -1.472656 0.71875 -1.328125 C 0.71875 -1.179688 0.734375 -1.046875 0.765625 -0.921875 C 0.804688 -0.804688 0.863281 -0.707031 0.9375 -0.625 C 1.019531 -0.539062 1.109375 -0.472656 1.203125 -0.421875 C 1.296875 -0.378906 1.398438 -0.359375 1.515625 -0.359375 C 1.671875 -0.359375 1.804688 -0.394531 1.921875 -0.46875 C 2.046875 -0.550781 2.144531 -0.671875 2.21875 -0.828125 L 2.609375 -0.625 C 2.554688 -0.519531 2.492188 -0.421875 2.421875 -0.328125 C 2.347656 -0.242188 2.265625 -0.171875 2.171875 -0.109375 C 2.078125 -0.0546875 1.972656 -0.015625 1.859375 0.015625 C 1.742188 0.0546875 1.625 0.078125 1.5 0.078125 C 1.320312 0.078125 1.15625 0.046875 1 -0.015625 C 0.84375 -0.0859375 0.707031 -0.1875 0.59375 -0.3125 C 0.476562 -0.4375 0.390625 -0.582031 0.328125 -0.75 C 0.265625 -0.925781 0.234375 -1.117188 0.234375 -1.328125 C 0.234375 -1.523438 0.265625 -1.707031 0.328125 -1.875 C 0.398438 -2.050781 0.492188 -2.203125 0.609375 -2.328125 C 0.722656 -2.453125 0.859375 -2.546875 1.015625 -2.609375 C 1.171875 -2.679688 1.335938 -2.71875 1.515625 -2.71875 C 1.679688 -2.71875 1.835938 -2.6875 1.984375 -2.625 C 2.128906 -2.570312 2.257812 -2.488281 2.375 -2.375 L 2.640625 -2.375 L 2.640625 -1.9375 Z M 2.15625 -1.9375 "/></g></g></g><g fill="#ffffff" fill-opacity="1"><g transform="translate(46.033658, 5.834322)"><g><path d="M 0.234375 -2.640625 L 1.09375 -2.640625 L 1.09375 -0.4375 L 1.5 -0.4375 L 1.5 0 L 0.234375 0 L 0.234375 -0.4375 L 0.609375 -0.4375 L 0.609375 -2.203125 L 0.234375 -2.203125 Z M 0.53125 -3.578125 C 0.53125 -3.617188 0.535156 -3.660156 0.546875 -3.703125 C 0.566406 -3.742188 0.59375 -3.773438 0.625 -3.796875 C 0.65625 -3.828125 0.691406 -3.851562 0.734375 -3.875 C 0.773438 -3.894531 0.816406 -3.90625 0.859375 -3.90625 C 0.898438 -3.90625 0.941406 -3.894531 0.984375 -3.875 C 1.023438 -3.851562 1.0625 -3.828125 1.09375 -3.796875 C 1.125 -3.773438 1.144531 -3.742188 1.15625 -3.703125 C 1.175781 -3.660156 1.1875 -3.617188 1.1875 -3.578125 C 1.1875 -3.523438 1.175781 -3.476562 1.15625 -3.4375 C 1.144531 -3.40625 1.125 -3.375 1.09375 -3.34375 C 1.0625 -3.3125 1.023438 -3.285156 0.984375 -3.265625 C 0.941406 -3.242188 0.898438 -3.234375 0.859375 -3.234375 C 0.816406 -3.234375 0.773438 -3.242188 0.734375 -3.265625 C 0.691406 -3.285156 0.65625 -3.3125 0.625 -3.34375 C 0.59375 -3.375 0.566406 -3.40625 0.546875 -3.4375 C 0.535156 -3.476562 0.53125 -3.523438 0.53125 -3.578125 Z M 0.53125 -3.578125 "/></g></g></g><g fill="#ffffff" fill-opacity="1"><g transform="translate(47.704054, 5.834322)"><g><path d="M 0.21875 -1.3125 C 0.21875 -1.53125 0.25 -1.722656 0.3125 -1.890625 C 0.382812 -2.054688 0.476562 -2.203125 0.59375 -2.328125 C 0.707031 -2.453125 0.84375 -2.546875 1 -2.609375 C 1.164062 -2.679688 1.347656 -2.71875 1.546875 -2.71875 C 1.742188 -2.71875 1.921875 -2.679688 2.078125 -2.609375 C 2.242188 -2.546875 2.382812 -2.453125 2.5 -2.328125 C 2.613281 -2.210938 2.703125 -2.066406 2.765625 -1.890625 C 2.828125 -1.722656 2.859375 -1.535156 2.859375 -1.328125 C 2.859375 -1.117188 2.828125 -0.925781 2.765625 -0.75 C 2.703125 -0.582031 2.613281 -0.4375 2.5 -0.3125 C 2.382812 -0.1875 2.242188 -0.0859375 2.078125 -0.015625 C 1.921875 0.046875 1.742188 0.078125 1.546875 0.078125 C 1.347656 0.078125 1.164062 0.046875 1 -0.015625 C 0.84375 -0.0859375 0.707031 -0.1875 0.59375 -0.3125 C 0.476562 -0.4375 0.382812 -0.582031 0.3125 -0.75 C 0.25 -0.925781 0.21875 -1.113281 0.21875 -1.3125 Z M 0.71875 -1.3125 C 0.71875 -1.164062 0.738281 -1.03125 0.78125 -0.90625 C 0.820312 -0.78125 0.878906 -0.675781 0.953125 -0.59375 C 1.035156 -0.507812 1.125 -0.441406 1.21875 -0.390625 C 1.320312 -0.347656 1.429688 -0.328125 1.546875 -0.328125 C 1.660156 -0.328125 1.765625 -0.347656 1.859375 -0.390625 C 1.960938 -0.441406 2.050781 -0.507812 2.125 -0.59375 C 2.207031 -0.675781 2.269531 -0.78125 2.3125 -0.90625 C 2.351562 -1.03125 2.375 -1.164062 2.375 -1.3125 C 2.375 -1.476562 2.351562 -1.625 2.3125 -1.75 C 2.269531 -1.875 2.210938 -1.976562 2.140625 -2.0625 C 2.066406 -2.144531 1.976562 -2.207031 1.875 -2.25 C 1.769531 -2.289062 1.660156 -2.3125 1.546875 -2.3125 C 1.429688 -2.3125 1.320312 -2.289062 1.21875 -2.25 C 1.125 -2.207031 1.035156 -2.144531 0.953125 -2.0625 C 0.878906 -1.976562 0.820312 -1.875 0.78125 -1.75 C 0.738281 -1.625 0.71875 -1.476562 0.71875 -1.3125 Z M 0.71875 -1.3125 "/></g></g></g><g fill="#ffffff" fill-opacity="1"><g transform="translate(50.818564, 5.834322)"><g><path d="M 2 -0.4375 L 2.359375 -0.4375 L 2.359375 -1.640625 C 2.359375 -1.847656 2.304688 -2.003906 2.203125 -2.109375 C 2.109375 -2.210938 1.960938 -2.265625 1.765625 -2.265625 C 1.660156 -2.265625 1.550781 -2.238281 1.4375 -2.1875 C 1.320312 -2.132812 1.210938 -2.066406 1.109375 -1.984375 L 1.109375 -0.4375 L 1.484375 -0.4375 L 1.484375 0 L 0.25 0 L 0.25 -0.4375 L 0.625 -0.4375 L 0.625 -2.203125 L 0.25 -2.203125 L 0.25 -2.640625 L 1.09375 -2.640625 L 1.09375 -2.328125 C 1.15625 -2.378906 1.21875 -2.425781 1.28125 -2.46875 C 1.34375 -2.507812 1.40625 -2.546875 1.46875 -2.578125 C 1.539062 -2.609375 1.613281 -2.632812 1.6875 -2.65625 C 1.769531 -2.675781 1.851562 -2.6875 1.9375 -2.6875 C 2.070312 -2.6875 2.195312 -2.664062 2.3125 -2.625 C 2.425781 -2.59375 2.523438 -2.535156 2.609375 -2.453125 C 2.691406 -2.367188 2.753906 -2.265625 2.796875 -2.140625 C 2.835938 -2.015625 2.859375 -1.867188 2.859375 -1.703125 L 2.859375 -0.4375 L 3.21875 -0.4375 L 3.21875 0 L 2 0 Z M 2 -0.4375 "/></g></g></g><g fill="#ffffff" fill-opacity="1"><g transform="translate(54.291557, 5.834322)"><g><path d="M 0.703125 -1.265625 C 0.703125 -1.179688 0.707031 -1.109375 0.71875 -1.046875 C 0.726562 -0.984375 0.742188 -0.925781 0.765625 -0.875 C 0.828125 -0.707031 0.925781 -0.578125 1.0625 -0.484375 C 1.207031 -0.398438 1.367188 -0.359375 1.546875 -0.359375 C 1.679688 -0.359375 1.8125 -0.378906 1.9375 -0.421875 C 2.070312 -0.460938 2.207031 -0.519531 2.34375 -0.59375 L 2.546875 -0.28125 C 2.367188 -0.15625 2.191406 -0.0625 2.015625 0 C 1.835938 0.0507812 1.65625 0.078125 1.46875 0.078125 C 1.289062 0.078125 1.125 0.046875 0.96875 -0.015625 C 0.820312 -0.078125 0.691406 -0.164062 0.578125 -0.28125 C 0.472656 -0.394531 0.390625 -0.539062 0.328125 -0.71875 C 0.265625 -0.894531 0.234375 -1.097656 0.234375 -1.328125 C 0.234375 -1.515625 0.257812 -1.691406 0.3125 -1.859375 C 0.363281 -2.023438 0.441406 -2.171875 0.546875 -2.296875 C 0.648438 -2.421875 0.78125 -2.519531 0.9375 -2.59375 C 1.09375 -2.664062 1.273438 -2.703125 1.484375 -2.703125 C 1.679688 -2.703125 1.84375 -2.671875 1.96875 -2.609375 C 2.101562 -2.554688 2.210938 -2.476562 2.296875 -2.375 C 2.378906 -2.28125 2.441406 -2.164062 2.484375 -2.03125 C 2.535156 -1.90625 2.566406 -1.78125 2.578125 -1.65625 C 2.585938 -1.582031 2.59375 -1.515625 2.59375 -1.453125 C 2.601562 -1.390625 2.609375 -1.328125 2.609375 -1.265625 Z M 1.4375 -2.3125 C 1.332031 -2.3125 1.238281 -2.296875 1.15625 -2.265625 C 1.070312 -2.234375 1 -2.1875 0.9375 -2.125 C 0.882812 -2.070312 0.835938 -2 0.796875 -1.90625 C 0.765625 -1.820312 0.742188 -1.726562 0.734375 -1.625 L 2.09375 -1.625 C 2.09375 -1.726562 2.078125 -1.820312 2.046875 -1.90625 C 2.023438 -1.988281 1.988281 -2.054688 1.9375 -2.109375 C 1.882812 -2.171875 1.816406 -2.21875 1.734375 -2.25 C 1.660156 -2.289062 1.5625 -2.3125 1.4375 -2.3125 Z M 1.4375 -2.3125 "/></g></g></g><g fill="#ffffff" fill-opacity="1"><g transform="translate(57.278944, 5.834322)"><g><path d="M 1.78125 -1.9375 C 1.78125 -2 1.757812 -2.054688 1.71875 -2.109375 C 1.6875 -2.160156 1.644531 -2.203125 1.59375 -2.234375 C 1.539062 -2.265625 1.484375 -2.285156 1.421875 -2.296875 C 1.359375 -2.316406 1.296875 -2.328125 1.234375 -2.328125 C 1.171875 -2.328125 1.109375 -2.316406 1.046875 -2.296875 C 0.992188 -2.285156 0.945312 -2.265625 0.90625 -2.234375 C 0.863281 -2.203125 0.828125 -2.164062 0.796875 -2.125 C 0.773438 -2.082031 0.765625 -2.039062 0.765625 -2 C 0.765625 -1.90625 0.789062 -1.832031 0.84375 -1.78125 C 0.90625 -1.726562 1 -1.679688 1.125 -1.640625 L 1.625 -1.453125 C 1.84375 -1.378906 2 -1.28125 2.09375 -1.15625 C 2.195312 -1.03125 2.25 -0.882812 2.25 -0.71875 C 2.25 -0.59375 2.222656 -0.476562 2.171875 -0.375 C 2.128906 -0.28125 2.066406 -0.195312 1.984375 -0.125 C 1.898438 -0.0625 1.796875 -0.015625 1.671875 0.015625 C 1.554688 0.0546875 1.425781 0.078125 1.28125 0.078125 C 1.070312 0.078125 0.898438 0.046875 0.765625 -0.015625 C 0.640625 -0.0859375 0.539062 -0.175781 0.46875 -0.28125 L 0.203125 -0.28125 L 0.203125 -0.71875 L 0.734375 -0.71875 C 0.734375 -0.644531 0.75 -0.582031 0.78125 -0.53125 C 0.8125 -0.476562 0.851562 -0.4375 0.90625 -0.40625 C 0.957031 -0.375 1.015625 -0.347656 1.078125 -0.328125 C 1.148438 -0.316406 1.21875 -0.3125 1.28125 -0.3125 C 1.351562 -0.3125 1.414062 -0.316406 1.46875 -0.328125 C 1.53125 -0.347656 1.582031 -0.375 1.625 -0.40625 C 1.675781 -0.4375 1.710938 -0.472656 1.734375 -0.515625 C 1.765625 -0.566406 1.78125 -0.617188 1.78125 -0.671875 C 1.78125 -0.753906 1.753906 -0.828125 1.703125 -0.890625 C 1.648438 -0.953125 1.554688 -1.003906 1.421875 -1.046875 L 0.921875 -1.234375 C 0.710938 -1.304688 0.554688 -1.398438 0.453125 -1.515625 C 0.359375 -1.628906 0.3125 -1.769531 0.3125 -1.9375 C 0.3125 -2.050781 0.332031 -2.15625 0.375 -2.25 C 0.414062 -2.34375 0.472656 -2.425781 0.546875 -2.5 C 0.628906 -2.570312 0.726562 -2.625 0.84375 -2.65625 C 0.957031 -2.695312 1.085938 -2.71875 1.234375 -2.71875 C 1.421875 -2.71875 1.578125 -2.691406 1.703125 -2.640625 C 1.835938 -2.585938 1.953125 -2.5 2.046875 -2.375 L 2.296875 -2.375 L 2.296875 -1.9375 Z M 1.78125 -1.9375 "/></g></g></g><g fill="#ffffff" fill-opacity="1"><g transform="translate(59.803605, 5.834322)"><g><path d="M 0.515625 -0.71875 L 1.078125 -0.5 L 0.421875 0.859375 L 0.046875 0.734375 Z M 0.515625 -0.71875 "/></g></g></g><g fill="#ffffff" fill-opacity="1"><g transform="translate(61.250264, 5.834322)"><g><path d="M 0 0 Z M 0 0 "/></g></g></g><g fill="#ffffff" fill-opacity="1"><g transform="translate(62.389284, 5.834322)"><g><path d="M 1.8125 -0.25 C 1.707031 -0.15625 1.59375 -0.078125 1.46875 -0.015625 C 1.351562 0.046875 1.21875 0.078125 1.0625 0.078125 C 0.925781 0.078125 0.804688 0.0546875 0.703125 0.015625 C 0.597656 -0.0234375 0.503906 -0.0820312 0.421875 -0.15625 C 0.347656 -0.226562 0.285156 -0.3125 0.234375 -0.40625 C 0.191406 -0.5 0.171875 -0.597656 0.171875 -0.703125 C 0.171875 -0.804688 0.1875 -0.898438 0.21875 -0.984375 C 0.257812 -1.078125 0.304688 -1.15625 0.359375 -1.21875 C 0.410156 -1.28125 0.472656 -1.332031 0.546875 -1.375 C 0.628906 -1.425781 0.707031 -1.460938 0.78125 -1.484375 C 0.863281 -1.515625 0.945312 -1.535156 1.03125 -1.546875 C 1.113281 -1.554688 1.195312 -1.5625 1.28125 -1.5625 C 1.394531 -1.5625 1.492188 -1.554688 1.578125 -1.546875 C 1.660156 -1.535156 1.738281 -1.523438 1.8125 -1.515625 L 1.8125 -1.734375 C 1.8125 -1.828125 1.796875 -1.90625 1.765625 -1.96875 C 1.742188 -2.039062 1.707031 -2.097656 1.65625 -2.140625 C 1.601562 -2.191406 1.539062 -2.226562 1.46875 -2.25 C 1.40625 -2.269531 1.332031 -2.28125 1.25 -2.28125 C 1.164062 -2.28125 1.085938 -2.273438 1.015625 -2.265625 C 0.941406 -2.253906 0.875 -2.238281 0.8125 -2.21875 C 0.75 -2.195312 0.691406 -2.175781 0.640625 -2.15625 C 0.585938 -2.132812 0.539062 -2.113281 0.5 -2.09375 L 0.34375 -2.421875 C 0.40625 -2.460938 0.472656 -2.5 0.546875 -2.53125 C 0.628906 -2.5625 0.707031 -2.585938 0.78125 -2.609375 C 0.863281 -2.640625 0.945312 -2.660156 1.03125 -2.671875 C 1.125 -2.691406 1.210938 -2.703125 1.296875 -2.703125 C 1.453125 -2.703125 1.585938 -2.679688 1.703125 -2.640625 C 1.828125 -2.609375 1.929688 -2.550781 2.015625 -2.46875 C 2.097656 -2.394531 2.160156 -2.296875 2.203125 -2.171875 C 2.253906 -2.054688 2.28125 -1.921875 2.28125 -1.765625 L 2.28125 -0.4375 L 2.578125 -0.4375 L 2.578125 0 L 1.8125 0 Z M 1.171875 -0.328125 C 1.234375 -0.328125 1.296875 -0.332031 1.359375 -0.34375 C 1.421875 -0.363281 1.476562 -0.382812 1.53125 -0.40625 C 1.582031 -0.4375 1.632812 -0.46875 1.6875 -0.5 C 1.738281 -0.53125 1.78125 -0.566406 1.8125 -0.609375 L 1.8125 -1.203125 L 1.265625 -1.203125 C 1.171875 -1.203125 1.082031 -1.191406 1 -1.171875 C 0.925781 -1.148438 0.863281 -1.117188 0.8125 -1.078125 C 0.757812 -1.046875 0.71875 -1 0.6875 -0.9375 C 0.65625 -0.882812 0.640625 -0.816406 0.640625 -0.734375 C 0.640625 -0.671875 0.648438 -0.613281 0.671875 -0.5625 C 0.703125 -0.507812 0.738281 -0.460938 0.78125 -0.421875 C 0.832031 -0.390625 0.890625 -0.363281 0.953125 -0.34375 C 1.015625 -0.332031 1.085938 -0.328125 1.171875 -0.328125 Z M 1.171875 -0.328125 "/></g></g></g><g fill="#ffffff" fill-opacity="1"><g transform="translate(65.236834, 5.834322)"><g><path d="M 1.78125 -1.9375 C 1.78125 -2 1.757812 -2.054688 1.71875 -2.109375 C 1.6875 -2.160156 1.644531 -2.203125 1.59375 -2.234375 C 1.539062 -2.265625 1.484375 -2.285156 1.421875 -2.296875 C 1.359375 -2.316406 1.296875 -2.328125 1.234375 -2.328125 C 1.171875 -2.328125 1.109375 -2.316406 1.046875 -2.296875 C 0.992188 -2.285156 0.945312 -2.265625 0.90625 -2.234375 C 0.863281 -2.203125 0.828125 -2.164062 0.796875 -2.125 C 0.773438 -2.082031 0.765625 -2.039062 0.765625 -2 C 0.765625 -1.90625 0.789062 -1.832031 0.84375 -1.78125 C 0.90625 -1.726562 1 -1.679688 1.125 -1.640625 L 1.625 -1.453125 C 1.84375 -1.378906 2 -1.28125 2.09375 -1.15625 C 2.195312 -1.03125 2.25 -0.882812 2.25 -0.71875 C 2.25 -0.59375 2.222656 -0.476562 2.171875 -0.375 C 2.128906 -0.28125 2.066406 -0.195312 1.984375 -0.125 C 1.898438 -0.0625 1.796875 -0.015625 1.671875 0.015625 C 1.554688 0.0546875 1.425781 0.078125 1.28125 0.078125 C 1.070312 0.078125 0.898438 0.046875 0.765625 -0.015625 C 0.640625 -0.0859375 0.539062 -0.175781 0.46875 -0.28125 L 0.203125 -0.28125 L 0.203125 -0.71875 L 0.734375 -0.71875 C 0.734375 -0.644531 0.75 -0.582031 0.78125 -0.53125 C 0.8125 -0.476562 0.851562 -0.4375 0.90625 -0.40625 C 0.957031 -0.375 1.015625 -0.347656 1.078125 -0.328125 C 1.148438 -0.316406 1.21875 -0.3125 1.28125 -0.3125 C 1.351562 -0.3125 1.414062 -0.316406 1.46875 -0.328125 C 1.53125 -0.347656 1.582031 -0.375 1.625 -0.40625 C 1.675781 -0.4375 1.710938 -0.472656 1.734375 -0.515625 C 1.765625 -0.566406 1.78125 -0.617188 1.78125 -0.671875 C 1.78125 -0.753906 1.753906 -0.828125 1.703125 -0.890625 C 1.648438 -0.953125 1.554688 -1.003906 1.421875 -1.046875 L 0.921875 -1.234375 C 0.710938 -1.304688 0.554688 -1.398438 0.453125 -1.515625 C 0.359375 -1.628906 0.3125 -1.769531 0.3125 -1.9375 C 0.3125 -2.050781 0.332031 -2.15625 0.375 -2.25 C 0.414062 -2.34375 0.472656 -2.425781 0.546875 -2.5 C 0.628906 -2.570312 0.726562 -2.625 0.84375 -2.65625 C 0.957031 -2.695312 1.085938 -2.71875 1.234375 -2.71875 C 1.421875 -2.71875 1.578125 -2.691406 1.703125 -2.640625 C 1.835938 -2.585938 1.953125 -2.5 2.046875 -2.375 L 2.296875 -2.375 L 2.296875 -1.9375 Z M 1.78125 -1.9375 "/></g></g></g><g fill="#ffffff" fill-opacity="1"><g transform="translate(67.761494, 5.834322)"><g><path d="M 0.703125 -1.265625 C 0.703125 -1.179688 0.707031 -1.109375 0.71875 -1.046875 C 0.726562 -0.984375 0.742188 -0.925781 0.765625 -0.875 C 0.828125 -0.707031 0.925781 -0.578125 1.0625 -0.484375 C 1.207031 -0.398438 1.367188 -0.359375 1.546875 -0.359375 C 1.679688 -0.359375 1.8125 -0.378906 1.9375 -0.421875 C 2.070312 -0.460938 2.207031 -0.519531 2.34375 -0.59375 L 2.546875 -0.28125 C 2.367188 -0.15625 2.191406 -0.0625 2.015625 0 C 1.835938 0.0507812 1.65625 0.078125 1.46875 0.078125 C 1.289062 0.078125 1.125 0.046875 0.96875 -0.015625 C 0.820312 -0.078125 0.691406 -0.164062 0.578125 -0.28125 C 0.472656 -0.394531 0.390625 -0.539062 0.328125 -0.71875 C 0.265625 -0.894531 0.234375 -1.097656 0.234375 -1.328125 C 0.234375 -1.515625 0.257812 -1.691406 0.3125 -1.859375 C 0.363281 -2.023438 0.441406 -2.171875 0.546875 -2.296875 C 0.648438 -2.421875 0.78125 -2.519531 0.9375 -2.59375 C 1.09375 -2.664062 1.273438 -2.703125 1.484375 -2.703125 C 1.679688 -2.703125 1.84375 -2.671875 1.96875 -2.609375 C 2.101562 -2.554688 2.210938 -2.476562 2.296875 -2.375 C 2.378906 -2.28125 2.441406 -2.164062 2.484375 -2.03125 C 2.535156 -1.90625 2.566406 -1.78125 2.578125 -1.65625 C 2.585938 -1.582031 2.59375 -1.515625 2.59375 -1.453125 C 2.601562 -1.390625 2.609375 -1.328125 2.609375 -1.265625 Z M 1.4375 -2.3125 C 1.332031 -2.3125 1.238281 -2.296875 1.15625 -2.265625 C 1.070312 -2.234375 1 -2.1875 0.9375 -2.125 C 0.882812 -2.070312 0.835938 -2 0.796875 -1.90625 C 0.765625 -1.820312 0.742188 -1.726562 0.734375 -1.625 L 2.09375 -1.625 C 2.09375 -1.726562 2.078125 -1.820312 2.046875 -1.90625 C 2.023438 -1.988281 1.988281 -2.054688 1.9375 -2.109375 C 1.882812 -2.171875 1.816406 -2.21875 1.734375 -2.25 C 1.660156 -2.289062 1.5625 -2.3125 1.4375 -2.3125 Z M 1.4375 -2.3125 "/></g></g></g><g fill="#ffffff" fill-opacity="1"><g transform="translate(70.748881, 5.834322)"><g><path d="M 2.1875 -0.234375 C 2.101562 -0.140625 2.003906 -0.0664062 1.890625 -0.015625 C 1.773438 0.0351562 1.644531 0.0625 1.5 0.0625 C 1.3125 0.0625 1.140625 0.03125 0.984375 -0.03125 C 0.835938 -0.09375 0.707031 -0.179688 0.59375 -0.296875 C 0.476562 -0.421875 0.390625 -0.570312 0.328125 -0.75 C 0.265625 -0.925781 0.234375 -1.125 0.234375 -1.34375 C 0.234375 -1.550781 0.265625 -1.738281 0.328125 -1.90625 C 0.390625 -2.070312 0.472656 -2.210938 0.578125 -2.328125 C 0.691406 -2.441406 0.828125 -2.53125 0.984375 -2.59375 C 1.148438 -2.664062 1.328125 -2.703125 1.515625 -2.703125 C 1.648438 -2.703125 1.769531 -2.6875 1.875 -2.65625 C 1.976562 -2.625 2.082031 -2.570312 2.1875 -2.5 L 2.1875 -2.640625 L 2.65625 -2.640625 L 2.65625 -0.109375 C 2.65625 0.304688 2.554688 0.625 2.359375 0.84375 C 2.160156 1.0625 1.851562 1.171875 1.4375 1.171875 C 1.34375 1.171875 1.242188 1.160156 1.140625 1.140625 C 1.046875 1.128906 0.945312 1.109375 0.84375 1.078125 C 0.75 1.046875 0.65625 1.003906 0.5625 0.953125 C 0.476562 0.910156 0.394531 0.859375 0.3125 0.796875 L 0.5625 0.40625 C 0.613281 0.457031 0.671875 0.5 0.734375 0.53125 C 0.804688 0.570312 0.878906 0.601562 0.953125 0.625 C 1.023438 0.65625 1.101562 0.675781 1.1875 0.6875 C 1.269531 0.707031 1.347656 0.71875 1.421875 0.71875 C 1.554688 0.71875 1.671875 0.703125 1.765625 0.671875 C 1.859375 0.648438 1.9375 0.601562 2 0.53125 C 2.0625 0.457031 2.109375 0.363281 2.140625 0.25 C 2.171875 0.132812 2.1875 -0.0078125 2.1875 -0.1875 Z M 1.546875 -0.359375 C 1.628906 -0.359375 1.703125 -0.363281 1.765625 -0.375 C 1.828125 -0.394531 1.882812 -0.414062 1.9375 -0.4375 C 1.988281 -0.457031 2.035156 -0.484375 2.078125 -0.515625 C 2.117188 -0.554688 2.15625 -0.59375 2.1875 -0.625 L 2.1875 -2.0625 C 2.101562 -2.144531 2.003906 -2.203125 1.890625 -2.234375 C 1.773438 -2.265625 1.660156 -2.28125 1.546875 -2.28125 C 1.429688 -2.28125 1.320312 -2.257812 1.21875 -2.21875 C 1.125 -2.175781 1.039062 -2.113281 0.96875 -2.03125 C 0.894531 -1.957031 0.832031 -1.863281 0.78125 -1.75 C 0.738281 -1.632812 0.71875 -1.5 0.71875 -1.34375 C 0.71875 -1.1875 0.738281 -1.046875 0.78125 -0.921875 C 0.820312 -0.796875 0.878906 -0.691406 0.953125 -0.609375 C 1.023438 -0.523438 1.113281 -0.460938 1.21875 -0.421875 C 1.320312 -0.378906 1.429688 -0.359375 1.546875 -0.359375 Z M 1.546875 -0.359375 "/></g></g></g><g fill="#ffffff" fill-opacity="1"><g transform="translate(73.799827, 5.834322)"><g><path d="M 1.84375 -2.640625 L 2.703125 -2.640625 L 2.703125 -0.4375 L 2.984375 -0.4375 L 2.984375 0 L 2.21875 0 L 2.21875 -0.25 C 2.101562 -0.15625 1.972656 -0.0820312 1.828125 -0.03125 C 1.691406 0.0195312 1.539062 0.046875 1.375 0.046875 C 1.25 0.046875 1.128906 0.03125 1.015625 0 C 0.910156 -0.0390625 0.816406 -0.101562 0.734375 -0.1875 C 0.660156 -0.269531 0.601562 -0.375 0.5625 -0.5 C 0.53125 -0.625 0.515625 -0.769531 0.515625 -0.9375 L 0.515625 -2.203125 L 0.15625 -2.203125 L 0.15625 -2.640625 L 1 -2.640625 L 1 -1 C 1 -0.789062 1.046875 -0.632812 1.140625 -0.53125 C 1.234375 -0.425781 1.367188 -0.375 1.546875 -0.375 C 1.648438 -0.375 1.757812 -0.394531 1.875 -0.4375 C 1.988281 -0.476562 2.097656 -0.53125 2.203125 -0.59375 L 2.203125 -2.203125 L 1.84375 -2.203125 Z M 1.84375 -2.640625 "/></g></g></g><g fill="#ffffff" fill-opacity="1"><g transform="translate(77.232142, 5.834322)"><g><path d="M 2.15625 -2.078125 L 1.671875 -2.078125 L 1.671875 -2.25 C 1.609375 -2.25 1.546875 -2.238281 1.484375 -2.21875 C 1.429688 -2.195312 1.378906 -2.160156 1.328125 -2.109375 C 1.273438 -2.066406 1.226562 -2.007812 1.1875 -1.9375 C 1.15625 -1.875 1.128906 -1.800781 1.109375 -1.71875 L 1.109375 -0.4375 L 1.5625 -0.4375 L 1.5625 0 L 0.25 0 L 0.25 -0.4375 L 0.625 -0.4375 L 0.625 -2.203125 L 0.25 -2.203125 L 0.25 -2.640625 L 1.09375 -2.640625 L 1.09375 -2.28125 C 1.125 -2.332031 1.160156 -2.378906 1.203125 -2.421875 C 1.242188 -2.472656 1.285156 -2.515625 1.328125 -2.546875 C 1.378906 -2.585938 1.429688 -2.613281 1.484375 -2.625 C 1.535156 -2.644531 1.597656 -2.65625 1.671875 -2.65625 C 1.753906 -2.65625 1.832031 -2.65625 1.90625 -2.65625 C 1.988281 -2.65625 2.070312 -2.65625 2.15625 -2.65625 Z M 2.15625 -2.078125 "/></g></g></g><g fill="#ffffff" fill-opacity="1"><g transform="translate(79.672898, 5.834322)"><g><path d="M 1.8125 -0.25 C 1.707031 -0.15625 1.59375 -0.078125 1.46875 -0.015625 C 1.351562 0.046875 1.21875 0.078125 1.0625 0.078125 C 0.925781 0.078125 0.804688 0.0546875 0.703125 0.015625 C 0.597656 -0.0234375 0.503906 -0.0820312 0.421875 -0.15625 C 0.347656 -0.226562 0.285156 -0.3125 0.234375 -0.40625 C 0.191406 -0.5 0.171875 -0.597656 0.171875 -0.703125 C 0.171875 -0.804688 0.1875 -0.898438 0.21875 -0.984375 C 0.257812 -1.078125 0.304688 -1.15625 0.359375 -1.21875 C 0.410156 -1.28125 0.472656 -1.332031 0.546875 -1.375 C 0.628906 -1.425781 0.707031 -1.460938 0.78125 -1.484375 C 0.863281 -1.515625 0.945312 -1.535156 1.03125 -1.546875 C 1.113281 -1.554688 1.195312 -1.5625 1.28125 -1.5625 C 1.394531 -1.5625 1.492188 -1.554688 1.578125 -1.546875 C 1.660156 -1.535156 1.738281 -1.523438 1.8125 -1.515625 L 1.8125 -1.734375 C 1.8125 -1.828125 1.796875 -1.90625 1.765625 -1.96875 C 1.742188 -2.039062 1.707031 -2.097656 1.65625 -2.140625 C 1.601562 -2.191406 1.539062 -2.226562 1.46875 -2.25 C 1.40625 -2.269531 1.332031 -2.28125 1.25 -2.28125 C 1.164062 -2.28125 1.085938 -2.273438 1.015625 -2.265625 C 0.941406 -2.253906 0.875 -2.238281 0.8125 -2.21875 C 0.75 -2.195312 0.691406 -2.175781 0.640625 -2.15625 C 0.585938 -2.132812 0.539062 -2.113281 0.5 -2.09375 L 0.34375 -2.421875 C 0.40625 -2.460938 0.472656 -2.5 0.546875 -2.53125 C 0.628906 -2.5625 0.707031 -2.585938 0.78125 -2.609375 C 0.863281 -2.640625 0.945312 -2.660156 1.03125 -2.671875 C 1.125 -2.691406 1.210938 -2.703125 1.296875 -2.703125 C 1.453125 -2.703125 1.585938 -2.679688 1.703125 -2.640625 C 1.828125 -2.609375 1.929688 -2.550781 2.015625 -2.46875 C 2.097656 -2.394531 2.160156 -2.296875 2.203125 -2.171875 C 2.253906 -2.054688 2.28125 -1.921875 2.28125 -1.765625 L 2.28125 -0.4375 L 2.578125 -0.4375 L 2.578125 0 L 1.8125 0 Z M 1.171875 -0.328125 C 1.234375 -0.328125 1.296875 -0.332031 1.359375 -0.34375 C 1.421875 -0.363281 1.476562 -0.382812 1.53125 -0.40625 C 1.582031 -0.4375 1.632812 -0.46875 1.6875 -0.5 C 1.738281 -0.53125 1.78125 -0.566406 1.8125 -0.609375 L 1.8125 -1.203125 L 1.265625 -1.203125 C 1.171875 -1.203125 1.082031 -1.191406 1 -1.171875 C 0.925781 -1.148438 0.863281 -1.117188 0.8125 -1.078125 C 0.757812 -1.046875 0.71875 -1 0.6875 -0.9375 C 0.65625 -0.882812 0.640625 -0.816406 0.640625 -0.734375 C 0.640625 -0.671875 0.648438 -0.613281 0.671875 -0.5625 C 0.703125 -0.507812 0.738281 -0.460938 0.78125 -0.421875 C 0.832031 -0.390625 0.890625 -0.363281 0.953125 -0.34375 C 1.015625 -0.332031 1.085938 -0.328125 1.171875 -0.328125 Z M 1.171875 -0.328125 "/></g></g></g><g fill="#ffffff" fill-opacity="1"><g transform="translate(82.520448, 5.834322)"><g><path d="M 2 -0.4375 L 2.359375 -0.4375 L 2.359375 -1.640625 C 2.359375 -1.847656 2.304688 -2.003906 2.203125 -2.109375 C 2.109375 -2.210938 1.960938 -2.265625 1.765625 -2.265625 C 1.660156 -2.265625 1.550781 -2.238281 1.4375 -2.1875 C 1.320312 -2.132812 1.210938 -2.066406 1.109375 -1.984375 L 1.109375 -0.4375 L 1.484375 -0.4375 L 1.484375 0 L 0.25 0 L 0.25 -0.4375 L 0.625 -0.4375 L 0.625 -2.203125 L 0.25 -2.203125 L 0.25 -2.640625 L 1.09375 -2.640625 L 1.09375 -2.328125 C 1.15625 -2.378906 1.21875 -2.425781 1.28125 -2.46875 C 1.34375 -2.507812 1.40625 -2.546875 1.46875 -2.578125 C 1.539062 -2.609375 1.613281 -2.632812 1.6875 -2.65625 C 1.769531 -2.675781 1.851562 -2.6875 1.9375 -2.6875 C 2.070312 -2.6875 2.195312 -2.664062 2.3125 -2.625 C 2.425781 -2.59375 2.523438 -2.535156 2.609375 -2.453125 C 2.691406 -2.367188 2.753906 -2.265625 2.796875 -2.140625 C 2.835938 -2.015625 2.859375 -1.867188 2.859375 -1.703125 L 2.859375 -0.4375 L 3.21875 -0.4375 L 3.21875 0 L 2 0 Z M 2 -0.4375 "/></g></g></g><g fill="#ffffff" fill-opacity="1"><g transform="translate(85.993447, 5.834322)"><g><path d="M 1.8125 -3.96875 L 2.640625 -3.96875 L 2.640625 -0.4375 L 3.03125 -0.4375 L 3.03125 0 L 2.171875 0 L 2.171875 -0.21875 C 2.085938 -0.132812 1.988281 -0.0664062 1.875 -0.015625 C 1.757812 0.0351562 1.632812 0.0625 1.5 0.0625 C 1.3125 0.0625 1.140625 0.03125 0.984375 -0.03125 C 0.835938 -0.09375 0.707031 -0.179688 0.59375 -0.296875 C 0.476562 -0.421875 0.390625 -0.570312 0.328125 -0.75 C 0.265625 -0.925781 0.234375 -1.125 0.234375 -1.34375 C 0.234375 -1.550781 0.265625 -1.738281 0.328125 -1.90625 C 0.390625 -2.070312 0.472656 -2.210938 0.578125 -2.328125 C 0.691406 -2.441406 0.828125 -2.53125 0.984375 -2.59375 C 1.148438 -2.664062 1.328125 -2.703125 1.515625 -2.703125 C 1.640625 -2.703125 1.753906 -2.6875 1.859375 -2.65625 C 1.972656 -2.632812 2.078125 -2.585938 2.171875 -2.515625 L 2.171875 -3.53125 L 1.8125 -3.53125 Z M 1.546875 -0.359375 C 1.691406 -0.359375 1.8125 -0.378906 1.90625 -0.421875 C 2 -0.460938 2.085938 -0.523438 2.171875 -0.609375 L 2.171875 -2.078125 C 2.085938 -2.148438 1.988281 -2.203125 1.875 -2.234375 C 1.769531 -2.265625 1.660156 -2.28125 1.546875 -2.28125 C 1.429688 -2.28125 1.320312 -2.257812 1.21875 -2.21875 C 1.125 -2.175781 1.039062 -2.113281 0.96875 -2.03125 C 0.894531 -1.957031 0.832031 -1.863281 0.78125 -1.75 C 0.738281 -1.632812 0.71875 -1.5 0.71875 -1.34375 C 0.71875 -1.1875 0.738281 -1.046875 0.78125 -0.921875 C 0.820312 -0.796875 0.878906 -0.691406 0.953125 -0.609375 C 1.023438 -0.523438 1.113281 -0.460938 1.21875 -0.421875 C 1.320312 -0.378906 1.429688 -0.359375 1.546875 -0.359375 Z M 1.546875 -0.359375 "/></g></g></g><g fill="#ffffff" fill-opacity="1"><g transform="translate(89.21727, 5.834322)"><g><path d="M 0.21875 -1.3125 C 0.21875 -1.53125 0.25 -1.722656 0.3125 -1.890625 C 0.382812 -2.054688 0.476562 -2.203125 0.59375 -2.328125 C 0.707031 -2.453125 0.84375 -2.546875 1 -2.609375 C 1.164062 -2.679688 1.347656 -2.71875 1.546875 -2.71875 C 1.742188 -2.71875 1.921875 -2.679688 2.078125 -2.609375 C 2.242188 -2.546875 2.382812 -2.453125 2.5 -2.328125 C 2.613281 -2.210938 2.703125 -2.066406 2.765625 -1.890625 C 2.828125 -1.722656 2.859375 -1.535156 2.859375 -1.328125 C 2.859375 -1.117188 2.828125 -0.925781 2.765625 -0.75 C 2.703125 -0.582031 2.613281 -0.4375 2.5 -0.3125 C 2.382812 -0.1875 2.242188 -0.0859375 2.078125 -0.015625 C 1.921875 0.046875 1.742188 0.078125 1.546875 0.078125 C 1.347656 0.078125 1.164062 0.046875 1 -0.015625 C 0.84375 -0.0859375 0.707031 -0.1875 0.59375 -0.3125 C 0.476562 -0.4375 0.382812 -0.582031 0.3125 -0.75 C 0.25 -0.925781 0.21875 -1.113281 0.21875 -1.3125 Z M 0.71875 -1.3125 C 0.71875 -1.164062 0.738281 -1.03125 0.78125 -0.90625 C 0.820312 -0.78125 0.878906 -0.675781 0.953125 -0.59375 C 1.035156 -0.507812 1.125 -0.441406 1.21875 -0.390625 C 1.320312 -0.347656 1.429688 -0.328125 1.546875 -0.328125 C 1.660156 -0.328125 1.765625 -0.347656 1.859375 -0.390625 C 1.960938 -0.441406 2.050781 -0.507812 2.125 -0.59375 C 2.207031 -0.675781 2.269531 -0.78125 2.3125 -0.90625 C 2.351562 -1.03125 2.375 -1.164062 2.375 -1.3125 C 2.375 -1.476562 2.351562 -1.625 2.3125 -1.75 C 2.269531 -1.875 2.210938 -1.976562 2.140625 -2.0625 C 2.066406 -2.144531 1.976562 -2.207031 1.875 -2.25 C 1.769531 -2.289062 1.660156 -2.3125 1.546875 -2.3125 C 1.429688 -2.3125 1.320312 -2.289062 1.21875 -2.25 C 1.125 -2.207031 1.035156 -2.144531 0.953125 -2.0625 C 0.878906 -1.976562 0.820312 -1.875 0.78125 -1.75 C 0.738281 -1.625 0.71875 -1.476562 0.71875 -1.3125 Z M 0.71875 -1.3125 "/></g></g></g><g fill="#ffffff" fill-opacity="1"><g transform="translate(92.33179, 5.834322)"><g><path d="M 0 0 Z M 0 0 "/></g></g></g><g fill="#ffffff" fill-opacity="1"><g transform="translate(93.470809, 5.834322)"><g><path d="M 0.703125 -1.265625 C 0.703125 -1.179688 0.707031 -1.109375 0.71875 -1.046875 C 0.726562 -0.984375 0.742188 -0.925781 0.765625 -0.875 C 0.828125 -0.707031 0.925781 -0.578125 1.0625 -0.484375 C 1.207031 -0.398438 1.367188 -0.359375 1.546875 -0.359375 C 1.679688 -0.359375 1.8125 -0.378906 1.9375 -0.421875 C 2.070312 -0.460938 2.207031 -0.519531 2.34375 -0.59375 L 2.546875 -0.28125 C 2.367188 -0.15625 2.191406 -0.0625 2.015625 0 C 1.835938 0.0507812 1.65625 0.078125 1.46875 0.078125 C 1.289062 0.078125 1.125 0.046875 0.96875 -0.015625 C 0.820312 -0.078125 0.691406 -0.164062 0.578125 -0.28125 C 0.472656 -0.394531 0.390625 -0.539062 0.328125 -0.71875 C 0.265625 -0.894531 0.234375 -1.097656 0.234375 -1.328125 C 0.234375 -1.515625 0.257812 -1.691406 0.3125 -1.859375 C 0.363281 -2.023438 0.441406 -2.171875 0.546875 -2.296875 C 0.648438 -2.421875 0.78125 -2.519531 0.9375 -2.59375 C 1.09375 -2.664062 1.273438 -2.703125 1.484375 -2.703125 C 1.679688 -2.703125 1.84375 -2.671875 1.96875 -2.609375 C 2.101562 -2.554688 2.210938 -2.476562 2.296875 -2.375 C 2.378906 -2.28125 2.441406 -2.164062 2.484375 -2.03125 C 2.535156 -1.90625 2.566406 -1.78125 2.578125 -1.65625 C 2.585938 -1.582031 2.59375 -1.515625 2.59375 -1.453125 C 2.601562 -1.390625 2.609375 -1.328125 2.609375 -1.265625 Z M 1.4375 -2.3125 C 1.332031 -2.3125 1.238281 -2.296875 1.15625 -2.265625 C 1.070312 -2.234375 1 -2.1875 0.9375 -2.125 C 0.882812 -2.070312 0.835938 -2 0.796875 -1.90625 C 0.765625 -1.820312 0.742188 -1.726562 0.734375 -1.625 L 2.09375 -1.625 C 2.09375 -1.726562 2.078125 -1.820312 2.046875 -1.90625 C 2.023438 -1.988281 1.988281 -2.054688 1.9375 -2.109375 C 1.882812 -2.171875 1.816406 -2.21875 1.734375 -2.25 C 1.660156 -2.289062 1.5625 -2.3125 1.4375 -2.3125 Z M 1.4375 -2.3125 "/></g></g></g><g fill="#ffffff" fill-opacity="1"><g transform="translate(96.458192, 5.834322)"><g><path d="M 0.234375 -3.96875 L 1.09375 -3.96875 L 1.09375 -0.4375 L 1.484375 -0.4375 L 1.484375 0 L 0.234375 0 L 0.234375 -0.4375 L 0.609375 -0.4375 L 0.609375 -3.53125 L 0.234375 -3.53125 Z M 0.234375 -3.96875 "/></g></g></g><g fill="#ffffff" fill-opacity="1"><g transform="translate(98.151462, 5.834322)"><g><path d="M 0 0 Z M 0 0 "/></g></g></g><g fill="#ffffff" fill-opacity="1"><g transform="translate(99.290481, 5.834322)"><g><path d="M 1.125 -2.640625 L 1.734375 -2.640625 L 1.734375 -2.25 L 1.125 -2.25 L 1.125 -0.4375 L 1.546875 -0.4375 L 1.546875 0 L 0.25 0 L 0.25 -0.4375 L 0.65625 -0.4375 L 0.65625 -2.25 L 0.21875 -2.25 L 0.21875 -2.640625 L 0.65625 -2.640625 L 0.65625 -3.046875 C 0.65625 -3.203125 0.675781 -3.335938 0.71875 -3.453125 C 0.757812 -3.566406 0.816406 -3.660156 0.890625 -3.734375 C 0.960938 -3.816406 1.050781 -3.875 1.15625 -3.90625 C 1.257812 -3.945312 1.378906 -3.96875 1.515625 -3.96875 C 1.609375 -3.96875 1.6875 -3.960938 1.75 -3.953125 C 1.820312 -3.941406 1.882812 -3.925781 1.9375 -3.90625 C 2 -3.894531 2.050781 -3.878906 2.09375 -3.859375 C 2.132812 -3.847656 2.175781 -3.832031 2.21875 -3.8125 L 2.0625 -3.484375 C 2.007812 -3.515625 1.9375 -3.535156 1.84375 -3.546875 C 1.757812 -3.566406 1.671875 -3.578125 1.578125 -3.578125 C 1.441406 -3.578125 1.332031 -3.535156 1.25 -3.453125 C 1.164062 -3.367188 1.125 -3.238281 1.125 -3.0625 Z M 1.125 -2.640625 "/></g></g></g><g fill="#ffffff" fill-opacity="1"><g transform="translate(101.184623, 5.834322)"><g><path d="M 1.84375 -2.640625 L 2.703125 -2.640625 L 2.703125 -0.4375 L 2.984375 -0.4375 L 2.984375 0 L 2.21875 0 L 2.21875 -0.25 C 2.101562 -0.15625 1.972656 -0.0820312 1.828125 -0.03125 C 1.691406 0.0195312 1.539062 0.046875 1.375 0.046875 C 1.25 0.046875 1.128906 0.03125 1.015625 0 C 0.910156 -0.0390625 0.816406 -0.101562 0.734375 -0.1875 C 0.660156 -0.269531 0.601562 -0.375 0.5625 -0.5 C 0.53125 -0.625 0.515625 -0.769531 0.515625 -0.9375 L 0.515625 -2.203125 L 0.15625 -2.203125 L 0.15625 -2.640625 L 1 -2.640625 L 1 -1 C 1 -0.789062 1.046875 -0.632812 1.140625 -0.53125 C 1.234375 -0.425781 1.367188 -0.375 1.546875 -0.375 C 1.648438 -0.375 1.757812 -0.394531 1.875 -0.4375 C 1.988281 -0.476562 2.097656 -0.53125 2.203125 -0.59375 L 2.203125 -2.203125 L 1.84375 -2.203125 Z M 1.84375 -2.640625 "/></g></g></g><g fill="#ffffff" fill-opacity="1"><g transform="translate(104.616932, 5.834322)"><g><path d="M 1.015625 -2.640625 L 1.640625 -2.640625 L 1.640625 -2.25 L 1.015625 -2.25 L 1 -0.734375 C 1 -0.628906 1.007812 -0.539062 1.03125 -0.46875 C 1.0625 -0.40625 1.101562 -0.363281 1.15625 -0.34375 C 1.207031 -0.320312 1.265625 -0.3125 1.328125 -0.3125 C 1.398438 -0.3125 1.460938 -0.316406 1.515625 -0.328125 C 1.578125 -0.335938 1.640625 -0.359375 1.703125 -0.390625 L 1.8125 -0.078125 C 1.726562 -0.0351562 1.640625 -0.00390625 1.546875 0.015625 C 1.460938 0.046875 1.359375 0.0625 1.234375 0.0625 C 1.117188 0.0625 1.019531 0.046875 0.9375 0.015625 C 0.851562 -0.00390625 0.78125 -0.046875 0.71875 -0.109375 C 0.65625 -0.179688 0.609375 -0.269531 0.578125 -0.375 C 0.554688 -0.488281 0.546875 -0.628906 0.546875 -0.796875 L 0.546875 -2.25 L 0.125 -2.25 L 0.125 -2.640625 L 0.5625 -2.640625 L 0.5625 -3.265625 L 1.015625 -3.484375 Z M 1.015625 -2.640625 "/></g></g></g><g fill="#ffffff" fill-opacity="1"><g transform="translate(106.554288, 5.834322)"><g><path d="M 1.84375 -2.640625 L 2.703125 -2.640625 L 2.703125 -0.4375 L 2.984375 -0.4375 L 2.984375 0 L 2.21875 0 L 2.21875 -0.25 C 2.101562 -0.15625 1.972656 -0.0820312 1.828125 -0.03125 C 1.691406 0.0195312 1.539062 0.046875 1.375 0.046875 C 1.25 0.046875 1.128906 0.03125 1.015625 0 C 0.910156 -0.0390625 0.816406 -0.101562 0.734375 -0.1875 C 0.660156 -0.269531 0.601562 -0.375 0.5625 -0.5 C 0.53125 -0.625 0.515625 -0.769531 0.515625 -0.9375 L 0.515625 -2.203125 L 0.15625 -2.203125 L 0.15625 -2.640625 L 1 -2.640625 L 1 -1 C 1 -0.789062 1.046875 -0.632812 1.140625 -0.53125 C 1.234375 -0.425781 1.367188 -0.375 1.546875 -0.375 C 1.648438 -0.375 1.757812 -0.394531 1.875 -0.4375 C 1.988281 -0.476562 2.097656 -0.53125 2.203125 -0.59375 L 2.203125 -2.203125 L 1.84375 -2.203125 Z M 1.84375 -2.640625 "/></g></g></g><g fill="#ffffff" fill-opacity="1"><g transform="translate(109.986597, 5.834322)"><g><path d="M 2.15625 -2.078125 L 1.671875 -2.078125 L 1.671875 -2.25 C 1.609375 -2.25 1.546875 -2.238281 1.484375 -2.21875 C 1.429688 -2.195312 1.378906 -2.160156 1.328125 -2.109375 C 1.273438 -2.066406 1.226562 -2.007812 1.1875 -1.9375 C 1.15625 -1.875 1.128906 -1.800781 1.109375 -1.71875 L 1.109375 -0.4375 L 1.5625 -0.4375 L 1.5625 0 L 0.25 0 L 0.25 -0.4375 L 0.625 -0.4375 L 0.625 -2.203125 L 0.25 -2.203125 L 0.25 -2.640625 L 1.09375 -2.640625 L 1.09375 -2.28125 C 1.125 -2.332031 1.160156 -2.378906 1.203125 -2.421875 C 1.242188 -2.472656 1.285156 -2.515625 1.328125 -2.546875 C 1.378906 -2.585938 1.429688 -2.613281 1.484375 -2.625 C 1.535156 -2.644531 1.597656 -2.65625 1.671875 -2.65625 C 1.753906 -2.65625 1.832031 -2.65625 1.90625 -2.65625 C 1.988281 -2.65625 2.070312 -2.65625 2.15625 -2.65625 Z M 2.15625 -2.078125 "/></g></g></g><g fill="#ffffff" fill-opacity="1"><g transform="translate(112.427354, 5.834322)"><g><path d="M 0.21875 -1.3125 C 0.21875 -1.53125 0.25 -1.722656 0.3125 -1.890625 C 0.382812 -2.054688 0.476562 -2.203125 0.59375 -2.328125 C 0.707031 -2.453125 0.84375 -2.546875 1 -2.609375 C 1.164062 -2.679688 1.347656 -2.71875 1.546875 -2.71875 C 1.742188 -2.71875 1.921875 -2.679688 2.078125 -2.609375 C 2.242188 -2.546875 2.382812 -2.453125 2.5 -2.328125 C 2.613281 -2.210938 2.703125 -2.066406 2.765625 -1.890625 C 2.828125 -1.722656 2.859375 -1.535156 2.859375 -1.328125 C 2.859375 -1.117188 2.828125 -0.925781 2.765625 -0.75 C 2.703125 -0.582031 2.613281 -0.4375 2.5 -0.3125 C 2.382812 -0.1875 2.242188 -0.0859375 2.078125 -0.015625 C 1.921875 0.046875 1.742188 0.078125 1.546875 0.078125 C 1.347656 0.078125 1.164062 0.046875 1 -0.015625 C 0.84375 -0.0859375 0.707031 -0.1875 0.59375 -0.3125 C 0.476562 -0.4375 0.382812 -0.582031 0.3125 -0.75 C 0.25 -0.925781 0.21875 -1.113281 0.21875 -1.3125 Z M 0.71875 -1.3125 C 0.71875 -1.164062 0.738281 -1.03125 0.78125 -0.90625 C 0.820312 -0.78125 0.878906 -0.675781 0.953125 -0.59375 C 1.035156 -0.507812 1.125 -0.441406 1.21875 -0.390625 C 1.320312 -0.347656 1.429688 -0.328125 1.546875 -0.328125 C 1.660156 -0.328125 1.765625 -0.347656 1.859375 -0.390625 C 1.960938 -0.441406 2.050781 -0.507812 2.125 -0.59375 C 2.207031 -0.675781 2.269531 -0.78125 2.3125 -0.90625 C 2.351562 -1.03125 2.375 -1.164062 2.375 -1.3125 C 2.375 -1.476562 2.351562 -1.625 2.3125 -1.75 C 2.269531 -1.875 2.210938 -1.976562 2.140625 -2.0625 C 2.066406 -2.144531 1.976562 -2.207031 1.875 -2.25 C 1.769531 -2.289062 1.660156 -2.3125 1.546875 -2.3125 C 1.429688 -2.3125 1.320312 -2.289062 1.21875 -2.25 C 1.125 -2.207031 1.035156 -2.144531 0.953125 -2.0625 C 0.878906 -1.976562 0.820312 -1.875 0.78125 -1.75 C 0.738281 -1.625 0.71875 -1.476562 0.71875 -1.3125 Z M 0.71875 -1.3125 "/></g></g></g><g fill="#ffffff" fill-opacity="1"><g transform="translate(115.541864, 5.834322)"><g><path d="M 0 0 Z M 0 0 "/></g></g></g><g fill="#ffffff" fill-opacity="1"><g transform="translate(116.680884, 5.834322)"><g><path d="M 1.8125 -3.96875 L 2.640625 -3.96875 L 2.640625 -0.4375 L 3.03125 -0.4375 L 3.03125 0 L 2.171875 0 L 2.171875 -0.21875 C 2.085938 -0.132812 1.988281 -0.0664062 1.875 -0.015625 C 1.757812 0.0351562 1.632812 0.0625 1.5 0.0625 C 1.3125 0.0625 1.140625 0.03125 0.984375 -0.03125 C 0.835938 -0.09375 0.707031 -0.179688 0.59375 -0.296875 C 0.476562 -0.421875 0.390625 -0.570312 0.328125 -0.75 C 0.265625 -0.925781 0.234375 -1.125 0.234375 -1.34375 C 0.234375 -1.550781 0.265625 -1.738281 0.328125 -1.90625 C 0.390625 -2.070312 0.472656 -2.210938 0.578125 -2.328125 C 0.691406 -2.441406 0.828125 -2.53125 0.984375 -2.59375 C 1.148438 -2.664062 1.328125 -2.703125 1.515625 -2.703125 C 1.640625 -2.703125 1.753906 -2.6875 1.859375 -2.65625 C 1.972656 -2.632812 2.078125 -2.585938 2.171875 -2.515625 L 2.171875 -3.53125 L 1.8125 -3.53125 Z M 1.546875 -0.359375 C 1.691406 -0.359375 1.8125 -0.378906 1.90625 -0.421875 C 2 -0.460938 2.085938 -0.523438 2.171875 -0.609375 L 2.171875 -2.078125 C 2.085938 -2.148438 1.988281 -2.203125 1.875 -2.234375 C 1.769531 -2.265625 1.660156 -2.28125 1.546875 -2.28125 C 1.429688 -2.28125 1.320312 -2.257812 1.21875 -2.21875 C 1.125 -2.175781 1.039062 -2.113281 0.96875 -2.03125 C 0.894531 -1.957031 0.832031 -1.863281 0.78125 -1.75 C 0.738281 -1.632812 0.71875 -1.5 0.71875 -1.34375 C 0.71875 -1.1875 0.738281 -1.046875 0.78125 -0.921875 C 0.820312 -0.796875 0.878906 -0.691406 0.953125 -0.609375 C 1.023438 -0.523438 1.113281 -0.460938 1.21875 -0.421875 C 1.320312 -0.378906 1.429688 -0.359375 1.546875 -0.359375 Z M 1.546875 -0.359375 "/></g></g></g><g fill="#ffffff" fill-opacity="1"><g transform="translate(119.904717, 5.834322)"><g><path d="M 0.703125 -1.265625 C 0.703125 -1.179688 0.707031 -1.109375 0.71875 -1.046875 C 0.726562 -0.984375 0.742188 -0.925781 0.765625 -0.875 C 0.828125 -0.707031 0.925781 -0.578125 1.0625 -0.484375 C 1.207031 -0.398438 1.367188 -0.359375 1.546875 -0.359375 C 1.679688 -0.359375 1.8125 -0.378906 1.9375 -0.421875 C 2.070312 -0.460938 2.207031 -0.519531 2.34375 -0.59375 L 2.546875 -0.28125 C 2.367188 -0.15625 2.191406 -0.0625 2.015625 0 C 1.835938 0.0507812 1.65625 0.078125 1.46875 0.078125 C 1.289062 0.078125 1.125 0.046875 0.96875 -0.015625 C 0.820312 -0.078125 0.691406 -0.164062 0.578125 -0.28125 C 0.472656 -0.394531 0.390625 -0.539062 0.328125 -0.71875 C 0.265625 -0.894531 0.234375 -1.097656 0.234375 -1.328125 C 0.234375 -1.515625 0.257812 -1.691406 0.3125 -1.859375 C 0.363281 -2.023438 0.441406 -2.171875 0.546875 -2.296875 C 0.648438 -2.421875 0.78125 -2.519531 0.9375 -2.59375 C 1.09375 -2.664062 1.273438 -2.703125 1.484375 -2.703125 C 1.679688 -2.703125 1.84375 -2.671875 1.96875 -2.609375 C 2.101562 -2.554688 2.210938 -2.476562 2.296875 -2.375 C 2.378906 -2.28125 2.441406 -2.164062 2.484375 -2.03125 C 2.535156 -1.90625 2.566406 -1.78125 2.578125 -1.65625 C 2.585938 -1.582031 2.59375 -1.515625 2.59375 -1.453125 C 2.601562 -1.390625 2.609375 -1.328125 2.609375 -1.265625 Z M 1.4375 -2.3125 C 1.332031 -2.3125 1.238281 -2.296875 1.15625 -2.265625 C 1.070312 -2.234375 1 -2.1875 0.9375 -2.125 C 0.882812 -2.070312 0.835938 -2 0.796875 -1.90625 C 0.765625 -1.820312 0.742188 -1.726562 0.734375 -1.625 L 2.09375 -1.625 C 2.09375 -1.726562 2.078125 -1.820312 2.046875 -1.90625 C 2.023438 -1.988281 1.988281 -2.054688 1.9375 -2.109375 C 1.882812 -2.171875 1.816406 -2.21875 1.734375 -2.25 C 1.660156 -2.289062 1.5625 -2.3125 1.4375 -2.3125 Z M 1.4375 -2.3125 "/></g></g></g><g fill="#ffffff" fill-opacity="1"><g transform="translate(122.892109, 5.834322)"><g><path d="M 0.234375 -3.96875 L 1.09375 -3.96875 L 1.09375 -0.4375 L 1.484375 -0.4375 L 1.484375 0 L 0.234375 0 L 0.234375 -0.4375 L 0.609375 -0.4375 L 0.609375 -3.53125 L 0.234375 -3.53125 Z M 0.234375 -3.96875 "/></g></g></g><g fill="#ffffff" fill-opacity="1"><g transform="translate(124.585379, 5.834322)"><g><path d="M 0 0 Z M 0 0 "/></g></g></g><g fill="#ffffff" fill-opacity="1"><g transform="translate(125.724399, 5.834322)"><g><path d="M 2.15625 -2.078125 L 1.671875 -2.078125 L 1.671875 -2.25 C 1.609375 -2.25 1.546875 -2.238281 1.484375 -2.21875 C 1.429688 -2.195312 1.378906 -2.160156 1.328125 -2.109375 C 1.273438 -2.066406 1.226562 -2.007812 1.1875 -1.9375 C 1.15625 -1.875 1.128906 -1.800781 1.109375 -1.71875 L 1.109375 -0.4375 L 1.5625 -0.4375 L 1.5625 0 L 0.25 0 L 0.25 -0.4375 L 0.625 -0.4375 L 0.625 -2.203125 L 0.25 -2.203125 L 0.25 -2.640625 L 1.09375 -2.640625 L 1.09375 -2.28125 C 1.125 -2.332031 1.160156 -2.378906 1.203125 -2.421875 C 1.242188 -2.472656 1.285156 -2.515625 1.328125 -2.546875 C 1.378906 -2.585938 1.429688 -2.613281 1.484375 -2.625 C 1.535156 -2.644531 1.597656 -2.65625 1.671875 -2.65625 C 1.753906 -2.65625 1.832031 -2.65625 1.90625 -2.65625 C 1.988281 -2.65625 2.070312 -2.65625 2.15625 -2.65625 Z M 2.15625 -2.078125 "/></g></g></g><g fill="#ffffff" fill-opacity="1"><g transform="translate(128.165156, 5.834322)"><g><path d="M 0.703125 -1.265625 C 0.703125 -1.179688 0.707031 -1.109375 0.71875 -1.046875 C 0.726562 -0.984375 0.742188 -0.925781 0.765625 -0.875 C 0.828125 -0.707031 0.925781 -0.578125 1.0625 -0.484375 C 1.207031 -0.398438 1.367188 -0.359375 1.546875 -0.359375 C 1.679688 -0.359375 1.8125 -0.378906 1.9375 -0.421875 C 2.070312 -0.460938 2.207031 -0.519531 2.34375 -0.59375 L 2.546875 -0.28125 C 2.367188 -0.15625 2.191406 -0.0625 2.015625 0 C 1.835938 0.0507812 1.65625 0.078125 1.46875 0.078125 C 1.289062 0.078125 1.125 0.046875 0.96875 -0.015625 C 0.820312 -0.078125 0.691406 -0.164062 0.578125 -0.28125 C 0.472656 -0.394531 0.390625 -0.539062 0.328125 -0.71875 C 0.265625 -0.894531 0.234375 -1.097656 0.234375 -1.328125 C 0.234375 -1.515625 0.257812 -1.691406 0.3125 -1.859375 C 0.363281 -2.023438 0.441406 -2.171875 0.546875 -2.296875 C 0.648438 -2.421875 0.78125 -2.519531 0.9375 -2.59375 C 1.09375 -2.664062 1.273438 -2.703125 1.484375 -2.703125 C 1.679688 -2.703125 1.84375 -2.671875 1.96875 -2.609375 C 2.101562 -2.554688 2.210938 -2.476562 2.296875 -2.375 C 2.378906 -2.28125 2.441406 -2.164062 2.484375 -2.03125 C 2.535156 -1.90625 2.566406 -1.78125 2.578125 -1.65625 C 2.585938 -1.582031 2.59375 -1.515625 2.59375 -1.453125 C 2.601562 -1.390625 2.609375 -1.328125 2.609375 -1.265625 Z M 1.4375 -2.3125 C 1.332031 -2.3125 1.238281 -2.296875 1.15625 -2.265625 C 1.070312 -2.234375 1 -2.1875 0.9375 -2.125 C 0.882812 -2.070312 0.835938 -2 0.796875 -1.90625 C 0.765625 -1.820312 0.742188 -1.726562 0.734375 -1.625 L 2.09375 -1.625 C 2.09375 -1.726562 2.078125 -1.820312 2.046875 -1.90625 C 2.023438 -1.988281 1.988281 -2.054688 1.9375 -2.109375 C 1.882812 -2.171875 1.816406 -2.21875 1.734375 -2.25 C 1.660156 -2.289062 1.5625 -2.3125 1.4375 -2.3125 Z M 1.4375 -2.3125 "/></g></g></g><g fill="#ffffff" fill-opacity="1"><g transform="translate(131.152538, 5.834322)"><g><path d="M 0.234375 -3.96875 L 1.09375 -3.96875 L 1.09375 -0.4375 L 1.484375 -0.4375 L 1.484375 0 L 0.234375 0 L 0.234375 -0.4375 L 0.609375 -0.4375 L 0.609375 -3.53125 L 0.234375 -3.53125 Z M 0.234375 -3.96875 "/></g></g></g><g fill="#ffffff" fill-opacity="1"><g transform="translate(132.845818, 5.834322)"><g><path d="M 1.8125 -0.25 C 1.707031 -0.15625 1.59375 -0.078125 1.46875 -0.015625 C 1.351562 0.046875 1.21875 0.078125 1.0625 0.078125 C 0.925781 0.078125 0.804688 0.0546875 0.703125 0.015625 C 0.597656 -0.0234375 0.503906 -0.0820312 0.421875 -0.15625 C 0.347656 -0.226562 0.285156 -0.3125 0.234375 -0.40625 C 0.191406 -0.5 0.171875 -0.597656 0.171875 -0.703125 C 0.171875 -0.804688 0.1875 -0.898438 0.21875 -0.984375 C 0.257812 -1.078125 0.304688 -1.15625 0.359375 -1.21875 C 0.410156 -1.28125 0.472656 -1.332031 0.546875 -1.375 C 0.628906 -1.425781 0.707031 -1.460938 0.78125 -1.484375 C 0.863281 -1.515625 0.945312 -1.535156 1.03125 -1.546875 C 1.113281 -1.554688 1.195312 -1.5625 1.28125 -1.5625 C 1.394531 -1.5625 1.492188 -1.554688 1.578125 -1.546875 C 1.660156 -1.535156 1.738281 -1.523438 1.8125 -1.515625 L 1.8125 -1.734375 C 1.8125 -1.828125 1.796875 -1.90625 1.765625 -1.96875 C 1.742188 -2.039062 1.707031 -2.097656 1.65625 -2.140625 C 1.601562 -2.191406 1.539062 -2.226562 1.46875 -2.25 C 1.40625 -2.269531 1.332031 -2.28125 1.25 -2.28125 C 1.164062 -2.28125 1.085938 -2.273438 1.015625 -2.265625 C 0.941406 -2.253906 0.875 -2.238281 0.8125 -2.21875 C 0.75 -2.195312 0.691406 -2.175781 0.640625 -2.15625 C 0.585938 -2.132812 0.539062 -2.113281 0.5 -2.09375 L 0.34375 -2.421875 C 0.40625 -2.460938 0.472656 -2.5 0.546875 -2.53125 C 0.628906 -2.5625 0.707031 -2.585938 0.78125 -2.609375 C 0.863281 -2.640625 0.945312 -2.660156 1.03125 -2.671875 C 1.125 -2.691406 1.210938 -2.703125 1.296875 -2.703125 C 1.453125 -2.703125 1.585938 -2.679688 1.703125 -2.640625 C 1.828125 -2.609375 1.929688 -2.550781 2.015625 -2.46875 C 2.097656 -2.394531 2.160156 -2.296875 2.203125 -2.171875 C 2.253906 -2.054688 2.28125 -1.921875 2.28125 -1.765625 L 2.28125 -0.4375 L 2.578125 -0.4375 L 2.578125 0 L 1.8125 0 Z M 1.171875 -0.328125 C 1.234375 -0.328125 1.296875 -0.332031 1.359375 -0.34375 C 1.421875 -0.363281 1.476562 -0.382812 1.53125 -0.40625 C 1.582031 -0.4375 1.632812 -0.46875 1.6875 -0.5 C 1.738281 -0.53125 1.78125 -0.566406 1.8125 -0.609375 L 1.8125 -1.203125 L 1.265625 -1.203125 C 1.171875 -1.203125 1.082031 -1.191406 1 -1.171875 C 0.925781 -1.148438 0.863281 -1.117188 0.8125 -1.078125 C 0.757812 -1.046875 0.71875 -1 0.6875 -0.9375 C 0.65625 -0.882812 0.640625 -0.816406 0.640625 -0.734375 C 0.640625 -0.671875 0.648438 -0.613281 0.671875 -0.5625 C 0.703125 -0.507812 0.738281 -0.460938 0.78125 -0.421875 C 0.832031 -0.390625 0.890625 -0.363281 0.953125 -0.34375 C 1.015625 -0.332031 1.085938 -0.328125 1.171875 -0.328125 Z M 1.171875 -0.328125 "/></g></g></g><g fill="#ffffff" fill-opacity="1"><g transform="translate(135.693368, 5.834322)"><g><path d="M 1.015625 -2.640625 L 1.640625 -2.640625 L 1.640625 -2.25 L 1.015625 -2.25 L 1 -0.734375 C 1 -0.628906 1.007812 -0.539062 1.03125 -0.46875 C 1.0625 -0.40625 1.101562 -0.363281 1.15625 -0.34375 C 1.207031 -0.320312 1.265625 -0.3125 1.328125 -0.3125 C 1.398438 -0.3125 1.460938 -0.316406 1.515625 -0.328125 C 1.578125 -0.335938 1.640625 -0.359375 1.703125 -0.390625 L 1.8125 -0.078125 C 1.726562 -0.0351562 1.640625 -0.00390625 1.546875 0.015625 C 1.460938 0.046875 1.359375 0.0625 1.234375 0.0625 C 1.117188 0.0625 1.019531 0.046875 0.9375 0.015625 C 0.851562 -0.00390625 0.78125 -0.046875 0.71875 -0.109375 C 0.65625 -0.179688 0.609375 -0.269531 0.578125 -0.375 C 0.554688 -0.488281 0.546875 -0.628906 0.546875 -0.796875 L 0.546875 -2.25 L 0.125 -2.25 L 0.125 -2.640625 L 0.5625 -2.640625 L 0.5625 -3.265625 L 1.015625 -3.484375 Z M 1.015625 -2.640625 "/></g></g></g><g fill="#ffffff" fill-opacity="1"><g transform="translate(137.630724, 5.834322)"><g><path d="M 0.21875 -1.3125 C 0.21875 -1.53125 0.25 -1.722656 0.3125 -1.890625 C 0.382812 -2.054688 0.476562 -2.203125 0.59375 -2.328125 C 0.707031 -2.453125 0.84375 -2.546875 1 -2.609375 C 1.164062 -2.679688 1.347656 -2.71875 1.546875 -2.71875 C 1.742188 -2.71875 1.921875 -2.679688 2.078125 -2.609375 C 2.242188 -2.546875 2.382812 -2.453125 2.5 -2.328125 C 2.613281 -2.210938 2.703125 -2.066406 2.765625 -1.890625 C 2.828125 -1.722656 2.859375 -1.535156 2.859375 -1.328125 C 2.859375 -1.117188 2.828125 -0.925781 2.765625 -0.75 C 2.703125 -0.582031 2.613281 -0.4375 2.5 -0.3125 C 2.382812 -0.1875 2.242188 -0.0859375 2.078125 -0.015625 C 1.921875 0.046875 1.742188 0.078125 1.546875 0.078125 C 1.347656 0.078125 1.164062 0.046875 1 -0.015625 C 0.84375 -0.0859375 0.707031 -0.1875 0.59375 -0.3125 C 0.476562 -0.4375 0.382812 -0.582031 0.3125 -0.75 C 0.25 -0.925781 0.21875 -1.113281 0.21875 -1.3125 Z M 0.71875 -1.3125 C 0.71875 -1.164062 0.738281 -1.03125 0.78125 -0.90625 C 0.820312 -0.78125 0.878906 -0.675781 0.953125 -0.59375 C 1.035156 -0.507812 1.125 -0.441406 1.21875 -0.390625 C 1.320312 -0.347656 1.429688 -0.328125 1.546875 -0.328125 C 1.660156 -0.328125 1.765625 -0.347656 1.859375 -0.390625 C 1.960938 -0.441406 2.050781 -0.507812 2.125 -0.59375 C 2.207031 -0.675781 2.269531 -0.78125 2.3125 -0.90625 C 2.351562 -1.03125 2.375 -1.164062 2.375 -1.3125 C 2.375 -1.476562 2.351562 -1.625 2.3125 -1.75 C 2.269531 -1.875 2.210938 -1.976562 2.140625 -2.0625 C 2.066406 -2.144531 1.976562 -2.207031 1.875 -2.25 C 1.769531 -2.289062 1.660156 -2.3125 1.546875 -2.3125 C 1.429688 -2.3125 1.320312 -2.289062 1.21875 -2.25 C 1.125 -2.207031 1.035156 -2.144531 0.953125 -2.0625 C 0.878906 -1.976562 0.820312 -1.875 0.78125 -1.75 C 0.738281 -1.625 0.71875 -1.476562 0.71875 -1.3125 Z M 0.71875 -1.3125 "/></g></g></g><g fill="#ffffff" fill-opacity="1"><g transform="translate(140.745223, 5.834322)"><g><path d="M 0 0 Z M 0 0 "/></g></g></g><g clip-path="url(#5e790bfcbc)"><g fill="#ffffff" fill-opacity="1"><g transform="translate(141.884243, 5.834322)"><g><path d="M 0.640625 -2.703125 L 0.203125 -2.703125 L 0.109375 -4.015625 L 0.6875 -4.015625 Z M 1.5 -2.703125 L 1.0625 -2.703125 L 1.03125 -4.015625 L 1.625 -4.015625 Z M 1.5 -2.703125 "/></g></g></g></g></g></g></g></g></g></svg>