<svg xmlns="http://www.w3.org/2000/svg" xmlns:xlink="http://www.w3.org/1999/xlink" width="350" zoomAndPan="magnify" viewBox="0 0 262.5 74.999997" height="100" preserveAspectRatio="xMidYMid meet" version="1.0"><defs><filter x="0%" y="0%" width="100%" height="100%" id="90f64aca67"><feColorMatrix values="0 0 0 0 1 0 0 0 0 1 0 0 0 0 1 0 0 0 1 0" color-interpolation-filters="sRGB"/></filter><g/><clipPath id="a9fe1ecd27"><path d="M 0 0.0703125 L 262 0.0703125 L 262 74.925781 L 0 74.925781 Z M 0 0.0703125 " clip-rule="nonzero"/></clipPath><clipPath id="c7e9c6146c"><path d="M 0 0.0703125 L 262 0.0703125 L 262 74.925781 L 0 74.925781 Z M 0 0.0703125 " clip-rule="nonzero"/></clipPath><clipPath id="23e51bf789"><path d="M 0 0.0703125 L 262 0.0703125 L 262 74.925781 L 0 74.925781 Z M 0 0.0703125 " clip-rule="nonzero"/></clipPath><clipPath id="8beb0e6ebb"><path d="M 0 0.0703125 L 262 0.0703125 L 262 74.925781 L 0 74.925781 Z M 0 0.0703125 " clip-rule="nonzero"/></clipPath><clipPath id="442601530e"><path d="M 0 0.0703125 L 262 0.0703125 L 262 74.925781 L 0 74.925781 Z M 0 0.0703125 " clip-rule="nonzero"/></clipPath><linearGradient x1="-92.87864" gradientTransform="matrix(0.629254, 0, 0, 0.629403, 58.444252, -24.924243)" y1="97" x2="323.488925" gradientUnits="userSpaceOnUse" y2="97" id="164df14247"><stop stop-opacity="1" stop-color="rgb(36.468506%, 87.838745%, 90.19928%)" offset="0"/><stop stop-opacity="1" stop-color="rgb(36.468506%, 87.838745%, 90.19928%)" offset="0.125"/><stop stop-opacity="1" stop-color="rgb(36.468506%, 87.838745%, 90.19928%)" offset="0.1875"/><stop stop-opacity="1" stop-color="rgb(36.468506%, 87.838745%, 90.19928%)" offset="0.21875"/><stop stop-opacity="1" stop-color="rgb(36.203003%, 87.411499%, 90.036011%)" offset="0.222656"/><stop stop-opacity="1" stop-color="rgb(35.939026%, 86.984253%, 89.874268%)" offset="0.226562"/><stop stop-opacity="1" stop-color="rgb(35.346985%, 86.029053%, 89.511108%)" offset="0.230469"/><stop stop-opacity="1" stop-color="rgb(34.754944%, 85.073853%, 89.147949%)" offset="0.234375"/><stop stop-opacity="1" stop-color="rgb(34.162903%, 84.118652%, 88.78479%)" offset="0.238281"/><stop stop-opacity="1" stop-color="rgb(33.570862%, 83.163452%, 88.421631%)" offset="0.242188"/><stop stop-opacity="1" stop-color="rgb(32.977295%, 82.208252%, 88.058472%)" offset="0.246094"/><stop stop-opacity="1" stop-color="rgb(32.385254%, 81.253052%, 87.695312%)" offset="0.25"/><stop stop-opacity="1" stop-color="rgb(31.793213%, 80.297852%, 87.332153%)" offset="0.253906"/><stop stop-opacity="1" stop-color="rgb(31.201172%, 79.342651%, 86.968994%)" offset="0.257812"/><stop stop-opacity="1" stop-color="rgb(30.607605%, 78.387451%, 86.605835%)" offset="0.261719"/><stop stop-opacity="1" stop-color="rgb(30.015564%, 77.432251%, 86.242676%)" offset="0.265625"/><stop stop-opacity="1" stop-color="rgb(29.423523%, 76.475525%, 85.879517%)" offset="0.269531"/><stop stop-opacity="1" stop-color="rgb(28.831482%, 75.520325%, 85.516357%)" offset="0.273437"/><stop stop-opacity="1" stop-color="rgb(28.239441%, 74.565125%, 85.153198%)" offset="0.277344"/><stop stop-opacity="1" stop-color="rgb(27.6474%, 73.609924%, 84.790039%)" offset="0.28125"/><stop stop-opacity="1" stop-color="rgb(27.053833%, 72.654724%, 84.42688%)" offset="0.285156"/><stop stop-opacity="1" stop-color="rgb(26.461792%, 71.699524%, 84.063721%)" offset="0.289062"/><stop stop-opacity="1" stop-color="rgb(25.869751%, 70.744324%, 83.700562%)" offset="0.292969"/><stop stop-opacity="1" stop-color="rgb(25.27771%, 69.789124%, 83.337402%)" offset="0.296875"/><stop stop-opacity="1" stop-color="rgb(24.685669%, 68.833923%, 82.974243%)" offset="0.300781"/><stop stop-opacity="1" stop-color="rgb(24.093628%, 67.878723%, 82.611084%)" offset="0.304687"/><stop stop-opacity="1" stop-color="rgb(23.500061%, 66.923523%, 82.247925%)" offset="0.308594"/><stop stop-opacity="1" stop-color="rgb(22.90802%, 65.968323%, 81.884766%)" offset="0.3125"/><stop stop-opacity="1" stop-color="rgb(22.315979%, 65.011597%, 81.521606%)" offset="0.316406"/><stop stop-opacity="1" stop-color="rgb(21.723938%, 64.056396%, 81.158447%)" offset="0.320312"/><stop stop-opacity="1" stop-color="rgb(21.130371%, 63.101196%, 80.795288%)" offset="0.324219"/><stop stop-opacity="1" stop-color="rgb(20.53833%, 62.145996%, 80.432129%)" offset="0.328125"/><stop stop-opacity="1" stop-color="rgb(19.946289%, 61.190796%, 80.06897%)" offset="0.332031"/><stop stop-opacity="1" stop-color="rgb(19.354248%, 60.235596%, 79.705811%)" offset="0.335937"/><stop stop-opacity="1" stop-color="rgb(18.762207%, 59.280396%, 79.342651%)" offset="0.339844"/><stop stop-opacity="1" stop-color="rgb(18.170166%, 58.325195%, 78.979492%)" offset="0.34375"/><stop stop-opacity="1" stop-color="rgb(17.576599%, 57.369995%, 78.616333%)" offset="0.347656"/><stop stop-opacity="1" stop-color="rgb(16.984558%, 56.414795%, 78.253174%)" offset="0.351562"/><stop stop-opacity="1" stop-color="rgb(16.392517%, 55.459595%, 77.890015%)" offset="0.355469"/><stop stop-opacity="1" stop-color="rgb(15.800476%, 54.504395%, 77.526855%)" offset="0.359375"/><stop stop-opacity="1" stop-color="rgb(15.208435%, 53.547668%, 77.163696%)" offset="0.363281"/><stop stop-opacity="1" stop-color="rgb(14.616394%, 52.592468%, 76.800537%)" offset="0.367187"/><stop stop-opacity="1" stop-color="rgb(14.022827%, 51.637268%, 76.437378%)" offset="0.371094"/><stop stop-opacity="1" stop-color="rgb(13.430786%, 50.682068%, 76.074219%)" offset="0.375"/><stop stop-opacity="1" stop-color="rgb(12.838745%, 49.726868%, 75.71106%)" offset="0.378906"/><stop stop-opacity="1" stop-color="rgb(12.246704%, 48.771667%, 75.3479%)" offset="0.382812"/><stop stop-opacity="1" stop-color="rgb(11.653137%, 47.816467%, 74.984741%)" offset="0.386719"/><stop stop-opacity="1" stop-color="rgb(11.061096%, 46.861267%, 74.621582%)" offset="0.390625"/><stop stop-opacity="1" stop-color="rgb(10.469055%, 45.906067%, 74.258423%)" offset="0.394531"/><stop stop-opacity="1" stop-color="rgb(9.877014%, 44.950867%, 73.895264%)" offset="0.398437"/><stop stop-opacity="1" stop-color="rgb(9.284973%, 43.995667%, 73.532104%)" offset="0.402344"/><stop stop-opacity="1" stop-color="rgb(8.692932%, 43.040466%, 73.168945%)" offset="0.40625"/><stop stop-opacity="1" stop-color="rgb(8.099365%, 42.085266%, 72.805786%)" offset="0.410156"/><stop stop-opacity="1" stop-color="rgb(7.507324%, 41.130066%, 72.442627%)" offset="0.414062"/><stop stop-opacity="1" stop-color="rgb(6.915283%, 40.17334%, 72.079468%)" offset="0.417969"/><stop stop-opacity="1" stop-color="rgb(6.323242%, 39.21814%, 71.716309%)" offset="0.421875"/><stop stop-opacity="1" stop-color="rgb(5.731201%, 38.262939%, 71.353149%)" offset="0.425781"/><stop stop-opacity="1" stop-color="rgb(5.13916%, 37.307739%, 70.98999%)" offset="0.429687"/><stop stop-opacity="1" stop-color="rgb(4.545593%, 36.352539%, 70.626831%)" offset="0.433594"/><stop stop-opacity="1" stop-color="rgb(3.953552%, 35.397339%, 70.263672%)" offset="0.4375"/><stop stop-opacity="1" stop-color="rgb(3.361511%, 34.442139%, 69.900513%)" offset="0.441406"/><stop stop-opacity="1" stop-color="rgb(2.76947%, 33.486938%, 69.537354%)" offset="0.445312"/><stop stop-opacity="1" stop-color="rgb(2.175903%, 32.531738%, 69.174194%)" offset="0.449219"/><stop stop-opacity="1" stop-color="rgb(1.583862%, 31.576538%, 68.811035%)" offset="0.453125"/><stop stop-opacity="1" stop-color="rgb(0.991821%, 30.621338%, 68.447876%)" offset="0.457031"/><stop stop-opacity="1" stop-color="rgb(0.39978%, 29.666138%, 68.084717%)" offset="0.460937"/><stop stop-opacity="1" stop-color="rgb(0.19989%, 29.342651%, 67.961121%)" offset="0.464844"/><stop stop-opacity="1" stop-color="rgb(0%, 29.019165%, 67.83905%)" offset="0.46875"/><stop stop-opacity="1" stop-color="rgb(0%, 29.019165%, 67.83905%)" offset="0.5"/><stop stop-opacity="1" stop-color="rgb(0%, 29.019165%, 67.83905%)" offset="1"/></linearGradient><clipPath id="b93ba1a36e"><rect x="0" width="262" y="0" height="75"/></clipPath><clipPath id="a4ea39167a"><path d="M 0 0.0703125 L 262 0.0703125 L 262 74.925781 L 0 74.925781 Z M 0 0.0703125 " clip-rule="nonzero"/></clipPath><clipPath id="e0184861c1"><rect x="0" width="262" y="0" height="75"/></clipPath><clipPath id="2a0767b6b5"><rect x="0" width="262" y="0" height="75"/></clipPath><mask id="85f7a8502d"><g filter="url(#90f64aca67)"><g transform="matrix(1, 0, 0, 1, 0, 0.000000000000008313)"><g clip-path="url(#2a0767b6b5)"><g clip-path="url(#a4ea39167a)"><g transform="matrix(1, 0, 0, 1, 0, 0.000000000000008313)"><g clip-path="url(#e0184861c1)"><g fill="#000000" fill-opacity="1"><g transform="translate(58.472849, 61.940187)"><g/></g></g><g fill="#000000" fill-opacity="1"><g transform="translate(80.911101, 61.940187)"><g><path d="M 3.546875 -19.578125 C 3.546875 -22.597656 4.09375 -25.394531 5.1875 -27.96875 C 6.289062 -30.550781 7.78125 -32.753906 9.65625 -34.578125 C 13.644531 -38.390625 18.675781 -40.296875 24.75 -40.296875 C 28.332031 -40.179688 31.453125 -39.34375 34.109375 -37.78125 C 36.816406 -36.21875 38.226562 -34.296875 38.34375 -32.015625 C 38.34375 -30.785156 37.53125 -29.972656 35.90625 -29.578125 C 35.476562 -29.492188 35.09375 -29.453125 34.75 -29.453125 C 33.4375 -29.453125 32.367188 -30.347656 31.546875 -32.140625 C 29.921875 -35.523438 27.171875 -37.21875 23.296875 -37.21875 C 19.878906 -37.21875 17.015625 -35.8125 14.703125 -33 C 12.253906 -30 11.03125 -26.050781 11.03125 -21.15625 C 11.03125 -15.71875 12.296875 -11.34375 14.828125 -8.03125 C 17.484375 -4.5625 21.101562 -2.828125 25.6875 -2.828125 C 28.820312 -2.828125 31.570312 -4.019531 33.9375 -6.40625 C 34.957031 -7.4375 35.726562 -7.953125 36.25 -7.953125 C 37.300781 -7.953125 37.828125 -7.425781 37.828125 -6.375 C 37.828125 -5.34375 36.816406 -4.085938 34.796875 -2.609375 C 31.515625 -0.160156 27.476562 1.0625 22.6875 1.0625 C 16.96875 1.0625 12.3125 -0.882812 8.71875 -4.78125 C 5.269531 -8.570312 3.546875 -13.503906 3.546875 -19.578125 Z M 3.546875 -19.578125 "/></g></g></g></g></g></g></g></g></g></mask><clipPath id="5d30883ab3"><path d="M 0 0.0703125 L 262 0.0703125 L 262 74.925781 L 0 74.925781 Z M 0 0.0703125 " clip-rule="nonzero"/></clipPath><clipPath id="59f088c045"><rect x="0" width="262" y="0" height="75"/></clipPath><clipPath id="5e0d7c6755"><rect x="0" width="262" y="0" height="75"/></clipPath><clipPath id="6bc69e3357"><rect x="0" width="262" y="0" height="75"/></clipPath><clipPath id="16734ef9e5"><path d="M 0 0.0703125 L 262 0.0703125 L 262 74.925781 L 0 74.925781 Z M 0 0.0703125 " clip-rule="nonzero"/></clipPath><clipPath id="24f328f2f4"><path d="M 0 0.0703125 L 262 0.0703125 L 262 74.925781 L 0 74.925781 Z M 0 0.0703125 " clip-rule="nonzero"/></clipPath><clipPath id="95a8090a43"><path d="M 0 0.0703125 L 262 0.0703125 L 262 74.925781 L 0 74.925781 Z M 0 0.0703125 " clip-rule="nonzero"/></clipPath><linearGradient x1="-173.460638" gradientTransform="matrix(0.629181, 0, 0, 0.629144, 109.138062, -141.63142)" y1="283" x2="242.955497" gradientUnits="userSpaceOnUse" y2="283" id="081ff31c48"><stop stop-opacity="1" stop-color="rgb(54.899597%, 32.159424%, 100%)" offset="0"/><stop stop-opacity="1" stop-color="rgb(54.899597%, 32.159424%, 100%)" offset="0.25"/><stop stop-opacity="1" stop-color="rgb(54.899597%, 32.159424%, 100%)" offset="0.375"/><stop stop-opacity="1" stop-color="rgb(54.899597%, 32.159424%, 100%)" offset="0.4375"/><stop stop-opacity="1" stop-color="rgb(54.899597%, 32.159424%, 100%)" offset="0.445312"/><stop stop-opacity="1" stop-color="rgb(55.641174%, 32.565308%, 98.849487%)" offset="0.449219"/><stop stop-opacity="1" stop-color="rgb(56.384277%, 32.972717%, 97.7005%)" offset="0.453125"/><stop stop-opacity="1" stop-color="rgb(57.550049%, 33.610535%, 95.895386%)" offset="0.457031"/><stop stop-opacity="1" stop-color="rgb(58.717346%, 34.249878%, 94.090271%)" offset="0.460938"/><stop stop-opacity="1" stop-color="rgb(59.883118%, 34.887695%, 92.285156%)" offset="0.464844"/><stop stop-opacity="1" stop-color="rgb(61.048889%, 35.527039%, 90.481567%)" offset="0.46875"/><stop stop-opacity="1" stop-color="rgb(62.214661%, 36.164856%, 88.676453%)" offset="0.472656"/><stop stop-opacity="1" stop-color="rgb(63.381958%, 36.804199%, 86.871338%)" offset="0.476562"/><stop stop-opacity="1" stop-color="rgb(64.547729%, 37.443542%, 85.066223%)" offset="0.480469"/><stop stop-opacity="1" stop-color="rgb(65.713501%, 38.082886%, 83.261108%)" offset="0.484375"/><stop stop-opacity="1" stop-color="rgb(66.879272%, 38.720703%, 81.455994%)" offset="0.488281"/><stop stop-opacity="1" stop-color="rgb(68.04657%, 39.360046%, 79.652405%)" offset="0.492188"/><stop stop-opacity="1" stop-color="rgb(69.212341%, 39.997864%, 77.84729%)" offset="0.496094"/><stop stop-opacity="1" stop-color="rgb(70.378113%, 40.637207%, 76.042175%)" offset="0.5"/><stop stop-opacity="1" stop-color="rgb(71.543884%, 41.275024%, 74.237061%)" offset="0.503906"/><stop stop-opacity="1" stop-color="rgb(72.711182%, 41.914368%, 72.431946%)" offset="0.507812"/><stop stop-opacity="1" stop-color="rgb(73.876953%, 42.552185%, 70.626831%)" offset="0.511719"/><stop stop-opacity="1" stop-color="rgb(75.04425%, 43.191528%, 68.823242%)" offset="0.515625"/><stop stop-opacity="1" stop-color="rgb(76.210022%, 43.829346%, 67.018127%)" offset="0.519531"/><stop stop-opacity="1" stop-color="rgb(77.375793%, 44.468689%, 65.213013%)" offset="0.523438"/><stop stop-opacity="1" stop-color="rgb(78.541565%, 45.106506%, 63.407898%)" offset="0.527344"/><stop stop-opacity="1" stop-color="rgb(79.708862%, 45.74585%, 61.602783%)" offset="0.53125"/><stop stop-opacity="1" stop-color="rgb(80.874634%, 46.385193%, 59.797668%)" offset="0.535156"/><stop stop-opacity="1" stop-color="rgb(82.040405%, 47.024536%, 57.99408%)" offset="0.539062"/><stop stop-opacity="1" stop-color="rgb(83.206177%, 47.662354%, 56.188965%)" offset="0.542969"/><stop stop-opacity="1" stop-color="rgb(84.373474%, 48.301697%, 54.38385%)" offset="0.546875"/><stop stop-opacity="1" stop-color="rgb(85.539246%, 48.939514%, 52.578735%)" offset="0.550781"/><stop stop-opacity="1" stop-color="rgb(86.705017%, 49.578857%, 50.773621%)" offset="0.554688"/><stop stop-opacity="1" stop-color="rgb(87.870789%, 50.216675%, 48.968506%)" offset="0.558594"/><stop stop-opacity="1" stop-color="rgb(89.038086%, 50.856018%, 47.163391%)" offset="0.5625"/><stop stop-opacity="1" stop-color="rgb(90.203857%, 51.493835%, 45.358276%)" offset="0.566406"/><stop stop-opacity="1" stop-color="rgb(91.369629%, 52.133179%, 43.554688%)" offset="0.570312"/><stop stop-opacity="1" stop-color="rgb(92.5354%, 52.770996%, 41.749573%)" offset="0.574219"/><stop stop-opacity="1" stop-color="rgb(93.702698%, 53.410339%, 39.944458%)" offset="0.578125"/><stop stop-opacity="1" stop-color="rgb(94.868469%, 54.048157%, 38.139343%)" offset="0.582031"/><stop stop-opacity="1" stop-color="rgb(96.034241%, 54.6875%, 36.334229%)" offset="0.585938"/><stop stop-opacity="1" stop-color="rgb(97.200012%, 55.325317%, 34.529114%)" offset="0.589844"/><stop stop-opacity="1" stop-color="rgb(98.36731%, 55.964661%, 32.725525%)" offset="0.59375"/><stop stop-opacity="1" stop-color="rgb(99.183655%, 56.411743%, 31.462097%)" offset="0.597656"/><stop stop-opacity="1" stop-color="rgb(100%, 56.858826%, 30.198669%)" offset="0.601562"/><stop stop-opacity="1" stop-color="rgb(100%, 56.858826%, 30.198669%)" offset="0.609375"/><stop stop-opacity="1" stop-color="rgb(100%, 56.858826%, 30.198669%)" offset="0.625"/><stop stop-opacity="1" stop-color="rgb(100%, 56.858826%, 30.198669%)" offset="0.75"/><stop stop-opacity="1" stop-color="rgb(100%, 56.858826%, 30.198669%)" offset="1"/></linearGradient><clipPath id="92bd318139"><rect x="0" width="262" y="0" height="75"/></clipPath><clipPath id="3a3af33978"><path d="M 0 0.0703125 L 262 0.0703125 L 262 74.925781 L 0 74.925781 Z M 0 0.0703125 " clip-rule="nonzero"/></clipPath><clipPath id="4bcd17c0bd"><rect x="0" width="262" y="0" height="75"/></clipPath><clipPath id="0833d02148"><rect x="0" width="262" y="0" height="75"/></clipPath><mask id="f71ec09f08"><g filter="url(#90f64aca67)"><g transform="matrix(1, 0, 0, 1, 0, 0.000000000000008313)"><g clip-path="url(#0833d02148)"><g clip-path="url(#3a3af33978)"><g transform="matrix(1, 0, 0, 1, 0, 0.000000000000008313)"><g clip-path="url(#4bcd17c0bd)"><g fill="#000000" fill-opacity="1"><g transform="translate(117.472111, 61.598986)"><g><path d="M 3.453125 -19.09375 C 3.453125 -22.039062 3.988281 -24.769531 5.0625 -27.28125 C 6.132812 -29.800781 7.585938 -31.945312 9.421875 -33.71875 C 13.304688 -37.445312 18.210938 -39.3125 24.140625 -39.3125 C 27.640625 -39.195312 30.679688 -38.375 33.265625 -36.84375 C 35.898438 -35.320312 37.273438 -33.445312 37.390625 -31.21875 C 37.390625 -30.03125 36.597656 -29.238281 35.015625 -28.84375 C 34.597656 -28.757812 34.222656 -28.71875 33.890625 -28.71875 C 32.609375 -28.71875 31.566406 -29.59375 30.765625 -31.34375 C 29.179688 -34.65625 26.5 -36.3125 22.71875 -36.3125 C 19.382812 -36.3125 16.59375 -34.9375 14.34375 -32.1875 C 11.945312 -29.269531 10.75 -25.421875 10.75 -20.640625 C 10.75 -15.328125 11.988281 -11.0625 14.46875 -7.84375 C 17.050781 -4.445312 20.578125 -2.75 25.046875 -2.75 C 28.109375 -2.75 30.789062 -3.914062 33.09375 -6.25 C 34.09375 -7.25 34.84375 -7.75 35.34375 -7.75 C 36.375 -7.75 36.890625 -7.238281 36.890625 -6.21875 C 36.890625 -5.207031 35.90625 -3.984375 33.9375 -2.546875 C 30.738281 -0.148438 26.804688 1.046875 22.140625 1.046875 C 16.546875 1.046875 12 -0.859375 8.5 -4.671875 C 5.132812 -8.367188 3.453125 -13.175781 3.453125 -19.09375 Z M 3.453125 -19.09375 "/></g></g></g></g></g></g></g></g></g></mask><clipPath id="24f5584e61"><path d="M 0 0.0703125 L 262 0.0703125 L 262 74.925781 L 0 74.925781 Z M 0 0.0703125 " clip-rule="nonzero"/></clipPath><clipPath id="2feb6bebef"><rect x="0" width="262" y="0" height="75"/></clipPath><clipPath id="a876f6e477"><rect x="0" width="262" y="0" height="75"/></clipPath><clipPath id="7ba35baf76"><rect x="0" width="262" y="0" height="75"/></clipPath><clipPath id="30f4c7b88c"><rect x="0" width="262" y="0" height="75"/></clipPath></defs><g clip-path="url(#a9fe1ecd27)"><g transform="matrix(1, 0, 0, 1, 0, 0.000000000000008313)"><g clip-path="url(#30f4c7b88c)"><g clip-path="url(#c7e9c6146c)"><g transform="matrix(1, 0, 0, 1, 0, 0.000000000000008313)"><g clip-path="url(#6bc69e3357)"><g clip-path="url(#23e51bf789)"><g transform="matrix(1, 0, 0, 1, 0, 0.000000000000008313)"><g clip-path="url(#5e0d7c6755)"><g clip-path="url(#8beb0e6ebb)"><g mask="url(#85f7a8502d)"><g transform="matrix(1, 0, 0, 1, 0, 0.000000000000008313)"><g clip-path="url(#59f088c045)"><g clip-path="url(#5d30883ab3)"><path fill="url(#164df14247)" d="M 0 0.0703125 L 0 74.929688 L 262 74.929688 L 262 0.0703125 Z M 0 0.0703125 " fill-rule="nonzero"/></g></g></g></g></g></g></g></g></g></g><g transform="matrix(1, 0, 0, 1, 0, 0.000000000000008313)"><g clip-path="url(#7ba35baf76)"><g clip-path="url(#16734ef9e5)"><g transform="matrix(1, 0, 0, 1, 0, 0.000000000000008313)"><g clip-path="url(#a876f6e477)"><g clip-path="url(#24f328f2f4)"><g mask="url(#f71ec09f08)"><g transform="matrix(1, 0, 0, 1, 0, 0.000000000000008313)"><g clip-path="url(#2feb6bebef)"><g clip-path="url(#24f5584e61)"><path fill="url(#081ff31c48)" d="M 0 0.0703125 L 0 74.929688 L 262 74.929688 L 262 0.0703125 Z M 0 0.0703125 " fill-rule="nonzero"/></g></g></g></g></g></g></g></g></g></g></g><g fill="#ffffff" fill-opacity="1"><g transform="translate(0.715661, 57.346033)"><g><path d="M 4.640625 0.515625 C 3.128906 0.515625 2.375 0.0859375 2.375 -0.765625 C 2.375 -1.441406 2.789062 -1.78125 3.625 -1.78125 L 5.34375 -1.609375 C 6.738281 -1.609375 7.675781 -2.382812 8.15625 -3.9375 C 8.550781 -5.269531 8.75 -7.644531 8.75 -11.0625 L 8.75 -35.6875 C 8.75 -39.101562 8.585938 -41.335938 8.265625 -42.390625 C 7.941406 -43.453125 7.550781 -44.175781 7.09375 -44.5625 C 6.644531 -44.945312 6.0625 -45.140625 5.34375 -45.140625 L 3.625 -45 C 2.789062 -45 2.375 -45.335938 2.375 -46.015625 C 2.375 -46.867188 3.007812 -47.296875 4.28125 -47.296875 C 5.5625 -47.296875 6.773438 -47.203125 7.921875 -47.015625 C 9.078125 -46.828125 10.285156 -46.734375 11.546875 -46.734375 C 12.796875 -46.734375 13.992188 -46.828125 15.140625 -47.015625 C 16.296875 -47.203125 17.773438 -47.296875 19.578125 -47.296875 C 21.390625 -47.296875 23.328125 -47.003906 25.390625 -46.421875 C 27.460938 -45.847656 29.207031 -45.023438 30.625 -43.953125 C 33.582031 -41.742188 35.0625 -38.8125 35.0625 -35.15625 C 35.0625 -31.113281 33.394531 -27.628906 30.0625 -24.703125 C 29 -23.765625 27.816406 -22.972656 26.515625 -22.328125 L 37.84375 -5.859375 C 39.125 -3.972656 40.53125 -2.832031 42.0625 -2.4375 C 42.507812 -2.320312 43.066406 -2.226562 43.734375 -2.15625 C 44.921875 -2.039062 45.515625 -1.648438 45.515625 -0.984375 C 45.515625 -0.328125 44.878906 0 43.609375 0 L 36.90625 0 C 35.300781 0 33.847656 -1.046875 32.546875 -3.140625 L 23.75 -17.203125 C 22.957031 -18.429688 22.203125 -19.304688 21.484375 -19.828125 C 20.765625 -20.347656 19.65625 -20.609375 18.15625 -20.609375 C 16.65625 -20.609375 15.347656 -20.578125 14.234375 -20.515625 L 14.234375 -11.0625 C 14.234375 -7.550781 14.390625 -5.285156 14.703125 -4.265625 C 15.015625 -3.253906 15.394531 -2.554688 15.84375 -2.171875 C 16.300781 -1.796875 16.90625 -1.609375 17.65625 -1.609375 L 19.328125 -1.78125 C 20.160156 -1.78125 20.578125 -1.441406 20.578125 -0.765625 C 20.578125 0.0859375 19.832031 0.515625 18.34375 0.515625 C 17.582031 0.515625 16.769531 0.445312 15.90625 0.3125 C 13.113281 -0.125 10.722656 -0.203125 8.734375 0.078125 C 6.742188 0.367188 5.378906 0.515625 4.640625 0.515625 Z M 14.234375 -23.578125 C 15.742188 -23.410156 17.195312 -23.328125 18.59375 -23.328125 L 20.796875 -23.328125 C 23.046875 -23.328125 24.953125 -24.097656 26.515625 -25.640625 C 28.328125 -27.429688 29.234375 -29.875 29.234375 -32.96875 C 29.234375 -36.6875 28.101562 -39.625 25.84375 -41.78125 C 23.726562 -43.832031 21.007812 -44.859375 17.6875 -44.859375 C 16.5 -44.859375 15.625 -44.691406 15.0625 -44.359375 C 14.507812 -44.035156 14.234375 -43.476562 14.234375 -42.6875 Z M 14.234375 -23.578125 "/></g></g></g><g fill="#ffffff" fill-opacity="1"><g transform="translate(46.124165, 57.346033)"><g><path d="M 34.609375 -4.671875 C 35.273438 -4.671875 35.609375 -4.363281 35.609375 -3.75 C 35.609375 -3.132812 34.929688 -2.546875 33.578125 -1.984375 C 32.234375 -1.429688 31.296875 -0.925781 30.765625 -0.46875 C 30.234375 -0.0195312 29.835938 0.3125 29.578125 0.53125 C 29.328125 0.757812 29.023438 0.875 28.671875 0.875 C 27.972656 0.875 27.390625 0.582031 26.921875 0 C 26.460938 -0.582031 25.835938 -1.828125 25.046875 -3.734375 C 23.722656 -2.222656 22.113281 -1.078125 20.21875 -0.296875 C 18.320312 0.484375 16.441406 0.875 14.578125 0.875 C 11.066406 0.875 8.34375 -0.0195312 6.40625 -1.8125 C 4.476562 -3.601562 3.515625 -6.054688 3.515625 -9.171875 C 3.515625 -12.285156 4.972656 -14.8125 7.890625 -16.75 C 10.816406 -18.695312 14.546875 -19.671875 19.078125 -19.671875 C 20.429688 -19.671875 22.210938 -19.4375 24.421875 -18.96875 L 24.421875 -21.703125 C 24.421875 -27.671875 21.894531 -30.65625 16.84375 -30.65625 C 14.175781 -30.65625 12.210938 -29.425781 10.953125 -26.96875 C 9.859375 -24.757812 8.789062 -23.65625 7.75 -23.65625 C 6.976562 -23.65625 6.304688 -23.875 5.734375 -24.3125 C 5.171875 -24.75 4.890625 -25.304688 4.890625 -25.984375 C 4.890625 -26.660156 5.234375 -27.410156 5.921875 -28.234375 C 6.617188 -29.054688 7.550781 -29.804688 8.71875 -30.484375 C 11.46875 -32.085938 14.476562 -32.890625 17.75 -32.890625 C 23.5625 -32.890625 27.316406 -30.992188 29.015625 -27.203125 C 29.648438 -25.859375 29.96875 -24.207031 29.96875 -22.25 L 29.96875 -8.34375 C 29.96875 -6.550781 30.140625 -5.394531 30.484375 -4.875 C 30.835938 -4.363281 31.328125 -4.109375 31.953125 -4.109375 C 32.578125 -4.109375 33.085938 -4.203125 33.484375 -4.390625 C 33.878906 -4.578125 34.253906 -4.671875 34.609375 -4.671875 Z M 24.421875 -15.734375 C 22.742188 -16.679688 20.625 -17.15625 18.0625 -17.15625 C 15.507812 -17.15625 13.457031 -16.515625 11.90625 -15.234375 C 10.363281 -13.960938 9.59375 -12.25 9.59375 -10.09375 C 9.59375 -7.945312 10.1875 -6.15625 11.375 -4.71875 C 12.5625 -3.289062 14.082031 -2.578125 15.9375 -2.578125 C 19.914062 -2.578125 22.773438 -3.878906 24.515625 -6.484375 C 24.453125 -7.140625 24.421875 -7.863281 24.421875 -8.65625 Z M 24.421875 -15.734375 "/></g></g></g><g fill="#ffffff" fill-opacity="1"><g transform="translate(82.154952, 57.346033)"><g/></g></g><g fill="#ffffff" fill-opacity="1"><g transform="translate(100.464833, 57.346033)"><g/></g></g><g fill="#ffffff" fill-opacity="1"><g transform="translate(118.774714, 57.346033)"><g/></g></g><g fill="#ffffff" fill-opacity="1"><g transform="translate(137.084595, 57.346033)"><g/></g></g><g fill="#ffffff" fill-opacity="1"><g transform="translate(155.39724, 57.346033)"><g><path d="M 2.65625 -15.484375 C 2.65625 -17.742188 3.0625 -19.929688 3.875 -22.046875 C 4.6875 -24.160156 5.835938 -26.019531 7.328125 -27.625 C 10.578125 -31.132812 14.632812 -32.890625 19.5 -32.890625 C 24.894531 -32.890625 29.046875 -31.273438 31.953125 -28.046875 C 34.578125 -25.117188 35.890625 -21.316406 35.890625 -16.640625 C 35.890625 -11.921875 34.320312 -7.835938 31.1875 -4.390625 C 27.976562 -0.878906 23.929688 0.875 19.046875 0.875 C 13.648438 0.875 9.507812 -0.738281 6.625 -3.96875 C 3.976562 -6.90625 2.65625 -10.742188 2.65625 -15.484375 Z M 8.546875 -16.953125 C 8.546875 -14.671875 8.859375 -12.539062 9.484375 -10.5625 C 10.109375 -8.59375 10.96875 -6.957031 12.0625 -5.65625 C 14.226562 -3 16.960938 -1.671875 20.265625 -1.671875 C 23.191406 -1.671875 25.578125 -2.832031 27.421875 -5.15625 C 29.328125 -7.582031 30.28125 -10.703125 30.28125 -14.515625 C 30.28125 -19.554688 29.117188 -23.507812 26.796875 -26.375 C 24.609375 -29 21.863281 -30.3125 18.5625 -30.3125 C 15.625 -30.3125 13.238281 -29.148438 11.40625 -26.828125 C 9.5 -24.410156 8.546875 -21.117188 8.546875 -16.953125 Z M 8.546875 -16.953125 "/></g></g></g><g fill="#ffffff" fill-opacity="1"><g transform="translate(193.725924, 57.346033)"><g><path d="M 4.078125 0.515625 C 2.523438 0.515625 1.75 0.0859375 1.75 -0.765625 C 1.75 -1.441406 2.175781 -1.78125 3.03125 -1.78125 L 4.78125 -1.609375 C 5.3125 -1.609375 5.75 -1.707031 6.09375 -1.90625 C 6.445312 -2.101562 6.71875 -2.523438 6.90625 -3.171875 C 7.28125 -4.359375 7.46875 -6.988281 7.46875 -11.0625 L 7.46875 -21.484375 C 7.46875 -23.859375 7.320312 -25.34375 7.03125 -25.9375 C 6.738281 -26.53125 6.390625 -26.9375 5.984375 -27.15625 C 5.578125 -27.375 4.910156 -27.550781 3.984375 -27.6875 C 3.066406 -27.832031 2.609375 -28.195312 2.609375 -28.78125 C 2.609375 -29.3125 3.203125 -29.691406 4.390625 -29.921875 C 7.160156 -30.503906 9.066406 -31.085938 10.109375 -31.671875 C 11.535156 -32.484375 12.507812 -32.890625 13.03125 -32.890625 C 13.550781 -32.890625 13.8125 -32.625 13.8125 -32.09375 C 13.8125 -31.832031 13.757812 -31.5625 13.65625 -31.28125 C 13.550781 -31.007812 13.441406 -30.675781 13.328125 -30.28125 C 13.140625 -29.488281 13 -28 12.90625 -25.8125 C 14.925781 -29.207031 17.367188 -31.320312 20.234375 -32.15625 C 21.066406 -32.414062 22 -32.546875 23.03125 -32.546875 C 24.070312 -32.546875 24.992188 -32.171875 25.796875 -31.421875 C 26.597656 -30.679688 27 -29.890625 27 -29.046875 C 27 -28.210938 26.90625 -27.597656 26.71875 -27.203125 C 26.53125 -26.804688 26.296875 -26.472656 26.015625 -26.203125 C 25.410156 -25.597656 24.867188 -25.296875 24.390625 -25.296875 C 23.921875 -25.296875 23.554688 -25.414062 23.296875 -25.65625 C 23.046875 -25.894531 22.753906 -26.34375 22.421875 -27 C 21.847656 -28.164062 21.195312 -28.75 20.46875 -28.75 C 19.75 -28.75 19.0625 -28.585938 18.40625 -28.265625 C 17.757812 -27.953125 17.113281 -27.484375 16.46875 -26.859375 C 15.050781 -25.535156 13.851562 -23.734375 12.875 -21.453125 L 12.875 -11.0625 C 12.875 -6.644531 12.992188 -4.046875 13.234375 -3.265625 C 13.484375 -2.484375 13.785156 -2.015625 14.140625 -1.859375 C 14.503906 -1.710938 15 -1.640625 15.625 -1.640625 L 18.734375 -1.921875 C 19.191406 -1.921875 19.5625 -1.804688 19.84375 -1.578125 C 20.125 -1.359375 20.265625 -1.085938 20.265625 -0.765625 C 20.265625 0.0859375 19.414062 0.515625 17.71875 0.515625 L 10.359375 0 C 9.171875 0 8.046875 0.0820312 6.984375 0.25 C 5.929688 0.425781 4.960938 0.515625 4.078125 0.515625 Z M 4.078125 0.515625 "/></g></g></g><g fill="#ffffff" fill-opacity="1"><g transform="translate(221.382563, 57.346033)"><g><path d="M 27.65625 -3.109375 C 25.164062 -0.453125 21.898438 0.875 17.859375 0.875 C 13.117188 0.875 9.375 -0.765625 6.625 -4.046875 C 4.09375 -7.117188 2.828125 -11.023438 2.828125 -15.765625 C 2.828125 -20.503906 4.382812 -24.539062 7.5 -27.875 C 10.632812 -31.21875 14.539062 -32.890625 19.21875 -32.890625 C 22.289062 -32.890625 24.859375 -32.3125 26.921875 -31.15625 L 26.921875 -38.515625 C 26.921875 -40.691406 26.742188 -42.113281 26.390625 -42.78125 C 26.046875 -43.445312 25.675781 -43.894531 25.28125 -44.125 C 24.894531 -44.351562 24.265625 -44.535156 23.390625 -44.671875 C 22.515625 -44.816406 22.078125 -45.179688 22.078125 -45.765625 C 22.078125 -46.296875 22.671875 -46.679688 23.859375 -46.921875 C 26.648438 -47.492188 28.566406 -48.082031 29.609375 -48.6875 C 31.035156 -49.476562 31.988281 -49.875 32.46875 -49.875 C 33.007812 -49.875 33.28125 -49.609375 33.28125 -49.078125 C 33.28125 -48.816406 33.234375 -48.550781 33.140625 -48.28125 C 32.648438 -47.019531 32.390625 -45.425781 32.359375 -43.5 C 32.335938 -41.570312 32.328125 -40 32.328125 -38.78125 L 32.328125 -10.21875 C 32.328125 -7.664062 32.476562 -6.015625 32.78125 -5.265625 C 33.082031 -4.523438 33.382812 -4.039062 33.6875 -3.8125 C 34 -3.59375 34.363281 -3.484375 34.78125 -3.484375 L 36.875 -3.9375 C 37.539062 -3.9375 37.875 -3.632812 37.875 -3.03125 C 37.875 -2.6875 37.726562 -2.394531 37.4375 -2.15625 C 37.15625 -1.925781 36.664062 -1.660156 35.96875 -1.359375 C 35.269531 -1.054688 34.6875 -0.742188 34.21875 -0.421875 C 33.75 -0.0976562 33.34375 0.203125 33 0.484375 C 32.207031 1.160156 31.59375 1.5 31.15625 1.5 C 29.632812 1.5 28.46875 -0.0351562 27.65625 -3.109375 Z M 26.921875 -25.953125 C 24.804688 -28.835938 21.878906 -30.28125 18.140625 -30.28125 C 15.328125 -30.28125 13.070312 -29.195312 11.375 -27.03125 C 9.5625 -24.75 8.65625 -21.632812 8.65625 -17.6875 C 8.65625 -13.082031 9.828125 -9.394531 12.171875 -6.625 C 14.359375 -4.019531 16.972656 -2.71875 20.015625 -2.71875 C 23.109375 -2.71875 25.472656 -3.8125 27.109375 -6 C 26.984375 -6.863281 26.921875 -7.863281 26.921875 -9 Z M 26.921875 -25.953125 "/></g></g></g></g></g></g></svg>