<svg xmlns="http://www.w3.org/2000/svg" xmlns:xlink="http://www.w3.org/1999/xlink" width="350" zoomAndPan="magnify" viewBox="0 0 262.5 74.999997" height="100" preserveAspectRatio="xMidYMid meet" version="1.0"><defs><filter x="0%" y="0%" width="100%" height="100%" id="005488cbe8"><feColorMatrix values="0 0 0 0 1 0 0 0 0 1 0 0 0 0 1 0 0 0 1 0" color-interpolation-filters="sRGB"/></filter><g/><clipPath id="bd3453e72d"><path d="M 0 0.0703125 L 262 0.0703125 L 262 74.925781 L 0 74.925781 Z M 0 0.0703125 " clip-rule="nonzero"/></clipPath><clipPath id="74e18d09c1"><path d="M 0 0.0703125 L 262 0.0703125 L 262 74.925781 L 0 74.925781 Z M 0 0.0703125 " clip-rule="nonzero"/></clipPath><clipPath id="a85b8c8508"><path d="M 0 0.0703125 L 262 0.0703125 L 262 74.925781 L 0 74.925781 Z M 0 0.0703125 " clip-rule="nonzero"/></clipPath><clipPath id="dd139bcc09"><path d="M 0 0.0703125 L 262 0.0703125 L 262 74.925781 L 0 74.925781 Z M 0 0.0703125 " clip-rule="nonzero"/></clipPath><clipPath id="68d0ad7ccc"><path d="M 0 0.0703125 L 262 0.0703125 L 262 74.925781 L 0 74.925781 Z M 0 0.0703125 " clip-rule="nonzero"/></clipPath><linearGradient x1="-98.960614" gradientTransform="matrix(0.610589, 0, 0, 0.610734, 60.424275, -21.106105)" y1="97" x2="330.134713" gradientUnits="userSpaceOnUse" y2="97" id="bbd50bf06c"><stop stop-opacity="1" stop-color="rgb(36.468506%, 87.838745%, 90.19928%)" offset="0"/><stop stop-opacity="1" stop-color="rgb(36.468506%, 87.838745%, 90.19928%)" offset="0.125"/><stop stop-opacity="1" stop-color="rgb(36.468506%, 87.838745%, 90.19928%)" offset="0.1875"/><stop stop-opacity="1" stop-color="rgb(36.468506%, 87.838745%, 90.19928%)" offset="0.21875"/><stop stop-opacity="1" stop-color="rgb(36.468506%, 87.838745%, 90.19928%)" offset="0.226562"/><stop stop-opacity="1" stop-color="rgb(36.175537%, 87.365723%, 90.019226%)" offset="0.230469"/><stop stop-opacity="1" stop-color="rgb(35.884094%, 86.894226%, 89.840698%)" offset="0.234375"/><stop stop-opacity="1" stop-color="rgb(35.272217%, 85.910034%, 89.465332%)" offset="0.238281"/><stop stop-opacity="1" stop-color="rgb(34.661865%, 84.925842%, 89.091492%)" offset="0.242188"/><stop stop-opacity="1" stop-color="rgb(34.051514%, 83.940125%, 88.716125%)" offset="0.246094"/><stop stop-opacity="1" stop-color="rgb(33.441162%, 82.955933%, 88.342285%)" offset="0.25"/><stop stop-opacity="1" stop-color="rgb(32.830811%, 81.971741%, 87.968445%)" offset="0.253906"/><stop stop-opacity="1" stop-color="rgb(32.220459%, 80.987549%, 87.594604%)" offset="0.257812"/><stop stop-opacity="1" stop-color="rgb(31.610107%, 80.001831%, 87.219238%)" offset="0.261719"/><stop stop-opacity="1" stop-color="rgb(30.999756%, 79.017639%, 86.845398%)" offset="0.265625"/><stop stop-opacity="1" stop-color="rgb(30.389404%, 78.033447%, 86.471558%)" offset="0.269531"/><stop stop-opacity="1" stop-color="rgb(29.779053%, 77.049255%, 86.097717%)" offset="0.273438"/><stop stop-opacity="1" stop-color="rgb(29.168701%, 76.063538%, 85.722351%)" offset="0.277344"/><stop stop-opacity="1" stop-color="rgb(28.55835%, 75.079346%, 85.348511%)" offset="0.28125"/><stop stop-opacity="1" stop-color="rgb(27.947998%, 74.095154%, 84.97467%)" offset="0.285156"/><stop stop-opacity="1" stop-color="rgb(27.337646%, 73.110962%, 84.60083%)" offset="0.289062"/><stop stop-opacity="1" stop-color="rgb(26.727295%, 72.12677%, 84.225464%)" offset="0.292969"/><stop stop-opacity="1" stop-color="rgb(26.116943%, 71.142578%, 83.851624%)" offset="0.296875"/><stop stop-opacity="1" stop-color="rgb(25.506592%, 70.15686%, 83.477783%)" offset="0.300781"/><stop stop-opacity="1" stop-color="rgb(24.89624%, 69.172668%, 83.103943%)" offset="0.304687"/><stop stop-opacity="1" stop-color="rgb(24.284363%, 68.188477%, 82.728577%)" offset="0.308594"/><stop stop-opacity="1" stop-color="rgb(23.674011%, 67.204285%, 82.354736%)" offset="0.3125"/><stop stop-opacity="1" stop-color="rgb(23.06366%, 66.218567%, 81.980896%)" offset="0.316406"/><stop stop-opacity="1" stop-color="rgb(22.453308%, 65.234375%, 81.607056%)" offset="0.320312"/><stop stop-opacity="1" stop-color="rgb(21.842957%, 64.250183%, 81.231689%)" offset="0.324219"/><stop stop-opacity="1" stop-color="rgb(21.232605%, 63.265991%, 80.857849%)" offset="0.328125"/><stop stop-opacity="1" stop-color="rgb(20.622253%, 62.280273%, 80.482483%)" offset="0.332031"/><stop stop-opacity="1" stop-color="rgb(20.011902%, 61.296082%, 80.108643%)" offset="0.335937"/><stop stop-opacity="1" stop-color="rgb(19.40155%, 60.31189%, 79.734802%)" offset="0.339844"/><stop stop-opacity="1" stop-color="rgb(18.791199%, 59.327698%, 79.360962%)" offset="0.34375"/><stop stop-opacity="1" stop-color="rgb(18.180847%, 58.343506%, 78.985596%)" offset="0.347656"/><stop stop-opacity="1" stop-color="rgb(17.570496%, 57.359314%, 78.611755%)" offset="0.351562"/><stop stop-opacity="1" stop-color="rgb(16.960144%, 56.373596%, 78.237915%)" offset="0.355469"/><stop stop-opacity="1" stop-color="rgb(16.349792%, 55.389404%, 77.864075%)" offset="0.359375"/><stop stop-opacity="1" stop-color="rgb(15.739441%, 54.405212%, 77.488708%)" offset="0.363281"/><stop stop-opacity="1" stop-color="rgb(15.129089%, 53.421021%, 77.114868%)" offset="0.367187"/><stop stop-opacity="1" stop-color="rgb(14.518738%, 52.435303%, 76.741028%)" offset="0.371094"/><stop stop-opacity="1" stop-color="rgb(13.908386%, 51.451111%, 76.367188%)" offset="0.375"/><stop stop-opacity="1" stop-color="rgb(13.298035%, 50.466919%, 75.991821%)" offset="0.378906"/><stop stop-opacity="1" stop-color="rgb(12.687683%, 49.482727%, 75.617981%)" offset="0.382812"/><stop stop-opacity="1" stop-color="rgb(12.075806%, 48.497009%, 75.244141%)" offset="0.386719"/><stop stop-opacity="1" stop-color="rgb(11.465454%, 47.512817%, 74.8703%)" offset="0.390625"/><stop stop-opacity="1" stop-color="rgb(10.855103%, 46.528625%, 74.494934%)" offset="0.394531"/><stop stop-opacity="1" stop-color="rgb(10.244751%, 45.544434%, 74.121094%)" offset="0.398437"/><stop stop-opacity="1" stop-color="rgb(9.634399%, 44.558716%, 73.745728%)" offset="0.402344"/><stop stop-opacity="1" stop-color="rgb(9.024048%, 43.574524%, 73.371887%)" offset="0.40625"/><stop stop-opacity="1" stop-color="rgb(8.413696%, 42.590332%, 72.998047%)" offset="0.410156"/><stop stop-opacity="1" stop-color="rgb(7.803345%, 41.60614%, 72.624207%)" offset="0.414062"/><stop stop-opacity="1" stop-color="rgb(7.192993%, 40.621948%, 72.24884%)" offset="0.417969"/><stop stop-opacity="1" stop-color="rgb(6.582642%, 39.637756%, 71.875%)" offset="0.421875"/><stop stop-opacity="1" stop-color="rgb(5.97229%, 38.652039%, 71.50116%)" offset="0.425781"/><stop stop-opacity="1" stop-color="rgb(5.361938%, 37.667847%, 71.127319%)" offset="0.429687"/><stop stop-opacity="1" stop-color="rgb(4.751587%, 36.683655%, 70.751953%)" offset="0.433594"/><stop stop-opacity="1" stop-color="rgb(4.141235%, 35.699463%, 70.378113%)" offset="0.4375"/><stop stop-opacity="1" stop-color="rgb(3.530884%, 34.713745%, 70.004272%)" offset="0.441406"/><stop stop-opacity="1" stop-color="rgb(2.920532%, 33.729553%, 69.630432%)" offset="0.445312"/><stop stop-opacity="1" stop-color="rgb(2.310181%, 32.745361%, 69.255066%)" offset="0.449219"/><stop stop-opacity="1" stop-color="rgb(1.699829%, 31.761169%, 68.881226%)" offset="0.453125"/><stop stop-opacity="1" stop-color="rgb(1.087952%, 30.775452%, 68.507385%)" offset="0.457031"/><stop stop-opacity="1" stop-color="rgb(0.4776%, 29.79126%, 68.133545%)" offset="0.460937"/><stop stop-opacity="1" stop-color="rgb(0.238037%, 29.405212%, 67.985535%)" offset="0.464844"/><stop stop-opacity="1" stop-color="rgb(0%, 29.019165%, 67.83905%)" offset="0.46875"/><stop stop-opacity="1" stop-color="rgb(0%, 29.019165%, 67.83905%)" offset="0.5"/><stop stop-opacity="1" stop-color="rgb(0%, 29.019165%, 67.83905%)" offset="1"/></linearGradient><clipPath id="da70da76ed"><rect x="0" width="262" y="0" height="75"/></clipPath><clipPath id="5611ba9529"><path d="M 0 0.0703125 L 262 0.0703125 L 262 74.925781 L 0 74.925781 Z M 0 0.0703125 " clip-rule="nonzero"/></clipPath><clipPath id="085702deca"><rect x="0" width="262" y="0" height="75"/></clipPath><clipPath id="c187fa8ee3"><rect x="0" width="262" y="0" height="75"/></clipPath><mask id="7c2abebb09"><g filter="url(#005488cbe8)"><g transform="matrix(1, 0, 0, 1, 0, 0.000000000000008313)"><g clip-path="url(#c187fa8ee3)"><g clip-path="url(#5611ba9529)"><g transform="matrix(1, 0, 0, 1, 0, 0.000000000000008313)"><g clip-path="url(#085702deca)"><g fill="#000000" fill-opacity="1"><g transform="translate(60.452004, 63.181784)"><g/></g></g><g fill="#000000" fill-opacity="1"><g transform="translate(82.224697, 63.181784)"><g><path d="M 3.4375 -19 C 3.4375 -21.925781 3.96875 -24.640625 5.03125 -27.140625 C 6.101562 -29.640625 7.550781 -31.773438 9.375 -33.546875 C 13.238281 -37.253906 18.117188 -39.109375 24.015625 -39.109375 C 27.492188 -38.992188 30.519531 -38.175781 33.09375 -36.65625 C 35.71875 -35.132812 37.085938 -33.269531 37.203125 -31.0625 C 37.203125 -29.875 36.414062 -29.085938 34.84375 -28.703125 C 34.425781 -28.617188 34.050781 -28.578125 33.71875 -28.578125 C 32.445312 -28.578125 31.410156 -29.445312 30.609375 -31.1875 C 29.035156 -34.476562 26.367188 -36.125 22.609375 -36.125 C 19.285156 -36.125 16.503906 -34.753906 14.265625 -32.015625 C 11.890625 -29.109375 10.703125 -25.28125 10.703125 -20.53125 C 10.703125 -15.25 11.929688 -11.003906 14.390625 -7.796875 C 16.960938 -4.421875 20.472656 -2.734375 24.921875 -2.734375 C 27.960938 -2.734375 30.632812 -3.894531 32.9375 -6.21875 C 33.925781 -7.21875 34.671875 -7.71875 35.171875 -7.71875 C 36.191406 -7.71875 36.703125 -7.203125 36.703125 -6.171875 C 36.703125 -5.179688 35.722656 -3.96875 33.765625 -2.53125 C 30.578125 -0.15625 26.660156 1.03125 22.015625 1.03125 C 16.460938 1.03125 11.941406 -0.859375 8.453125 -4.640625 C 5.109375 -8.316406 3.4375 -13.101562 3.4375 -19 Z M 3.4375 -19 "/></g></g></g></g></g></g></g></g></g></mask><clipPath id="d9452c342b"><path d="M 0 0.0703125 L 262 0.0703125 L 262 74.925781 L 0 74.925781 Z M 0 0.0703125 " clip-rule="nonzero"/></clipPath><clipPath id="b0fe89008b"><rect x="0" width="262" y="0" height="75"/></clipPath><clipPath id="d916c5c585"><rect x="0" width="262" y="0" height="75"/></clipPath><clipPath id="6a74d1e2f3"><rect x="0" width="262" y="0" height="75"/></clipPath><clipPath id="62a49a6c45"><path d="M 0 0.0703125 L 262 0.0703125 L 262 74.925781 L 0 74.925781 Z M 0 0.0703125 " clip-rule="nonzero"/></clipPath><clipPath id="a1fd9b15c6"><path d="M 0 0.0703125 L 262 0.0703125 L 262 74.925781 L 0 74.925781 Z M 0 0.0703125 " clip-rule="nonzero"/></clipPath><clipPath id="c3a3a17604"><path d="M 0 0.0703125 L 262 0.0703125 L 262 74.925781 L 0 74.925781 Z M 0 0.0703125 " clip-rule="nonzero"/></clipPath><linearGradient x1="-179.543268" gradientTransform="matrix(0.610518, 0, 0, 0.610482, 109.614381, -134.351538)" y1="283" x2="249.602112" gradientUnits="userSpaceOnUse" y2="283" id="9d5ef15aeb"><stop stop-opacity="1" stop-color="rgb(54.899597%, 32.159424%, 100%)" offset="0"/><stop stop-opacity="1" stop-color="rgb(54.899597%, 32.159424%, 100%)" offset="0.25"/><stop stop-opacity="1" stop-color="rgb(54.899597%, 32.159424%, 100%)" offset="0.375"/><stop stop-opacity="1" stop-color="rgb(54.899597%, 32.159424%, 100%)" offset="0.4375"/><stop stop-opacity="1" stop-color="rgb(54.899597%, 32.159424%, 100%)" offset="0.445312"/><stop stop-opacity="1" stop-color="rgb(55.528259%, 32.504272%, 99.024963%)" offset="0.449219"/><stop stop-opacity="1" stop-color="rgb(56.158447%, 32.849121%, 98.049927%)" offset="0.453125"/><stop stop-opacity="1" stop-color="rgb(57.36084%, 33.506775%, 96.18988%)" offset="0.457031"/><stop stop-opacity="1" stop-color="rgb(58.563232%, 34.165955%, 94.329834%)" offset="0.460938"/><stop stop-opacity="1" stop-color="rgb(59.764099%, 34.823608%, 92.469788%)" offset="0.464844"/><stop stop-opacity="1" stop-color="rgb(60.966492%, 35.482788%, 90.609741%)" offset="0.46875"/><stop stop-opacity="1" stop-color="rgb(62.167358%, 36.140442%, 88.749695%)" offset="0.472656"/><stop stop-opacity="1" stop-color="rgb(63.369751%, 36.798096%, 86.889648%)" offset="0.476562"/><stop stop-opacity="1" stop-color="rgb(64.570618%, 37.45575%, 85.029602%)" offset="0.480469"/><stop stop-opacity="1" stop-color="rgb(65.77301%, 38.114929%, 83.169556%)" offset="0.484375"/><stop stop-opacity="1" stop-color="rgb(66.975403%, 38.772583%, 81.309509%)" offset="0.488281"/><stop stop-opacity="1" stop-color="rgb(68.177795%, 39.431763%, 79.449463%)" offset="0.492188"/><stop stop-opacity="1" stop-color="rgb(69.378662%, 40.089417%, 77.589417%)" offset="0.496094"/><stop stop-opacity="1" stop-color="rgb(70.581055%, 40.74707%, 75.72937%)" offset="0.5"/><stop stop-opacity="1" stop-color="rgb(71.781921%, 41.404724%, 73.869324%)" offset="0.503906"/><stop stop-opacity="1" stop-color="rgb(72.984314%, 42.063904%, 72.009277%)" offset="0.507812"/><stop stop-opacity="1" stop-color="rgb(74.185181%, 42.721558%, 70.149231%)" offset="0.511719"/><stop stop-opacity="1" stop-color="rgb(75.387573%, 43.380737%, 68.289185%)" offset="0.515625"/><stop stop-opacity="1" stop-color="rgb(76.589966%, 44.038391%, 66.429138%)" offset="0.519531"/><stop stop-opacity="1" stop-color="rgb(77.792358%, 44.697571%, 64.569092%)" offset="0.523438"/><stop stop-opacity="1" stop-color="rgb(78.993225%, 45.355225%, 62.709045%)" offset="0.527344"/><stop stop-opacity="1" stop-color="rgb(80.195618%, 46.012878%, 60.848999%)" offset="0.53125"/><stop stop-opacity="1" stop-color="rgb(81.396484%, 46.670532%, 58.988953%)" offset="0.535156"/><stop stop-opacity="1" stop-color="rgb(82.598877%, 47.329712%, 57.128906%)" offset="0.539062"/><stop stop-opacity="1" stop-color="rgb(83.80127%, 47.987366%, 55.26886%)" offset="0.542969"/><stop stop-opacity="1" stop-color="rgb(85.003662%, 48.646545%, 53.408813%)" offset="0.546875"/><stop stop-opacity="1" stop-color="rgb(86.204529%, 49.304199%, 51.548767%)" offset="0.550781"/><stop stop-opacity="1" stop-color="rgb(87.406921%, 49.961853%, 49.688721%)" offset="0.554688"/><stop stop-opacity="1" stop-color="rgb(88.607788%, 50.619507%, 47.828674%)" offset="0.558594"/><stop stop-opacity="1" stop-color="rgb(89.810181%, 51.278687%, 45.968628%)" offset="0.5625"/><stop stop-opacity="1" stop-color="rgb(91.011047%, 51.93634%, 44.108582%)" offset="0.566406"/><stop stop-opacity="1" stop-color="rgb(92.21344%, 52.59552%, 42.248535%)" offset="0.570312"/><stop stop-opacity="1" stop-color="rgb(93.415833%, 53.253174%, 40.388489%)" offset="0.574219"/><stop stop-opacity="1" stop-color="rgb(94.618225%, 53.912354%, 38.528442%)" offset="0.578125"/><stop stop-opacity="1" stop-color="rgb(95.819092%, 54.570007%, 36.668396%)" offset="0.582031"/><stop stop-opacity="1" stop-color="rgb(97.021484%, 55.227661%, 34.80835%)" offset="0.585938"/><stop stop-opacity="1" stop-color="rgb(98.222351%, 55.885315%, 32.948303%)" offset="0.589844"/><stop stop-opacity="1" stop-color="rgb(99.424744%, 56.544495%, 31.088257%)" offset="0.59375"/><stop stop-opacity="1" stop-color="rgb(99.711609%, 56.70166%, 30.6427%)" offset="0.597656"/><stop stop-opacity="1" stop-color="rgb(100%, 56.858826%, 30.198669%)" offset="0.601562"/><stop stop-opacity="1" stop-color="rgb(100%, 56.858826%, 30.198669%)" offset="0.609375"/><stop stop-opacity="1" stop-color="rgb(100%, 56.858826%, 30.198669%)" offset="0.625"/><stop stop-opacity="1" stop-color="rgb(100%, 56.858826%, 30.198669%)" offset="0.75"/><stop stop-opacity="1" stop-color="rgb(100%, 56.858826%, 30.198669%)" offset="1"/></linearGradient><clipPath id="9f11242fdc"><rect x="0" width="262" y="0" height="75"/></clipPath><clipPath id="3ccae48b39"><path d="M 0 0.0703125 L 262 0.0703125 L 262 74.925781 L 0 74.925781 Z M 0 0.0703125 " clip-rule="nonzero"/></clipPath><clipPath id="159f2da96f"><rect x="0" width="262" y="0" height="75"/></clipPath><clipPath id="bc43679aa9"><rect x="0" width="262" y="0" height="75"/></clipPath><mask id="36a95899ed"><g filter="url(#005488cbe8)"><g transform="matrix(1, 0, 0, 1, 0, 0.000000000000008313)"><g clip-path="url(#bc43679aa9)"><g clip-path="url(#3ccae48b39)"><g transform="matrix(1, 0, 0, 1, 0, 0.000000000000008313)"><g clip-path="url(#159f2da96f)"><g fill="#000000" fill-opacity="1"><g transform="translate(117.701226, 62.850683)"><g><path d="M 3.359375 -18.53125 C 3.359375 -21.382812 3.875 -24.03125 4.90625 -26.46875 C 5.945312 -28.914062 7.359375 -31 9.140625 -32.71875 C 12.921875 -36.332031 17.679688 -38.140625 23.421875 -38.140625 C 26.816406 -38.035156 29.769531 -37.242188 32.28125 -35.765625 C 34.84375 -34.273438 36.175781 -32.453125 36.28125 -30.296875 C 36.28125 -29.140625 35.515625 -28.367188 33.984375 -27.984375 C 33.578125 -27.910156 33.210938 -27.875 32.890625 -27.875 C 31.648438 -27.875 30.640625 -28.722656 29.859375 -30.421875 C 28.316406 -33.628906 25.710938 -35.234375 22.046875 -35.234375 C 18.804688 -35.234375 16.097656 -33.898438 13.921875 -31.234375 C 11.597656 -28.398438 10.4375 -24.660156 10.4375 -20.015625 C 10.4375 -14.867188 11.632812 -10.734375 14.03125 -7.609375 C 16.539062 -4.316406 19.96875 -2.671875 24.3125 -2.671875 C 27.28125 -2.671875 29.882812 -3.800781 32.125 -6.0625 C 33.09375 -7.039062 33.816406 -7.53125 34.296875 -7.53125 C 35.296875 -7.53125 35.796875 -7.03125 35.796875 -6.03125 C 35.796875 -5.0625 34.835938 -3.875 32.921875 -2.46875 C 29.828125 -0.144531 26.015625 1.015625 21.484375 1.015625 C 16.054688 1.015625 11.644531 -0.832031 8.25 -4.53125 C 4.988281 -8.113281 3.359375 -12.78125 3.359375 -18.53125 Z M 3.359375 -18.53125 "/></g></g></g></g></g></g></g></g></g></mask><clipPath id="215cd92bd6"><path d="M 0 0.0703125 L 262 0.0703125 L 262 74.925781 L 0 74.925781 Z M 0 0.0703125 " clip-rule="nonzero"/></clipPath><clipPath id="6d9ad6c9f4"><rect x="0" width="262" y="0" height="75"/></clipPath><clipPath id="0bcab307e1"><rect x="0" width="262" y="0" height="75"/></clipPath><clipPath id="97503b153c"><rect x="0" width="262" y="0" height="75"/></clipPath><clipPath id="de3409dea0"><path d="M 3 0.0703125 L 257 0.0703125 L 257 74.925781 L 3 74.925781 Z M 3 0.0703125 " clip-rule="nonzero"/></clipPath><clipPath id="7ed7a059f5"><rect x="0" width="254" y="0" height="75"/></clipPath><clipPath id="050ca797ff"><rect x="0" width="262" y="0" height="75"/></clipPath></defs><g clip-path="url(#bd3453e72d)"><g transform="matrix(1, 0, 0, 1, 0, 0.000000000000008313)"><g clip-path="url(#050ca797ff)"><g clip-path="url(#74e18d09c1)"><g transform="matrix(1, 0, 0, 1, 0, 0.000000000000008313)"><g clip-path="url(#6a74d1e2f3)"><g clip-path="url(#a85b8c8508)"><g transform="matrix(1, 0, 0, 1, 0, 0.000000000000008313)"><g clip-path="url(#d916c5c585)"><g clip-path="url(#dd139bcc09)"><g mask="url(#7c2abebb09)"><g transform="matrix(1, 0, 0, 1, 0, 0.000000000000008313)"><g clip-path="url(#b0fe89008b)"><g clip-path="url(#d9452c342b)"><path fill="url(#bbd50bf06c)" d="M 0 0.0703125 L 0 74.929688 L 262 74.929688 L 262 0.0703125 Z M 0 0.0703125 " fill-rule="nonzero"/></g></g></g></g></g></g></g></g></g></g><g transform="matrix(1, 0, 0, 1, 0, 0.000000000000008313)"><g clip-path="url(#97503b153c)"><g clip-path="url(#62a49a6c45)"><g transform="matrix(1, 0, 0, 1, 0, 0.000000000000008313)"><g clip-path="url(#0bcab307e1)"><g clip-path="url(#a1fd9b15c6)"><g mask="url(#36a95899ed)"><g transform="matrix(1, 0, 0, 1, 0, 0.000000000000008313)"><g clip-path="url(#6d9ad6c9f4)"><g clip-path="url(#215cd92bd6)"><path fill="url(#9d5ef15aeb)" d="M 0 0.0703125 L 0 74.929688 L 262 74.929688 L 262 0.0703125 Z M 0 0.0703125 " fill-rule="nonzero"/></g></g></g></g></g></g></g></g></g></g></g><g clip-path="url(#de3409dea0)"><g transform="matrix(1, 0, 0, 1, 3, 0.000000000000008313)"><g clip-path="url(#7ed7a059f5)"><g fill="#000000" fill-opacity="1"><g transform="translate(1.396454, 58.90551)"><g><path d="M 4.5 0.5 C 3.03125 0.5 2.296875 0.0820312 2.296875 -0.75 C 2.296875 -1.394531 2.703125 -1.71875 3.515625 -1.71875 L 5.171875 -1.5625 C 6.523438 -1.5625 7.441406 -2.316406 7.921875 -3.828125 C 8.304688 -5.109375 8.5 -7.410156 8.5 -10.734375 L 8.5 -34.625 C 8.5 -37.9375 8.335938 -40.101562 8.015625 -41.125 C 7.703125 -42.15625 7.328125 -42.859375 6.890625 -43.234375 C 6.453125 -43.609375 5.878906 -43.796875 5.171875 -43.796875 L 3.515625 -43.65625 C 2.703125 -43.65625 2.296875 -43.984375 2.296875 -44.640625 C 2.296875 -45.472656 2.914062 -45.890625 4.15625 -45.890625 C 5.40625 -45.890625 6.585938 -45.796875 7.703125 -45.609375 C 8.816406 -45.429688 9.984375 -45.34375 11.203125 -45.34375 C 12.421875 -45.34375 13.585938 -45.429688 14.703125 -45.609375 C 15.816406 -45.796875 17.25 -45.890625 19 -45.890625 C 20.75 -45.890625 22.628906 -45.609375 24.640625 -45.046875 C 26.648438 -44.484375 28.34375 -43.679688 29.71875 -42.640625 C 32.582031 -40.492188 34.015625 -37.648438 34.015625 -34.109375 C 34.015625 -30.179688 32.398438 -26.800781 29.171875 -23.96875 C 28.128906 -23.0625 26.976562 -22.289062 25.71875 -21.65625 L 36.71875 -5.6875 C 37.957031 -3.851562 39.320312 -2.75 40.8125 -2.375 C 41.238281 -2.257812 41.78125 -2.164062 42.4375 -2.09375 C 43.59375 -1.976562 44.171875 -1.597656 44.171875 -0.953125 C 44.171875 -0.316406 43.550781 0 42.3125 0 L 35.8125 0 C 34.25 0 32.835938 -1.015625 31.578125 -3.046875 L 23.046875 -16.6875 C 22.273438 -17.882812 21.539062 -18.734375 20.84375 -19.234375 C 20.144531 -19.742188 19.066406 -20 17.609375 -20 C 16.160156 -20 14.894531 -19.96875 13.8125 -19.90625 L 13.8125 -10.734375 C 13.8125 -7.328125 13.960938 -5.128906 14.265625 -4.140625 C 14.566406 -3.160156 14.9375 -2.484375 15.375 -2.109375 C 15.820312 -1.742188 16.40625 -1.5625 17.125 -1.5625 L 18.75 -1.71875 C 19.5625 -1.71875 19.96875 -1.394531 19.96875 -0.75 C 19.96875 0.0820312 19.242188 0.5 17.796875 0.5 C 17.054688 0.5 16.269531 0.429688 15.4375 0.296875 C 12.726562 -0.128906 10.40625 -0.203125 8.46875 0.078125 C 6.539062 0.359375 5.21875 0.5 4.5 0.5 Z M 13.8125 -22.875 C 15.28125 -22.71875 16.6875 -22.640625 18.03125 -22.640625 L 20.171875 -22.640625 C 22.359375 -22.640625 24.207031 -23.382812 25.71875 -24.875 C 27.476562 -26.613281 28.359375 -28.984375 28.359375 -31.984375 C 28.359375 -35.585938 27.265625 -38.441406 25.078125 -40.546875 C 23.023438 -42.523438 20.382812 -43.515625 17.15625 -43.515625 C 16.007812 -43.515625 15.164062 -43.359375 14.625 -43.046875 C 14.082031 -42.734375 13.8125 -42.191406 13.8125 -41.421875 Z M 13.8125 -22.875 "/></g></g></g><g fill="#000000" fill-opacity="1"><g transform="translate(45.458465, 58.90551)"><g><path d="M 33.578125 -4.53125 C 34.234375 -4.53125 34.5625 -4.226562 34.5625 -3.625 C 34.5625 -3.03125 33.90625 -2.460938 32.59375 -1.921875 C 31.28125 -1.378906 30.363281 -0.890625 29.84375 -0.453125 C 29.332031 -0.015625 28.953125 0.304688 28.703125 0.515625 C 28.453125 0.734375 28.15625 0.84375 27.8125 0.84375 C 27.132812 0.84375 26.570312 0.5625 26.125 0 C 25.675781 -0.5625 25.066406 -1.769531 24.296875 -3.625 C 23.015625 -2.15625 21.453125 -1.039062 19.609375 -0.28125 C 17.773438 0.46875 15.953125 0.84375 14.140625 0.84375 C 10.734375 0.84375 8.09375 -0.0195312 6.21875 -1.75 C 4.351562 -3.488281 3.421875 -5.867188 3.421875 -8.890625 C 3.421875 -11.921875 4.832031 -14.378906 7.65625 -16.265625 C 10.488281 -18.148438 14.109375 -19.09375 18.515625 -19.09375 C 19.816406 -19.09375 21.539062 -18.863281 23.6875 -18.40625 L 23.6875 -21.046875 C 23.6875 -26.847656 21.238281 -29.75 16.34375 -29.75 C 13.75 -29.75 11.84375 -28.550781 10.625 -26.15625 C 9.5625 -24.019531 8.523438 -22.953125 7.515625 -22.953125 C 6.765625 -22.953125 6.113281 -23.164062 5.5625 -23.59375 C 5.007812 -24.019531 4.734375 -24.554688 4.734375 -25.203125 C 4.734375 -25.859375 5.070312 -26.585938 5.75 -27.390625 C 6.425781 -28.191406 7.332031 -28.921875 8.46875 -29.578125 C 11.125 -31.140625 14.046875 -31.921875 17.234375 -31.921875 C 22.867188 -31.921875 26.507812 -30.078125 28.15625 -26.390625 C 28.769531 -25.085938 29.078125 -23.488281 29.078125 -21.59375 L 29.078125 -8.09375 C 29.078125 -6.351562 29.242188 -5.234375 29.578125 -4.734375 C 29.921875 -4.242188 30.394531 -4 31 -4 C 31.613281 -4 32.109375 -4.085938 32.484375 -4.265625 C 32.867188 -4.441406 33.234375 -4.53125 33.578125 -4.53125 Z M 23.6875 -15.265625 C 22.0625 -16.191406 20.007812 -16.65625 17.53125 -16.65625 C 15.050781 -16.65625 13.0625 -16.03125 11.5625 -14.78125 C 10.0625 -13.539062 9.3125 -11.878906 9.3125 -9.796875 C 9.3125 -7.710938 9.882812 -5.972656 11.03125 -4.578125 C 12.1875 -3.191406 13.664062 -2.5 15.46875 -2.5 C 19.320312 -2.5 22.097656 -3.765625 23.796875 -6.296875 C 23.722656 -6.929688 23.6875 -7.628906 23.6875 -8.390625 Z M 23.6875 -15.265625 "/></g></g></g><g fill="#000000" fill-opacity="1"><g transform="translate(80.421498, 58.90551)"><g/></g></g><g fill="#000000" fill-opacity="1"><g transform="translate(98.188443, 58.90551)"><g/></g></g><g fill="#000000" fill-opacity="1"><g transform="translate(115.955387, 58.90551)"><g/></g></g><g fill="#000000" fill-opacity="1"><g transform="translate(133.722332, 58.90551)"><g/></g></g><g fill="#000000" fill-opacity="1"><g transform="translate(151.495355, 58.90551)"><g><path d="M 2.578125 -15.03125 C 2.578125 -17.21875 2.96875 -19.335938 3.75 -21.390625 C 4.539062 -23.441406 5.660156 -25.242188 7.109375 -26.796875 C 10.265625 -30.210938 14.203125 -31.921875 18.921875 -31.921875 C 24.148438 -31.921875 28.175781 -30.347656 31 -27.203125 C 33.550781 -24.367188 34.828125 -20.679688 34.828125 -16.140625 C 34.828125 -11.554688 33.300781 -7.597656 30.25 -4.265625 C 27.144531 -0.859375 23.222656 0.84375 18.484375 0.84375 C 13.242188 0.84375 9.226562 -0.722656 6.4375 -3.859375 C 3.863281 -6.703125 2.578125 -10.425781 2.578125 -15.03125 Z M 8.296875 -16.453125 C 8.296875 -14.234375 8.597656 -12.164062 9.203125 -10.25 C 9.816406 -8.332031 10.648438 -6.742188 11.703125 -5.484375 C 13.804688 -2.910156 16.457031 -1.625 19.65625 -1.625 C 22.5 -1.625 24.8125 -2.753906 26.59375 -5.015625 C 28.445312 -7.359375 29.375 -10.378906 29.375 -14.078125 C 29.375 -18.972656 28.25 -22.8125 26 -25.59375 C 23.875 -28.132812 21.207031 -29.40625 18 -29.40625 C 15.15625 -29.40625 12.84375 -28.28125 11.0625 -26.03125 C 9.21875 -23.675781 8.296875 -20.484375 8.296875 -16.453125 Z M 8.296875 -16.453125 "/></g></g></g><g fill="#000000" fill-opacity="1"><g transform="translate(188.687488, 58.90551)"><g><path d="M 3.953125 0.5 C 2.441406 0.5 1.6875 0.0820312 1.6875 -0.75 C 1.6875 -1.394531 2.101562 -1.71875 2.9375 -1.71875 L 4.640625 -1.5625 C 5.160156 -1.5625 5.585938 -1.65625 5.921875 -1.84375 C 6.265625 -2.03125 6.523438 -2.441406 6.703125 -3.078125 C 7.066406 -4.234375 7.25 -6.785156 7.25 -10.734375 L 7.25 -20.84375 C 7.25 -23.144531 7.101562 -24.582031 6.8125 -25.15625 C 6.53125 -25.738281 6.191406 -26.132812 5.796875 -26.34375 C 5.410156 -26.5625 4.769531 -26.738281 3.875 -26.875 C 2.976562 -27.007812 2.53125 -27.359375 2.53125 -27.921875 C 2.53125 -28.441406 3.109375 -28.8125 4.265625 -29.03125 C 6.953125 -29.601562 8.800781 -30.171875 9.8125 -30.734375 C 11.1875 -31.523438 12.128906 -31.921875 12.640625 -31.921875 C 13.148438 -31.921875 13.40625 -31.660156 13.40625 -31.140625 C 13.40625 -30.890625 13.351562 -30.628906 13.25 -30.359375 C 13.144531 -30.085938 13.035156 -29.757812 12.921875 -29.375 C 12.742188 -28.601562 12.609375 -27.160156 12.515625 -25.046875 C 14.484375 -28.335938 16.851562 -30.390625 19.625 -31.203125 C 20.4375 -31.453125 21.34375 -31.578125 22.34375 -31.578125 C 23.351562 -31.578125 24.242188 -31.210938 25.015625 -30.484375 C 25.796875 -29.765625 26.1875 -29 26.1875 -28.1875 C 26.1875 -27.375 26.097656 -26.773438 25.921875 -26.390625 C 25.742188 -26.015625 25.519531 -25.691406 25.25 -25.421875 C 24.664062 -24.828125 24.140625 -24.53125 23.671875 -24.53125 C 23.210938 -24.53125 22.859375 -24.648438 22.609375 -24.890625 C 22.359375 -25.128906 22.078125 -25.5625 21.765625 -26.1875 C 21.203125 -27.320312 20.566406 -27.890625 19.859375 -27.890625 C 19.160156 -27.890625 18.492188 -27.734375 17.859375 -27.421875 C 17.234375 -27.117188 16.601562 -26.664062 15.96875 -26.0625 C 14.59375 -24.769531 13.429688 -23.019531 12.484375 -20.8125 L 12.484375 -10.734375 C 12.484375 -6.441406 12.601562 -3.914062 12.84375 -3.15625 C 13.082031 -2.40625 13.375 -1.957031 13.71875 -1.8125 C 14.070312 -1.664062 14.550781 -1.59375 15.15625 -1.59375 L 18.171875 -1.859375 C 18.617188 -1.859375 18.976562 -1.75 19.25 -1.53125 C 19.519531 -1.320312 19.65625 -1.0625 19.65625 -0.75 C 19.65625 0.0820312 18.832031 0.5 17.1875 0.5 L 10.046875 0 C 8.898438 0 7.8125 0.0820312 6.78125 0.25 C 5.757812 0.414062 4.816406 0.5 3.953125 0.5 Z M 3.953125 0.5 "/></g></g></g><g fill="#000000" fill-opacity="1"><g transform="translate(215.524032, 58.90551)"><g><path d="M 26.84375 -3.015625 C 24.425781 -0.441406 21.253906 0.84375 17.328125 0.84375 C 12.722656 0.84375 9.09375 -0.742188 6.4375 -3.921875 C 3.96875 -6.898438 2.734375 -10.691406 2.734375 -15.296875 C 2.734375 -19.898438 4.25 -23.816406 7.28125 -27.046875 C 10.320312 -30.296875 14.109375 -31.921875 18.640625 -31.921875 C 21.617188 -31.921875 24.113281 -31.351562 26.125 -30.21875 L 26.125 -37.359375 C 26.125 -39.484375 25.953125 -40.863281 25.609375 -41.5 C 25.273438 -42.144531 24.914062 -42.582031 24.53125 -42.8125 C 24.15625 -43.039062 23.539062 -43.222656 22.6875 -43.359375 C 21.84375 -43.492188 21.421875 -43.84375 21.421875 -44.40625 C 21.421875 -44.925781 22 -45.296875 23.15625 -45.515625 C 25.851562 -46.078125 27.710938 -46.65625 28.734375 -47.25 C 30.109375 -48.007812 31.035156 -48.390625 31.515625 -48.390625 C 32.023438 -48.390625 32.28125 -48.132812 32.28125 -47.625 C 32.28125 -47.375 32.238281 -47.113281 32.15625 -46.84375 C 31.675781 -45.625 31.425781 -44.078125 31.40625 -42.203125 C 31.382812 -40.328125 31.375 -38.804688 31.375 -37.640625 L 31.375 -9.921875 C 31.375 -7.429688 31.519531 -5.828125 31.8125 -5.109375 C 32.101562 -4.390625 32.394531 -3.921875 32.6875 -3.703125 C 32.988281 -3.492188 33.34375 -3.390625 33.75 -3.390625 L 35.765625 -3.828125 C 36.421875 -3.828125 36.75 -3.53125 36.75 -2.9375 C 36.75 -2.601562 36.609375 -2.320312 36.328125 -2.09375 C 36.046875 -1.875 35.566406 -1.613281 34.890625 -1.3125 C 34.210938 -1.019531 33.648438 -0.71875 33.203125 -0.40625 C 32.753906 -0.09375 32.359375 0.195312 32.015625 0.46875 C 31.242188 1.125 30.644531 1.453125 30.21875 1.453125 C 28.75 1.453125 27.625 -0.0351562 26.84375 -3.015625 Z M 26.125 -25.1875 C 24.070312 -27.976562 21.226562 -29.375 17.59375 -29.375 C 14.863281 -29.375 12.675781 -28.328125 11.03125 -26.234375 C 9.269531 -24.015625 8.390625 -20.988281 8.390625 -17.15625 C 8.390625 -12.6875 9.53125 -9.113281 11.8125 -6.4375 C 13.9375 -3.90625 16.472656 -2.640625 19.421875 -2.640625 C 22.421875 -2.640625 24.710938 -3.703125 26.296875 -5.828125 C 26.179688 -6.660156 26.125 -7.628906 26.125 -8.734375 Z M 26.125 -25.1875 "/></g></g></g></g></g></g></g></g></g></svg>