<svg xmlns="http://www.w3.org/2000/svg" xmlns:xlink="http://www.w3.org/1999/xlink" width="500" zoomAndPan="magnify" viewBox="0 0 375 374.999991" height="500" preserveAspectRatio="xMidYMid meet" version="1.0"><defs><g/><clipPath id="e1cea16576"><rect x="0" width="221" y="0" height="290"/></clipPath><clipPath id="3b11d50f28"><rect x="0" width="176" y="0" height="373"/></clipPath><clipPath id="0a74137ad7"><path d="M 18 287 L 328.078125 287 L 328.078125 373 L 18 373 Z M 18 287 " clip-rule="nonzero"/></clipPath><clipPath id="6150971400"><path d="M 0.238281 64 L 1 64 L 1 65 L 0.238281 65 Z M 0.238281 64 " clip-rule="nonzero"/></clipPath><clipPath id="20c816d809"><rect x="0" width="311" y="0" height="86"/></clipPath><clipPath id="9ff34deb82"><rect x="0" width="329" y="0" height="375"/></clipPath></defs><g transform="matrix(1, 0, 0, 1, 0, 0)"><g clip-path="url(#9ff34deb82)"><g transform="matrix(1, 0, 0, 1, 0, 0)"><g clip-path="url(#e1cea16576)"><g fill="#ffffff" fill-opacity="1"><g transform="translate(42.427362, 188.748435)"><g><path d="M 15.359375 -84.78125 C 15.359375 -97.863281 17.734375 -109.988281 22.484375 -121.15625 C 27.242188 -132.332031 33.695312 -141.867188 41.84375 -149.765625 C 59.113281 -166.296875 80.894531 -174.5625 107.1875 -174.5625 C 122.738281 -174.070312 136.25 -170.429688 147.71875 -163.640625 C 159.445312 -156.859375 165.554688 -148.53125 166.046875 -138.65625 C 166.046875 -133.34375 162.53125 -129.828125 155.5 -128.109375 C 153.644531 -127.734375 151.976562 -127.546875 150.5 -127.546875 C 144.820312 -127.546875 140.195312 -131.429688 136.625 -139.203125 C 129.582031 -153.890625 117.671875 -161.234375 100.890625 -161.234375 C 86.078125 -161.234375 73.675781 -155.125 63.6875 -142.90625 C 53.070312 -129.945312 47.765625 -112.859375 47.765625 -91.640625 C 47.765625 -68.066406 53.253906 -49.117188 64.234375 -34.796875 C 75.710938 -19.742188 91.382812 -12.21875 111.25 -12.21875 C 124.832031 -12.21875 136.742188 -17.398438 146.984375 -27.765625 C 151.429688 -32.210938 154.765625 -34.4375 156.984375 -34.4375 C 161.546875 -34.4375 163.828125 -32.148438 163.828125 -27.578125 C 163.828125 -23.140625 159.445312 -17.710938 150.6875 -11.296875 C 136.5 -0.679688 119.035156 4.625 98.296875 4.625 C 73.492188 4.625 53.316406 -3.828125 37.765625 -20.734375 C 22.828125 -37.148438 15.359375 -58.5 15.359375 -84.78125 Z M 15.359375 -84.78125 "/></g></g></g></g></g><g transform="matrix(1, 0, 0, 1, 148, 2)"><g clip-path="url(#3b11d50f28)"><g fill="#ffffff" fill-opacity="1"><g transform="translate(174.534335, 98.846817)"><g><path d="M -14.984375 82.6875 C -14.984375 95.445312 -17.300781 107.273438 -21.9375 118.171875 C -26.570312 129.066406 -32.863281 138.367188 -40.8125 146.078125 C -57.65625 162.203125 -78.898438 170.265625 -104.546875 170.265625 C -119.710938 169.785156 -132.890625 166.234375 -144.078125 159.609375 C -155.515625 152.992188 -161.472656 144.867188 -161.953125 135.234375 C -161.953125 130.054688 -158.523438 126.628906 -151.671875 124.953125 C -149.859375 124.585938 -148.234375 124.40625 -146.796875 124.40625 C -141.253906 124.40625 -136.738281 128.195312 -133.25 135.78125 C -126.382812 150.101562 -114.769531 157.265625 -98.40625 157.265625 C -83.957031 157.265625 -71.859375 151.304688 -62.109375 139.390625 C -51.753906 126.753906 -46.578125 110.082031 -46.578125 89.375 C -46.578125 66.382812 -51.9375 47.90625 -62.65625 33.9375 C -73.84375 19.257812 -89.128906 11.921875 -108.515625 11.921875 C -121.753906 11.921875 -133.367188 16.972656 -143.359375 27.078125 C -147.691406 31.410156 -150.941406 33.578125 -153.109375 33.578125 C -157.566406 33.578125 -159.796875 31.351562 -159.796875 26.90625 C -159.796875 22.570312 -155.519531 17.273438 -146.96875 11.015625 C -133.125 0.660156 -116.09375 -4.515625 -95.875 -4.515625 C -71.675781 -4.515625 -51.992188 3.726562 -36.828125 20.21875 C -22.265625 36.226562 -14.984375 57.050781 -14.984375 82.6875 Z M -14.984375 82.6875 "/></g></g></g></g></g><g clip-path="url(#0a74137ad7)"><g transform="matrix(1, 0, 0, 1, 18, 287)"><g clip-path="url(#20c816d809)"><g clip-path="url(#6150971400)"><g fill="#ffffff" fill-opacity="1"><g transform="translate(0.739368, 64.911928)"><g/></g></g></g><g fill="#ffffff" fill-opacity="1"><g transform="translate(20.26687, 64.911928)"><g/></g></g><g fill="#ffffff" fill-opacity="1"><g transform="translate(39.804774, 64.911928)"><g><path d="M 4.953125 0.5625 C 3.335938 0.5625 2.53125 0.101562 2.53125 -0.8125 C 2.53125 -1.53125 2.976562 -1.890625 3.875 -1.890625 L 5.6875 -1.71875 C 7.175781 -1.71875 8.179688 -2.546875 8.703125 -4.203125 C 9.128906 -5.617188 9.34375 -8.148438 9.34375 -11.796875 L 9.34375 -38.0625 C 9.34375 -41.707031 9.164062 -44.09375 8.8125 -45.21875 C 8.46875 -46.34375 8.050781 -47.109375 7.5625 -47.515625 C 7.082031 -47.929688 6.457031 -48.140625 5.6875 -48.140625 L 3.875 -47.984375 C 2.976562 -47.984375 2.53125 -48.34375 2.53125 -49.0625 C 2.53125 -49.976562 3.210938 -50.4375 4.578125 -50.4375 C 5.941406 -50.4375 7.234375 -50.335938 8.453125 -50.140625 C 9.679688 -49.941406 10.96875 -49.84375 12.3125 -49.84375 C 13.65625 -49.84375 14.9375 -49.941406 16.15625 -50.140625 C 17.382812 -50.335938 18.957031 -50.4375 20.875 -50.4375 C 22.800781 -50.4375 24.867188 -50.125 27.078125 -49.5 C 29.285156 -48.882812 31.144531 -48.007812 32.65625 -46.875 C 35.8125 -44.519531 37.390625 -41.394531 37.390625 -37.5 C 37.390625 -33.1875 35.613281 -29.46875 32.0625 -26.34375 C 30.925781 -25.34375 29.660156 -24.5 28.265625 -23.8125 L 40.359375 -6.25 C 41.722656 -4.238281 43.222656 -3.023438 44.859375 -2.609375 C 45.335938 -2.484375 45.9375 -2.382812 46.65625 -2.3125 C 47.914062 -2.1875 48.546875 -1.769531 48.546875 -1.0625 C 48.546875 -0.351562 47.863281 0 46.5 0 L 39.359375 0 C 37.648438 0 36.097656 -1.113281 34.703125 -3.34375 L 25.328125 -18.34375 C 24.484375 -19.65625 23.675781 -20.585938 22.90625 -21.140625 C 22.144531 -21.703125 20.960938 -21.984375 19.359375 -21.984375 C 17.765625 -21.984375 16.367188 -21.945312 15.171875 -21.875 L 15.171875 -11.796875 C 15.171875 -8.046875 15.335938 -5.628906 15.671875 -4.546875 C 16.015625 -3.472656 16.425781 -2.734375 16.90625 -2.328125 C 17.394531 -1.921875 18.035156 -1.71875 18.828125 -1.71875 L 20.609375 -1.890625 C 21.503906 -1.890625 21.953125 -1.53125 21.953125 -0.8125 C 21.953125 0.101562 21.15625 0.5625 19.5625 0.5625 C 18.75 0.5625 17.882812 0.484375 16.96875 0.328125 C 13.988281 -0.140625 11.4375 -0.21875 9.3125 0.09375 C 7.195312 0.40625 5.742188 0.5625 4.953125 0.5625 Z M 15.171875 -25.140625 C 16.785156 -24.972656 18.335938 -24.890625 19.828125 -24.890625 L 22.171875 -24.890625 C 24.578125 -24.890625 26.609375 -25.707031 28.265625 -27.34375 C 30.203125 -29.25 31.171875 -31.851562 31.171875 -35.15625 C 31.171875 -39.125 29.96875 -42.257812 27.5625 -44.5625 C 25.3125 -46.75 22.410156 -47.84375 18.859375 -47.84375 C 17.597656 -47.84375 16.664062 -47.664062 16.0625 -47.3125 C 15.46875 -46.96875 15.171875 -46.375 15.171875 -45.53125 Z M 15.171875 -25.140625 "/></g></g></g><g fill="#ffffff" fill-opacity="1"><g transform="translate(88.232979, 64.911928)"><g><path d="M 36.90625 -4.984375 C 37.625 -4.984375 37.984375 -4.65625 37.984375 -4 C 37.984375 -3.34375 37.265625 -2.71875 35.828125 -2.125 C 34.390625 -1.53125 33.382812 -0.988281 32.8125 -0.5 C 32.238281 -0.0195312 31.816406 0.335938 31.546875 0.578125 C 31.273438 0.816406 30.953125 0.9375 30.578125 0.9375 C 29.835938 0.9375 29.21875 0.625 28.71875 0 C 28.21875 -0.625 27.546875 -1.953125 26.703125 -3.984375 C 25.296875 -2.367188 23.582031 -1.144531 21.5625 -0.3125 C 19.539062 0.519531 17.535156 0.9375 15.546875 0.9375 C 11.804688 0.9375 8.90625 -0.015625 6.84375 -1.921875 C 4.78125 -3.835938 3.75 -6.457031 3.75 -9.78125 C 3.75 -13.101562 5.304688 -15.800781 8.421875 -17.875 C 11.535156 -19.945312 15.507812 -20.984375 20.34375 -20.984375 C 21.78125 -20.984375 23.679688 -20.734375 26.046875 -20.234375 L 26.046875 -23.140625 C 26.046875 -29.515625 23.351562 -32.703125 17.96875 -32.703125 C 15.113281 -32.703125 13.019531 -31.382812 11.6875 -28.75 C 10.519531 -26.394531 9.378906 -25.21875 8.265625 -25.21875 C 7.441406 -25.21875 6.722656 -25.453125 6.109375 -25.921875 C 5.503906 -26.398438 5.203125 -27 5.203125 -27.71875 C 5.203125 -28.4375 5.570312 -29.234375 6.3125 -30.109375 C 7.0625 -30.992188 8.054688 -31.796875 9.296875 -32.515625 C 12.222656 -34.222656 15.4375 -35.078125 18.9375 -35.078125 C 25.132812 -35.078125 29.140625 -33.054688 30.953125 -29.015625 C 31.617188 -27.578125 31.953125 -25.816406 31.953125 -23.734375 L 31.953125 -8.890625 C 31.953125 -6.984375 32.140625 -5.753906 32.515625 -5.203125 C 32.890625 -4.660156 33.410156 -4.390625 34.078125 -4.390625 C 34.742188 -4.390625 35.285156 -4.488281 35.703125 -4.6875 C 36.128906 -4.882812 36.53125 -4.984375 36.90625 -4.984375 Z M 26.046875 -16.78125 C 24.253906 -17.789062 21.992188 -18.296875 19.265625 -18.296875 C 16.535156 -18.296875 14.347656 -17.613281 12.703125 -16.25 C 11.054688 -14.882812 10.234375 -13.054688 10.234375 -10.765625 C 10.234375 -8.472656 10.863281 -6.5625 12.125 -5.03125 C 13.394531 -3.507812 15.019531 -2.75 17 -2.75 C 21.238281 -2.75 24.289062 -4.140625 26.15625 -6.921875 C 26.082031 -7.617188 26.046875 -8.382812 26.046875 -9.21875 Z M 26.046875 -16.78125 "/></g></g></g><g fill="#ffffff" fill-opacity="1"><g transform="translate(126.655665, 64.911928)"><g><path d="M 3.09375 -17.03125 C 3.09375 -19.664062 3.566406 -22.101562 4.515625 -24.34375 C 5.472656 -26.59375 6.769531 -28.507812 8.40625 -30.09375 C 11.875 -33.414062 16.253906 -35.078125 21.546875 -35.078125 C 24.671875 -34.984375 27.382812 -34.253906 29.6875 -32.890625 C 32.039062 -31.523438 33.269531 -29.847656 33.375 -27.859375 C 33.375 -26.796875 32.664062 -26.09375 31.25 -25.75 C 30.875 -25.664062 30.539062 -25.625 30.25 -25.625 C 29.101562 -25.625 28.171875 -26.40625 27.453125 -27.96875 C 26.035156 -30.925781 23.644531 -32.40625 20.28125 -32.40625 C 17.300781 -32.40625 14.804688 -31.175781 12.796875 -28.71875 C 10.660156 -26.113281 9.59375 -22.679688 9.59375 -18.421875 C 9.59375 -13.679688 10.695312 -9.875 12.90625 -7 C 15.21875 -3.96875 18.367188 -2.453125 22.359375 -2.453125 C 25.085938 -2.453125 27.476562 -3.492188 29.53125 -5.578125 C 30.425781 -6.472656 31.097656 -6.921875 31.546875 -6.921875 C 32.460938 -6.921875 32.921875 -6.460938 32.921875 -5.546875 C 32.921875 -4.648438 32.039062 -3.554688 30.28125 -2.265625 C 27.425781 -0.128906 23.914062 0.9375 19.75 0.9375 C 14.769531 0.9375 10.71875 -0.765625 7.59375 -4.171875 C 4.59375 -7.460938 3.09375 -11.75 3.09375 -17.03125 Z M 3.09375 -17.03125 "/></g></g></g><g fill="#ffffff" fill-opacity="1"><g transform="translate(161.991145, 64.911928)"><g><path d="M 3.09375 -17.03125 C 3.09375 -19.664062 3.566406 -22.101562 4.515625 -24.34375 C 5.472656 -26.59375 6.769531 -28.507812 8.40625 -30.09375 C 11.875 -33.414062 16.253906 -35.078125 21.546875 -35.078125 C 24.671875 -34.984375 27.382812 -34.253906 29.6875 -32.890625 C 32.039062 -31.523438 33.269531 -29.847656 33.375 -27.859375 C 33.375 -26.796875 32.664062 -26.09375 31.25 -25.75 C 30.875 -25.664062 30.539062 -25.625 30.25 -25.625 C 29.101562 -25.625 28.171875 -26.40625 27.453125 -27.96875 C 26.035156 -30.925781 23.644531 -32.40625 20.28125 -32.40625 C 17.300781 -32.40625 14.804688 -31.175781 12.796875 -28.71875 C 10.660156 -26.113281 9.59375 -22.679688 9.59375 -18.421875 C 9.59375 -13.679688 10.695312 -9.875 12.90625 -7 C 15.21875 -3.96875 18.367188 -2.453125 22.359375 -2.453125 C 25.085938 -2.453125 27.476562 -3.492188 29.53125 -5.578125 C 30.425781 -6.472656 31.097656 -6.921875 31.546875 -6.921875 C 32.460938 -6.921875 32.921875 -6.460938 32.921875 -5.546875 C 32.921875 -4.648438 32.039062 -3.554688 30.28125 -2.265625 C 27.425781 -0.128906 23.914062 0.9375 19.75 0.9375 C 14.769531 0.9375 10.71875 -0.765625 7.59375 -4.171875 C 4.59375 -7.460938 3.09375 -11.75 3.09375 -17.03125 Z M 3.09375 -17.03125 "/></g></g></g><g fill="#ffffff" fill-opacity="1"><g transform="translate(197.326625, 64.911928)"><g><path d="M 2.828125 -16.515625 C 2.828125 -18.921875 3.257812 -21.25 4.125 -23.5 C 5 -25.757812 6.226562 -27.75 7.8125 -29.46875 C 11.28125 -33.207031 15.609375 -35.078125 20.796875 -35.078125 C 26.546875 -35.078125 30.972656 -33.351562 34.078125 -29.90625 C 36.878906 -26.78125 38.28125 -22.726562 38.28125 -17.75 C 38.28125 -12.707031 36.601562 -8.351562 33.25 -4.6875 C 29.832031 -0.9375 25.519531 0.9375 20.3125 0.9375 C 14.5625 0.9375 10.144531 -0.785156 7.0625 -4.234375 C 4.238281 -7.359375 2.828125 -11.453125 2.828125 -16.515625 Z M 9.109375 -18.078125 C 9.109375 -15.648438 9.441406 -13.378906 10.109375 -11.265625 C 10.785156 -9.160156 11.707031 -7.414062 12.875 -6.03125 C 15.175781 -3.195312 18.085938 -1.78125 21.609375 -1.78125 C 24.734375 -1.78125 27.273438 -3.019531 29.234375 -5.5 C 31.273438 -8.082031 32.296875 -11.40625 32.296875 -15.46875 C 32.296875 -20.851562 31.054688 -25.070312 28.578125 -28.125 C 26.242188 -30.925781 23.316406 -32.328125 19.796875 -32.328125 C 16.671875 -32.328125 14.128906 -31.085938 12.171875 -28.609375 C 10.128906 -26.023438 9.109375 -22.515625 9.109375 -18.078125 Z M 9.109375 -18.078125 "/></g></g></g><g fill="#ffffff" fill-opacity="1"><g transform="translate(238.204196, 64.911928)"><g><path d="M 4.359375 0.5625 C 2.691406 0.5625 1.859375 0.101562 1.859375 -0.8125 C 1.859375 -1.53125 2.316406 -1.890625 3.234375 -1.890625 L 5.09375 -1.71875 C 5.664062 -1.71875 6.132812 -1.820312 6.5 -2.03125 C 6.875 -2.238281 7.160156 -2.691406 7.359375 -3.390625 C 7.765625 -4.648438 7.96875 -7.453125 7.96875 -11.796875 L 7.96875 -22.921875 C 7.96875 -25.441406 7.8125 -27.019531 7.5 -27.65625 C 7.1875 -28.289062 6.8125 -28.722656 6.375 -28.953125 C 5.945312 -29.191406 5.242188 -29.382812 4.265625 -29.53125 C 3.285156 -29.6875 2.796875 -30.070312 2.796875 -30.6875 C 2.796875 -31.257812 3.425781 -31.671875 4.6875 -31.921875 C 7.632812 -32.535156 9.664062 -33.15625 10.78125 -33.78125 C 12.300781 -34.644531 13.335938 -35.078125 13.890625 -35.078125 C 14.453125 -35.078125 14.734375 -34.789062 14.734375 -34.21875 C 14.734375 -33.945312 14.675781 -33.660156 14.5625 -33.359375 C 14.445312 -33.066406 14.328125 -32.710938 14.203125 -32.296875 C 14.003906 -31.453125 13.859375 -29.863281 13.765625 -27.53125 C 15.921875 -31.144531 18.523438 -33.398438 21.578125 -34.296875 C 22.472656 -34.566406 23.472656 -34.703125 24.578125 -34.703125 C 25.679688 -34.703125 26.660156 -34.304688 27.515625 -33.515625 C 28.367188 -32.722656 28.796875 -31.878906 28.796875 -30.984375 C 28.796875 -30.097656 28.695312 -29.441406 28.5 -29.015625 C 28.300781 -28.597656 28.050781 -28.238281 27.75 -27.9375 C 27.101562 -27.289062 26.523438 -26.96875 26.015625 -26.96875 C 25.515625 -26.96875 25.125 -27.097656 24.84375 -27.359375 C 24.570312 -27.617188 24.265625 -28.097656 23.921875 -28.796875 C 23.296875 -30.035156 22.597656 -30.65625 21.828125 -30.65625 C 21.066406 -30.65625 20.335938 -30.488281 19.640625 -30.15625 C 18.941406 -29.820312 18.25 -29.316406 17.5625 -28.640625 C 16.050781 -27.234375 14.773438 -25.3125 13.734375 -22.875 L 13.734375 -11.796875 C 13.734375 -7.078125 13.863281 -4.300781 14.125 -3.46875 C 14.382812 -2.644531 14.703125 -2.148438 15.078125 -1.984375 C 15.460938 -1.828125 15.992188 -1.75 16.671875 -1.75 L 19.984375 -2.046875 C 20.472656 -2.046875 20.863281 -1.925781 21.15625 -1.6875 C 21.457031 -1.457031 21.609375 -1.164062 21.609375 -0.8125 C 21.609375 0.101562 20.703125 0.5625 18.890625 0.5625 L 11.046875 0 C 9.785156 0 8.585938 0.09375 7.453125 0.28125 C 6.328125 0.46875 5.296875 0.5625 4.359375 0.5625 Z M 4.359375 0.5625 "/></g></g></g><g fill="#ffffff" fill-opacity="1"><g transform="translate(267.700024, 64.911928)"><g><path d="M 29.5 -3.3125 C 26.84375 -0.476562 23.359375 0.9375 19.046875 0.9375 C 13.984375 0.9375 9.988281 -0.8125 7.0625 -4.3125 C 4.363281 -7.582031 3.015625 -11.75 3.015625 -16.8125 C 3.015625 -21.875 4.675781 -26.175781 8 -29.71875 C 11.34375 -33.289062 15.507812 -35.078125 20.5 -35.078125 C 23.769531 -35.078125 26.507812 -34.457031 28.71875 -33.21875 L 28.71875 -41.0625 C 28.71875 -43.394531 28.53125 -44.914062 28.15625 -45.625 C 27.789062 -46.332031 27.394531 -46.8125 26.96875 -47.0625 C 26.550781 -47.3125 25.875 -47.507812 24.9375 -47.65625 C 24.007812 -47.800781 23.546875 -48.1875 23.546875 -48.8125 C 23.546875 -49.375 24.179688 -49.78125 25.453125 -50.03125 C 28.421875 -50.65625 30.460938 -51.289062 31.578125 -51.9375 C 33.097656 -52.78125 34.117188 -53.203125 34.640625 -53.203125 C 35.203125 -53.203125 35.484375 -52.914062 35.484375 -52.34375 C 35.484375 -52.070312 35.4375 -51.785156 35.34375 -51.484375 C 34.820312 -50.148438 34.546875 -48.453125 34.515625 -46.390625 C 34.492188 -44.328125 34.484375 -42.65625 34.484375 -41.375 L 34.484375 -10.90625 C 34.484375 -8.175781 34.644531 -6.410156 34.96875 -5.609375 C 35.289062 -4.816406 35.613281 -4.300781 35.9375 -4.0625 C 36.257812 -3.832031 36.644531 -3.71875 37.09375 -3.71875 L 39.328125 -4.203125 C 40.046875 -4.203125 40.40625 -3.878906 40.40625 -3.234375 C 40.40625 -2.859375 40.25 -2.546875 39.9375 -2.296875 C 39.625 -2.054688 39.09375 -1.773438 38.34375 -1.453125 C 37.601562 -1.128906 36.984375 -0.789062 36.484375 -0.4375 C 35.992188 -0.09375 35.5625 0.222656 35.1875 0.515625 C 34.34375 1.234375 33.6875 1.59375 33.21875 1.59375 C 31.601562 1.59375 30.363281 -0.0390625 29.5 -3.3125 Z M 28.71875 -27.671875 C 26.457031 -30.753906 23.332031 -32.296875 19.34375 -32.296875 C 16.34375 -32.296875 13.9375 -31.140625 12.125 -28.828125 C 10.1875 -26.398438 9.21875 -23.078125 9.21875 -18.859375 C 9.21875 -13.953125 10.472656 -10.019531 12.984375 -7.0625 C 15.316406 -4.289062 18.109375 -2.90625 21.359375 -2.90625 C 24.648438 -2.90625 27.164062 -4.070312 28.90625 -6.40625 C 28.78125 -7.320312 28.71875 -8.382812 28.71875 -9.59375 Z M 28.71875 -27.671875 "/></g></g></g></g></g></g></g></g></svg>