<svg xmlns="http://www.w3.org/2000/svg" xmlns:xlink="http://www.w3.org/1999/xlink" width="350" zoomAndPan="magnify" viewBox="0 0 262.5 74.999997" height="100" preserveAspectRatio="xMidYMid meet" version="1.0"><defs><filter x="0%" y="0%" width="100%" height="100%" id="7457d9e3ae"><feColorMatrix values="0 0 0 0 1 0 0 0 0 1 0 0 0 0 1 0 0 0 1 0" color-interpolation-filters="sRGB"/></filter><g/><clipPath id="71f2aba270"><path d="M 0 0.0703125 L 262 0.0703125 L 262 74.925781 L 0 74.925781 Z M 0 0.0703125 " clip-rule="nonzero"/></clipPath><clipPath id="2c55d35b2f"><path d="M 0 0.0703125 L 262 0.0703125 L 262 74.925781 L 0 74.925781 Z M 0 0.0703125 " clip-rule="nonzero"/></clipPath><clipPath id="d572f96d13"><path d="M 0 0.0703125 L 262 0.0703125 L 262 74.925781 L 0 74.925781 Z M 0 0.0703125 " clip-rule="nonzero"/></clipPath><clipPath id="95129781a6"><path d="M 0 0.0703125 L 262 0.0703125 L 262 74.925781 L 0 74.925781 Z M 0 0.0703125 " clip-rule="nonzero"/></clipPath><clipPath id="b35285ecab"><path d="M 0 0.0703125 L 262 0.0703125 L 262 74.925781 L 0 74.925781 Z M 0 0.0703125 " clip-rule="nonzero"/></clipPath><linearGradient x1="-108.179775" gradientTransform="matrix(0.608326, 0, 0, 0.60847, 65.80854, -32.600212)" y1="97" x2="322.512089" gradientUnits="userSpaceOnUse" y2="97" id="f8d1e0ffbc"><stop stop-opacity="1" stop-color="rgb(36.468506%, 87.838745%, 90.19928%)" offset="0"/><stop stop-opacity="1" stop-color="rgb(36.468506%, 87.838745%, 90.19928%)" offset="0.25"/><stop stop-opacity="1" stop-color="rgb(35.948181%, 86.999512%, 89.880371%)" offset="0.253906"/><stop stop-opacity="1" stop-color="rgb(35.427856%, 86.160278%, 89.561462%)" offset="0.257813"/><stop stop-opacity="1" stop-color="rgb(34.814453%, 85.171509%, 89.18457%)" offset="0.261719"/><stop stop-opacity="1" stop-color="rgb(34.202576%, 84.184265%, 88.809204%)" offset="0.265625"/><stop stop-opacity="1" stop-color="rgb(33.589172%, 83.195496%, 88.433838%)" offset="0.269531"/><stop stop-opacity="1" stop-color="rgb(32.977295%, 82.208252%, 88.058472%)" offset="0.273438"/><stop stop-opacity="1" stop-color="rgb(32.363892%, 81.219482%, 87.683105%)" offset="0.277344"/><stop stop-opacity="1" stop-color="rgb(31.752014%, 80.230713%, 87.307739%)" offset="0.28125"/><stop stop-opacity="1" stop-color="rgb(31.138611%, 79.241943%, 86.930847%)" offset="0.285156"/><stop stop-opacity="1" stop-color="rgb(30.526733%, 78.2547%, 86.555481%)" offset="0.289062"/><stop stop-opacity="1" stop-color="rgb(29.91333%, 77.26593%, 86.180115%)" offset="0.292969"/><stop stop-opacity="1" stop-color="rgb(29.301453%, 76.278687%, 85.804749%)" offset="0.296875"/><stop stop-opacity="1" stop-color="rgb(28.688049%, 75.289917%, 85.429382%)" offset="0.300781"/><stop stop-opacity="1" stop-color="rgb(28.076172%, 74.302673%, 85.054016%)" offset="0.304688"/><stop stop-opacity="1" stop-color="rgb(27.462769%, 73.313904%, 84.677124%)" offset="0.308594"/><stop stop-opacity="1" stop-color="rgb(26.850891%, 72.32666%, 84.301758%)" offset="0.3125"/><stop stop-opacity="1" stop-color="rgb(26.237488%, 71.337891%, 83.926392%)" offset="0.316406"/><stop stop-opacity="1" stop-color="rgb(25.62561%, 70.349121%, 83.551025%)" offset="0.320313"/><stop stop-opacity="1" stop-color="rgb(25.012207%, 69.360352%, 83.174133%)" offset="0.324219"/><stop stop-opacity="1" stop-color="rgb(24.40033%, 68.373108%, 82.798767%)" offset="0.328125"/><stop stop-opacity="1" stop-color="rgb(23.786926%, 67.384338%, 82.423401%)" offset="0.332031"/><stop stop-opacity="1" stop-color="rgb(23.175049%, 66.397095%, 82.048035%)" offset="0.335938"/><stop stop-opacity="1" stop-color="rgb(22.561646%, 65.408325%, 81.672668%)" offset="0.339844"/><stop stop-opacity="1" stop-color="rgb(21.948242%, 64.421082%, 81.297302%)" offset="0.34375"/><stop stop-opacity="1" stop-color="rgb(21.334839%, 63.432312%, 80.92041%)" offset="0.347656"/><stop stop-opacity="1" stop-color="rgb(20.722961%, 62.443542%, 80.545044%)" offset="0.351562"/><stop stop-opacity="1" stop-color="rgb(20.109558%, 61.454773%, 80.169678%)" offset="0.355469"/><stop stop-opacity="1" stop-color="rgb(19.497681%, 60.467529%, 79.794312%)" offset="0.359375"/><stop stop-opacity="1" stop-color="rgb(18.884277%, 59.47876%, 79.418945%)" offset="0.363281"/><stop stop-opacity="1" stop-color="rgb(18.2724%, 58.491516%, 79.043579%)" offset="0.367188"/><stop stop-opacity="1" stop-color="rgb(17.658997%, 57.502747%, 78.666687%)" offset="0.371094"/><stop stop-opacity="1" stop-color="rgb(17.047119%, 56.515503%, 78.291321%)" offset="0.375"/><stop stop-opacity="1" stop-color="rgb(16.433716%, 55.526733%, 77.915955%)" offset="0.378906"/><stop stop-opacity="1" stop-color="rgb(15.821838%, 54.537964%, 77.540588%)" offset="0.382813"/><stop stop-opacity="1" stop-color="rgb(15.208435%, 53.549194%, 77.163696%)" offset="0.386719"/><stop stop-opacity="1" stop-color="rgb(14.596558%, 52.561951%, 76.78833%)" offset="0.390625"/><stop stop-opacity="1" stop-color="rgb(13.983154%, 51.573181%, 76.412964%)" offset="0.394531"/><stop stop-opacity="1" stop-color="rgb(13.371277%, 50.585938%, 76.037598%)" offset="0.398438"/><stop stop-opacity="1" stop-color="rgb(12.757874%, 49.597168%, 75.662231%)" offset="0.402344"/><stop stop-opacity="1" stop-color="rgb(12.145996%, 48.609924%, 75.286865%)" offset="0.40625"/><stop stop-opacity="1" stop-color="rgb(11.532593%, 47.621155%, 74.909973%)" offset="0.410156"/><stop stop-opacity="1" stop-color="rgb(10.920715%, 46.632385%, 74.534607%)" offset="0.414063"/><stop stop-opacity="1" stop-color="rgb(10.307312%, 45.643616%, 74.159241%)" offset="0.417969"/><stop stop-opacity="1" stop-color="rgb(9.695435%, 44.656372%, 73.783875%)" offset="0.421875"/><stop stop-opacity="1" stop-color="rgb(9.082031%, 43.667603%, 73.406982%)" offset="0.425781"/><stop stop-opacity="1" stop-color="rgb(8.470154%, 42.680359%, 73.031616%)" offset="0.429688"/><stop stop-opacity="1" stop-color="rgb(7.85675%, 41.691589%, 72.65625%)" offset="0.433594"/><stop stop-opacity="1" stop-color="rgb(7.243347%, 40.704346%, 72.280884%)" offset="0.4375"/><stop stop-opacity="1" stop-color="rgb(6.629944%, 39.715576%, 71.905518%)" offset="0.441406"/><stop stop-opacity="1" stop-color="rgb(6.018066%, 38.726807%, 71.530151%)" offset="0.445313"/><stop stop-opacity="1" stop-color="rgb(5.404663%, 37.738037%, 71.153259%)" offset="0.449219"/><stop stop-opacity="1" stop-color="rgb(4.792786%, 36.750793%, 70.777893%)" offset="0.453125"/><stop stop-opacity="1" stop-color="rgb(4.179382%, 35.762024%, 70.402527%)" offset="0.457031"/><stop stop-opacity="1" stop-color="rgb(3.567505%, 34.77478%, 70.027161%)" offset="0.460938"/><stop stop-opacity="1" stop-color="rgb(2.954102%, 33.786011%, 69.651794%)" offset="0.464844"/><stop stop-opacity="1" stop-color="rgb(2.342224%, 32.798767%, 69.276428%)" offset="0.46875"/><stop stop-opacity="1" stop-color="rgb(1.728821%, 31.809998%, 68.899536%)" offset="0.472656"/><stop stop-opacity="1" stop-color="rgb(1.116943%, 30.821228%, 68.52417%)" offset="0.476562"/><stop stop-opacity="1" stop-color="rgb(0.558472%, 29.919434%, 68.180847%)" offset="0.480469"/><stop stop-opacity="1" stop-color="rgb(0%, 29.019165%, 67.83905%)" offset="0.484375"/><stop stop-opacity="1" stop-color="rgb(0%, 29.019165%, 67.83905%)" offset="0.5"/><stop stop-opacity="1" stop-color="rgb(0%, 29.019165%, 67.83905%)" offset="1"/></linearGradient><clipPath id="43f5d00308"><rect x="0" width="262" y="0" height="75"/></clipPath><clipPath id="a092763313"><path d="M 0 0.0703125 L 262 0.0703125 L 262 74.925781 L 0 74.925781 Z M 0 0.0703125 " clip-rule="nonzero"/></clipPath><clipPath id="373e48f42e"><rect x="0" width="262" y="0" height="75"/></clipPath><clipPath id="1766b3bb6f"><rect x="0" width="262" y="0" height="75"/></clipPath><mask id="ffc3432722"><g filter="url(#7457d9e3ae)"><g transform="matrix(1, 0, 0, 1, 0, 0.000000000000008313)"><g clip-path="url(#1766b3bb6f)"><g clip-path="url(#a092763313)"><g transform="matrix(1, 0, 0, 1, 0, 0.000000000000008313)"><g clip-path="url(#373e48f42e)"><g fill="#000000" fill-opacity="1"><g transform="translate(65.836171, 51.375224)"><g/></g></g><g fill="#000000" fill-opacity="1"><g transform="translate(87.528153, 51.375224)"><g><path d="M 3.421875 -18.921875 C 3.421875 -21.847656 3.953125 -24.554688 5.015625 -27.046875 C 6.078125 -29.535156 7.519531 -31.660156 9.34375 -33.421875 C 13.195312 -37.117188 18.054688 -38.96875 23.921875 -38.96875 C 27.390625 -38.851562 30.40625 -38.039062 32.96875 -36.53125 C 35.59375 -35.007812 36.957031 -33.148438 37.0625 -30.953125 C 37.0625 -29.765625 36.273438 -28.976562 34.703125 -28.59375 C 34.296875 -28.507812 33.925781 -28.46875 33.59375 -28.46875 C 32.320312 -28.46875 31.289062 -29.335938 30.5 -31.078125 C 28.925781 -34.347656 26.265625 -35.984375 22.515625 -35.984375 C 19.210938 -35.984375 16.445312 -34.625 14.21875 -31.90625 C 11.84375 -29.007812 10.65625 -25.191406 10.65625 -20.453125 C 10.65625 -15.191406 11.882812 -10.960938 14.34375 -7.765625 C 16.90625 -4.410156 20.398438 -2.734375 24.828125 -2.734375 C 27.859375 -2.734375 30.519531 -3.890625 32.8125 -6.203125 C 33.800781 -7.191406 34.546875 -7.6875 35.046875 -7.6875 C 36.054688 -7.6875 36.5625 -7.175781 36.5625 -6.15625 C 36.5625 -5.164062 35.585938 -3.953125 33.640625 -2.515625 C 30.472656 -0.148438 26.570312 1.03125 21.9375 1.03125 C 16.40625 1.03125 11.898438 -0.851562 8.421875 -4.625 C 5.085938 -8.289062 3.421875 -13.054688 3.421875 -18.921875 Z M 3.421875 -18.921875 "/></g></g></g></g></g></g></g></g></g></mask><clipPath id="53024cad58"><path d="M 0 0.0703125 L 262 0.0703125 L 262 74.925781 L 0 74.925781 Z M 0 0.0703125 " clip-rule="nonzero"/></clipPath><clipPath id="cd4dd39988"><rect x="0" width="262" y="0" height="75"/></clipPath><clipPath id="4d40ef61f9"><rect x="0" width="262" y="0" height="75"/></clipPath><clipPath id="4a8fba1708"><rect x="0" width="262" y="0" height="75"/></clipPath><clipPath id="15b9f1bc01"><path d="M 0 0.0703125 L 262 0.0703125 L 262 74.925781 L 0 74.925781 Z M 0 0.0703125 " clip-rule="nonzero"/></clipPath><clipPath id="0ad98933e8"><path d="M 0 0.0703125 L 262 0.0703125 L 262 74.925781 L 0 74.925781 Z M 0 0.0703125 " clip-rule="nonzero"/></clipPath><clipPath id="409275fafc"><path d="M 0 0.0703125 L 262 0.0703125 L 262 74.925781 L 0 74.925781 Z M 0 0.0703125 " clip-rule="nonzero"/></clipPath><linearGradient x1="-172.110286" gradientTransform="matrix(-0.608255, 0, 0, -0.608219, 157.314033, 227.058479)" y1="283" x2="258.631802" gradientUnits="userSpaceOnUse" y2="283" id="87335a3980"><stop stop-opacity="1" stop-color="rgb(54.899597%, 32.159424%, 100%)" offset="0"/><stop stop-opacity="1" stop-color="rgb(54.899597%, 32.159424%, 100%)" offset="0.25"/><stop stop-opacity="1" stop-color="rgb(54.899597%, 32.159424%, 100%)" offset="0.375"/><stop stop-opacity="1" stop-color="rgb(54.899597%, 32.159424%, 100%)" offset="0.40625"/><stop stop-opacity="1" stop-color="rgb(54.899597%, 32.159424%, 100%)" offset="0.421875"/><stop stop-opacity="1" stop-color="rgb(54.899597%, 32.159424%, 100%)" offset="0.429688"/><stop stop-opacity="1" stop-color="rgb(56.039429%, 32.783508%, 98.233032%)" offset="0.433594"/><stop stop-opacity="1" stop-color="rgb(57.180786%, 33.409119%, 96.46759%)" offset="0.4375"/><stop stop-opacity="1" stop-color="rgb(58.387756%, 34.069824%, 94.599915%)" offset="0.441406"/><stop stop-opacity="1" stop-color="rgb(59.594727%, 34.73053%, 92.733765%)" offset="0.445312"/><stop stop-opacity="1" stop-color="rgb(60.800171%, 35.391235%, 90.866089%)" offset="0.449219"/><stop stop-opacity="1" stop-color="rgb(62.007141%, 36.051941%, 88.999939%)" offset="0.453125"/><stop stop-opacity="1" stop-color="rgb(63.212585%, 36.712646%, 87.132263%)" offset="0.457031"/><stop stop-opacity="1" stop-color="rgb(64.419556%, 37.373352%, 85.264587%)" offset="0.460938"/><stop stop-opacity="1" stop-color="rgb(65.625%, 38.034058%, 83.396912%)" offset="0.464844"/><stop stop-opacity="1" stop-color="rgb(66.83197%, 38.694763%, 81.530762%)" offset="0.46875"/><stop stop-opacity="1" stop-color="rgb(68.037415%, 39.355469%, 79.663086%)" offset="0.472656"/><stop stop-opacity="1" stop-color="rgb(69.244385%, 40.016174%, 77.796936%)" offset="0.476562"/><stop stop-opacity="1" stop-color="rgb(70.449829%, 40.67688%, 75.92926%)" offset="0.480469"/><stop stop-opacity="1" stop-color="rgb(71.656799%, 41.337585%, 74.06311%)" offset="0.484375"/><stop stop-opacity="1" stop-color="rgb(72.862244%, 41.998291%, 72.195435%)" offset="0.488281"/><stop stop-opacity="1" stop-color="rgb(74.069214%, 42.658997%, 70.329285%)" offset="0.492188"/><stop stop-opacity="1" stop-color="rgb(75.274658%, 43.319702%, 68.461609%)" offset="0.496094"/><stop stop-opacity="1" stop-color="rgb(76.481628%, 43.980408%, 66.595459%)" offset="0.5"/><stop stop-opacity="1" stop-color="rgb(77.688599%, 44.639587%, 64.727783%)" offset="0.503906"/><stop stop-opacity="1" stop-color="rgb(78.895569%, 45.300293%, 62.861633%)" offset="0.507812"/><stop stop-opacity="1" stop-color="rgb(80.101013%, 45.960999%, 60.993958%)" offset="0.511719"/><stop stop-opacity="1" stop-color="rgb(81.307983%, 46.621704%, 59.127808%)" offset="0.515625"/><stop stop-opacity="1" stop-color="rgb(82.513428%, 47.28241%, 57.260132%)" offset="0.519531"/><stop stop-opacity="1" stop-color="rgb(83.720398%, 47.943115%, 55.393982%)" offset="0.523438"/><stop stop-opacity="1" stop-color="rgb(84.925842%, 48.603821%, 53.526306%)" offset="0.527344"/><stop stop-opacity="1" stop-color="rgb(86.132812%, 49.264526%, 51.660156%)" offset="0.53125"/><stop stop-opacity="1" stop-color="rgb(87.338257%, 49.925232%, 49.79248%)" offset="0.535156"/><stop stop-opacity="1" stop-color="rgb(88.545227%, 50.585938%, 47.926331%)" offset="0.539062"/><stop stop-opacity="1" stop-color="rgb(89.750671%, 51.246643%, 46.058655%)" offset="0.542969"/><stop stop-opacity="1" stop-color="rgb(90.957642%, 51.907349%, 44.192505%)" offset="0.546875"/><stop stop-opacity="1" stop-color="rgb(92.163086%, 52.568054%, 42.324829%)" offset="0.550781"/><stop stop-opacity="1" stop-color="rgb(93.370056%, 53.22876%, 40.458679%)" offset="0.554688"/><stop stop-opacity="1" stop-color="rgb(94.5755%, 53.889465%, 38.591003%)" offset="0.558594"/><stop stop-opacity="1" stop-color="rgb(95.782471%, 54.550171%, 36.724854%)" offset="0.5625"/><stop stop-opacity="1" stop-color="rgb(96.989441%, 55.210876%, 34.857178%)" offset="0.566406"/><stop stop-opacity="1" stop-color="rgb(98.196411%, 55.871582%, 32.991028%)" offset="0.570312"/><stop stop-opacity="1" stop-color="rgb(99.098206%, 56.364441%, 31.594849%)" offset="0.574219"/><stop stop-opacity="1" stop-color="rgb(100%, 56.858826%, 30.198669%)" offset="0.578125"/><stop stop-opacity="1" stop-color="rgb(100%, 56.858826%, 30.198669%)" offset="0.59375"/><stop stop-opacity="1" stop-color="rgb(100%, 56.858826%, 30.198669%)" offset="0.625"/><stop stop-opacity="1" stop-color="rgb(100%, 56.858826%, 30.198669%)" offset="0.75"/><stop stop-opacity="1" stop-color="rgb(100%, 56.858826%, 30.198669%)" offset="1"/></linearGradient><clipPath id="58a531afac"><rect x="0" width="262" y="0" height="75"/></clipPath><clipPath id="6b49cecc4f"><path d="M 0 0.0703125 L 262 0.0703125 L 262 74.925781 L 0 74.925781 Z M 0 0.0703125 " clip-rule="nonzero"/></clipPath><clipPath id="59b43cb56d"><rect x="0" width="262" y="0" height="75"/></clipPath><clipPath id="0f22213f9c"><rect x="0" width="262" y="0" height="75"/></clipPath><mask id="b12e136226"><g filter="url(#7457d9e3ae)"><g transform="matrix(1, 0, 0, 1, 0, 0.000000000000008313)"><g clip-path="url(#0f22213f9c)"><g clip-path="url(#6b49cecc4f)"><g transform="matrix(1, 0, 0, 1, 0, 0.000000000000008313)"><g clip-path="url(#59b43cb56d)"><g fill="#000000" fill-opacity="1"><g transform="translate(149.257156, 30.587284)"><g><path d="M -3.34375 18.453125 C -3.34375 21.304688 -3.859375 23.945312 -4.890625 26.375 C -5.929688 28.800781 -7.335938 30.875 -9.109375 32.59375 C -12.867188 36.195312 -17.609375 38 -23.328125 38 C -26.710938 37.894531 -29.65625 37.101562 -32.15625 35.625 C -34.707031 34.144531 -36.035156 32.332031 -36.140625 30.1875 C -36.140625 29.03125 -35.375 28.265625 -33.84375 27.890625 C -33.445312 27.804688 -33.085938 27.765625 -32.765625 27.765625 C -31.523438 27.765625 -30.515625 28.609375 -29.734375 30.296875 C -28.203125 33.492188 -25.613281 35.09375 -21.96875 35.09375 C -18.738281 35.09375 -16.035156 33.765625 -13.859375 31.109375 C -11.546875 28.285156 -10.390625 24.566406 -10.390625 19.953125 C -10.390625 14.816406 -11.585938 10.691406 -13.984375 7.578125 C -16.484375 4.296875 -19.894531 2.65625 -24.21875 2.65625 C -27.175781 2.65625 -29.769531 3.785156 -32 6.046875 C -32.96875 7.015625 -33.691406 7.5 -34.171875 7.5 C -35.171875 7.5 -35.671875 7 -35.671875 6 C -35.671875 5.03125 -34.710938 3.847656 -32.796875 2.453125 C -29.710938 0.148438 -25.914062 -1 -21.40625 -1 C -16 -1 -11.601562 0.835938 -8.21875 4.515625 C -4.96875 8.085938 -3.34375 12.734375 -3.34375 18.453125 Z M -3.34375 18.453125 "/></g></g></g></g></g></g></g></g></g></mask><clipPath id="aecad94d01"><path d="M 0 0.0703125 L 262 0.0703125 L 262 74.925781 L 0 74.925781 Z M 0 0.0703125 " clip-rule="nonzero"/></clipPath><clipPath id="5bb7495a65"><rect x="0" width="262" y="0" height="75"/></clipPath><clipPath id="e3dc337bc5"><rect x="0" width="262" y="0" height="75"/></clipPath><clipPath id="8edffdd9da"><rect x="0" width="262" y="0" height="75"/></clipPath><clipPath id="98108d9ee2"><path d="M 14 0.0703125 L 248 0.0703125 L 248 74.925781 L 14 74.925781 Z M 14 0.0703125 " clip-rule="nonzero"/></clipPath><clipPath id="084e981850"><rect x="0" width="234" y="0" height="75"/></clipPath><clipPath id="6036dd43e0"><rect x="0" width="262" y="0" height="75"/></clipPath></defs><g clip-path="url(#71f2aba270)"><g transform="matrix(1, 0, 0, 1, 0, 0.000000000000008313)"><g clip-path="url(#6036dd43e0)"><g clip-path="url(#2c55d35b2f)"><g transform="matrix(1, 0, 0, 1, 0, 0.000000000000008313)"><g clip-path="url(#4a8fba1708)"><g clip-path="url(#d572f96d13)"><g transform="matrix(1, 0, 0, 1, 0, 0.000000000000008313)"><g clip-path="url(#4d40ef61f9)"><g clip-path="url(#95129781a6)"><g mask="url(#ffc3432722)"><g transform="matrix(1, 0, 0, 1, 0, 0.000000000000008313)"><g clip-path="url(#cd4dd39988)"><g clip-path="url(#53024cad58)"><path fill="url(#f8d1e0ffbc)" d="M 0 0.0703125 L 0 74.929688 L 262 74.929688 L 262 0.0703125 Z M 0 0.0703125 " fill-rule="nonzero"/></g></g></g></g></g></g></g></g></g></g><g transform="matrix(1, 0, 0, 1, 0, 0.000000000000008313)"><g clip-path="url(#8edffdd9da)"><g clip-path="url(#15b9f1bc01)"><g transform="matrix(1, 0, 0, 1, 0, 0.000000000000008313)"><g clip-path="url(#e3dc337bc5)"><g clip-path="url(#0ad98933e8)"><g mask="url(#b12e136226)"><g transform="matrix(1, 0, 0, 1, 0, 0.000000000000008313)"><g clip-path="url(#5bb7495a65)"><g clip-path="url(#aecad94d01)"><path fill="url(#87335a3980)" d="M 262 74.929688 L 262 0.0703125 L 0 0.0703125 L 0 74.929688 Z M 262 74.929688 " fill-rule="nonzero"/></g></g></g></g></g></g></g></g></g></g></g><g clip-path="url(#98108d9ee2)"><g transform="matrix(1, 0, 0, 1, 14, 0.000000000000008313)"><g clip-path="url(#084e981850)"><g fill="#000000" fill-opacity="1"><g transform="translate(0.614628, 55.720874)"><g><path d="M 4.484375 0.5 C 3.023438 0.5 2.296875 0.0859375 2.296875 -0.734375 C 2.296875 -1.390625 2.695312 -1.71875 3.5 -1.71875 L 5.15625 -1.546875 C 6.507812 -1.546875 7.421875 -2.300781 7.890625 -3.8125 C 8.273438 -5.09375 8.46875 -7.382812 8.46875 -10.6875 L 8.46875 -34.5 C 8.46875 -37.800781 8.304688 -39.960938 7.984375 -40.984375 C 7.671875 -42.003906 7.296875 -42.703125 6.859375 -43.078125 C 6.421875 -43.453125 5.851562 -43.640625 5.15625 -43.640625 L 3.5 -43.5 C 2.695312 -43.5 2.296875 -43.828125 2.296875 -44.484375 C 2.296875 -45.316406 2.910156 -45.734375 4.140625 -45.734375 C 5.378906 -45.734375 6.554688 -45.640625 7.671875 -45.453125 C 8.785156 -45.273438 9.945312 -45.1875 11.15625 -45.1875 C 12.375 -45.1875 13.539062 -45.273438 14.65625 -45.453125 C 15.769531 -45.640625 17.195312 -45.734375 18.9375 -45.734375 C 20.675781 -45.734375 22.546875 -45.453125 24.546875 -44.890625 C 26.546875 -44.328125 28.234375 -43.523438 29.609375 -42.484375 C 32.460938 -40.347656 33.890625 -37.515625 33.890625 -33.984375 C 33.890625 -30.078125 32.28125 -26.707031 29.0625 -23.875 C 28.03125 -22.976562 26.882812 -22.210938 25.625 -21.578125 L 36.59375 -5.671875 C 37.820312 -3.847656 39.179688 -2.742188 40.671875 -2.359375 C 41.097656 -2.242188 41.632812 -2.15625 42.28125 -2.09375 C 43.425781 -1.976562 44 -1.597656 44 -0.953125 C 44 -0.316406 43.382812 0 42.15625 0 L 35.671875 0 C 34.117188 0 32.71875 -1.007812 31.46875 -3.03125 L 22.96875 -16.625 C 22.195312 -17.8125 21.460938 -18.65625 20.765625 -19.15625 C 20.078125 -19.664062 19.003906 -19.921875 17.546875 -19.921875 C 16.097656 -19.921875 14.835938 -19.890625 13.765625 -19.828125 L 13.765625 -10.6875 C 13.765625 -7.289062 13.914062 -5.101562 14.21875 -4.125 C 14.519531 -3.144531 14.890625 -2.46875 15.328125 -2.09375 C 15.765625 -1.726562 16.34375 -1.546875 17.0625 -1.546875 L 18.6875 -1.71875 C 19.488281 -1.71875 19.890625 -1.390625 19.890625 -0.734375 C 19.890625 0.0859375 19.171875 0.5 17.734375 0.5 C 16.992188 0.5 16.207031 0.429688 15.375 0.296875 C 12.675781 -0.128906 10.363281 -0.203125 8.4375 0.078125 C 6.519531 0.359375 5.203125 0.5 4.484375 0.5 Z M 13.765625 -22.796875 C 15.222656 -22.640625 16.625 -22.5625 17.96875 -22.5625 L 20.09375 -22.5625 C 22.28125 -22.5625 24.125 -23.300781 25.625 -24.78125 C 27.382812 -26.507812 28.265625 -28.875 28.265625 -31.875 C 28.265625 -35.46875 27.171875 -38.3125 24.984375 -40.40625 C 22.941406 -42.375 20.3125 -43.359375 17.09375 -43.359375 C 15.945312 -43.359375 15.101562 -43.203125 14.5625 -42.890625 C 14.03125 -42.578125 13.765625 -42.039062 13.765625 -41.28125 Z M 13.765625 -22.796875 "/></g></g></g><g fill="#000000" fill-opacity="1"><g transform="translate(44.513304, 55.720874)"><g><path d="M 33.453125 -4.515625 C 34.109375 -4.515625 34.4375 -4.21875 34.4375 -3.625 C 34.4375 -3.03125 33.78125 -2.460938 32.46875 -1.921875 C 31.164062 -1.378906 30.253906 -0.890625 29.734375 -0.453125 C 29.222656 -0.015625 28.84375 0.304688 28.59375 0.515625 C 28.34375 0.734375 28.050781 0.84375 27.71875 0.84375 C 27.039062 0.84375 26.476562 0.5625 26.03125 0 C 25.582031 -0.5625 24.976562 -1.765625 24.21875 -3.609375 C 22.9375 -2.148438 21.378906 -1.039062 19.546875 -0.28125 C 17.710938 0.46875 15.894531 0.84375 14.09375 0.84375 C 10.695312 0.84375 8.066406 -0.0195312 6.203125 -1.75 C 4.335938 -3.476562 3.40625 -5.847656 3.40625 -8.859375 C 3.40625 -11.878906 4.816406 -14.328125 7.640625 -16.203125 C 10.460938 -18.078125 14.066406 -19.015625 18.453125 -19.015625 C 19.753906 -19.015625 21.472656 -18.789062 23.609375 -18.34375 L 23.609375 -20.96875 C 23.609375 -26.75 21.164062 -29.640625 16.28125 -29.640625 C 13.695312 -29.640625 11.800781 -28.445312 10.59375 -26.0625 C 9.53125 -23.925781 8.492188 -22.859375 7.484375 -22.859375 C 6.742188 -22.859375 6.097656 -23.070312 5.546875 -23.5 C 4.992188 -23.925781 4.71875 -24.460938 4.71875 -25.109375 C 4.71875 -25.765625 5.054688 -26.492188 5.734375 -27.296875 C 6.410156 -28.097656 7.3125 -28.820312 8.4375 -29.46875 C 11.082031 -31.019531 13.992188 -31.796875 17.171875 -31.796875 C 22.785156 -31.796875 26.414062 -29.960938 28.0625 -26.296875 C 28.664062 -24.992188 28.96875 -23.398438 28.96875 -21.515625 L 28.96875 -8.0625 C 28.96875 -6.332031 29.132812 -5.21875 29.46875 -4.71875 C 29.8125 -4.226562 30.285156 -3.984375 30.890625 -3.984375 C 31.492188 -3.984375 31.988281 -4.070312 32.375 -4.25 C 32.757812 -4.425781 33.117188 -4.515625 33.453125 -4.515625 Z M 23.609375 -15.203125 C 21.984375 -16.128906 19.9375 -16.59375 17.46875 -16.59375 C 15 -16.59375 13.015625 -15.972656 11.515625 -14.734375 C 10.023438 -13.492188 9.28125 -11.832031 9.28125 -9.75 C 9.28125 -7.675781 9.851562 -5.945312 11 -4.5625 C 12.144531 -3.1875 13.613281 -2.5 15.40625 -2.5 C 19.25 -2.5 22.015625 -3.753906 23.703125 -6.265625 C 23.640625 -6.898438 23.609375 -7.597656 23.609375 -8.359375 Z M 23.609375 -15.203125 "/></g></g></g><g fill="#000000" fill-opacity="1"><g transform="translate(79.346728, 55.720874)"><g/></g></g><g fill="#000000" fill-opacity="1"><g transform="translate(97.047812, 55.720874)"><g/></g></g><g fill="#000000" fill-opacity="1"><g transform="translate(114.748896, 55.720874)"><g/></g></g><g fill="#000000" fill-opacity="1"><g transform="translate(132.459279, 55.720874)"><g><path d="M 2.5625 -14.96875 C 2.5625 -17.15625 2.953125 -19.269531 3.734375 -21.3125 C 4.523438 -23.351562 5.640625 -25.148438 7.078125 -26.703125 C 10.222656 -30.097656 14.144531 -31.796875 18.84375 -31.796875 C 24.0625 -31.796875 28.078125 -30.234375 30.890625 -27.109375 C 33.429688 -24.273438 34.703125 -20.597656 34.703125 -16.078125 C 34.703125 -11.515625 33.179688 -7.570312 30.140625 -4.25 C 27.046875 -0.851562 23.132812 0.84375 18.40625 0.84375 C 13.195312 0.84375 9.195312 -0.71875 6.40625 -3.84375 C 3.84375 -6.675781 2.5625 -10.382812 2.5625 -14.96875 Z M 8.265625 -16.390625 C 8.265625 -14.179688 8.566406 -12.117188 9.171875 -10.203125 C 9.773438 -8.296875 10.609375 -6.71875 11.671875 -5.46875 C 13.753906 -2.90625 16.394531 -1.625 19.59375 -1.625 C 22.425781 -1.625 24.726562 -2.742188 26.5 -4.984375 C 28.34375 -7.328125 29.265625 -10.34375 29.265625 -14.03125 C 29.265625 -18.90625 28.144531 -22.726562 25.90625 -25.5 C 23.789062 -28.03125 21.132812 -29.296875 17.9375 -29.296875 C 15.101562 -29.296875 12.800781 -28.175781 11.03125 -25.9375 C 9.1875 -23.59375 8.265625 -20.410156 8.265625 -16.390625 Z M 8.265625 -16.390625 "/></g></g></g><g fill="#000000" fill-opacity="1"><g transform="translate(169.513543, 55.720874)"><g><path d="M 3.953125 0.5 C 2.441406 0.5 1.6875 0.0859375 1.6875 -0.734375 C 1.6875 -1.390625 2.101562 -1.71875 2.9375 -1.71875 L 4.625 -1.546875 C 5.132812 -1.546875 5.554688 -1.640625 5.890625 -1.828125 C 6.234375 -2.023438 6.492188 -2.4375 6.671875 -3.0625 C 7.035156 -4.207031 7.21875 -6.75 7.21875 -10.6875 L 7.21875 -20.765625 C 7.21875 -23.066406 7.078125 -24.503906 6.796875 -25.078125 C 6.515625 -25.648438 6.175781 -26.039062 5.78125 -26.25 C 5.382812 -26.46875 4.742188 -26.644531 3.859375 -26.78125 C 2.972656 -26.914062 2.53125 -27.265625 2.53125 -27.828125 C 2.53125 -28.335938 3.101562 -28.707031 4.25 -28.9375 C 6.925781 -29.5 8.769531 -30.0625 9.78125 -30.625 C 11.15625 -31.40625 12.09375 -31.796875 12.59375 -31.796875 C 13.101562 -31.796875 13.359375 -31.539062 13.359375 -31.03125 C 13.359375 -30.78125 13.304688 -30.519531 13.203125 -30.25 C 13.097656 -29.976562 12.988281 -29.648438 12.875 -29.265625 C 12.695312 -28.503906 12.566406 -27.066406 12.484375 -24.953125 C 14.429688 -28.234375 16.789062 -30.28125 19.5625 -31.09375 C 20.363281 -31.34375 21.265625 -31.46875 22.265625 -31.46875 C 23.273438 -31.46875 24.164062 -31.101562 24.9375 -30.375 C 25.707031 -29.65625 26.09375 -28.890625 26.09375 -28.078125 C 26.09375 -27.273438 26.003906 -26.679688 25.828125 -26.296875 C 25.648438 -25.921875 25.425781 -25.597656 25.15625 -25.328125 C 24.570312 -24.742188 24.046875 -24.453125 23.578125 -24.453125 C 23.117188 -24.453125 22.765625 -24.566406 22.515625 -24.796875 C 22.273438 -25.035156 22 -25.46875 21.6875 -26.09375 C 21.125 -27.21875 20.492188 -27.78125 19.796875 -27.78125 C 19.097656 -27.78125 18.429688 -27.628906 17.796875 -27.328125 C 17.171875 -27.023438 16.546875 -26.570312 15.921875 -25.96875 C 14.546875 -24.6875 13.382812 -22.941406 12.4375 -20.734375 L 12.4375 -10.6875 C 12.4375 -6.414062 12.554688 -3.898438 12.796875 -3.140625 C 13.035156 -2.390625 13.328125 -1.941406 13.671875 -1.796875 C 14.023438 -1.648438 14.503906 -1.578125 15.109375 -1.578125 L 18.109375 -1.859375 C 18.554688 -1.859375 18.914062 -1.75 19.1875 -1.53125 C 19.457031 -1.320312 19.59375 -1.054688 19.59375 -0.734375 C 19.59375 0.0859375 18.769531 0.5 17.125 0.5 L 10.015625 0 C 8.867188 0 7.785156 0.0820312 6.765625 0.25 C 5.742188 0.414062 4.804688 0.5 3.953125 0.5 Z M 3.953125 0.5 "/></g></g></g><g fill="#000000" fill-opacity="1"><g transform="translate(196.250606, 55.720874)"><g><path d="M 26.734375 -3 C 24.335938 -0.4375 21.179688 0.84375 17.265625 0.84375 C 12.679688 0.84375 9.0625 -0.738281 6.40625 -3.90625 C 3.957031 -6.875 2.734375 -10.65625 2.734375 -15.25 C 2.734375 -19.832031 4.238281 -23.726562 7.25 -26.9375 C 10.28125 -30.175781 14.054688 -31.796875 18.578125 -31.796875 C 21.546875 -31.796875 24.03125 -31.234375 26.03125 -30.109375 L 26.03125 -37.234375 C 26.03125 -39.347656 25.859375 -40.722656 25.515625 -41.359375 C 25.179688 -42.003906 24.820312 -42.4375 24.4375 -42.65625 C 24.0625 -42.882812 23.453125 -43.066406 22.609375 -43.203125 C 21.765625 -43.335938 21.34375 -43.6875 21.34375 -44.25 C 21.34375 -44.757812 21.914062 -45.128906 23.0625 -45.359375 C 25.757812 -45.921875 27.613281 -46.492188 28.625 -47.078125 C 30 -47.835938 30.921875 -48.21875 31.390625 -48.21875 C 31.910156 -48.21875 32.171875 -47.960938 32.171875 -47.453125 C 32.171875 -47.203125 32.125 -46.941406 32.03125 -46.671875 C 31.5625 -45.453125 31.316406 -43.910156 31.296875 -42.046875 C 31.273438 -40.179688 31.265625 -38.664062 31.265625 -37.5 L 31.265625 -9.875 C 31.265625 -7.40625 31.410156 -5.8125 31.703125 -5.09375 C 31.992188 -4.375 32.285156 -3.90625 32.578125 -3.6875 C 32.867188 -3.476562 33.21875 -3.375 33.625 -3.375 L 35.640625 -3.8125 C 36.296875 -3.8125 36.625 -3.519531 36.625 -2.9375 C 36.625 -2.59375 36.484375 -2.304688 36.203125 -2.078125 C 35.921875 -1.859375 35.441406 -1.601562 34.765625 -1.3125 C 34.085938 -1.019531 33.523438 -0.71875 33.078125 -0.40625 C 32.628906 -0.09375 32.238281 0.195312 31.90625 0.46875 C 31.132812 1.125 30.535156 1.453125 30.109375 1.453125 C 28.648438 1.453125 27.523438 -0.03125 26.734375 -3 Z M 26.03125 -25.09375 C 23.988281 -27.875 21.15625 -29.265625 17.53125 -29.265625 C 14.8125 -29.265625 12.632812 -28.222656 11 -26.140625 C 9.238281 -23.929688 8.359375 -20.914062 8.359375 -17.09375 C 8.359375 -12.644531 9.492188 -9.082031 11.765625 -6.40625 C 13.878906 -3.882812 16.410156 -2.625 19.359375 -2.625 C 22.347656 -2.625 24.628906 -3.679688 26.203125 -5.796875 C 26.085938 -6.628906 26.03125 -7.597656 26.03125 -8.703125 Z M 26.03125 -25.09375 "/></g></g></g></g></g></g></g></g></g></svg>