<svg xmlns="http://www.w3.org/2000/svg" xmlns:xlink="http://www.w3.org/1999/xlink" width="300" zoomAndPan="magnify" viewBox="0 0 224.87999 74.999997" height="100" preserveAspectRatio="xMidYMid meet" version="1.0"><defs><g/><clipPath id="bfeb2ba74d"><path d="M 19 0.0195312 L 200 0.0195312 L 200 74.980469 L 19 74.980469 Z M 19 0.0195312 " clip-rule="nonzero"/></clipPath><clipPath id="3c1a92a839"><path d="M 40 0.0195312 L 88 0.0195312 L 88 54 L 40 54 Z M 40 0.0195312 " clip-rule="nonzero"/></clipPath><clipPath id="25c7789d1b"><path d="M 0.25 36 L 1 36 L 1 37 L 0.25 37 Z M 0.25 36 " clip-rule="nonzero"/></clipPath><clipPath id="f4ce4e6734"><rect x="0" width="48" y="0" height="54"/></clipPath><clipPath id="b21a65fc0d"><rect x="0" width="32" y="0" height="72"/></clipPath><clipPath id="bd6064d4e1"><path d="M 0.191406 0.0195312 L 180.8125 0.0195312 L 180.8125 54 L 0.191406 54 Z M 0.191406 0.0195312 " clip-rule="nonzero"/></clipPath><clipPath id="8023ee22aa"><path d="M 154 1 L 180.8125 1 L 180.8125 40 L 154 40 Z M 154 1 " clip-rule="nonzero"/></clipPath><clipPath id="4630c48ffe"><rect x="0" width="181" y="0" height="54"/></clipPath><clipPath id="9f0bc33a31"><path d="M 15 67 L 166 67 L 166 74.140625 L 15 74.140625 Z M 15 67 " clip-rule="nonzero"/></clipPath><clipPath id="8ac60abd68"><path d="M 0.542969 1 L 3 1 L 3 3 L 0.542969 3 Z M 0.542969 1 " clip-rule="nonzero"/></clipPath><clipPath id="76493b8112"><path d="M 149 1 L 150.941406 1 L 150.941406 3 L 149 3 Z M 149 1 " clip-rule="nonzero"/></clipPath><clipPath id="fe2f115622"><rect x="0" width="151" y="0" height="8"/></clipPath><clipPath id="654ca64957"><rect x="0" width="181" y="0" height="75"/></clipPath></defs><g clip-path="url(#bfeb2ba74d)"><g transform="matrix(1, 0, 0, 1, 19, -0.000000000000000847)"><g clip-path="url(#654ca64957)"><g clip-path="url(#3c1a92a839)"><g transform="matrix(1, 0, 0, 1, 40, -0.000000000000000847)"><g clip-path="url(#f4ce4e6734)"><g clip-path="url(#25c7789d1b)"><g fill="#000000" fill-opacity="1"><g transform="translate(0.253152, 36.039024)"><g/></g></g></g><g fill="#000000" fill-opacity="1"><g transform="translate(17.03559, 36.039024)"><g><path d="M 2.65625 -14.640625 C 2.65625 -16.898438 3.0625 -18.992188 3.875 -20.921875 C 4.695312 -22.847656 5.8125 -24.492188 7.21875 -25.859375 C 10.207031 -28.710938 13.972656 -30.140625 18.515625 -30.140625 C 21.191406 -30.054688 23.523438 -29.429688 25.515625 -28.265625 C 27.535156 -27.085938 28.585938 -25.644531 28.671875 -23.9375 C 28.671875 -23.019531 28.066406 -22.414062 26.859375 -22.125 C 26.535156 -22.0625 26.242188 -22.03125 25.984375 -22.03125 C 25.003906 -22.03125 24.207031 -22.703125 23.59375 -24.046875 C 22.375 -26.578125 20.316406 -27.84375 17.421875 -27.84375 C 14.867188 -27.84375 12.726562 -26.785156 11 -24.671875 C 9.164062 -22.441406 8.25 -19.492188 8.25 -15.828125 C 8.25 -11.753906 9.195312 -8.484375 11.09375 -6.015625 C 13.070312 -3.410156 15.78125 -2.109375 19.21875 -2.109375 C 21.5625 -2.109375 23.613281 -3.003906 25.375 -4.796875 C 26.144531 -5.566406 26.722656 -5.953125 27.109375 -5.953125 C 27.898438 -5.953125 28.296875 -5.554688 28.296875 -4.765625 C 28.296875 -3.992188 27.535156 -3.054688 26.015625 -1.953125 C 23.566406 -0.117188 20.550781 0.796875 16.96875 0.796875 C 12.6875 0.796875 9.203125 -0.660156 6.515625 -3.578125 C 3.941406 -6.410156 2.65625 -10.097656 2.65625 -14.640625 Z M 2.65625 -14.640625 "/></g></g></g></g></g></g><g transform="matrix(1, 0, 0, 1, 74, 2)"><g clip-path="url(#b21a65fc0d)"><g fill="#000000" fill-opacity="1"><g transform="translate(30.793498, 17.147755)"><g><path d="M -2.59375 14.28125 C -2.59375 16.488281 -2.988281 18.53125 -3.78125 20.40625 C -4.582031 22.289062 -5.671875 23.894531 -7.046875 25.21875 C -9.953125 28.007812 -13.617188 29.40625 -18.046875 29.40625 C -20.671875 29.320312 -22.945312 28.707031 -24.875 27.5625 C -26.851562 26.414062 -27.882812 25.015625 -27.96875 23.359375 C -27.96875 22.460938 -27.375 21.867188 -26.1875 21.578125 C -25.875 21.515625 -25.59375 21.484375 -25.34375 21.484375 C -24.394531 21.484375 -23.617188 22.140625 -23.015625 23.453125 C -21.828125 25.921875 -19.820312 27.15625 -17 27.15625 C -14.5 27.15625 -12.40625 26.128906 -10.71875 24.078125 C -8.9375 21.890625 -8.046875 19.007812 -8.046875 15.4375 C -8.046875 11.46875 -8.96875 8.273438 -10.8125 5.859375 C -12.75 3.328125 -15.390625 2.0625 -18.734375 2.0625 C -21.023438 2.0625 -23.035156 2.929688 -24.765625 4.671875 C -25.503906 5.421875 -26.0625 5.796875 -26.4375 5.796875 C -27.207031 5.796875 -27.59375 5.410156 -27.59375 4.640625 C -27.59375 3.898438 -26.851562 2.988281 -25.375 1.90625 C -22.988281 0.113281 -20.050781 -0.78125 -16.5625 -0.78125 C -12.382812 -0.78125 -8.984375 0.644531 -6.359375 3.5 C -3.847656 6.257812 -2.59375 9.851562 -2.59375 14.28125 Z M -2.59375 14.28125 "/></g></g></g></g></g><g clip-path="url(#bd6064d4e1)"><g transform="matrix(1, 0, 0, 1, 0.000000000000003553, -0.000000000000000847)"><g clip-path="url(#4630c48ffe)"><g fill="#000000" fill-opacity="1"><g transform="translate(0.62459, 38.787964)"><g><path d="M 3.46875 0.390625 C 2.34375 0.390625 1.78125 0.0664062 1.78125 -0.578125 C 1.78125 -1.078125 2.09375 -1.328125 2.71875 -1.328125 L 3.984375 -1.203125 C 5.035156 -1.203125 5.742188 -1.785156 6.109375 -2.953125 C 6.398438 -3.941406 6.546875 -5.710938 6.546875 -8.265625 L 6.546875 -26.6875 C 6.546875 -29.238281 6.421875 -30.910156 6.171875 -31.703125 C 5.929688 -32.492188 5.640625 -33.03125 5.296875 -33.3125 C 4.960938 -33.601562 4.523438 -33.75 3.984375 -33.75 L 2.71875 -33.65625 C 2.09375 -33.65625 1.78125 -33.90625 1.78125 -34.40625 C 1.78125 -35.050781 2.253906 -35.375 3.203125 -35.375 C 4.160156 -35.375 5.066406 -35.300781 5.921875 -35.15625 C 6.785156 -35.019531 7.691406 -34.953125 8.640625 -34.953125 C 9.578125 -34.953125 10.472656 -35.019531 11.328125 -35.15625 C 12.191406 -35.300781 13.296875 -35.375 14.640625 -35.375 C 15.992188 -35.375 17.441406 -35.15625 18.984375 -34.71875 C 20.535156 -34.28125 21.84375 -33.660156 22.90625 -32.859375 C 25.113281 -31.210938 26.21875 -29.023438 26.21875 -26.296875 C 26.21875 -23.265625 24.972656 -20.65625 22.484375 -18.46875 C 21.679688 -17.769531 20.796875 -17.175781 19.828125 -16.6875 L 28.296875 -4.375 C 29.253906 -2.96875 30.304688 -2.117188 31.453125 -1.828125 C 31.785156 -1.742188 32.203125 -1.675781 32.703125 -1.625 C 33.597656 -1.53125 34.046875 -1.234375 34.046875 -0.734375 C 34.046875 -0.242188 33.566406 0 32.609375 0 L 27.59375 0 C 26.394531 0 25.3125 -0.78125 24.34375 -2.34375 L 17.765625 -12.859375 C 17.171875 -13.785156 16.601562 -14.441406 16.0625 -14.828125 C 15.53125 -15.222656 14.703125 -15.421875 13.578125 -15.421875 C 12.453125 -15.421875 11.472656 -15.394531 10.640625 -15.34375 L 10.640625 -8.265625 C 10.640625 -5.640625 10.753906 -3.945312 10.984375 -3.1875 C 11.222656 -2.4375 11.507812 -1.914062 11.84375 -1.625 C 12.1875 -1.34375 12.640625 -1.203125 13.203125 -1.203125 L 14.453125 -1.328125 C 15.078125 -1.328125 15.390625 -1.078125 15.390625 -0.578125 C 15.390625 0.0664062 14.832031 0.390625 13.71875 0.390625 C 13.144531 0.390625 12.535156 0.335938 11.890625 0.234375 C 9.804688 -0.0976562 8.019531 -0.15625 6.53125 0.0625 C 5.039062 0.28125 4.019531 0.390625 3.46875 0.390625 Z M 10.640625 -17.640625 C 11.773438 -17.515625 12.863281 -17.453125 13.90625 -17.453125 L 15.546875 -17.453125 C 17.234375 -17.453125 18.660156 -18.023438 19.828125 -19.171875 C 21.179688 -20.515625 21.859375 -22.34375 21.859375 -24.65625 C 21.859375 -27.4375 21.015625 -29.632812 19.328125 -31.25 C 17.742188 -32.78125 15.707031 -33.546875 13.21875 -33.546875 C 12.332031 -33.546875 11.679688 -33.421875 11.265625 -33.171875 C 10.847656 -32.929688 10.640625 -32.515625 10.640625 -31.921875 Z M 10.640625 -17.640625 "/></g></g></g><g fill="#000000" fill-opacity="1"><g transform="translate(34.587684, 38.787964)"><g><path d="M 25.875 -3.5 C 26.375 -3.5 26.625 -3.265625 26.625 -2.796875 C 26.625 -2.335938 26.117188 -1.898438 25.109375 -1.484375 C 24.109375 -1.066406 23.40625 -0.6875 23 -0.34375 C 22.601562 -0.0078125 22.304688 0.238281 22.109375 0.40625 C 21.921875 0.570312 21.695312 0.65625 21.4375 0.65625 C 20.914062 0.65625 20.476562 0.4375 20.125 0 C 19.78125 -0.4375 19.316406 -1.367188 18.734375 -2.796875 C 17.734375 -1.660156 16.523438 -0.800781 15.109375 -0.21875 C 13.691406 0.363281 12.289062 0.65625 10.90625 0.65625 C 8.28125 0.65625 6.242188 -0.0078125 4.796875 -1.34375 C 3.359375 -2.6875 2.640625 -4.523438 2.640625 -6.859375 C 2.640625 -9.191406 3.726562 -11.082031 5.90625 -12.53125 C 8.09375 -13.988281 10.878906 -14.71875 14.265625 -14.71875 C 15.273438 -14.71875 16.609375 -14.539062 18.265625 -14.1875 L 18.265625 -16.21875 C 18.265625 -20.6875 16.375 -22.921875 12.59375 -22.921875 C 10.59375 -22.921875 9.125 -22 8.1875 -20.15625 C 7.375 -18.507812 6.578125 -17.6875 5.796875 -17.6875 C 5.222656 -17.6875 4.722656 -17.847656 4.296875 -18.171875 C 3.867188 -18.503906 3.65625 -18.921875 3.65625 -19.421875 C 3.65625 -19.929688 3.914062 -20.492188 4.4375 -21.109375 C 4.957031 -21.734375 5.648438 -22.296875 6.515625 -22.796875 C 8.566406 -23.992188 10.820312 -24.59375 13.28125 -24.59375 C 17.625 -24.59375 20.429688 -23.175781 21.703125 -20.34375 C 22.171875 -19.332031 22.40625 -18.097656 22.40625 -16.640625 L 22.40625 -6.234375 C 22.40625 -4.890625 22.535156 -4.023438 22.796875 -3.640625 C 23.054688 -3.265625 23.421875 -3.078125 23.890625 -3.078125 C 24.359375 -3.078125 24.738281 -3.144531 25.03125 -3.28125 C 25.332031 -3.425781 25.613281 -3.5 25.875 -3.5 Z M 18.265625 -11.765625 C 17.003906 -12.472656 15.414062 -12.828125 13.5 -12.828125 C 11.59375 -12.828125 10.0625 -12.347656 8.90625 -11.390625 C 7.75 -10.441406 7.171875 -9.160156 7.171875 -7.546875 C 7.171875 -5.941406 7.613281 -4.601562 8.5 -3.53125 C 9.382812 -2.46875 10.523438 -1.9375 11.921875 -1.9375 C 14.890625 -1.9375 17.03125 -2.910156 18.34375 -4.859375 C 18.289062 -5.335938 18.265625 -5.875 18.265625 -6.46875 Z M 18.265625 -11.765625 "/></g></g></g><g fill="#000000" fill-opacity="1"><g transform="translate(61.537263, 38.787964)"><g/></g></g><g fill="#000000" fill-opacity="1"><g transform="translate(75.232062, 38.787964)"><g/></g></g><g fill="#000000" fill-opacity="1"><g transform="translate(88.926862, 38.787964)"><g/></g></g><g fill="#000000" fill-opacity="1"><g transform="translate(102.628856, 38.787964)"><g><path d="M 1.984375 -11.578125 C 1.984375 -13.265625 2.285156 -14.898438 2.890625 -16.484375 C 3.503906 -18.066406 4.367188 -19.457031 5.484375 -20.65625 C 7.910156 -23.28125 10.941406 -24.59375 14.578125 -24.59375 C 18.617188 -24.59375 21.722656 -23.382812 23.890625 -20.96875 C 25.859375 -18.78125 26.84375 -15.9375 26.84375 -12.4375 C 26.84375 -8.90625 25.664062 -5.851562 23.3125 -3.28125 C 20.914062 -0.65625 17.894531 0.65625 14.25 0.65625 C 10.207031 0.65625 7.109375 -0.550781 4.953125 -2.96875 C 2.972656 -5.164062 1.984375 -8.035156 1.984375 -11.578125 Z M 6.390625 -12.671875 C 6.390625 -10.972656 6.625 -9.382812 7.09375 -7.90625 C 7.5625 -6.425781 8.207031 -5.195312 9.03125 -4.21875 C 10.644531 -2.238281 12.6875 -1.25 15.15625 -1.25 C 17.34375 -1.25 19.125 -2.117188 20.5 -3.859375 C 21.925781 -5.671875 22.640625 -8 22.640625 -10.84375 C 22.640625 -14.625 21.769531 -17.582031 20.03125 -19.71875 C 18.394531 -21.6875 16.34375 -22.671875 13.875 -22.671875 C 11.6875 -22.671875 9.90625 -21.800781 8.53125 -20.0625 C 7.101562 -18.25 6.390625 -15.785156 6.390625 -12.671875 Z M 6.390625 -12.671875 "/></g></g></g><g fill="#000000" fill-opacity="1"><g transform="translate(131.296633, 38.787964)"><g><path d="M 3.046875 0.390625 C 1.878906 0.390625 1.296875 0.0664062 1.296875 -0.578125 C 1.296875 -1.078125 1.617188 -1.328125 2.265625 -1.328125 L 3.578125 -1.203125 C 3.972656 -1.203125 4.300781 -1.273438 4.5625 -1.421875 C 4.820312 -1.566406 5.023438 -1.882812 5.171875 -2.375 C 5.441406 -3.257812 5.578125 -5.222656 5.578125 -8.265625 L 5.578125 -16.0625 C 5.578125 -17.84375 5.46875 -18.953125 5.25 -19.390625 C 5.039062 -19.835938 4.78125 -20.144531 4.46875 -20.3125 C 4.164062 -20.476562 3.671875 -20.613281 2.984375 -20.71875 C 2.296875 -20.820312 1.953125 -21.085938 1.953125 -21.515625 C 1.953125 -21.921875 2.394531 -22.207031 3.28125 -22.375 C 5.351562 -22.8125 6.78125 -23.25 7.5625 -23.6875 C 8.625 -24.289062 9.347656 -24.59375 9.734375 -24.59375 C 10.128906 -24.59375 10.328125 -24.394531 10.328125 -24 C 10.328125 -23.8125 10.285156 -23.609375 10.203125 -23.390625 C 10.128906 -23.179688 10.050781 -22.929688 9.96875 -22.640625 C 9.820312 -22.046875 9.71875 -20.929688 9.65625 -19.296875 C 11.164062 -21.835938 12.988281 -23.421875 15.125 -24.046875 C 15.75 -24.242188 16.445312 -24.34375 17.21875 -24.34375 C 18 -24.34375 18.6875 -24.0625 19.28125 -23.5 C 19.882812 -22.945312 20.1875 -22.359375 20.1875 -21.734375 C 20.1875 -21.109375 20.113281 -20.644531 19.96875 -20.34375 C 19.832031 -20.050781 19.660156 -19.800781 19.453125 -19.59375 C 19.003906 -19.132812 18.601562 -18.90625 18.25 -18.90625 C 17.894531 -18.90625 17.617188 -18.992188 17.421875 -19.171875 C 17.234375 -19.359375 17.015625 -19.695312 16.765625 -20.1875 C 16.335938 -21.0625 15.851562 -21.5 15.3125 -21.5 C 14.769531 -21.5 14.253906 -21.378906 13.765625 -21.140625 C 13.285156 -20.910156 12.800781 -20.554688 12.3125 -20.078125 C 11.25 -19.085938 10.351562 -17.742188 9.625 -16.046875 L 9.625 -8.265625 C 9.625 -4.960938 9.710938 -3.019531 9.890625 -2.4375 C 10.078125 -1.851562 10.304688 -1.503906 10.578125 -1.390625 C 10.847656 -1.273438 11.21875 -1.21875 11.6875 -1.21875 L 14 -1.4375 C 14.351562 -1.4375 14.632812 -1.351562 14.84375 -1.1875 C 15.050781 -1.019531 15.15625 -0.816406 15.15625 -0.578125 C 15.15625 0.0664062 14.519531 0.390625 13.25 0.390625 L 7.75 0 C 6.863281 0 6.023438 0.0625 5.234375 0.1875 C 4.441406 0.320312 3.710938 0.390625 3.046875 0.390625 Z M 3.046875 0.390625 "/></g></g></g><g clip-path="url(#8023ee22aa)"><g fill="#000000" fill-opacity="1"><g transform="translate(151.9823, 38.787964)"><g><path d="M 20.6875 -2.328125 C 18.820312 -0.335938 16.378906 0.65625 13.359375 0.65625 C 9.804688 0.65625 7.003906 -0.570312 4.953125 -3.03125 C 3.054688 -5.320312 2.109375 -8.242188 2.109375 -11.796875 C 2.109375 -15.335938 3.273438 -18.351562 5.609375 -20.84375 C 7.953125 -23.34375 10.875 -24.59375 14.375 -24.59375 C 16.664062 -24.59375 18.585938 -24.160156 20.140625 -23.296875 L 20.140625 -28.796875 C 20.140625 -30.429688 20.007812 -31.492188 19.75 -31.984375 C 19.488281 -32.484375 19.207031 -32.820312 18.90625 -33 C 18.613281 -33.175781 18.140625 -33.316406 17.484375 -33.421875 C 16.835938 -33.523438 16.515625 -33.789062 16.515625 -34.21875 C 16.515625 -34.625 16.957031 -34.910156 17.84375 -35.078125 C 19.925781 -35.515625 21.359375 -35.960938 22.140625 -36.421875 C 23.203125 -37.003906 23.914062 -37.296875 24.28125 -37.296875 C 24.6875 -37.296875 24.890625 -37.097656 24.890625 -36.703125 C 24.890625 -36.515625 24.851562 -36.3125 24.78125 -36.09375 C 24.414062 -35.15625 24.222656 -33.960938 24.203125 -32.515625 C 24.191406 -31.078125 24.1875 -29.90625 24.1875 -29 L 24.1875 -7.640625 C 24.1875 -5.734375 24.296875 -4.5 24.515625 -3.9375 C 24.742188 -3.382812 24.96875 -3.023438 25.1875 -2.859375 C 25.414062 -2.691406 25.6875 -2.609375 26 -2.609375 L 27.578125 -2.953125 C 28.078125 -2.953125 28.328125 -2.722656 28.328125 -2.265625 C 28.328125 -2.003906 28.21875 -1.785156 28 -1.609375 C 27.78125 -1.441406 27.410156 -1.242188 26.890625 -1.015625 C 26.367188 -0.785156 25.929688 -0.550781 25.578125 -0.3125 C 25.234375 -0.0703125 24.929688 0.148438 24.671875 0.359375 C 24.085938 0.867188 23.628906 1.125 23.296875 1.125 C 22.160156 1.125 21.289062 -0.0234375 20.6875 -2.328125 Z M 20.140625 -19.40625 C 18.554688 -21.5625 16.363281 -22.640625 13.5625 -22.640625 C 11.457031 -22.640625 9.769531 -21.832031 8.5 -20.21875 C 7.144531 -18.507812 6.46875 -16.175781 6.46875 -13.21875 C 6.46875 -9.78125 7.347656 -7.023438 9.109375 -4.953125 C 10.742188 -3.003906 12.695312 -2.03125 14.96875 -2.03125 C 17.28125 -2.03125 19.046875 -2.847656 20.265625 -4.484375 C 20.179688 -5.128906 20.140625 -5.878906 20.140625 -6.734375 Z M 20.140625 -19.40625 "/></g></g></g></g></g></g></g><g clip-path="url(#9f0bc33a31)"><g transform="matrix(1, 0, 0, 1, 15, 67)"><g clip-path="url(#fe2f115622)"><g clip-path="url(#8ac60abd68)"><g fill="#000000" fill-opacity="1"><g transform="translate(0.635306, 5.587149)"><g><path d="M 0.671875 -2.8125 L 0.21875 -2.8125 L 0.109375 -4.203125 L 0.71875 -4.203125 Z M 1.5625 -2.8125 L 1.109375 -2.8125 L 1.078125 -4.203125 L 1.6875 -4.203125 Z M 1.5625 -2.8125 "/></g></g></g></g><g fill="#000000" fill-opacity="1"><g transform="translate(2.368289, 5.587149)"><g><path d="M 0 0 Z M 0 0 "/></g></g></g><g fill="#000000" fill-opacity="1"><g transform="translate(2.368289, 5.587149)"><g><path d="M 0.296875 -4.03125 L 1.609375 -4.03125 L 1.609375 -3.578125 L 1.203125 -3.578125 L 1.203125 -1.703125 C 1.203125 -1.472656 1.222656 -1.273438 1.265625 -1.109375 C 1.316406 -0.953125 1.382812 -0.820312 1.46875 -0.71875 C 1.5625 -0.625 1.671875 -0.550781 1.796875 -0.5 C 1.921875 -0.457031 2.054688 -0.4375 2.203125 -0.4375 C 2.359375 -0.4375 2.5 -0.457031 2.625 -0.5 C 2.75 -0.539062 2.859375 -0.609375 2.953125 -0.703125 C 3.046875 -0.804688 3.117188 -0.9375 3.171875 -1.09375 C 3.222656 -1.257812 3.25 -1.460938 3.25 -1.703125 L 3.25 -3.578125 L 2.8125 -3.578125 L 2.8125 -4.03125 L 4.109375 -4.03125 L 4.109375 -3.578125 L 3.75 -3.578125 L 3.75 -1.75 C 3.75 -1.457031 3.707031 -1.195312 3.625 -0.96875 C 3.550781 -0.75 3.441406 -0.5625 3.296875 -0.40625 C 3.160156 -0.257812 3 -0.144531 2.8125 -0.0625 C 2.625 0.0078125 2.421875 0.046875 2.203125 0.046875 C 1.984375 0.046875 1.78125 0.0078125 1.59375 -0.0625 C 1.414062 -0.144531 1.253906 -0.257812 1.109375 -0.40625 C 0.972656 -0.5625 0.863281 -0.742188 0.78125 -0.953125 C 0.707031 -1.171875 0.671875 -1.421875 0.671875 -1.703125 L 0.671875 -3.578125 L 0.296875 -3.578125 Z M 0.296875 -4.03125 "/></g></g></g><g fill="#000000" fill-opacity="1"><g transform="translate(6.494432, 5.587149)"><g><path d="M 2.078125 -0.453125 L 2.46875 -0.453125 L 2.46875 -1.71875 C 2.46875 -1.925781 2.414062 -2.082031 2.3125 -2.1875 C 2.207031 -2.300781 2.050781 -2.359375 1.84375 -2.359375 C 1.726562 -2.359375 1.613281 -2.332031 1.5 -2.28125 C 1.382812 -2.226562 1.273438 -2.160156 1.171875 -2.078125 L 1.171875 -0.453125 L 1.5625 -0.453125 L 1.5625 0 L 0.265625 0 L 0.265625 -0.453125 L 0.65625 -0.453125 L 0.65625 -2.296875 L 0.265625 -2.296875 L 0.265625 -2.765625 L 1.140625 -2.765625 L 1.140625 -2.4375 L 1.15625 -2.4375 C 1.207031 -2.488281 1.265625 -2.535156 1.328125 -2.578125 C 1.398438 -2.628906 1.472656 -2.671875 1.546875 -2.703125 C 1.617188 -2.734375 1.691406 -2.757812 1.765625 -2.78125 C 1.847656 -2.800781 1.9375 -2.8125 2.03125 -2.8125 C 2.175781 -2.8125 2.304688 -2.789062 2.421875 -2.75 C 2.535156 -2.707031 2.632812 -2.644531 2.71875 -2.5625 C 2.8125 -2.476562 2.878906 -2.367188 2.921875 -2.234375 C 2.960938 -2.109375 2.984375 -1.957031 2.984375 -1.78125 L 2.984375 -0.453125 L 3.375 -0.453125 L 3.375 0 L 2.078125 0 Z M 2.078125 -0.453125 "/></g></g></g><g fill="#000000" fill-opacity="1"><g transform="translate(10.130763, 5.587149)"><g><path d="M 0.25 -2.765625 L 1.140625 -2.765625 L 1.140625 -0.453125 L 1.5625 -0.453125 L 1.5625 0 L 0.25 0 L 0.25 -0.453125 L 0.640625 -0.453125 L 0.640625 -2.296875 L 0.25 -2.296875 Z M 0.546875 -3.734375 C 0.546875 -3.785156 0.554688 -3.832031 0.578125 -3.875 C 0.597656 -3.914062 0.625 -3.945312 0.65625 -3.96875 C 0.6875 -4 0.722656 -4.023438 0.765625 -4.046875 C 0.804688 -4.066406 0.851562 -4.078125 0.90625 -4.078125 C 0.945312 -4.078125 0.988281 -4.066406 1.03125 -4.046875 C 1.070312 -4.023438 1.109375 -4 1.140625 -3.96875 C 1.171875 -3.945312 1.195312 -3.914062 1.21875 -3.875 C 1.238281 -3.832031 1.25 -3.785156 1.25 -3.734375 C 1.25 -3.679688 1.238281 -3.632812 1.21875 -3.59375 C 1.195312 -3.550781 1.171875 -3.515625 1.140625 -3.484375 C 1.109375 -3.453125 1.070312 -3.425781 1.03125 -3.40625 C 0.988281 -3.382812 0.945312 -3.375 0.90625 -3.375 C 0.851562 -3.375 0.804688 -3.382812 0.765625 -3.40625 C 0.722656 -3.425781 0.6875 -3.453125 0.65625 -3.484375 C 0.625 -3.515625 0.597656 -3.550781 0.578125 -3.59375 C 0.554688 -3.632812 0.546875 -3.679688 0.546875 -3.734375 Z M 0.546875 -3.734375 "/></g></g></g><g fill="#000000" fill-opacity="1"><g transform="translate(11.879718, 5.587149)"><g><path d="M 0.734375 -1.3125 C 0.734375 -1.238281 0.738281 -1.164062 0.75 -1.09375 C 0.757812 -1.03125 0.773438 -0.972656 0.796875 -0.921875 C 0.867188 -0.742188 0.972656 -0.609375 1.109375 -0.515625 C 1.253906 -0.421875 1.421875 -0.375 1.609375 -0.375 C 1.753906 -0.375 1.894531 -0.394531 2.03125 -0.4375 C 2.164062 -0.476562 2.304688 -0.539062 2.453125 -0.625 L 2.65625 -0.296875 C 2.476562 -0.171875 2.296875 -0.078125 2.109375 -0.015625 C 1.921875 0.046875 1.726562 0.078125 1.53125 0.078125 C 1.351562 0.078125 1.179688 0.046875 1.015625 -0.015625 C 0.859375 -0.078125 0.722656 -0.171875 0.609375 -0.296875 C 0.492188 -0.421875 0.40625 -0.570312 0.34375 -0.75 C 0.28125 -0.9375 0.25 -1.148438 0.25 -1.390625 C 0.25 -1.585938 0.273438 -1.769531 0.328125 -1.9375 C 0.378906 -2.113281 0.457031 -2.265625 0.5625 -2.390625 C 0.675781 -2.523438 0.8125 -2.628906 0.96875 -2.703125 C 1.132812 -2.785156 1.328125 -2.828125 1.546875 -2.828125 C 1.753906 -2.828125 1.925781 -2.796875 2.0625 -2.734375 C 2.207031 -2.671875 2.320312 -2.585938 2.40625 -2.484375 C 2.488281 -2.378906 2.550781 -2.257812 2.59375 -2.125 C 2.644531 -2 2.679688 -1.863281 2.703125 -1.71875 C 2.710938 -1.65625 2.71875 -1.585938 2.71875 -1.515625 C 2.71875 -1.441406 2.71875 -1.375 2.71875 -1.3125 Z M 1.515625 -2.421875 C 1.398438 -2.421875 1.296875 -2.398438 1.203125 -2.359375 C 1.117188 -2.328125 1.046875 -2.28125 0.984375 -2.21875 C 0.921875 -2.15625 0.867188 -2.078125 0.828125 -1.984375 C 0.796875 -1.898438 0.773438 -1.804688 0.765625 -1.703125 L 2.1875 -1.703125 C 2.1875 -1.804688 2.171875 -1.898438 2.140625 -1.984375 C 2.117188 -2.066406 2.078125 -2.140625 2.015625 -2.203125 C 1.960938 -2.273438 1.894531 -2.328125 1.8125 -2.359375 C 1.726562 -2.398438 1.628906 -2.421875 1.515625 -2.421875 Z M 1.515625 -2.421875 "/></g></g></g><g fill="#000000" fill-opacity="1"><g transform="translate(15.007604, 5.587149)"><g><path d="M 2.078125 -0.453125 L 2.46875 -0.453125 L 2.46875 -1.71875 C 2.46875 -1.925781 2.414062 -2.082031 2.3125 -2.1875 C 2.207031 -2.300781 2.050781 -2.359375 1.84375 -2.359375 C 1.726562 -2.359375 1.613281 -2.332031 1.5 -2.28125 C 1.382812 -2.226562 1.273438 -2.160156 1.171875 -2.078125 L 1.171875 -0.453125 L 1.5625 -0.453125 L 1.5625 0 L 0.265625 0 L 0.265625 -0.453125 L 0.65625 -0.453125 L 0.65625 -2.296875 L 0.265625 -2.296875 L 0.265625 -2.765625 L 1.140625 -2.765625 L 1.140625 -2.4375 L 1.15625 -2.4375 C 1.207031 -2.488281 1.265625 -2.535156 1.328125 -2.578125 C 1.398438 -2.628906 1.472656 -2.671875 1.546875 -2.703125 C 1.617188 -2.734375 1.691406 -2.757812 1.765625 -2.78125 C 1.847656 -2.800781 1.9375 -2.8125 2.03125 -2.8125 C 2.175781 -2.8125 2.304688 -2.789062 2.421875 -2.75 C 2.535156 -2.707031 2.632812 -2.644531 2.71875 -2.5625 C 2.8125 -2.476562 2.878906 -2.367188 2.921875 -2.234375 C 2.960938 -2.109375 2.984375 -1.957031 2.984375 -1.78125 L 2.984375 -0.453125 L 3.375 -0.453125 L 3.375 0 L 2.078125 0 Z M 2.078125 -0.453125 "/></g></g></g><g fill="#000000" fill-opacity="1"><g transform="translate(18.643934, 5.587149)"><g><path d="M 1.890625 -4.140625 L 2.765625 -4.140625 L 2.765625 -0.453125 L 3.171875 -0.453125 L 3.171875 0 L 2.265625 0 L 2.265625 -0.21875 C 2.179688 -0.132812 2.078125 -0.0664062 1.953125 -0.015625 C 1.835938 0.0351562 1.707031 0.0625 1.5625 0.0625 C 1.375 0.0625 1.195312 0.03125 1.03125 -0.03125 C 0.875 -0.101562 0.734375 -0.203125 0.609375 -0.328125 C 0.492188 -0.453125 0.40625 -0.601562 0.34375 -0.78125 C 0.28125 -0.957031 0.25 -1.164062 0.25 -1.40625 C 0.25 -1.613281 0.28125 -1.804688 0.34375 -1.984375 C 0.40625 -2.160156 0.492188 -2.3125 0.609375 -2.4375 C 0.722656 -2.5625 0.863281 -2.65625 1.03125 -2.71875 C 1.195312 -2.789062 1.382812 -2.828125 1.59375 -2.828125 C 1.71875 -2.828125 1.832031 -2.8125 1.9375 -2.78125 C 2.050781 -2.75 2.160156 -2.695312 2.265625 -2.625 L 2.265625 -3.6875 L 1.890625 -3.6875 Z M 1.625 -0.375 C 1.769531 -0.375 1.890625 -0.394531 1.984375 -0.4375 C 2.085938 -0.476562 2.179688 -0.539062 2.265625 -0.625 L 2.265625 -2.171875 C 2.179688 -2.242188 2.082031 -2.296875 1.96875 -2.328125 C 1.851562 -2.367188 1.734375 -2.390625 1.609375 -2.390625 C 1.492188 -2.390625 1.382812 -2.367188 1.28125 -2.328125 C 1.175781 -2.285156 1.082031 -2.21875 1 -2.125 C 0.925781 -2.039062 0.867188 -1.9375 0.828125 -1.8125 C 0.785156 -1.695312 0.765625 -1.5625 0.765625 -1.40625 C 0.765625 -1.238281 0.785156 -1.085938 0.828125 -0.953125 C 0.867188 -0.828125 0.925781 -0.71875 1 -0.625 C 1.070312 -0.539062 1.160156 -0.476562 1.265625 -0.4375 C 1.378906 -0.394531 1.5 -0.375 1.625 -0.375 Z M 1.625 -0.375 "/></g></g></g><g fill="#000000" fill-opacity="1"><g transform="translate(22.019386, 5.587149)"><g><path d="M 0.234375 -1.375 C 0.234375 -1.59375 0.265625 -1.789062 0.328125 -1.96875 C 0.398438 -2.15625 0.492188 -2.3125 0.609375 -2.4375 C 0.734375 -2.5625 0.878906 -2.660156 1.046875 -2.734375 C 1.222656 -2.804688 1.410156 -2.84375 1.609375 -2.84375 C 1.816406 -2.84375 2.003906 -2.804688 2.171875 -2.734375 C 2.335938 -2.660156 2.484375 -2.5625 2.609375 -2.4375 C 2.734375 -2.3125 2.828125 -2.160156 2.890625 -1.984375 C 2.960938 -1.804688 3 -1.609375 3 -1.390625 C 3 -1.171875 2.960938 -0.96875 2.890625 -0.78125 C 2.828125 -0.601562 2.734375 -0.453125 2.609375 -0.328125 C 2.484375 -0.203125 2.335938 -0.101562 2.171875 -0.03125 C 2.003906 0.0390625 1.816406 0.078125 1.609375 0.078125 C 1.398438 0.078125 1.210938 0.046875 1.046875 -0.015625 C 0.878906 -0.0859375 0.734375 -0.1875 0.609375 -0.3125 C 0.492188 -0.445312 0.398438 -0.601562 0.328125 -0.78125 C 0.265625 -0.957031 0.234375 -1.15625 0.234375 -1.375 Z M 0.75 -1.375 C 0.75 -1.21875 0.769531 -1.078125 0.8125 -0.953125 C 0.863281 -0.828125 0.925781 -0.71875 1 -0.625 C 1.082031 -0.53125 1.175781 -0.457031 1.28125 -0.40625 C 1.382812 -0.363281 1.492188 -0.34375 1.609375 -0.34375 C 1.734375 -0.34375 1.847656 -0.363281 1.953125 -0.40625 C 2.054688 -0.457031 2.144531 -0.523438 2.21875 -0.609375 C 2.300781 -0.703125 2.363281 -0.8125 2.40625 -0.9375 C 2.457031 -1.070312 2.484375 -1.21875 2.484375 -1.375 C 2.484375 -1.539062 2.457031 -1.6875 2.40625 -1.8125 C 2.363281 -1.945312 2.300781 -2.054688 2.21875 -2.140625 C 2.144531 -2.234375 2.054688 -2.300781 1.953125 -2.34375 C 1.847656 -2.382812 1.734375 -2.40625 1.609375 -2.40625 C 1.492188 -2.40625 1.382812 -2.382812 1.28125 -2.34375 C 1.175781 -2.300781 1.082031 -2.234375 1 -2.140625 C 0.925781 -2.054688 0.863281 -1.945312 0.8125 -1.8125 C 0.769531 -1.6875 0.75 -1.539062 0.75 -1.375 Z M 0.75 -1.375 "/></g></g></g><g fill="#000000" fill-opacity="1"><g transform="translate(25.280373, 5.587149)"><g><path d="M 0 0 Z M 0 0 "/></g></g></g><g fill="#000000" fill-opacity="1"><g transform="translate(26.472961, 5.587149)"><g><path d="M 0.375 -4.03125 L 2.015625 -4.03125 C 2.191406 -4.03125 2.351562 -4.003906 2.5 -3.953125 C 2.65625 -3.910156 2.789062 -3.84375 2.90625 -3.75 C 3.019531 -3.664062 3.101562 -3.554688 3.15625 -3.421875 C 3.21875 -3.285156 3.25 -3.125 3.25 -2.9375 C 3.25 -2.789062 3.21875 -2.648438 3.15625 -2.515625 C 3.101562 -2.390625 3.019531 -2.28125 2.90625 -2.1875 C 2.800781 -2.09375 2.671875 -2.015625 2.515625 -1.953125 C 2.359375 -1.898438 2.1875 -1.875 2 -1.875 L 1.28125 -1.875 L 1.28125 -0.453125 L 1.6875 -0.453125 L 1.6875 0 L 0.375 0 L 0.375 -0.453125 L 0.765625 -0.453125 L 0.765625 -3.578125 L 0.375 -3.578125 Z M 1.28125 -3.578125 L 1.28125 -2.3125 L 2.015625 -2.3125 C 2.117188 -2.3125 2.210938 -2.320312 2.296875 -2.34375 C 2.378906 -2.375 2.445312 -2.414062 2.5 -2.46875 C 2.5625 -2.519531 2.609375 -2.582031 2.640625 -2.65625 C 2.679688 -2.738281 2.703125 -2.832031 2.703125 -2.9375 C 2.703125 -3.144531 2.640625 -3.300781 2.515625 -3.40625 C 2.398438 -3.519531 2.210938 -3.578125 1.953125 -3.578125 Z M 1.28125 -3.578125 "/></g></g></g><g fill="#000000" fill-opacity="1"><g transform="translate(29.859061, 5.587149)"><g><path d="M 2.25 -2.171875 L 1.75 -2.171875 L 1.75 -2.34375 C 1.6875 -2.34375 1.625 -2.332031 1.5625 -2.3125 C 1.5 -2.289062 1.441406 -2.253906 1.390625 -2.203125 C 1.335938 -2.160156 1.289062 -2.101562 1.25 -2.03125 C 1.207031 -1.96875 1.179688 -1.890625 1.171875 -1.796875 L 1.171875 -0.453125 L 1.640625 -0.453125 L 1.640625 0 L 0.265625 0 L 0.265625 -0.453125 L 0.640625 -0.453125 L 0.65625 -2.296875 L 0.265625 -2.296875 L 0.265625 -2.765625 L 1.140625 -2.765625 L 1.140625 -2.375 C 1.179688 -2.4375 1.21875 -2.488281 1.25 -2.53125 C 1.289062 -2.582031 1.335938 -2.625 1.390625 -2.65625 C 1.441406 -2.695312 1.492188 -2.726562 1.546875 -2.75 C 1.609375 -2.769531 1.675781 -2.78125 1.75 -2.78125 C 1.832031 -2.78125 1.914062 -2.78125 2 -2.78125 C 2.082031 -2.78125 2.164062 -2.78125 2.25 -2.78125 Z M 2.25 -2.171875 "/></g></g></g><g fill="#000000" fill-opacity="1"><g transform="translate(32.414608, 5.587149)"><g><path d="M 0.234375 -1.375 C 0.234375 -1.59375 0.265625 -1.789062 0.328125 -1.96875 C 0.398438 -2.15625 0.492188 -2.3125 0.609375 -2.4375 C 0.734375 -2.5625 0.878906 -2.660156 1.046875 -2.734375 C 1.222656 -2.804688 1.410156 -2.84375 1.609375 -2.84375 C 1.816406 -2.84375 2.003906 -2.804688 2.171875 -2.734375 C 2.335938 -2.660156 2.484375 -2.5625 2.609375 -2.4375 C 2.734375 -2.3125 2.828125 -2.160156 2.890625 -1.984375 C 2.960938 -1.804688 3 -1.609375 3 -1.390625 C 3 -1.171875 2.960938 -0.96875 2.890625 -0.78125 C 2.828125 -0.601562 2.734375 -0.453125 2.609375 -0.328125 C 2.484375 -0.203125 2.335938 -0.101562 2.171875 -0.03125 C 2.003906 0.0390625 1.816406 0.078125 1.609375 0.078125 C 1.398438 0.078125 1.210938 0.046875 1.046875 -0.015625 C 0.878906 -0.0859375 0.734375 -0.1875 0.609375 -0.3125 C 0.492188 -0.445312 0.398438 -0.601562 0.328125 -0.78125 C 0.265625 -0.957031 0.234375 -1.15625 0.234375 -1.375 Z M 0.75 -1.375 C 0.75 -1.21875 0.769531 -1.078125 0.8125 -0.953125 C 0.863281 -0.828125 0.925781 -0.71875 1 -0.625 C 1.082031 -0.53125 1.175781 -0.457031 1.28125 -0.40625 C 1.382812 -0.363281 1.492188 -0.34375 1.609375 -0.34375 C 1.734375 -0.34375 1.847656 -0.363281 1.953125 -0.40625 C 2.054688 -0.457031 2.144531 -0.523438 2.21875 -0.609375 C 2.300781 -0.703125 2.363281 -0.8125 2.40625 -0.9375 C 2.457031 -1.070312 2.484375 -1.21875 2.484375 -1.375 C 2.484375 -1.539062 2.457031 -1.6875 2.40625 -1.8125 C 2.363281 -1.945312 2.300781 -2.054688 2.21875 -2.140625 C 2.144531 -2.234375 2.054688 -2.300781 1.953125 -2.34375 C 1.847656 -2.382812 1.734375 -2.40625 1.609375 -2.40625 C 1.492188 -2.40625 1.382812 -2.382812 1.28125 -2.34375 C 1.175781 -2.300781 1.082031 -2.234375 1 -2.140625 C 0.925781 -2.054688 0.863281 -1.945312 0.8125 -1.8125 C 0.769531 -1.6875 0.75 -1.539062 0.75 -1.375 Z M 0.75 -1.375 "/></g></g></g><g fill="#000000" fill-opacity="1"><g transform="translate(35.675595, 5.587149)"><g><path d="M 1.890625 -4.140625 L 2.765625 -4.140625 L 2.765625 -0.453125 L 3.171875 -0.453125 L 3.171875 0 L 2.265625 0 L 2.265625 -0.21875 C 2.179688 -0.132812 2.078125 -0.0664062 1.953125 -0.015625 C 1.835938 0.0351562 1.707031 0.0625 1.5625 0.0625 C 1.375 0.0625 1.195312 0.03125 1.03125 -0.03125 C 0.875 -0.101562 0.734375 -0.203125 0.609375 -0.328125 C 0.492188 -0.453125 0.40625 -0.601562 0.34375 -0.78125 C 0.28125 -0.957031 0.25 -1.164062 0.25 -1.40625 C 0.25 -1.613281 0.28125 -1.804688 0.34375 -1.984375 C 0.40625 -2.160156 0.492188 -2.3125 0.609375 -2.4375 C 0.722656 -2.5625 0.863281 -2.65625 1.03125 -2.71875 C 1.195312 -2.789062 1.382812 -2.828125 1.59375 -2.828125 C 1.71875 -2.828125 1.832031 -2.8125 1.9375 -2.78125 C 2.050781 -2.75 2.160156 -2.695312 2.265625 -2.625 L 2.265625 -3.6875 L 1.890625 -3.6875 Z M 1.625 -0.375 C 1.769531 -0.375 1.890625 -0.394531 1.984375 -0.4375 C 2.085938 -0.476562 2.179688 -0.539062 2.265625 -0.625 L 2.265625 -2.171875 C 2.179688 -2.242188 2.082031 -2.296875 1.96875 -2.328125 C 1.851562 -2.367188 1.734375 -2.390625 1.609375 -2.390625 C 1.492188 -2.390625 1.382812 -2.367188 1.28125 -2.328125 C 1.175781 -2.285156 1.082031 -2.21875 1 -2.125 C 0.925781 -2.039062 0.867188 -1.9375 0.828125 -1.8125 C 0.785156 -1.695312 0.765625 -1.5625 0.765625 -1.40625 C 0.765625 -1.238281 0.785156 -1.085938 0.828125 -0.953125 C 0.867188 -0.828125 0.925781 -0.71875 1 -0.625 C 1.070312 -0.539062 1.160156 -0.476562 1.265625 -0.4375 C 1.378906 -0.394531 1.5 -0.375 1.625 -0.375 Z M 1.625 -0.375 "/></g></g></g><g fill="#000000" fill-opacity="1"><g transform="translate(39.051047, 5.587149)"><g><path d="M 1.921875 -2.765625 L 2.8125 -2.765625 L 2.8125 -0.453125 L 3.125 -0.453125 L 3.125 0 L 2.3125 0 L 2.3125 -0.25 C 2.1875 -0.15625 2.050781 -0.0820312 1.90625 -0.03125 C 1.757812 0.0195312 1.601562 0.046875 1.4375 0.046875 C 1.300781 0.046875 1.175781 0.0234375 1.0625 -0.015625 C 0.945312 -0.0546875 0.847656 -0.117188 0.765625 -0.203125 C 0.691406 -0.285156 0.632812 -0.390625 0.59375 -0.515625 C 0.550781 -0.648438 0.53125 -0.804688 0.53125 -0.984375 L 0.53125 -2.296875 L 0.15625 -2.296875 L 0.15625 -2.765625 L 1.046875 -2.765625 L 1.046875 -1.046875 C 1.046875 -0.828125 1.09375 -0.664062 1.1875 -0.5625 C 1.289062 -0.457031 1.429688 -0.40625 1.609375 -0.40625 C 1.722656 -0.40625 1.835938 -0.421875 1.953125 -0.453125 C 2.078125 -0.492188 2.191406 -0.550781 2.296875 -0.625 L 2.296875 -2.296875 L 1.921875 -2.296875 Z M 1.921875 -2.765625 "/></g></g></g><g fill="#000000" fill-opacity="1"><g transform="translate(42.644785, 5.587149)"><g><path d="M 2.265625 -2.03125 C 2.179688 -2.15625 2.082031 -2.25 1.96875 -2.3125 C 1.851562 -2.375 1.722656 -2.40625 1.578125 -2.40625 C 1.460938 -2.40625 1.351562 -2.378906 1.25 -2.328125 C 1.144531 -2.285156 1.054688 -2.21875 0.984375 -2.125 C 0.910156 -2.039062 0.851562 -1.9375 0.8125 -1.8125 C 0.769531 -1.6875 0.75 -1.546875 0.75 -1.390625 C 0.75 -1.234375 0.769531 -1.09375 0.8125 -0.96875 C 0.851562 -0.84375 0.910156 -0.734375 0.984375 -0.640625 C 1.066406 -0.554688 1.15625 -0.488281 1.25 -0.4375 C 1.351562 -0.394531 1.460938 -0.375 1.578125 -0.375 C 1.742188 -0.375 1.890625 -0.414062 2.015625 -0.5 C 2.140625 -0.582031 2.242188 -0.703125 2.328125 -0.859375 L 2.734375 -0.65625 C 2.679688 -0.539062 2.613281 -0.4375 2.53125 -0.34375 C 2.457031 -0.257812 2.367188 -0.1875 2.265625 -0.125 C 2.171875 -0.0625 2.0625 -0.015625 1.9375 0.015625 C 1.820312 0.0546875 1.703125 0.078125 1.578125 0.078125 C 1.378906 0.078125 1.195312 0.0390625 1.03125 -0.03125 C 0.875 -0.101562 0.734375 -0.203125 0.609375 -0.328125 C 0.492188 -0.460938 0.40625 -0.617188 0.34375 -0.796875 C 0.28125 -0.972656 0.25 -1.171875 0.25 -1.390625 C 0.25 -1.597656 0.28125 -1.789062 0.34375 -1.96875 C 0.414062 -2.144531 0.507812 -2.296875 0.625 -2.421875 C 0.75 -2.554688 0.890625 -2.660156 1.046875 -2.734375 C 1.210938 -2.804688 1.390625 -2.84375 1.578125 -2.84375 C 1.753906 -2.84375 1.914062 -2.8125 2.0625 -2.75 C 2.21875 -2.695312 2.359375 -2.609375 2.484375 -2.484375 L 2.765625 -2.484375 L 2.765625 -2.03125 Z M 2.265625 -2.03125 "/></g></g></g><g fill="#000000" fill-opacity="1"><g transform="translate(45.620932, 5.587149)"><g><path d="M 2.265625 -2.03125 C 2.179688 -2.15625 2.082031 -2.25 1.96875 -2.3125 C 1.851562 -2.375 1.722656 -2.40625 1.578125 -2.40625 C 1.460938 -2.40625 1.351562 -2.378906 1.25 -2.328125 C 1.144531 -2.285156 1.054688 -2.21875 0.984375 -2.125 C 0.910156 -2.039062 0.851562 -1.9375 0.8125 -1.8125 C 0.769531 -1.6875 0.75 -1.546875 0.75 -1.390625 C 0.75 -1.234375 0.769531 -1.09375 0.8125 -0.96875 C 0.851562 -0.84375 0.910156 -0.734375 0.984375 -0.640625 C 1.066406 -0.554688 1.15625 -0.488281 1.25 -0.4375 C 1.351562 -0.394531 1.460938 -0.375 1.578125 -0.375 C 1.742188 -0.375 1.890625 -0.414062 2.015625 -0.5 C 2.140625 -0.582031 2.242188 -0.703125 2.328125 -0.859375 L 2.734375 -0.65625 C 2.679688 -0.539062 2.613281 -0.4375 2.53125 -0.34375 C 2.457031 -0.257812 2.367188 -0.1875 2.265625 -0.125 C 2.171875 -0.0625 2.0625 -0.015625 1.9375 0.015625 C 1.820312 0.0546875 1.703125 0.078125 1.578125 0.078125 C 1.378906 0.078125 1.195312 0.0390625 1.03125 -0.03125 C 0.875 -0.101562 0.734375 -0.203125 0.609375 -0.328125 C 0.492188 -0.460938 0.40625 -0.617188 0.34375 -0.796875 C 0.28125 -0.972656 0.25 -1.171875 0.25 -1.390625 C 0.25 -1.597656 0.28125 -1.789062 0.34375 -1.96875 C 0.414062 -2.144531 0.507812 -2.296875 0.625 -2.421875 C 0.75 -2.554688 0.890625 -2.660156 1.046875 -2.734375 C 1.210938 -2.804688 1.390625 -2.84375 1.578125 -2.84375 C 1.753906 -2.84375 1.914062 -2.8125 2.0625 -2.75 C 2.21875 -2.695312 2.359375 -2.609375 2.484375 -2.484375 L 2.765625 -2.484375 L 2.765625 -2.03125 Z M 2.265625 -2.03125 "/></g></g></g><g fill="#000000" fill-opacity="1"><g transform="translate(48.59708, 5.587149)"><g><path d="M 0.25 -2.765625 L 1.140625 -2.765625 L 1.140625 -0.453125 L 1.5625 -0.453125 L 1.5625 0 L 0.25 0 L 0.25 -0.453125 L 0.640625 -0.453125 L 0.640625 -2.296875 L 0.25 -2.296875 Z M 0.546875 -3.734375 C 0.546875 -3.785156 0.554688 -3.832031 0.578125 -3.875 C 0.597656 -3.914062 0.625 -3.945312 0.65625 -3.96875 C 0.6875 -4 0.722656 -4.023438 0.765625 -4.046875 C 0.804688 -4.066406 0.851562 -4.078125 0.90625 -4.078125 C 0.945312 -4.078125 0.988281 -4.066406 1.03125 -4.046875 C 1.070312 -4.023438 1.109375 -4 1.140625 -3.96875 C 1.171875 -3.945312 1.195312 -3.914062 1.21875 -3.875 C 1.238281 -3.832031 1.25 -3.785156 1.25 -3.734375 C 1.25 -3.679688 1.238281 -3.632812 1.21875 -3.59375 C 1.195312 -3.550781 1.171875 -3.515625 1.140625 -3.484375 C 1.109375 -3.453125 1.070312 -3.425781 1.03125 -3.40625 C 0.988281 -3.382812 0.945312 -3.375 0.90625 -3.375 C 0.851562 -3.375 0.804688 -3.382812 0.765625 -3.40625 C 0.722656 -3.425781 0.6875 -3.453125 0.65625 -3.484375 C 0.625 -3.515625 0.597656 -3.550781 0.578125 -3.59375 C 0.554688 -3.632812 0.546875 -3.679688 0.546875 -3.734375 Z M 0.546875 -3.734375 "/></g></g></g><g fill="#000000" fill-opacity="1"><g transform="translate(50.346035, 5.587149)"><g><path d="M 0.234375 -1.375 C 0.234375 -1.59375 0.265625 -1.789062 0.328125 -1.96875 C 0.398438 -2.15625 0.492188 -2.3125 0.609375 -2.4375 C 0.734375 -2.5625 0.878906 -2.660156 1.046875 -2.734375 C 1.222656 -2.804688 1.410156 -2.84375 1.609375 -2.84375 C 1.816406 -2.84375 2.003906 -2.804688 2.171875 -2.734375 C 2.335938 -2.660156 2.484375 -2.5625 2.609375 -2.4375 C 2.734375 -2.3125 2.828125 -2.160156 2.890625 -1.984375 C 2.960938 -1.804688 3 -1.609375 3 -1.390625 C 3 -1.171875 2.960938 -0.96875 2.890625 -0.78125 C 2.828125 -0.601562 2.734375 -0.453125 2.609375 -0.328125 C 2.484375 -0.203125 2.335938 -0.101562 2.171875 -0.03125 C 2.003906 0.0390625 1.816406 0.078125 1.609375 0.078125 C 1.398438 0.078125 1.210938 0.046875 1.046875 -0.015625 C 0.878906 -0.0859375 0.734375 -0.1875 0.609375 -0.3125 C 0.492188 -0.445312 0.398438 -0.601562 0.328125 -0.78125 C 0.265625 -0.957031 0.234375 -1.15625 0.234375 -1.375 Z M 0.75 -1.375 C 0.75 -1.21875 0.769531 -1.078125 0.8125 -0.953125 C 0.863281 -0.828125 0.925781 -0.71875 1 -0.625 C 1.082031 -0.53125 1.175781 -0.457031 1.28125 -0.40625 C 1.382812 -0.363281 1.492188 -0.34375 1.609375 -0.34375 C 1.734375 -0.34375 1.847656 -0.363281 1.953125 -0.40625 C 2.054688 -0.457031 2.144531 -0.523438 2.21875 -0.609375 C 2.300781 -0.703125 2.363281 -0.8125 2.40625 -0.9375 C 2.457031 -1.070312 2.484375 -1.21875 2.484375 -1.375 C 2.484375 -1.539062 2.457031 -1.6875 2.40625 -1.8125 C 2.363281 -1.945312 2.300781 -2.054688 2.21875 -2.140625 C 2.144531 -2.234375 2.054688 -2.300781 1.953125 -2.34375 C 1.847656 -2.382812 1.734375 -2.40625 1.609375 -2.40625 C 1.492188 -2.40625 1.382812 -2.382812 1.28125 -2.34375 C 1.175781 -2.300781 1.082031 -2.234375 1 -2.140625 C 0.925781 -2.054688 0.863281 -1.945312 0.8125 -1.8125 C 0.769531 -1.6875 0.75 -1.539062 0.75 -1.375 Z M 0.75 -1.375 "/></g></g></g><g fill="#000000" fill-opacity="1"><g transform="translate(53.607022, 5.587149)"><g><path d="M 2.078125 -0.453125 L 2.46875 -0.453125 L 2.46875 -1.71875 C 2.46875 -1.925781 2.414062 -2.082031 2.3125 -2.1875 C 2.207031 -2.300781 2.050781 -2.359375 1.84375 -2.359375 C 1.726562 -2.359375 1.613281 -2.332031 1.5 -2.28125 C 1.382812 -2.226562 1.273438 -2.160156 1.171875 -2.078125 L 1.171875 -0.453125 L 1.5625 -0.453125 L 1.5625 0 L 0.265625 0 L 0.265625 -0.453125 L 0.65625 -0.453125 L 0.65625 -2.296875 L 0.265625 -2.296875 L 0.265625 -2.765625 L 1.140625 -2.765625 L 1.140625 -2.4375 L 1.15625 -2.4375 C 1.207031 -2.488281 1.265625 -2.535156 1.328125 -2.578125 C 1.398438 -2.628906 1.472656 -2.671875 1.546875 -2.703125 C 1.617188 -2.734375 1.691406 -2.757812 1.765625 -2.78125 C 1.847656 -2.800781 1.9375 -2.8125 2.03125 -2.8125 C 2.175781 -2.8125 2.304688 -2.789062 2.421875 -2.75 C 2.535156 -2.707031 2.632812 -2.644531 2.71875 -2.5625 C 2.8125 -2.476562 2.878906 -2.367188 2.921875 -2.234375 C 2.960938 -2.109375 2.984375 -1.957031 2.984375 -1.78125 L 2.984375 -0.453125 L 3.375 -0.453125 L 3.375 0 L 2.078125 0 Z M 2.078125 -0.453125 "/></g></g></g><g fill="#000000" fill-opacity="1"><g transform="translate(57.243353, 5.587149)"><g><path d="M 0.734375 -1.3125 C 0.734375 -1.238281 0.738281 -1.164062 0.75 -1.09375 C 0.757812 -1.03125 0.773438 -0.972656 0.796875 -0.921875 C 0.867188 -0.742188 0.972656 -0.609375 1.109375 -0.515625 C 1.253906 -0.421875 1.421875 -0.375 1.609375 -0.375 C 1.753906 -0.375 1.894531 -0.394531 2.03125 -0.4375 C 2.164062 -0.476562 2.304688 -0.539062 2.453125 -0.625 L 2.65625 -0.296875 C 2.476562 -0.171875 2.296875 -0.078125 2.109375 -0.015625 C 1.921875 0.046875 1.726562 0.078125 1.53125 0.078125 C 1.351562 0.078125 1.179688 0.046875 1.015625 -0.015625 C 0.859375 -0.078125 0.722656 -0.171875 0.609375 -0.296875 C 0.492188 -0.421875 0.40625 -0.570312 0.34375 -0.75 C 0.28125 -0.9375 0.25 -1.148438 0.25 -1.390625 C 0.25 -1.585938 0.273438 -1.769531 0.328125 -1.9375 C 0.378906 -2.113281 0.457031 -2.265625 0.5625 -2.390625 C 0.675781 -2.523438 0.8125 -2.628906 0.96875 -2.703125 C 1.132812 -2.785156 1.328125 -2.828125 1.546875 -2.828125 C 1.753906 -2.828125 1.925781 -2.796875 2.0625 -2.734375 C 2.207031 -2.671875 2.320312 -2.585938 2.40625 -2.484375 C 2.488281 -2.378906 2.550781 -2.257812 2.59375 -2.125 C 2.644531 -2 2.679688 -1.863281 2.703125 -1.71875 C 2.710938 -1.65625 2.71875 -1.585938 2.71875 -1.515625 C 2.71875 -1.441406 2.71875 -1.375 2.71875 -1.3125 Z M 1.515625 -2.421875 C 1.398438 -2.421875 1.296875 -2.398438 1.203125 -2.359375 C 1.117188 -2.328125 1.046875 -2.28125 0.984375 -2.21875 C 0.921875 -2.15625 0.867188 -2.078125 0.828125 -1.984375 C 0.796875 -1.898438 0.773438 -1.804688 0.765625 -1.703125 L 2.1875 -1.703125 C 2.1875 -1.804688 2.171875 -1.898438 2.140625 -1.984375 C 2.117188 -2.066406 2.078125 -2.140625 2.015625 -2.203125 C 1.960938 -2.273438 1.894531 -2.328125 1.8125 -2.359375 C 1.726562 -2.398438 1.628906 -2.421875 1.515625 -2.421875 Z M 1.515625 -2.421875 "/></g></g></g><g fill="#000000" fill-opacity="1"><g transform="translate(60.371238, 5.587149)"><g><path d="M 1.859375 -2.015625 C 1.859375 -2.085938 1.835938 -2.148438 1.796875 -2.203125 C 1.765625 -2.253906 1.722656 -2.296875 1.671875 -2.328125 C 1.617188 -2.367188 1.554688 -2.394531 1.484375 -2.40625 C 1.421875 -2.425781 1.359375 -2.4375 1.296875 -2.4375 C 1.222656 -2.4375 1.15625 -2.425781 1.09375 -2.40625 C 1.03125 -2.394531 0.976562 -2.375 0.9375 -2.34375 C 0.894531 -2.3125 0.863281 -2.269531 0.84375 -2.21875 C 0.820312 -2.175781 0.8125 -2.128906 0.8125 -2.078125 C 0.8125 -1.984375 0.835938 -1.910156 0.890625 -1.859375 C 0.941406 -1.804688 1.035156 -1.757812 1.171875 -1.71875 L 1.703125 -1.53125 C 1.929688 -1.445312 2.097656 -1.335938 2.203125 -1.203125 C 2.304688 -1.078125 2.359375 -0.925781 2.359375 -0.75 C 2.359375 -0.625 2.332031 -0.507812 2.28125 -0.40625 C 2.226562 -0.300781 2.15625 -0.210938 2.0625 -0.140625 C 1.976562 -0.0664062 1.875 -0.015625 1.75 0.015625 C 1.625 0.0546875 1.484375 0.078125 1.328125 0.078125 C 1.117188 0.078125 0.945312 0.046875 0.8125 -0.015625 C 0.675781 -0.0859375 0.570312 -0.179688 0.5 -0.296875 L 0.21875 -0.296875 L 0.21875 -0.75 L 0.765625 -0.75 C 0.765625 -0.675781 0.78125 -0.613281 0.8125 -0.5625 C 0.851562 -0.507812 0.898438 -0.460938 0.953125 -0.421875 C 1.003906 -0.390625 1.0625 -0.363281 1.125 -0.34375 C 1.195312 -0.332031 1.269531 -0.328125 1.34375 -0.328125 C 1.414062 -0.328125 1.484375 -0.332031 1.546875 -0.34375 C 1.609375 -0.363281 1.660156 -0.390625 1.703125 -0.421875 C 1.753906 -0.460938 1.796875 -0.503906 1.828125 -0.546875 C 1.859375 -0.585938 1.875 -0.640625 1.875 -0.703125 C 1.875 -0.796875 1.84375 -0.867188 1.78125 -0.921875 C 1.726562 -0.984375 1.628906 -1.039062 1.484375 -1.09375 L 0.96875 -1.296875 C 0.75 -1.367188 0.585938 -1.460938 0.484375 -1.578125 C 0.378906 -1.703125 0.328125 -1.851562 0.328125 -2.03125 C 0.328125 -2.144531 0.347656 -2.25 0.390625 -2.34375 C 0.429688 -2.445312 0.492188 -2.535156 0.578125 -2.609375 C 0.660156 -2.679688 0.757812 -2.738281 0.875 -2.78125 C 1 -2.820312 1.140625 -2.84375 1.296875 -2.84375 C 1.492188 -2.84375 1.65625 -2.8125 1.78125 -2.75 C 1.914062 -2.695312 2.035156 -2.601562 2.140625 -2.46875 L 2.40625 -2.46875 L 2.40625 -2.015625 Z M 1.859375 -2.015625 "/></g></g></g><g fill="#000000" fill-opacity="1"><g transform="translate(63.014635, 5.587149)"><g><path d="M 0.546875 -0.75 L 1.125 -0.53125 L 0.4375 0.90625 L 0.046875 0.765625 Z M 0.546875 -0.75 "/></g></g></g><g fill="#000000" fill-opacity="1"><g transform="translate(64.529331, 5.587149)"><g><path d="M 0 0 Z M 0 0 "/></g></g></g><g fill="#000000" fill-opacity="1"><g transform="translate(65.72192, 5.587149)"><g><path d="M 1.890625 -0.25 C 1.785156 -0.15625 1.664062 -0.078125 1.53125 -0.015625 C 1.40625 0.046875 1.265625 0.078125 1.109375 0.078125 C 0.972656 0.078125 0.847656 0.0546875 0.734375 0.015625 C 0.617188 -0.0234375 0.519531 -0.0820312 0.4375 -0.15625 C 0.363281 -0.226562 0.300781 -0.3125 0.25 -0.40625 C 0.207031 -0.507812 0.1875 -0.617188 0.1875 -0.734375 C 0.1875 -0.847656 0.203125 -0.945312 0.234375 -1.03125 C 0.273438 -1.125 0.320312 -1.203125 0.375 -1.265625 C 0.4375 -1.335938 0.503906 -1.394531 0.578125 -1.4375 C 0.648438 -1.488281 0.726562 -1.523438 0.8125 -1.546875 C 0.90625 -1.578125 0.992188 -1.597656 1.078125 -1.609375 C 1.171875 -1.617188 1.253906 -1.625 1.328125 -1.625 C 1.453125 -1.625 1.554688 -1.617188 1.640625 -1.609375 C 1.734375 -1.609375 1.816406 -1.597656 1.890625 -1.578125 L 1.890625 -1.8125 C 1.890625 -1.90625 1.875 -1.988281 1.84375 -2.0625 C 1.820312 -2.132812 1.785156 -2.191406 1.734375 -2.234375 C 1.679688 -2.285156 1.617188 -2.320312 1.546875 -2.34375 C 1.472656 -2.375 1.394531 -2.390625 1.3125 -2.390625 C 1.21875 -2.390625 1.132812 -2.378906 1.0625 -2.359375 C 0.988281 -2.347656 0.914062 -2.332031 0.84375 -2.3125 C 0.78125 -2.300781 0.71875 -2.28125 0.65625 -2.25 C 0.601562 -2.226562 0.5625 -2.207031 0.53125 -2.1875 L 0.359375 -2.53125 C 0.421875 -2.570312 0.488281 -2.609375 0.5625 -2.640625 C 0.644531 -2.679688 0.726562 -2.710938 0.8125 -2.734375 C 0.90625 -2.765625 0.992188 -2.785156 1.078125 -2.796875 C 1.171875 -2.804688 1.265625 -2.8125 1.359375 -2.8125 C 1.515625 -2.8125 1.65625 -2.789062 1.78125 -2.75 C 1.90625 -2.71875 2.007812 -2.660156 2.09375 -2.578125 C 2.1875 -2.503906 2.257812 -2.40625 2.3125 -2.28125 C 2.363281 -2.15625 2.390625 -2.007812 2.390625 -1.84375 L 2.390625 -0.453125 L 2.6875 -0.453125 L 2.6875 0 L 1.890625 0 Z M 1.21875 -0.34375 C 1.28125 -0.34375 1.34375 -0.347656 1.40625 -0.359375 C 1.476562 -0.378906 1.539062 -0.398438 1.59375 -0.421875 C 1.65625 -0.453125 1.710938 -0.484375 1.765625 -0.515625 C 1.816406 -0.554688 1.859375 -0.597656 1.890625 -0.640625 L 1.890625 -1.265625 L 1.3125 -1.265625 C 1.21875 -1.265625 1.128906 -1.253906 1.046875 -1.234375 C 0.972656 -1.210938 0.90625 -1.179688 0.84375 -1.140625 C 0.789062 -1.097656 0.75 -1.046875 0.71875 -0.984375 C 0.6875 -0.921875 0.671875 -0.851562 0.671875 -0.78125 C 0.671875 -0.707031 0.679688 -0.640625 0.703125 -0.578125 C 0.734375 -0.523438 0.769531 -0.476562 0.8125 -0.4375 C 0.863281 -0.40625 0.921875 -0.378906 0.984375 -0.359375 C 1.054688 -0.347656 1.132812 -0.34375 1.21875 -0.34375 Z M 1.21875 -0.34375 "/></g></g></g><g fill="#000000" fill-opacity="1"><g transform="translate(68.703392, 5.587149)"><g><path d="M 1.859375 -2.015625 C 1.859375 -2.085938 1.835938 -2.148438 1.796875 -2.203125 C 1.765625 -2.253906 1.722656 -2.296875 1.671875 -2.328125 C 1.617188 -2.367188 1.554688 -2.394531 1.484375 -2.40625 C 1.421875 -2.425781 1.359375 -2.4375 1.296875 -2.4375 C 1.222656 -2.4375 1.15625 -2.425781 1.09375 -2.40625 C 1.03125 -2.394531 0.976562 -2.375 0.9375 -2.34375 C 0.894531 -2.3125 0.863281 -2.269531 0.84375 -2.21875 C 0.820312 -2.175781 0.8125 -2.128906 0.8125 -2.078125 C 0.8125 -1.984375 0.835938 -1.910156 0.890625 -1.859375 C 0.941406 -1.804688 1.035156 -1.757812 1.171875 -1.71875 L 1.703125 -1.53125 C 1.929688 -1.445312 2.097656 -1.335938 2.203125 -1.203125 C 2.304688 -1.078125 2.359375 -0.925781 2.359375 -0.75 C 2.359375 -0.625 2.332031 -0.507812 2.28125 -0.40625 C 2.226562 -0.300781 2.15625 -0.210938 2.0625 -0.140625 C 1.976562 -0.0664062 1.875 -0.015625 1.75 0.015625 C 1.625 0.0546875 1.484375 0.078125 1.328125 0.078125 C 1.117188 0.078125 0.945312 0.046875 0.8125 -0.015625 C 0.675781 -0.0859375 0.570312 -0.179688 0.5 -0.296875 L 0.21875 -0.296875 L 0.21875 -0.75 L 0.765625 -0.75 C 0.765625 -0.675781 0.78125 -0.613281 0.8125 -0.5625 C 0.851562 -0.507812 0.898438 -0.460938 0.953125 -0.421875 C 1.003906 -0.390625 1.0625 -0.363281 1.125 -0.34375 C 1.195312 -0.332031 1.269531 -0.328125 1.34375 -0.328125 C 1.414062 -0.328125 1.484375 -0.332031 1.546875 -0.34375 C 1.609375 -0.363281 1.660156 -0.390625 1.703125 -0.421875 C 1.753906 -0.460938 1.796875 -0.503906 1.828125 -0.546875 C 1.859375 -0.585938 1.875 -0.640625 1.875 -0.703125 C 1.875 -0.796875 1.84375 -0.867188 1.78125 -0.921875 C 1.726562 -0.984375 1.628906 -1.039062 1.484375 -1.09375 L 0.96875 -1.296875 C 0.75 -1.367188 0.585938 -1.460938 0.484375 -1.578125 C 0.378906 -1.703125 0.328125 -1.851562 0.328125 -2.03125 C 0.328125 -2.144531 0.347656 -2.25 0.390625 -2.34375 C 0.429688 -2.445312 0.492188 -2.535156 0.578125 -2.609375 C 0.660156 -2.679688 0.757812 -2.738281 0.875 -2.78125 C 1 -2.820312 1.140625 -2.84375 1.296875 -2.84375 C 1.492188 -2.84375 1.65625 -2.8125 1.78125 -2.75 C 1.914062 -2.695312 2.035156 -2.601562 2.140625 -2.46875 L 2.40625 -2.46875 L 2.40625 -2.015625 Z M 1.859375 -2.015625 "/></g></g></g><g fill="#000000" fill-opacity="1"><g transform="translate(71.346788, 5.587149)"><g><path d="M 0.734375 -1.3125 C 0.734375 -1.238281 0.738281 -1.164062 0.75 -1.09375 C 0.757812 -1.03125 0.773438 -0.972656 0.796875 -0.921875 C 0.867188 -0.742188 0.972656 -0.609375 1.109375 -0.515625 C 1.253906 -0.421875 1.421875 -0.375 1.609375 -0.375 C 1.753906 -0.375 1.894531 -0.394531 2.03125 -0.4375 C 2.164062 -0.476562 2.304688 -0.539062 2.453125 -0.625 L 2.65625 -0.296875 C 2.476562 -0.171875 2.296875 -0.078125 2.109375 -0.015625 C 1.921875 0.046875 1.726562 0.078125 1.53125 0.078125 C 1.351562 0.078125 1.179688 0.046875 1.015625 -0.015625 C 0.859375 -0.078125 0.722656 -0.171875 0.609375 -0.296875 C 0.492188 -0.421875 0.40625 -0.570312 0.34375 -0.75 C 0.28125 -0.9375 0.25 -1.148438 0.25 -1.390625 C 0.25 -1.585938 0.273438 -1.769531 0.328125 -1.9375 C 0.378906 -2.113281 0.457031 -2.265625 0.5625 -2.390625 C 0.675781 -2.523438 0.8125 -2.628906 0.96875 -2.703125 C 1.132812 -2.785156 1.328125 -2.828125 1.546875 -2.828125 C 1.753906 -2.828125 1.925781 -2.796875 2.0625 -2.734375 C 2.207031 -2.671875 2.320312 -2.585938 2.40625 -2.484375 C 2.488281 -2.378906 2.550781 -2.257812 2.59375 -2.125 C 2.644531 -2 2.679688 -1.863281 2.703125 -1.71875 C 2.710938 -1.65625 2.71875 -1.585938 2.71875 -1.515625 C 2.71875 -1.441406 2.71875 -1.375 2.71875 -1.3125 Z M 1.515625 -2.421875 C 1.398438 -2.421875 1.296875 -2.398438 1.203125 -2.359375 C 1.117188 -2.328125 1.046875 -2.28125 0.984375 -2.21875 C 0.921875 -2.15625 0.867188 -2.078125 0.828125 -1.984375 C 0.796875 -1.898438 0.773438 -1.804688 0.765625 -1.703125 L 2.1875 -1.703125 C 2.1875 -1.804688 2.171875 -1.898438 2.140625 -1.984375 C 2.117188 -2.066406 2.078125 -2.140625 2.015625 -2.203125 C 1.960938 -2.273438 1.894531 -2.328125 1.8125 -2.359375 C 1.726562 -2.398438 1.628906 -2.421875 1.515625 -2.421875 Z M 1.515625 -2.421875 "/></g></g></g><g fill="#000000" fill-opacity="1"><g transform="translate(74.474674, 5.587149)"><g><path d="M 2.28125 -0.25 C 2.195312 -0.144531 2.09375 -0.0664062 1.96875 -0.015625 C 1.851562 0.0351562 1.71875 0.0625 1.5625 0.0625 C 1.375 0.0625 1.195312 0.03125 1.03125 -0.03125 C 0.875 -0.101562 0.734375 -0.203125 0.609375 -0.328125 C 0.492188 -0.453125 0.40625 -0.601562 0.34375 -0.78125 C 0.28125 -0.957031 0.25 -1.164062 0.25 -1.40625 C 0.25 -1.613281 0.28125 -1.804688 0.34375 -1.984375 C 0.40625 -2.160156 0.492188 -2.3125 0.609375 -2.4375 C 0.722656 -2.5625 0.863281 -2.65625 1.03125 -2.71875 C 1.195312 -2.789062 1.382812 -2.828125 1.59375 -2.828125 C 1.726562 -2.828125 1.847656 -2.8125 1.953125 -2.78125 C 2.066406 -2.75 2.175781 -2.695312 2.28125 -2.625 L 2.28125 -2.765625 L 2.78125 -2.765625 L 2.78125 -0.109375 C 2.78125 0.328125 2.675781 0.65625 2.46875 0.875 C 2.257812 1.101562 1.9375 1.21875 1.5 1.21875 C 1.40625 1.21875 1.304688 1.207031 1.203125 1.1875 C 1.097656 1.175781 0.992188 1.15625 0.890625 1.125 C 0.785156 1.09375 0.6875 1.050781 0.59375 1 C 0.5 0.957031 0.410156 0.898438 0.328125 0.828125 L 0.59375 0.4375 C 0.644531 0.476562 0.703125 0.519531 0.765625 0.5625 C 0.835938 0.601562 0.910156 0.632812 0.984375 0.65625 C 1.066406 0.6875 1.148438 0.707031 1.234375 0.71875 C 1.316406 0.738281 1.398438 0.75 1.484375 0.75 C 1.617188 0.75 1.738281 0.734375 1.84375 0.703125 C 1.945312 0.671875 2.03125 0.617188 2.09375 0.546875 C 2.15625 0.484375 2.203125 0.390625 2.234375 0.265625 C 2.265625 0.140625 2.28125 -0.015625 2.28125 -0.203125 Z M 1.625 -0.375 C 1.707031 -0.375 1.78125 -0.378906 1.84375 -0.390625 C 1.914062 -0.410156 1.976562 -0.429688 2.03125 -0.453125 C 2.082031 -0.484375 2.128906 -0.515625 2.171875 -0.546875 C 2.210938 -0.578125 2.25 -0.613281 2.28125 -0.65625 L 2.28125 -2.15625 C 2.195312 -2.238281 2.09375 -2.296875 1.96875 -2.328125 C 1.851562 -2.367188 1.734375 -2.390625 1.609375 -2.390625 C 1.492188 -2.390625 1.382812 -2.367188 1.28125 -2.328125 C 1.175781 -2.285156 1.082031 -2.21875 1 -2.125 C 0.925781 -2.039062 0.867188 -1.9375 0.828125 -1.8125 C 0.785156 -1.695312 0.765625 -1.5625 0.765625 -1.40625 C 0.765625 -1.238281 0.785156 -1.085938 0.828125 -0.953125 C 0.867188 -0.828125 0.925781 -0.71875 1 -0.625 C 1.070312 -0.539062 1.160156 -0.476562 1.265625 -0.4375 C 1.378906 -0.394531 1.5 -0.375 1.625 -0.375 Z M 1.625 -0.375 "/></g></g></g><g fill="#000000" fill-opacity="1"><g transform="translate(77.669108, 5.587149)"><g><path d="M 1.921875 -2.765625 L 2.8125 -2.765625 L 2.8125 -0.453125 L 3.125 -0.453125 L 3.125 0 L 2.3125 0 L 2.3125 -0.25 C 2.1875 -0.15625 2.050781 -0.0820312 1.90625 -0.03125 C 1.757812 0.0195312 1.601562 0.046875 1.4375 0.046875 C 1.300781 0.046875 1.175781 0.0234375 1.0625 -0.015625 C 0.945312 -0.0546875 0.847656 -0.117188 0.765625 -0.203125 C 0.691406 -0.285156 0.632812 -0.390625 0.59375 -0.515625 C 0.550781 -0.648438 0.53125 -0.804688 0.53125 -0.984375 L 0.53125 -2.296875 L 0.15625 -2.296875 L 0.15625 -2.765625 L 1.046875 -2.765625 L 1.046875 -1.046875 C 1.046875 -0.828125 1.09375 -0.664062 1.1875 -0.5625 C 1.289062 -0.457031 1.429688 -0.40625 1.609375 -0.40625 C 1.722656 -0.40625 1.835938 -0.421875 1.953125 -0.453125 C 2.078125 -0.492188 2.191406 -0.550781 2.296875 -0.625 L 2.296875 -2.296875 L 1.921875 -2.296875 Z M 1.921875 -2.765625 "/></g></g></g><g fill="#000000" fill-opacity="1"><g transform="translate(81.262846, 5.587149)"><g><path d="M 2.25 -2.171875 L 1.75 -2.171875 L 1.75 -2.34375 C 1.6875 -2.34375 1.625 -2.332031 1.5625 -2.3125 C 1.5 -2.289062 1.441406 -2.253906 1.390625 -2.203125 C 1.335938 -2.160156 1.289062 -2.101562 1.25 -2.03125 C 1.207031 -1.96875 1.179688 -1.890625 1.171875 -1.796875 L 1.171875 -0.453125 L 1.640625 -0.453125 L 1.640625 0 L 0.265625 0 L 0.265625 -0.453125 L 0.640625 -0.453125 L 0.65625 -2.296875 L 0.265625 -2.296875 L 0.265625 -2.765625 L 1.140625 -2.765625 L 1.140625 -2.375 C 1.179688 -2.4375 1.21875 -2.488281 1.25 -2.53125 C 1.289062 -2.582031 1.335938 -2.625 1.390625 -2.65625 C 1.441406 -2.695312 1.492188 -2.726562 1.546875 -2.75 C 1.609375 -2.769531 1.675781 -2.78125 1.75 -2.78125 C 1.832031 -2.78125 1.914062 -2.78125 2 -2.78125 C 2.082031 -2.78125 2.164062 -2.78125 2.25 -2.78125 Z M 2.25 -2.171875 "/></g></g></g><g fill="#000000" fill-opacity="1"><g transform="translate(83.818393, 5.587149)"><g><path d="M 1.890625 -0.25 C 1.785156 -0.15625 1.664062 -0.078125 1.53125 -0.015625 C 1.40625 0.046875 1.265625 0.078125 1.109375 0.078125 C 0.972656 0.078125 0.847656 0.0546875 0.734375 0.015625 C 0.617188 -0.0234375 0.519531 -0.0820312 0.4375 -0.15625 C 0.363281 -0.226562 0.300781 -0.3125 0.25 -0.40625 C 0.207031 -0.507812 0.1875 -0.617188 0.1875 -0.734375 C 0.1875 -0.847656 0.203125 -0.945312 0.234375 -1.03125 C 0.273438 -1.125 0.320312 -1.203125 0.375 -1.265625 C 0.4375 -1.335938 0.503906 -1.394531 0.578125 -1.4375 C 0.648438 -1.488281 0.726562 -1.523438 0.8125 -1.546875 C 0.90625 -1.578125 0.992188 -1.597656 1.078125 -1.609375 C 1.171875 -1.617188 1.253906 -1.625 1.328125 -1.625 C 1.453125 -1.625 1.554688 -1.617188 1.640625 -1.609375 C 1.734375 -1.609375 1.816406 -1.597656 1.890625 -1.578125 L 1.890625 -1.8125 C 1.890625 -1.90625 1.875 -1.988281 1.84375 -2.0625 C 1.820312 -2.132812 1.785156 -2.191406 1.734375 -2.234375 C 1.679688 -2.285156 1.617188 -2.320312 1.546875 -2.34375 C 1.472656 -2.375 1.394531 -2.390625 1.3125 -2.390625 C 1.21875 -2.390625 1.132812 -2.378906 1.0625 -2.359375 C 0.988281 -2.347656 0.914062 -2.332031 0.84375 -2.3125 C 0.78125 -2.300781 0.71875 -2.28125 0.65625 -2.25 C 0.601562 -2.226562 0.5625 -2.207031 0.53125 -2.1875 L 0.359375 -2.53125 C 0.421875 -2.570312 0.488281 -2.609375 0.5625 -2.640625 C 0.644531 -2.679688 0.726562 -2.710938 0.8125 -2.734375 C 0.90625 -2.765625 0.992188 -2.785156 1.078125 -2.796875 C 1.171875 -2.804688 1.265625 -2.8125 1.359375 -2.8125 C 1.515625 -2.8125 1.65625 -2.789062 1.78125 -2.75 C 1.90625 -2.71875 2.007812 -2.660156 2.09375 -2.578125 C 2.1875 -2.503906 2.257812 -2.40625 2.3125 -2.28125 C 2.363281 -2.15625 2.390625 -2.007812 2.390625 -1.84375 L 2.390625 -0.453125 L 2.6875 -0.453125 L 2.6875 0 L 1.890625 0 Z M 1.21875 -0.34375 C 1.28125 -0.34375 1.34375 -0.347656 1.40625 -0.359375 C 1.476562 -0.378906 1.539062 -0.398438 1.59375 -0.421875 C 1.65625 -0.453125 1.710938 -0.484375 1.765625 -0.515625 C 1.816406 -0.554688 1.859375 -0.597656 1.890625 -0.640625 L 1.890625 -1.265625 L 1.3125 -1.265625 C 1.21875 -1.265625 1.128906 -1.253906 1.046875 -1.234375 C 0.972656 -1.210938 0.90625 -1.179688 0.84375 -1.140625 C 0.789062 -1.097656 0.75 -1.046875 0.71875 -0.984375 C 0.6875 -0.921875 0.671875 -0.851562 0.671875 -0.78125 C 0.671875 -0.707031 0.679688 -0.640625 0.703125 -0.578125 C 0.734375 -0.523438 0.769531 -0.476562 0.8125 -0.4375 C 0.863281 -0.40625 0.921875 -0.378906 0.984375 -0.359375 C 1.054688 -0.347656 1.132812 -0.34375 1.21875 -0.34375 Z M 1.21875 -0.34375 "/></g></g></g><g fill="#000000" fill-opacity="1"><g transform="translate(86.799864, 5.587149)"><g><path d="M 2.078125 -0.453125 L 2.46875 -0.453125 L 2.46875 -1.71875 C 2.46875 -1.925781 2.414062 -2.082031 2.3125 -2.1875 C 2.207031 -2.300781 2.050781 -2.359375 1.84375 -2.359375 C 1.726562 -2.359375 1.613281 -2.332031 1.5 -2.28125 C 1.382812 -2.226562 1.273438 -2.160156 1.171875 -2.078125 L 1.171875 -0.453125 L 1.5625 -0.453125 L 1.5625 0 L 0.265625 0 L 0.265625 -0.453125 L 0.65625 -0.453125 L 0.65625 -2.296875 L 0.265625 -2.296875 L 0.265625 -2.765625 L 1.140625 -2.765625 L 1.140625 -2.4375 L 1.15625 -2.4375 C 1.207031 -2.488281 1.265625 -2.535156 1.328125 -2.578125 C 1.398438 -2.628906 1.472656 -2.671875 1.546875 -2.703125 C 1.617188 -2.734375 1.691406 -2.757812 1.765625 -2.78125 C 1.847656 -2.800781 1.9375 -2.8125 2.03125 -2.8125 C 2.175781 -2.8125 2.304688 -2.789062 2.421875 -2.75 C 2.535156 -2.707031 2.632812 -2.644531 2.71875 -2.5625 C 2.8125 -2.476562 2.878906 -2.367188 2.921875 -2.234375 C 2.960938 -2.109375 2.984375 -1.957031 2.984375 -1.78125 L 2.984375 -0.453125 L 3.375 -0.453125 L 3.375 0 L 2.078125 0 Z M 2.078125 -0.453125 "/></g></g></g><g fill="#000000" fill-opacity="1"><g transform="translate(90.4362, 5.587149)"><g><path d="M 1.890625 -4.140625 L 2.765625 -4.140625 L 2.765625 -0.453125 L 3.171875 -0.453125 L 3.171875 0 L 2.265625 0 L 2.265625 -0.21875 C 2.179688 -0.132812 2.078125 -0.0664062 1.953125 -0.015625 C 1.835938 0.0351562 1.707031 0.0625 1.5625 0.0625 C 1.375 0.0625 1.195312 0.03125 1.03125 -0.03125 C 0.875 -0.101562 0.734375 -0.203125 0.609375 -0.328125 C 0.492188 -0.453125 0.40625 -0.601562 0.34375 -0.78125 C 0.28125 -0.957031 0.25 -1.164062 0.25 -1.40625 C 0.25 -1.613281 0.28125 -1.804688 0.34375 -1.984375 C 0.40625 -2.160156 0.492188 -2.3125 0.609375 -2.4375 C 0.722656 -2.5625 0.863281 -2.65625 1.03125 -2.71875 C 1.195312 -2.789062 1.382812 -2.828125 1.59375 -2.828125 C 1.71875 -2.828125 1.832031 -2.8125 1.9375 -2.78125 C 2.050781 -2.75 2.160156 -2.695312 2.265625 -2.625 L 2.265625 -3.6875 L 1.890625 -3.6875 Z M 1.625 -0.375 C 1.769531 -0.375 1.890625 -0.394531 1.984375 -0.4375 C 2.085938 -0.476562 2.179688 -0.539062 2.265625 -0.625 L 2.265625 -2.171875 C 2.179688 -2.242188 2.082031 -2.296875 1.96875 -2.328125 C 1.851562 -2.367188 1.734375 -2.390625 1.609375 -2.390625 C 1.492188 -2.390625 1.382812 -2.367188 1.28125 -2.328125 C 1.175781 -2.285156 1.082031 -2.21875 1 -2.125 C 0.925781 -2.039062 0.867188 -1.9375 0.828125 -1.8125 C 0.785156 -1.695312 0.765625 -1.5625 0.765625 -1.40625 C 0.765625 -1.238281 0.785156 -1.085938 0.828125 -0.953125 C 0.867188 -0.828125 0.925781 -0.71875 1 -0.625 C 1.070312 -0.539062 1.160156 -0.476562 1.265625 -0.4375 C 1.378906 -0.394531 1.5 -0.375 1.625 -0.375 Z M 1.625 -0.375 "/></g></g></g><g fill="#000000" fill-opacity="1"><g transform="translate(93.811641, 5.587149)"><g><path d="M 0.234375 -1.375 C 0.234375 -1.59375 0.265625 -1.789062 0.328125 -1.96875 C 0.398438 -2.15625 0.492188 -2.3125 0.609375 -2.4375 C 0.734375 -2.5625 0.878906 -2.660156 1.046875 -2.734375 C 1.222656 -2.804688 1.410156 -2.84375 1.609375 -2.84375 C 1.816406 -2.84375 2.003906 -2.804688 2.171875 -2.734375 C 2.335938 -2.660156 2.484375 -2.5625 2.609375 -2.4375 C 2.734375 -2.3125 2.828125 -2.160156 2.890625 -1.984375 C 2.960938 -1.804688 3 -1.609375 3 -1.390625 C 3 -1.171875 2.960938 -0.96875 2.890625 -0.78125 C 2.828125 -0.601562 2.734375 -0.453125 2.609375 -0.328125 C 2.484375 -0.203125 2.335938 -0.101562 2.171875 -0.03125 C 2.003906 0.0390625 1.816406 0.078125 1.609375 0.078125 C 1.398438 0.078125 1.210938 0.046875 1.046875 -0.015625 C 0.878906 -0.0859375 0.734375 -0.1875 0.609375 -0.3125 C 0.492188 -0.445312 0.398438 -0.601562 0.328125 -0.78125 C 0.265625 -0.957031 0.234375 -1.15625 0.234375 -1.375 Z M 0.75 -1.375 C 0.75 -1.21875 0.769531 -1.078125 0.8125 -0.953125 C 0.863281 -0.828125 0.925781 -0.71875 1 -0.625 C 1.082031 -0.53125 1.175781 -0.457031 1.28125 -0.40625 C 1.382812 -0.363281 1.492188 -0.34375 1.609375 -0.34375 C 1.734375 -0.34375 1.847656 -0.363281 1.953125 -0.40625 C 2.054688 -0.457031 2.144531 -0.523438 2.21875 -0.609375 C 2.300781 -0.703125 2.363281 -0.8125 2.40625 -0.9375 C 2.457031 -1.070312 2.484375 -1.21875 2.484375 -1.375 C 2.484375 -1.539062 2.457031 -1.6875 2.40625 -1.8125 C 2.363281 -1.945312 2.300781 -2.054688 2.21875 -2.140625 C 2.144531 -2.234375 2.054688 -2.300781 1.953125 -2.34375 C 1.847656 -2.382812 1.734375 -2.40625 1.609375 -2.40625 C 1.492188 -2.40625 1.382812 -2.382812 1.28125 -2.34375 C 1.175781 -2.300781 1.082031 -2.234375 1 -2.140625 C 0.925781 -2.054688 0.863281 -1.945312 0.8125 -1.8125 C 0.769531 -1.6875 0.75 -1.539062 0.75 -1.375 Z M 0.75 -1.375 "/></g></g></g><g fill="#000000" fill-opacity="1"><g transform="translate(97.072639, 5.587149)"><g><path d="M 0 0 Z M 0 0 "/></g></g></g><g fill="#000000" fill-opacity="1"><g transform="translate(98.265227, 5.587149)"><g><path d="M 0.734375 -1.3125 C 0.734375 -1.238281 0.738281 -1.164062 0.75 -1.09375 C 0.757812 -1.03125 0.773438 -0.972656 0.796875 -0.921875 C 0.867188 -0.742188 0.972656 -0.609375 1.109375 -0.515625 C 1.253906 -0.421875 1.421875 -0.375 1.609375 -0.375 C 1.753906 -0.375 1.894531 -0.394531 2.03125 -0.4375 C 2.164062 -0.476562 2.304688 -0.539062 2.453125 -0.625 L 2.65625 -0.296875 C 2.476562 -0.171875 2.296875 -0.078125 2.109375 -0.015625 C 1.921875 0.046875 1.726562 0.078125 1.53125 0.078125 C 1.351562 0.078125 1.179688 0.046875 1.015625 -0.015625 C 0.859375 -0.078125 0.722656 -0.171875 0.609375 -0.296875 C 0.492188 -0.421875 0.40625 -0.570312 0.34375 -0.75 C 0.28125 -0.9375 0.25 -1.148438 0.25 -1.390625 C 0.25 -1.585938 0.273438 -1.769531 0.328125 -1.9375 C 0.378906 -2.113281 0.457031 -2.265625 0.5625 -2.390625 C 0.675781 -2.523438 0.8125 -2.628906 0.96875 -2.703125 C 1.132812 -2.785156 1.328125 -2.828125 1.546875 -2.828125 C 1.753906 -2.828125 1.925781 -2.796875 2.0625 -2.734375 C 2.207031 -2.671875 2.320312 -2.585938 2.40625 -2.484375 C 2.488281 -2.378906 2.550781 -2.257812 2.59375 -2.125 C 2.644531 -2 2.679688 -1.863281 2.703125 -1.71875 C 2.710938 -1.65625 2.71875 -1.585938 2.71875 -1.515625 C 2.71875 -1.441406 2.71875 -1.375 2.71875 -1.3125 Z M 1.515625 -2.421875 C 1.398438 -2.421875 1.296875 -2.398438 1.203125 -2.359375 C 1.117188 -2.328125 1.046875 -2.28125 0.984375 -2.21875 C 0.921875 -2.15625 0.867188 -2.078125 0.828125 -1.984375 C 0.796875 -1.898438 0.773438 -1.804688 0.765625 -1.703125 L 2.1875 -1.703125 C 2.1875 -1.804688 2.171875 -1.898438 2.140625 -1.984375 C 2.117188 -2.066406 2.078125 -2.140625 2.015625 -2.203125 C 1.960938 -2.273438 1.894531 -2.328125 1.8125 -2.359375 C 1.726562 -2.398438 1.628906 -2.421875 1.515625 -2.421875 Z M 1.515625 -2.421875 "/></g></g></g><g fill="#000000" fill-opacity="1"><g transform="translate(101.393108, 5.587149)"><g><path d="M 0.25 -4.140625 L 1.140625 -4.140625 L 1.140625 -0.453125 L 1.5625 -0.453125 L 1.5625 0 L 0.25 0 L 0.25 -0.453125 L 0.640625 -0.453125 L 0.640625 -3.6875 L 0.25 -3.6875 Z M 0.25 -4.140625 "/></g></g></g><g fill="#000000" fill-opacity="1"><g transform="translate(103.166013, 5.587149)"><g><path d="M 0 0 Z M 0 0 "/></g></g></g><g fill="#000000" fill-opacity="1"><g transform="translate(104.358602, 5.587149)"><g><path d="M 1.171875 -2.765625 L 1.8125 -2.765625 L 1.8125 -2.359375 L 1.171875 -2.359375 L 1.171875 -0.453125 L 1.609375 -0.453125 L 1.609375 0 L 0.265625 0 L 0.265625 -0.453125 L 0.6875 -0.453125 L 0.6875 -2.359375 L 0.21875 -2.359375 L 0.21875 -2.765625 L 0.6875 -2.765625 L 0.6875 -3.1875 C 0.6875 -3.34375 0.707031 -3.476562 0.75 -3.59375 C 0.789062 -3.71875 0.847656 -3.820312 0.921875 -3.90625 C 1.003906 -3.988281 1.097656 -4.046875 1.203125 -4.078125 C 1.316406 -4.117188 1.441406 -4.140625 1.578125 -4.140625 C 1.671875 -4.140625 1.753906 -4.132812 1.828125 -4.125 C 1.910156 -4.113281 1.976562 -4.101562 2.03125 -4.09375 C 2.09375 -4.082031 2.144531 -4.066406 2.1875 -4.046875 C 2.238281 -4.023438 2.28125 -4.003906 2.3125 -3.984375 L 2.15625 -3.640625 C 2.101562 -3.671875 2.03125 -3.695312 1.9375 -3.71875 C 1.84375 -3.738281 1.75 -3.75 1.65625 -3.75 C 1.507812 -3.75 1.390625 -3.703125 1.296875 -3.609375 C 1.210938 -3.515625 1.171875 -3.378906 1.171875 -3.203125 Z M 1.171875 -2.765625 "/></g></g></g><g fill="#000000" fill-opacity="1"><g transform="translate(106.341826, 5.587149)"><g><path d="M 1.921875 -2.765625 L 2.8125 -2.765625 L 2.8125 -0.453125 L 3.125 -0.453125 L 3.125 0 L 2.3125 0 L 2.3125 -0.25 C 2.1875 -0.15625 2.050781 -0.0820312 1.90625 -0.03125 C 1.757812 0.0195312 1.601562 0.046875 1.4375 0.046875 C 1.300781 0.046875 1.175781 0.0234375 1.0625 -0.015625 C 0.945312 -0.0546875 0.847656 -0.117188 0.765625 -0.203125 C 0.691406 -0.285156 0.632812 -0.390625 0.59375 -0.515625 C 0.550781 -0.648438 0.53125 -0.804688 0.53125 -0.984375 L 0.53125 -2.296875 L 0.15625 -2.296875 L 0.15625 -2.765625 L 1.046875 -2.765625 L 1.046875 -1.046875 C 1.046875 -0.828125 1.09375 -0.664062 1.1875 -0.5625 C 1.289062 -0.457031 1.429688 -0.40625 1.609375 -0.40625 C 1.722656 -0.40625 1.835938 -0.421875 1.953125 -0.453125 C 2.078125 -0.492188 2.191406 -0.550781 2.296875 -0.625 L 2.296875 -2.296875 L 1.921875 -2.296875 Z M 1.921875 -2.765625 "/></g></g></g><g fill="#000000" fill-opacity="1"><g transform="translate(109.935558, 5.587149)"><g><path d="M 1.0625 -2.765625 L 1.71875 -2.765625 L 1.71875 -2.359375 L 1.0625 -2.359375 L 1.046875 -0.765625 C 1.046875 -0.660156 1.054688 -0.570312 1.078125 -0.5 C 1.109375 -0.4375 1.148438 -0.390625 1.203125 -0.359375 C 1.265625 -0.335938 1.328125 -0.328125 1.390625 -0.328125 C 1.460938 -0.328125 1.523438 -0.332031 1.578125 -0.34375 C 1.640625 -0.351562 1.707031 -0.375 1.78125 -0.40625 L 1.890625 -0.078125 C 1.804688 -0.0351562 1.71875 -0.00390625 1.625 0.015625 C 1.53125 0.046875 1.421875 0.0625 1.296875 0.0625 C 1.171875 0.0625 1.0625 0.046875 0.96875 0.015625 C 0.882812 -0.00390625 0.8125 -0.0507812 0.75 -0.125 C 0.6875 -0.195312 0.640625 -0.289062 0.609375 -0.40625 C 0.578125 -0.519531 0.5625 -0.664062 0.5625 -0.84375 L 0.578125 -2.359375 L 0.140625 -2.359375 L 0.140625 -2.765625 L 0.578125 -2.765625 L 0.578125 -3.421875 L 1.0625 -3.640625 Z M 1.0625 -2.765625 "/></g></g></g><g fill="#000000" fill-opacity="1"><g transform="translate(111.964029, 5.587149)"><g><path d="M 1.921875 -2.765625 L 2.8125 -2.765625 L 2.8125 -0.453125 L 3.125 -0.453125 L 3.125 0 L 2.3125 0 L 2.3125 -0.25 C 2.1875 -0.15625 2.050781 -0.0820312 1.90625 -0.03125 C 1.757812 0.0195312 1.601562 0.046875 1.4375 0.046875 C 1.300781 0.046875 1.175781 0.0234375 1.0625 -0.015625 C 0.945312 -0.0546875 0.847656 -0.117188 0.765625 -0.203125 C 0.691406 -0.285156 0.632812 -0.390625 0.59375 -0.515625 C 0.550781 -0.648438 0.53125 -0.804688 0.53125 -0.984375 L 0.53125 -2.296875 L 0.15625 -2.296875 L 0.15625 -2.765625 L 1.046875 -2.765625 L 1.046875 -1.046875 C 1.046875 -0.828125 1.09375 -0.664062 1.1875 -0.5625 C 1.289062 -0.457031 1.429688 -0.40625 1.609375 -0.40625 C 1.722656 -0.40625 1.835938 -0.421875 1.953125 -0.453125 C 2.078125 -0.492188 2.191406 -0.550781 2.296875 -0.625 L 2.296875 -2.296875 L 1.921875 -2.296875 Z M 1.921875 -2.765625 "/></g></g></g><g fill="#000000" fill-opacity="1"><g transform="translate(115.557762, 5.587149)"><g><path d="M 2.25 -2.171875 L 1.75 -2.171875 L 1.75 -2.34375 C 1.6875 -2.34375 1.625 -2.332031 1.5625 -2.3125 C 1.5 -2.289062 1.441406 -2.253906 1.390625 -2.203125 C 1.335938 -2.160156 1.289062 -2.101562 1.25 -2.03125 C 1.207031 -1.96875 1.179688 -1.890625 1.171875 -1.796875 L 1.171875 -0.453125 L 1.640625 -0.453125 L 1.640625 0 L 0.265625 0 L 0.265625 -0.453125 L 0.640625 -0.453125 L 0.65625 -2.296875 L 0.265625 -2.296875 L 0.265625 -2.765625 L 1.140625 -2.765625 L 1.140625 -2.375 C 1.179688 -2.4375 1.21875 -2.488281 1.25 -2.53125 C 1.289062 -2.582031 1.335938 -2.625 1.390625 -2.65625 C 1.441406 -2.695312 1.492188 -2.726562 1.546875 -2.75 C 1.609375 -2.769531 1.675781 -2.78125 1.75 -2.78125 C 1.832031 -2.78125 1.914062 -2.78125 2 -2.78125 C 2.082031 -2.78125 2.164062 -2.78125 2.25 -2.78125 Z M 2.25 -2.171875 "/></g></g></g><g fill="#000000" fill-opacity="1"><g transform="translate(118.113309, 5.587149)"><g><path d="M 0.234375 -1.375 C 0.234375 -1.59375 0.265625 -1.789062 0.328125 -1.96875 C 0.398438 -2.15625 0.492188 -2.3125 0.609375 -2.4375 C 0.734375 -2.5625 0.878906 -2.660156 1.046875 -2.734375 C 1.222656 -2.804688 1.410156 -2.84375 1.609375 -2.84375 C 1.816406 -2.84375 2.003906 -2.804688 2.171875 -2.734375 C 2.335938 -2.660156 2.484375 -2.5625 2.609375 -2.4375 C 2.734375 -2.3125 2.828125 -2.160156 2.890625 -1.984375 C 2.960938 -1.804688 3 -1.609375 3 -1.390625 C 3 -1.171875 2.960938 -0.96875 2.890625 -0.78125 C 2.828125 -0.601562 2.734375 -0.453125 2.609375 -0.328125 C 2.484375 -0.203125 2.335938 -0.101562 2.171875 -0.03125 C 2.003906 0.0390625 1.816406 0.078125 1.609375 0.078125 C 1.398438 0.078125 1.210938 0.046875 1.046875 -0.015625 C 0.878906 -0.0859375 0.734375 -0.1875 0.609375 -0.3125 C 0.492188 -0.445312 0.398438 -0.601562 0.328125 -0.78125 C 0.265625 -0.957031 0.234375 -1.15625 0.234375 -1.375 Z M 0.75 -1.375 C 0.75 -1.21875 0.769531 -1.078125 0.8125 -0.953125 C 0.863281 -0.828125 0.925781 -0.71875 1 -0.625 C 1.082031 -0.53125 1.175781 -0.457031 1.28125 -0.40625 C 1.382812 -0.363281 1.492188 -0.34375 1.609375 -0.34375 C 1.734375 -0.34375 1.847656 -0.363281 1.953125 -0.40625 C 2.054688 -0.457031 2.144531 -0.523438 2.21875 -0.609375 C 2.300781 -0.703125 2.363281 -0.8125 2.40625 -0.9375 C 2.457031 -1.070312 2.484375 -1.21875 2.484375 -1.375 C 2.484375 -1.539062 2.457031 -1.6875 2.40625 -1.8125 C 2.363281 -1.945312 2.300781 -2.054688 2.21875 -2.140625 C 2.144531 -2.234375 2.054688 -2.300781 1.953125 -2.34375 C 1.847656 -2.382812 1.734375 -2.40625 1.609375 -2.40625 C 1.492188 -2.40625 1.382812 -2.382812 1.28125 -2.34375 C 1.175781 -2.300781 1.082031 -2.234375 1 -2.140625 C 0.925781 -2.054688 0.863281 -1.945312 0.8125 -1.8125 C 0.769531 -1.6875 0.75 -1.539062 0.75 -1.375 Z M 0.75 -1.375 "/></g></g></g><g fill="#000000" fill-opacity="1"><g transform="translate(121.374296, 5.587149)"><g><path d="M 0 0 Z M 0 0 "/></g></g></g><g fill="#000000" fill-opacity="1"><g transform="translate(122.566885, 5.587149)"><g><path d="M 1.890625 -4.140625 L 2.765625 -4.140625 L 2.765625 -0.453125 L 3.171875 -0.453125 L 3.171875 0 L 2.265625 0 L 2.265625 -0.21875 C 2.179688 -0.132812 2.078125 -0.0664062 1.953125 -0.015625 C 1.835938 0.0351562 1.707031 0.0625 1.5625 0.0625 C 1.375 0.0625 1.195312 0.03125 1.03125 -0.03125 C 0.875 -0.101562 0.734375 -0.203125 0.609375 -0.328125 C 0.492188 -0.453125 0.40625 -0.601562 0.34375 -0.78125 C 0.28125 -0.957031 0.25 -1.164062 0.25 -1.40625 C 0.25 -1.613281 0.28125 -1.804688 0.34375 -1.984375 C 0.40625 -2.160156 0.492188 -2.3125 0.609375 -2.4375 C 0.722656 -2.5625 0.863281 -2.65625 1.03125 -2.71875 C 1.195312 -2.789062 1.382812 -2.828125 1.59375 -2.828125 C 1.71875 -2.828125 1.832031 -2.8125 1.9375 -2.78125 C 2.050781 -2.75 2.160156 -2.695312 2.265625 -2.625 L 2.265625 -3.6875 L 1.890625 -3.6875 Z M 1.625 -0.375 C 1.769531 -0.375 1.890625 -0.394531 1.984375 -0.4375 C 2.085938 -0.476562 2.179688 -0.539062 2.265625 -0.625 L 2.265625 -2.171875 C 2.179688 -2.242188 2.082031 -2.296875 1.96875 -2.328125 C 1.851562 -2.367188 1.734375 -2.390625 1.609375 -2.390625 C 1.492188 -2.390625 1.382812 -2.367188 1.28125 -2.328125 C 1.175781 -2.285156 1.082031 -2.21875 1 -2.125 C 0.925781 -2.039062 0.867188 -1.9375 0.828125 -1.8125 C 0.785156 -1.695312 0.765625 -1.5625 0.765625 -1.40625 C 0.765625 -1.238281 0.785156 -1.085938 0.828125 -0.953125 C 0.867188 -0.828125 0.925781 -0.71875 1 -0.625 C 1.070312 -0.539062 1.160156 -0.476562 1.265625 -0.4375 C 1.378906 -0.394531 1.5 -0.375 1.625 -0.375 Z M 1.625 -0.375 "/></g></g></g><g fill="#000000" fill-opacity="1"><g transform="translate(125.942336, 5.587149)"><g><path d="M 0.734375 -1.3125 C 0.734375 -1.238281 0.738281 -1.164062 0.75 -1.09375 C 0.757812 -1.03125 0.773438 -0.972656 0.796875 -0.921875 C 0.867188 -0.742188 0.972656 -0.609375 1.109375 -0.515625 C 1.253906 -0.421875 1.421875 -0.375 1.609375 -0.375 C 1.753906 -0.375 1.894531 -0.394531 2.03125 -0.4375 C 2.164062 -0.476562 2.304688 -0.539062 2.453125 -0.625 L 2.65625 -0.296875 C 2.476562 -0.171875 2.296875 -0.078125 2.109375 -0.015625 C 1.921875 0.046875 1.726562 0.078125 1.53125 0.078125 C 1.351562 0.078125 1.179688 0.046875 1.015625 -0.015625 C 0.859375 -0.078125 0.722656 -0.171875 0.609375 -0.296875 C 0.492188 -0.421875 0.40625 -0.570312 0.34375 -0.75 C 0.28125 -0.9375 0.25 -1.148438 0.25 -1.390625 C 0.25 -1.585938 0.273438 -1.769531 0.328125 -1.9375 C 0.378906 -2.113281 0.457031 -2.265625 0.5625 -2.390625 C 0.675781 -2.523438 0.8125 -2.628906 0.96875 -2.703125 C 1.132812 -2.785156 1.328125 -2.828125 1.546875 -2.828125 C 1.753906 -2.828125 1.925781 -2.796875 2.0625 -2.734375 C 2.207031 -2.671875 2.320312 -2.585938 2.40625 -2.484375 C 2.488281 -2.378906 2.550781 -2.257812 2.59375 -2.125 C 2.644531 -2 2.679688 -1.863281 2.703125 -1.71875 C 2.710938 -1.65625 2.71875 -1.585938 2.71875 -1.515625 C 2.71875 -1.441406 2.71875 -1.375 2.71875 -1.3125 Z M 1.515625 -2.421875 C 1.398438 -2.421875 1.296875 -2.398438 1.203125 -2.359375 C 1.117188 -2.328125 1.046875 -2.28125 0.984375 -2.21875 C 0.921875 -2.15625 0.867188 -2.078125 0.828125 -1.984375 C 0.796875 -1.898438 0.773438 -1.804688 0.765625 -1.703125 L 2.1875 -1.703125 C 2.1875 -1.804688 2.171875 -1.898438 2.140625 -1.984375 C 2.117188 -2.066406 2.078125 -2.140625 2.015625 -2.203125 C 1.960938 -2.273438 1.894531 -2.328125 1.8125 -2.359375 C 1.726562 -2.398438 1.628906 -2.421875 1.515625 -2.421875 Z M 1.515625 -2.421875 "/></g></g></g><g fill="#000000" fill-opacity="1"><g transform="translate(129.070227, 5.587149)"><g><path d="M 0.25 -4.140625 L 1.140625 -4.140625 L 1.140625 -0.453125 L 1.5625 -0.453125 L 1.5625 0 L 0.25 0 L 0.25 -0.453125 L 0.640625 -0.453125 L 0.640625 -3.6875 L 0.25 -3.6875 Z M 0.25 -4.140625 "/></g></g></g><g fill="#000000" fill-opacity="1"><g transform="translate(130.843133, 5.587149)"><g><path d="M 0 0 Z M 0 0 "/></g></g></g><g fill="#000000" fill-opacity="1"><g transform="translate(132.035721, 5.587149)"><g><path d="M 2.25 -2.171875 L 1.75 -2.171875 L 1.75 -2.34375 C 1.6875 -2.34375 1.625 -2.332031 1.5625 -2.3125 C 1.5 -2.289062 1.441406 -2.253906 1.390625 -2.203125 C 1.335938 -2.160156 1.289062 -2.101562 1.25 -2.03125 C 1.207031 -1.96875 1.179688 -1.890625 1.171875 -1.796875 L 1.171875 -0.453125 L 1.640625 -0.453125 L 1.640625 0 L 0.265625 0 L 0.265625 -0.453125 L 0.640625 -0.453125 L 0.65625 -2.296875 L 0.265625 -2.296875 L 0.265625 -2.765625 L 1.140625 -2.765625 L 1.140625 -2.375 C 1.179688 -2.4375 1.21875 -2.488281 1.25 -2.53125 C 1.289062 -2.582031 1.335938 -2.625 1.390625 -2.65625 C 1.441406 -2.695312 1.492188 -2.726562 1.546875 -2.75 C 1.609375 -2.769531 1.675781 -2.78125 1.75 -2.78125 C 1.832031 -2.78125 1.914062 -2.78125 2 -2.78125 C 2.082031 -2.78125 2.164062 -2.78125 2.25 -2.78125 Z M 2.25 -2.171875 "/></g></g></g><g fill="#000000" fill-opacity="1"><g transform="translate(134.591268, 5.587149)"><g><path d="M 0.734375 -1.3125 C 0.734375 -1.238281 0.738281 -1.164062 0.75 -1.09375 C 0.757812 -1.03125 0.773438 -0.972656 0.796875 -0.921875 C 0.867188 -0.742188 0.972656 -0.609375 1.109375 -0.515625 C 1.253906 -0.421875 1.421875 -0.375 1.609375 -0.375 C 1.753906 -0.375 1.894531 -0.394531 2.03125 -0.4375 C 2.164062 -0.476562 2.304688 -0.539062 2.453125 -0.625 L 2.65625 -0.296875 C 2.476562 -0.171875 2.296875 -0.078125 2.109375 -0.015625 C 1.921875 0.046875 1.726562 0.078125 1.53125 0.078125 C 1.351562 0.078125 1.179688 0.046875 1.015625 -0.015625 C 0.859375 -0.078125 0.722656 -0.171875 0.609375 -0.296875 C 0.492188 -0.421875 0.40625 -0.570312 0.34375 -0.75 C 0.28125 -0.9375 0.25 -1.148438 0.25 -1.390625 C 0.25 -1.585938 0.273438 -1.769531 0.328125 -1.9375 C 0.378906 -2.113281 0.457031 -2.265625 0.5625 -2.390625 C 0.675781 -2.523438 0.8125 -2.628906 0.96875 -2.703125 C 1.132812 -2.785156 1.328125 -2.828125 1.546875 -2.828125 C 1.753906 -2.828125 1.925781 -2.796875 2.0625 -2.734375 C 2.207031 -2.671875 2.320312 -2.585938 2.40625 -2.484375 C 2.488281 -2.378906 2.550781 -2.257812 2.59375 -2.125 C 2.644531 -2 2.679688 -1.863281 2.703125 -1.71875 C 2.710938 -1.65625 2.71875 -1.585938 2.71875 -1.515625 C 2.71875 -1.441406 2.71875 -1.375 2.71875 -1.3125 Z M 1.515625 -2.421875 C 1.398438 -2.421875 1.296875 -2.398438 1.203125 -2.359375 C 1.117188 -2.328125 1.046875 -2.28125 0.984375 -2.21875 C 0.921875 -2.15625 0.867188 -2.078125 0.828125 -1.984375 C 0.796875 -1.898438 0.773438 -1.804688 0.765625 -1.703125 L 2.1875 -1.703125 C 2.1875 -1.804688 2.171875 -1.898438 2.140625 -1.984375 C 2.117188 -2.066406 2.078125 -2.140625 2.015625 -2.203125 C 1.960938 -2.273438 1.894531 -2.328125 1.8125 -2.359375 C 1.726562 -2.398438 1.628906 -2.421875 1.515625 -2.421875 Z M 1.515625 -2.421875 "/></g></g></g><g fill="#000000" fill-opacity="1"><g transform="translate(137.719149, 5.587149)"><g><path d="M 0.25 -4.140625 L 1.140625 -4.140625 L 1.140625 -0.453125 L 1.5625 -0.453125 L 1.5625 0 L 0.25 0 L 0.25 -0.453125 L 0.640625 -0.453125 L 0.640625 -3.6875 L 0.25 -3.6875 Z M 0.25 -4.140625 "/></g></g></g><g fill="#000000" fill-opacity="1"><g transform="translate(139.492065, 5.587149)"><g><path d="M 1.890625 -0.25 C 1.785156 -0.15625 1.664062 -0.078125 1.53125 -0.015625 C 1.40625 0.046875 1.265625 0.078125 1.109375 0.078125 C 0.972656 0.078125 0.847656 0.0546875 0.734375 0.015625 C 0.617188 -0.0234375 0.519531 -0.0820312 0.4375 -0.15625 C 0.363281 -0.226562 0.300781 -0.3125 0.25 -0.40625 C 0.207031 -0.507812 0.1875 -0.617188 0.1875 -0.734375 C 0.1875 -0.847656 0.203125 -0.945312 0.234375 -1.03125 C 0.273438 -1.125 0.320312 -1.203125 0.375 -1.265625 C 0.4375 -1.335938 0.503906 -1.394531 0.578125 -1.4375 C 0.648438 -1.488281 0.726562 -1.523438 0.8125 -1.546875 C 0.90625 -1.578125 0.992188 -1.597656 1.078125 -1.609375 C 1.171875 -1.617188 1.253906 -1.625 1.328125 -1.625 C 1.453125 -1.625 1.554688 -1.617188 1.640625 -1.609375 C 1.734375 -1.609375 1.816406 -1.597656 1.890625 -1.578125 L 1.890625 -1.8125 C 1.890625 -1.90625 1.875 -1.988281 1.84375 -2.0625 C 1.820312 -2.132812 1.785156 -2.191406 1.734375 -2.234375 C 1.679688 -2.285156 1.617188 -2.320312 1.546875 -2.34375 C 1.472656 -2.375 1.394531 -2.390625 1.3125 -2.390625 C 1.21875 -2.390625 1.132812 -2.378906 1.0625 -2.359375 C 0.988281 -2.347656 0.914062 -2.332031 0.84375 -2.3125 C 0.78125 -2.300781 0.71875 -2.28125 0.65625 -2.25 C 0.601562 -2.226562 0.5625 -2.207031 0.53125 -2.1875 L 0.359375 -2.53125 C 0.421875 -2.570312 0.488281 -2.609375 0.5625 -2.640625 C 0.644531 -2.679688 0.726562 -2.710938 0.8125 -2.734375 C 0.90625 -2.765625 0.992188 -2.785156 1.078125 -2.796875 C 1.171875 -2.804688 1.265625 -2.8125 1.359375 -2.8125 C 1.515625 -2.8125 1.65625 -2.789062 1.78125 -2.75 C 1.90625 -2.71875 2.007812 -2.660156 2.09375 -2.578125 C 2.1875 -2.503906 2.257812 -2.40625 2.3125 -2.28125 C 2.363281 -2.15625 2.390625 -2.007812 2.390625 -1.84375 L 2.390625 -0.453125 L 2.6875 -0.453125 L 2.6875 0 L 1.890625 0 Z M 1.21875 -0.34375 C 1.28125 -0.34375 1.34375 -0.347656 1.40625 -0.359375 C 1.476562 -0.378906 1.539062 -0.398438 1.59375 -0.421875 C 1.65625 -0.453125 1.710938 -0.484375 1.765625 -0.515625 C 1.816406 -0.554688 1.859375 -0.597656 1.890625 -0.640625 L 1.890625 -1.265625 L 1.3125 -1.265625 C 1.21875 -1.265625 1.128906 -1.253906 1.046875 -1.234375 C 0.972656 -1.210938 0.90625 -1.179688 0.84375 -1.140625 C 0.789062 -1.097656 0.75 -1.046875 0.71875 -0.984375 C 0.6875 -0.921875 0.671875 -0.851562 0.671875 -0.78125 C 0.671875 -0.707031 0.679688 -0.640625 0.703125 -0.578125 C 0.734375 -0.523438 0.769531 -0.476562 0.8125 -0.4375 C 0.863281 -0.40625 0.921875 -0.378906 0.984375 -0.359375 C 1.054688 -0.347656 1.132812 -0.34375 1.21875 -0.34375 Z M 1.21875 -0.34375 "/></g></g></g><g fill="#000000" fill-opacity="1"><g transform="translate(142.473536, 5.587149)"><g><path d="M 1.0625 -2.765625 L 1.71875 -2.765625 L 1.71875 -2.359375 L 1.0625 -2.359375 L 1.046875 -0.765625 C 1.046875 -0.660156 1.054688 -0.570312 1.078125 -0.5 C 1.109375 -0.4375 1.148438 -0.390625 1.203125 -0.359375 C 1.265625 -0.335938 1.328125 -0.328125 1.390625 -0.328125 C 1.460938 -0.328125 1.523438 -0.332031 1.578125 -0.34375 C 1.640625 -0.351562 1.707031 -0.375 1.78125 -0.40625 L 1.890625 -0.078125 C 1.804688 -0.0351562 1.71875 -0.00390625 1.625 0.015625 C 1.53125 0.046875 1.421875 0.0625 1.296875 0.0625 C 1.171875 0.0625 1.0625 0.046875 0.96875 0.015625 C 0.882812 -0.00390625 0.8125 -0.0507812 0.75 -0.125 C 0.6875 -0.195312 0.640625 -0.289062 0.609375 -0.40625 C 0.578125 -0.519531 0.5625 -0.664062 0.5625 -0.84375 L 0.578125 -2.359375 L 0.140625 -2.359375 L 0.140625 -2.765625 L 0.578125 -2.765625 L 0.578125 -3.421875 L 1.0625 -3.640625 Z M 1.0625 -2.765625 "/></g></g></g><g fill="#000000" fill-opacity="1"><g transform="translate(144.502007, 5.587149)"><g><path d="M 0.234375 -1.375 C 0.234375 -1.59375 0.265625 -1.789062 0.328125 -1.96875 C 0.398438 -2.15625 0.492188 -2.3125 0.609375 -2.4375 C 0.734375 -2.5625 0.878906 -2.660156 1.046875 -2.734375 C 1.222656 -2.804688 1.410156 -2.84375 1.609375 -2.84375 C 1.816406 -2.84375 2.003906 -2.804688 2.171875 -2.734375 C 2.335938 -2.660156 2.484375 -2.5625 2.609375 -2.4375 C 2.734375 -2.3125 2.828125 -2.160156 2.890625 -1.984375 C 2.960938 -1.804688 3 -1.609375 3 -1.390625 C 3 -1.171875 2.960938 -0.96875 2.890625 -0.78125 C 2.828125 -0.601562 2.734375 -0.453125 2.609375 -0.328125 C 2.484375 -0.203125 2.335938 -0.101562 2.171875 -0.03125 C 2.003906 0.0390625 1.816406 0.078125 1.609375 0.078125 C 1.398438 0.078125 1.210938 0.046875 1.046875 -0.015625 C 0.878906 -0.0859375 0.734375 -0.1875 0.609375 -0.3125 C 0.492188 -0.445312 0.398438 -0.601562 0.328125 -0.78125 C 0.265625 -0.957031 0.234375 -1.15625 0.234375 -1.375 Z M 0.75 -1.375 C 0.75 -1.21875 0.769531 -1.078125 0.8125 -0.953125 C 0.863281 -0.828125 0.925781 -0.71875 1 -0.625 C 1.082031 -0.53125 1.175781 -0.457031 1.28125 -0.40625 C 1.382812 -0.363281 1.492188 -0.34375 1.609375 -0.34375 C 1.734375 -0.34375 1.847656 -0.363281 1.953125 -0.40625 C 2.054688 -0.457031 2.144531 -0.523438 2.21875 -0.609375 C 2.300781 -0.703125 2.363281 -0.8125 2.40625 -0.9375 C 2.457031 -1.070312 2.484375 -1.21875 2.484375 -1.375 C 2.484375 -1.539062 2.457031 -1.6875 2.40625 -1.8125 C 2.363281 -1.945312 2.300781 -2.054688 2.21875 -2.140625 C 2.144531 -2.234375 2.054688 -2.300781 1.953125 -2.34375 C 1.847656 -2.382812 1.734375 -2.40625 1.609375 -2.40625 C 1.492188 -2.40625 1.382812 -2.382812 1.28125 -2.34375 C 1.175781 -2.300781 1.082031 -2.234375 1 -2.140625 C 0.925781 -2.054688 0.863281 -1.945312 0.8125 -1.8125 C 0.769531 -1.6875 0.75 -1.539062 0.75 -1.375 Z M 0.75 -1.375 "/></g></g></g><g fill="#000000" fill-opacity="1"><g transform="translate(147.762984, 5.587149)"><g><path d="M 0 0 Z M 0 0 "/></g></g></g><g clip-path="url(#76493b8112)"><g fill="#000000" fill-opacity="1"><g transform="translate(148.955572, 5.587149)"><g><path d="M 0.671875 -2.8125 L 0.21875 -2.8125 L 0.109375 -4.203125 L 0.71875 -4.203125 Z M 1.5625 -2.8125 L 1.109375 -2.8125 L 1.078125 -4.203125 L 1.6875 -4.203125 Z M 1.5625 -2.8125 "/></g></g></g></g></g></g></g></g></g></g></svg>