<?xml version="1.0" encoding="UTF-8" standalone="no"?><svg xmlns="http://www.w3.org/2000/svg" xmlns:xlink="http://www.w3.org/1999/xlink" contentScriptType="application/ecmascript" contentStyleType="text/css" height="1617px" preserveAspectRatio="none" style="width:831px;height:1617px;" version="1.1" viewBox="0 0 831 1617" width="831px" zoomAndPan="magnify"><defs/><g><text fill="#000000" font-family="sans-serif" font-size="10" lengthAdjust="spacingAndGlyphs" textLength="196" x="329" y="9.2822">RACCORD - Diagrama de Casos de Uso</text><text fill="#000000" font-family="sans-serif" font-size="10" lengthAdjust="spacingAndGlyphs" textLength="29" x="412.5" y="20.9229">Onset</text><!--MD5=[7cb87ed3a4f4d0179bd434c71a59de25]
cluster Sistema RACCORD--><rect fill="#FFFFFF" height="1521" style="stroke: #000000; stroke-width: 1.5;" width="738" x="82" y="47.2813"/><text fill="#000000" font-family="sans-serif" font-size="10" font-weight="bold" lengthAdjust="spacingAndGlyphs" textLength="104" x="399" y="58.5635">Sistema RACCORD</text><ellipse cx="176.8969" cy="97.1661" fill="#FFFFFF" rx="76.8969" ry="19.3849" style="stroke: #000000; stroke-width: 1.5;"/><text fill="#000000" font-family="sans-serif" font-size="10" lengthAdjust="spacingAndGlyphs" textLength="105" x="124.3969" y="93.7759">Módulo de Gestión de</text><text fill="#000000" font-family="sans-serif" font-size="10" lengthAdjust="spacingAndGlyphs" textLength="103" x="125.3969" y="105.4166">Usuarios y Seguridad</text><ellipse cx="176.8" cy="420.401" fill="#FFFFFF" rx="60.8" ry="18.1197" style="stroke: #000000; stroke-width: 1.5;"/><text fill="#000000" font-family="sans-serif" font-size="10" lengthAdjust="spacingAndGlyphs" textLength="50" x="151.8" y="414.9093">Módulo de</text><text fill="#000000" font-family="sans-serif" font-size="10" lengthAdjust="spacingAndGlyphs" textLength="89" x="132.3" y="426.55">Continuidad Visual</text><ellipse cx="177.0878" cy="810.3216" fill="#FFFFFF" rx="73.0878" ry="18.5403" style="stroke: #000000; stroke-width: 1.5;"/><text fill="#000000" font-family="sans-serif" font-size="10" lengthAdjust="spacingAndGlyphs" textLength="105" x="124.5878" y="808.1667">Módulo de Planeación</text><text fill="#000000" font-family="sans-serif" font-size="10" lengthAdjust="spacingAndGlyphs" textLength="77" x="138.5878" y="819.8073">y Comunicación</text><ellipse cx="176.7694" cy="1132.4837" fill="#FFFFFF" rx="61.7694" ry="18.2025" style="stroke: #000000; stroke-width: 1.5;"/><text fill="#000000" font-family="sans-serif" font-size="10" lengthAdjust="spacingAndGlyphs" textLength="90" x="131.7694" y="1130.8462">Módulo de Gestión</text><text fill="#000000" font-family="sans-serif" font-size="10" lengthAdjust="spacingAndGlyphs" textLength="54" x="149.7694" y="1142.4869">de Guiones</text><ellipse cx="451.3387" cy="164.349" fill="#FFFFFF" rx="68.3387" ry="16.0677" style="stroke: #000000; stroke-width: 1.5;"/><text fill="#000000" font-family="sans-serif" font-size="10" lengthAdjust="spacingAndGlyphs" textLength="117" x="392.8387" y="166.6693">CU001 - Validar Usuario</text><ellipse cx="724.8083" cy="218.4429" fill="#FFFFFF" rx="78.8083" ry="18.1617" style="stroke: #000000; stroke-width: 1.5;"/><text fill="#000000" font-family="sans-serif" font-size="10" lengthAdjust="spacingAndGlyphs" textLength="140" x="654.8083" y="220.7632">Ingresar correo y contraseña</text><ellipse cx="724.7532" cy="151.3319" fill="#FFFFFF" rx="55.7532" ry="13.5506" style="stroke: #000000; stroke-width: 1.5;"/><text fill="#000000" font-family="sans-serif" font-size="10" lengthAdjust="spacingAndGlyphs" textLength="88" x="680.7532" y="153.6522">Recibir código 2FA</text><ellipse cx="176.9028" cy="167.4618" fill="#FFFFFF" rx="63.9028" ry="15.1806" style="stroke: #000000; stroke-width: 1.5;"/><text fill="#000000" font-family="sans-serif" font-size="10" lengthAdjust="spacingAndGlyphs" textLength="107" x="123.4028" y="169.7821">Recuperar contraseña</text><ellipse cx="451.5996" cy="292.2012" fill="#FFFFFF" rx="87.5996" ry="19.9199" style="stroke: #000000; stroke-width: 1.5;"/><text fill="#000000" font-family="sans-serif" font-size="10" lengthAdjust="spacingAndGlyphs" textLength="149" x="377.0996" y="292.3247">CU004 - Gestionar Fotografías</text><text fill="#000000" font-family="sans-serif" font-size="10" lengthAdjust="spacingAndGlyphs" textLength="73" x="415.0996" y="303.9653">de Continuidad</text><ellipse cx="724.8634" cy="285.3539" fill="#FFFFFF" rx="50.8634" ry="12.5727" style="stroke: #000000; stroke-width: 1.5;"/><text fill="#000000" font-family="sans-serif" font-size="10" lengthAdjust="spacingAndGlyphs" textLength="76" x="686.8634" y="287.6742">Subir fotografía</text><ellipse cx="725.2059" cy="347.4224" fill="#FFFFFF" rx="58.7059" ry="14.1412" style="stroke: #000000; stroke-width: 1.5;"/><text fill="#000000" font-family="sans-serif" font-size="10" lengthAdjust="spacingAndGlyphs" textLength="95" x="677.7059" y="349.7427">Rellenar metadatos</text><ellipse cx="177.0901" cy="231.4993" fill="#FFFFFF" rx="56.5901" ry="13.718" style="stroke: #000000; stroke-width: 1.5;"/><text fill="#000000" font-family="sans-serif" font-size="10" lengthAdjust="spacingAndGlyphs" textLength="90" x="132.0901" y="233.8196">Eliminar fotografía</text><ellipse cx="176.9037" cy="292.462" fill="#FFFFFF" rx="48.9037" ry="12.1807" style="stroke: #000000; stroke-width: 1.5;"/><text fill="#000000" font-family="sans-serif" font-size="10" lengthAdjust="spacingAndGlyphs" textLength="71" x="141.4037" y="294.7823">Subida masiva</text><ellipse cx="451.2689" cy="409.435" fill="#FFFFFF" rx="83.7689" ry="19.1538" style="stroke: #000000; stroke-width: 1.5;"/><text fill="#000000" font-family="sans-serif" font-size="10" lengthAdjust="spacingAndGlyphs" textLength="135" x="383.7689" y="408.7046">CU005 - Buscar Fotografías</text><text fill="#000000" font-family="sans-serif" font-size="10" lengthAdjust="spacingAndGlyphs" textLength="73" x="414.7689" y="420.3453">de Continuidad</text><ellipse cx="725.0194" cy="409.2851" fill="#FFFFFF" rx="45.5194" ry="11.5039" style="stroke: #000000; stroke-width: 1.5;"/><text fill="#000000" font-family="sans-serif" font-size="10" lengthAdjust="spacingAndGlyphs" textLength="62" x="694.0194" y="411.6054">Aplicar filtros</text><ellipse cx="177.0901" cy="353.4993" fill="#FFFFFF" rx="56.5901" ry="13.718" style="stroke: #000000; stroke-width: 1.5;"/><text fill="#000000" font-family="sans-serif" font-size="10" lengthAdjust="spacingAndGlyphs" textLength="90" x="132.0901" y="355.8196">Guardar búsqueda</text><ellipse cx="451.7006" cy="488.3843" fill="#FFFFFF" rx="77.7006" ry="19.103" style="stroke: #000000; stroke-width: 1.5;"/><text fill="#000000" font-family="sans-serif" font-size="10" lengthAdjust="spacingAndGlyphs" textLength="98" x="402.7006" y="484.3703">CU006 - Visualizar y</text><text fill="#000000" font-family="sans-serif" font-size="10" lengthAdjust="spacingAndGlyphs" textLength="108" x="397.7006" y="496.0109">Comparar Fotografías</text><ellipse cx="724.9385" cy="478.069" fill="#FFFFFF" rx="44.4385" ry="11.2877" style="stroke: #000000; stroke-width: 1.5;"/><text fill="#000000" font-family="sans-serif" font-size="10" lengthAdjust="spacingAndGlyphs" textLength="59" x="695.4385" y="480.3893">Hacer zoom</text><ellipse cx="724.9989" cy="537.081" fill="#FFFFFF" rx="46.9989" ry="11.7998" style="stroke: #000000; stroke-width: 1.5;"/><text fill="#000000" font-family="sans-serif" font-size="10" lengthAdjust="spacingAndGlyphs" textLength="66" x="691.9989" y="539.4013">Rotar imagen</text><ellipse cx="177.061" cy="552.0935" fill="#FFFFFF" rx="59.561" ry="14.3122" style="stroke: #000000; stroke-width: 1.5;"/><text fill="#000000" font-family="sans-serif" font-size="10" lengthAdjust="spacingAndGlyphs" textLength="97" x="128.561" y="554.4138">Comparar 2-4 fotos</text><ellipse cx="176.9208" cy="488.2654" fill="#FFFFFF" rx="60.4208" ry="14.4842" style="stroke: #000000; stroke-width: 1.5;"/><text fill="#000000" font-family="sans-serif" font-size="10" lengthAdjust="spacingAndGlyphs" textLength="99" x="127.4208" y="490.5857">Navegar entre fotos</text><ellipse cx="451.7095" cy="614.4748" fill="#FFFFFF" rx="64.2095" ry="19.1936" style="stroke: #000000; stroke-width: 1.5;"/><text fill="#000000" font-family="sans-serif" font-size="10" lengthAdjust="spacingAndGlyphs" textLength="82" x="410.7095" y="610.5915">CU007 - Analizar</text><text fill="#000000" font-family="sans-serif" font-size="10" lengthAdjust="spacingAndGlyphs" textLength="88" x="407.7095" y="622.2321">Fotografías con IA</text><ellipse cx="724.8713" cy="614.2555" fill="#FFFFFF" rx="52.8713" ry="12.9743" style="stroke: #000000; stroke-width: 1.5;"/><text fill="#000000" font-family="sans-serif" font-size="10" lengthAdjust="spacingAndGlyphs" textLength="81" x="684.3713" y="616.5758">Detectar objetos</text><ellipse cx="176.9902" cy="678.4793" fill="#FFFFFF" rx="71.4902" ry="16.698" style="stroke: #000000; stroke-width: 1.5;"/><text fill="#000000" font-family="sans-serif" font-size="10" lengthAdjust="spacingAndGlyphs" textLength="124" x="114.9902" y="680.7996">Comparar inconsistencias</text><ellipse cx="177.1348" cy="614.3082" fill="#FFFFFF" rx="48.1348" ry="12.027" style="stroke: #000000; stroke-width: 1.5;"/><text fill="#000000" font-family="sans-serif" font-size="10" lengthAdjust="spacingAndGlyphs" textLength="69" x="142.6348" y="616.6285">Validar alertas</text><ellipse cx="451.7403" cy="787.1293" fill="#FFFFFF" rx="82.2403" ry="18.8481" style="stroke: #000000; stroke-width: 1.5;"/><text fill="#000000" font-family="sans-serif" font-size="10" lengthAdjust="spacingAndGlyphs" textLength="131" x="386.2403" y="786.3508">CU009 - Notificar Cambios</text><text fill="#000000" font-family="sans-serif" font-size="10" lengthAdjust="spacingAndGlyphs" textLength="67" x="418.2403" y="797.9914">de Calendario</text><ellipse cx="724.9449" cy="787.1702" fill="#FFFFFF" rx="67.4449" ry="15.889" style="stroke: #000000; stroke-width: 1.5;"/><text fill="#000000" font-family="sans-serif" font-size="10" lengthAdjust="spacingAndGlyphs" textLength="115" x="667.4449" y="789.4906">Recibir notificación push</text><ellipse cx="176.9221" cy="743.1657" fill="#FFFFFF" rx="54.9221" ry="13.3844" style="stroke: #000000; stroke-width: 1.5;"/><text fill="#000000" font-family="sans-serif" font-size="10" lengthAdjust="spacingAndGlyphs" textLength="86" x="133.9221" y="745.486">Confirmar lectura</text><ellipse cx="451.6146" cy="1299.207" fill="#FFFFFF" rx="79.6146" ry="18.9257" style="stroke: #000000; stroke-width: 1.5;"/><text fill="#000000" font-family="sans-serif" font-size="10" lengthAdjust="spacingAndGlyphs" textLength="112" x="395.6146" y="1296.4791">CU011 - Comunicación</text><text fill="#000000" font-family="sans-serif" font-size="10" lengthAdjust="spacingAndGlyphs" textLength="96" x="403.6146" y="1308.1197">Interna por Canales</text><ellipse cx="724.9674" cy="1299.2747" fill="#FFFFFF" rx="50.4674" ry="12.4935" style="stroke: #000000; stroke-width: 1.5;"/><text fill="#000000" font-family="sans-serif" font-size="10" lengthAdjust="spacingAndGlyphs" textLength="75" x="687.4674" y="1301.595">Enviar mensaje</text><ellipse cx="177.0627" cy="1267.0938" fill="#FFFFFF" rx="52.0627" ry="12.8125" style="stroke: #000000; stroke-width: 1.5;"/><text fill="#000000" font-family="sans-serif" font-size="10" lengthAdjust="spacingAndGlyphs" textLength="79" x="137.5627" y="1269.4141">Adjuntar archivo</text><ellipse cx="176.7532" cy="1329.3319" fill="#FFFFFF" rx="55.7532" ry="13.5506" style="stroke: #000000; stroke-width: 1.5;"/><text fill="#000000" font-family="sans-serif" font-size="10" lengthAdjust="spacingAndGlyphs" textLength="88" x="132.7532" y="1331.6522">Buscar en historial</text><ellipse cx="176.9992" cy="1394.0811" fill="#FFFFFF" rx="66.9992" ry="15.7998" style="stroke: #000000; stroke-width: 1.5;"/><text fill="#000000" font-family="sans-serif" font-size="10" lengthAdjust="spacingAndGlyphs" textLength="114" x="119.9992" y="1396.4014">Usar diferentes canales</text><ellipse cx="451.3293" cy="886.4833" fill="#FFFFFF" rx="66.3293" ry="19.202" style="stroke: #000000; stroke-width: 1.5;"/><text fill="#000000" font-family="sans-serif" font-size="10" lengthAdjust="spacingAndGlyphs" textLength="91" x="405.8293" y="883.3544">CU013 - Gestionar</text><text fill="#000000" font-family="sans-serif" font-size="10" lengthAdjust="spacingAndGlyphs" textLength="85" x="408.8293" y="894.995">Notas Personales</text><ellipse cx="176.9325" cy="994.1678" fill="#FFFFFF" rx="57.4325" ry="13.8865" style="stroke: #000000; stroke-width: 1.5;"/><text fill="#000000" font-family="sans-serif" font-size="10" lengthAdjust="spacingAndGlyphs" textLength="92" x="130.9325" y="996.4881">Crear nota privada</text><ellipse cx="177.1838" cy="875.5124" fill="#FFFFFF" rx="41.1838" ry="11.2312" style="stroke: #000000; stroke-width: 1.5;"/><text fill="#000000" font-family="sans-serif" font-size="10" lengthAdjust="spacingAndGlyphs" textLength="54" x="150.1838" y="877.8327">Editar nota</text><ellipse cx="176.7539" cy="933.432" fill="#FFFFFF" rx="46.2539" ry="11.6508" style="stroke: #000000; stroke-width: 1.5;"/><text fill="#000000" font-family="sans-serif" font-size="10" lengthAdjust="spacingAndGlyphs" textLength="64" x="144.7539" y="935.7523">Eliminar nota</text><ellipse cx="451.7463" cy="1186.3305" fill="#FFFFFF" rx="80.7463" ry="18.5493" style="stroke: #000000; stroke-width: 1.5;"/><text fill="#000000" font-family="sans-serif" font-size="10" lengthAdjust="spacingAndGlyphs" textLength="120" x="391.7463" y="1184.5828">CU015 - Visualizar Guion</text><text fill="#000000" font-family="sans-serif" font-size="10" lengthAdjust="spacingAndGlyphs" textLength="79" x="412.2463" y="1196.2234">con Anotaciones</text><ellipse cx="725.0734" cy="1186.1959" fill="#FFFFFF" rx="50.0734" ry="12.4147" style="stroke: #000000; stroke-width: 1.5;"/><text fill="#000000" font-family="sans-serif" font-size="10" lengthAdjust="spacingAndGlyphs" textLength="74" x="688.0734" y="1188.5162">Visualizar guion</text><ellipse cx="177.0862" cy="1202.2985" fill="#FFFFFF" rx="70.5862" ry="16.5172" style="stroke: #000000; stroke-width: 1.5;"/><text fill="#000000" font-family="sans-serif" font-size="10" lengthAdjust="spacingAndGlyphs" textLength="122" x="116.0862" y="1204.6188">Crear anotación personal</text><ellipse cx="451.2924" cy="1082.2001" fill="#FFFFFF" rx="69.2924" ry="19.4188" style="stroke: #000000; stroke-width: 1.5;"/><text fill="#000000" font-family="sans-serif" font-size="10" lengthAdjust="spacingAndGlyphs" textLength="94" x="404.2924" y="1078.7617">CU016 - Comparar</text><text fill="#000000" font-family="sans-serif" font-size="10" lengthAdjust="spacingAndGlyphs" textLength="93" x="404.7924" y="1090.4023">Versiones de Guion</text><ellipse cx="724.9208" cy="1082.2654" fill="#FFFFFF" rx="60.4208" ry="14.4842" style="stroke: #000000; stroke-width: 1.5;"/><text fill="#000000" font-family="sans-serif" font-size="10" lengthAdjust="spacingAndGlyphs" textLength="99" x="675.4208" y="1084.5857">Ver diferencias (diff)</text><ellipse cx="176.9255" cy="1061.1663" fill="#FFFFFF" rx="77.4255" ry="17.8851" style="stroke: #000000; stroke-width: 1.5;"/><text fill="#000000" font-family="sans-serif" font-size="10" lengthAdjust="spacingAndGlyphs" textLength="137" x="108.4255" y="1063.4867">Generar reporte de cambios</text><ellipse cx="451.3569" cy="1463.2039" fill="#FFFFFF" rx="77.8569" ry="18.4227" style="stroke: #000000; stroke-width: 1.5;"/><text fill="#000000" font-family="sans-serif" font-size="10" lengthAdjust="spacingAndGlyphs" textLength="113" x="394.8569" y="1461.2275">CU017 - Vincular Guion</text><text fill="#000000" font-family="sans-serif" font-size="10" lengthAdjust="spacingAndGlyphs" textLength="78" x="412.3569" y="1472.8681">con Continuidad</text><ellipse cx="176.9655" cy="1534.0744" fill="#FFFFFF" rx="76.9655" ry="17.7931" style="stroke: #000000; stroke-width: 1.5;"/><text fill="#000000" font-family="sans-serif" font-size="10" lengthAdjust="spacingAndGlyphs" textLength="136" x="108.9655" y="1536.3947">Ver continuidad desde guion</text><ellipse cx="176.8083" cy="1463.4429" fill="#FFFFFF" rx="78.8083" ry="18.1617" style="stroke: #000000; stroke-width: 1.5;"/><text fill="#000000" font-family="sans-serif" font-size="10" lengthAdjust="spacingAndGlyphs" textLength="140" x="106.8083" y="1465.7632">Acceder a escena desde foto</text><!--MD5=[44ed4688c6e2be56f55561cf9b06ad7a]
entity Onset--><ellipse cx="20.5" cy="675.7813" fill="#FEFECE" rx="8" ry="8" style="stroke: #000000; stroke-width: 1.5;"/><path d="M20.5,683.7813 L20.5,710.7813 M7.5,691.7813 L33.5,691.7813 M20.5,710.7813 L7.5,725.7813 M20.5,710.7813 L33.5,725.7813 " fill="none" style="stroke: #000000; stroke-width: 1.5;"/><text fill="#000000" font-family="sans-serif" font-size="10" lengthAdjust="spacingAndGlyphs" textLength="29" x="6" y="737.5635">Onset</text><!--MD5=[1541ea181bebbf28c6d6687332da8253]
link Onset to M1--><path d="M22.64,666.1713 C26.64,546.5413 41.53,176.3412 74,134.2813 C83.61,121.8312 97.8,113.5612 112.57,108.0812 " fill="none" id="Onset-M1" style="stroke: #000000; stroke-width: 1.0;"/><!--MD5=[7dd15da8b901c5e33011526bf90f2aef]
link Onset to M2--><path d="M24.99,665.8313 C31.41,604.6813 46.96,487.0812 74,456.2813 C86.39,442.1713 104.66,433.5912 122.33,428.3712 " fill="none" id="Onset-M2" style="stroke: #000000; stroke-width: 1.0;"/><!--MD5=[ad0ad9f864fad3277f94eb6e35e208d2]
link Onset to M3--><path d="M35.07,728.6513 C44.28,743.7513 57.73,762.2513 74,774.2813 C88.27,784.8313 105.9,792.5013 122.47,797.9713 " fill="none" id="Onset-M3" style="stroke: #000000; stroke-width: 1.0;"/><!--MD5=[f8d7f566f7c0cb0ac7954775e3027fd6]
link Onset to M4--><path d="M21.66,740.5113 C22.78,827.7713 30.06,1042.1813 74,1096.2813 C85.66,1110.6413 103.45,1119.2813 120.92,1124.4713 " fill="none" id="Onset-M4" style="stroke: #000000; stroke-width: 1.0;"/><!--MD5=[6ee477370549f3cd51ea77f91d947e33]
link M1 to CU001--><path d="M232.82,110.7613 C282.86,123.0612 356.06,141.0612 403.49,152.7213 " fill="none" id="M1-CU001" style="stroke: #000000; stroke-width: 1.0;"/><!--MD5=[e0a0465a4e9791bd03bb4888a7e0e59d]
link M2 to CU004--><path d="M215.09,406.2013 C228.52,400.3412 243.45,392.8812 256,384.2813 C271.3,373.8013 270.36,365.2413 286,355.2813 C319.53,333.9213 361.43,318.0113 394.55,307.5213 " fill="none" id="M2-CU004" style="stroke: #000000; stroke-width: 1.0;"/><!--MD5=[669bc8103bedb76dee342c48f1a19edc]
link M2 to CU005--><path d="M237.46,417.8812 C275.91,416.3312 326.47,414.2913 368.68,412.5812 " fill="none" id="M2-CU005" style="stroke: #000000; stroke-width: 1.0;"/><!--MD5=[70ba8fec04be7672640a9e3bb074ba7e]
link M2 to CU006--><path d="M224.23,431.8212 C271.91,443.7113 346.21,462.2513 396.55,474.8212 " fill="none" id="M2-CU006" style="stroke: #000000; stroke-width: 1.0;"/><!--MD5=[d076ab78bca3a7f2a341eb8f515f7139]
link M2 to CU007--><path d="M217.47,433.9913 C230.54,439.6613 244.63,447.0912 256,456.2813 C273.28,470.2513 270.12,480.7313 286,496.2813 C309.11,518.9012 383.98,569.9613 424.27,596.9013 " fill="none" id="M2-CU007" style="stroke: #000000; stroke-width: 1.0;"/><!--MD5=[753023e2e6b33e7ba9265ec50b6f8d2b]
link M3 to CU009--><path d="M247.93,805.8313 C274.85,803.9913 305.87,801.7213 334,799.2813 C347.88,798.0813 362.67,796.6613 376.89,795.2313 " fill="none" id="M3-CU009" style="stroke: #000000; stroke-width: 1.0;"/><!--MD5=[ad65f8b3e3caecc308e8213f26d301ff]
link M3 to CU011--><path d="M220.93,825.1213 C233.07,830.5813 245.75,837.6113 256,846.2813 C274.07,861.5713 268.93,873.8813 286,890.2813 C304.14,907.7113 320.73,898.9113 334,920.2813 C405.14,1034.8713 302.77,1102.1013 364,1222.2813 C376.78,1247.3613 401.45,1268.0413 421.19,1281.6313 " fill="none" id="M3-CU011" style="stroke: #000000; stroke-width: 1.0;"/><!--MD5=[0cd7a3db6cff34f3c90528703e76777f]
link M3 to CU013--><path d="M226.72,823.8713 C276.62,837.7913 353.7,859.2813 403.12,873.0613 " fill="none" id="M3-CU013" style="stroke: #000000; stroke-width: 1.0;"/><!--MD5=[16e2293fd306f175b75c501008743948]
link M4 to CU015--><path d="M228.62,1142.3113 C274.18,1151.3413 341.22,1164.6213 389.67,1174.2313 " fill="none" id="M4-CU015" style="stroke: #000000; stroke-width: 1.0;"/><!--MD5=[1a469dfa69dbe575eda63a4e5a120096]
link M4 to CU016--><path d="M229.9,1122.7613 C276.38,1114.2313 344.45,1101.7413 392.66,1092.8913 " fill="none" id="M4-CU016" style="stroke: #000000; stroke-width: 1.0;"/><!--MD5=[c84d1882c981c72b9e82c3e0a072822b]
link M4 to CU017--><path d="M222.29,1144.6213 C234.76,1150.0513 247.29,1157.6813 256,1168.2813 C292,1212.0913 249.94,1248.5213 286,1292.2813 C300.92,1310.3913 315.58,1299.7413 334,1314.2813 C382.19,1352.3413 422.14,1414.3013 440.17,1444.9413 " fill="none" id="M4-CU017" style="stroke: #000000; stroke-width: 1.0;"/><!--MD5=[3f403cd8c8aafdce4005c6a6ba3a3822]
link CU001 to CU001_1--><path d="M504.21,174.5612 C548.44,183.3612 612.31,196.0712 659.81,205.5113 " fill="none" id="CU001-&gt;CU001_1" style="stroke: #000000; stroke-width: 1.0; stroke-dasharray: 7.0,7.0;"/><polygon fill="#000000" points="664.93,206.5313,656.8797,200.8574,660.0255,205.5589,655.324,208.7047,664.93,206.5313" style="stroke: #000000; stroke-width: 1.0;"/><text fill="#000000" font-family="sans-serif" font-size="10" lengthAdjust="spacingAndGlyphs" textLength="45" x="570" y="185.5635">«include»</text><!--MD5=[fc6db7c247787b74010569958e39413f]
link CU001 to CU001_2--><path d="M518.92,161.1012 C563.42,158.9713 621.51,156.1913 664.5,154.1312 " fill="none" id="CU001-&gt;CU001_2" style="stroke: #000000; stroke-width: 1.0; stroke-dasharray: 7.0,7.0;"/><polygon fill="#000000" points="669.67,153.8812,660.4865,150.3226,664.6759,154.1238,660.8747,158.3132,669.67,153.8812" style="stroke: #000000; stroke-width: 1.0;"/><text fill="#000000" font-family="sans-serif" font-size="10" lengthAdjust="spacingAndGlyphs" textLength="45" x="570" y="154.5635">«include»</text><!--MD5=[f6d99dfd49562261c9773c0bfe9f328c]
link CU001_3 to CU001--><path d="M241.2,166.5812 C281.99,166.1412 335.19,165.5512 377.74,165.0812 " fill="none" id="CU001_3-&gt;CU001" style="stroke: #000000; stroke-width: 1.0; stroke-dasharray: 7.0,7.0;"/><polygon fill="#000000" points="382.88,165.0213,373.8349,161.1244,377.8803,165.0784,373.9263,169.1238,382.88,165.0213" style="stroke: #000000; stroke-width: 1.0;"/><text fill="#000000" font-family="sans-serif" font-size="10" lengthAdjust="spacingAndGlyphs" textLength="46" x="287" y="163.5635">«extend»</text><!--MD5=[d7cc6702b9af598112d46489b64840b0]
link CU004 to CU004_1--><path d="M538.78,290.0613 C581.25,288.9613 631.21,287.6713 668.53,286.7113 " fill="none" id="CU004-&gt;CU004_1" style="stroke: #000000; stroke-width: 1.0; stroke-dasharray: 7.0,7.0;"/><polygon fill="#000000" points="673.95,286.5712,664.8502,282.8039,668.9517,286.6998,665.0558,290.8013,673.95,286.5712" style="stroke: #000000; stroke-width: 1.0;"/><text fill="#000000" font-family="sans-serif" font-size="10" lengthAdjust="spacingAndGlyphs" textLength="45" x="570" y="285.5635">«include»</text><!--MD5=[43b0611ee019f3e155a63b63424e830b]
link CU004 to CU004_2--><path d="M517.53,305.4513 C565.87,315.2513 630.8,328.4012 674.85,337.3212 " fill="none" id="CU004-&gt;CU004_2" style="stroke: #000000; stroke-width: 1.0; stroke-dasharray: 7.0,7.0;"/><polygon fill="#000000" points="679.85,338.3412,671.8316,332.6224,674.951,337.3414,670.2319,340.4608,679.85,338.3412" style="stroke: #000000; stroke-width: 1.0;"/><text fill="#000000" font-family="sans-serif" font-size="10" lengthAdjust="spacingAndGlyphs" textLength="45" x="570" y="314.5635">«include»</text><!--MD5=[77a441fd881c736a4593604949fe6729]
link CU004_3 to CU004--><path d="M218.8,240.4113 C262.31,250.1512 331.91,265.7313 383.49,277.2813 " fill="none" id="CU004_3-&gt;CU004" style="stroke: #000000; stroke-width: 1.0; stroke-dasharray: 7.0,7.0;"/><polygon fill="#000000" points="388.43,278.3812,380.5284,272.5021,383.5521,277.283,378.7712,280.3067,388.43,278.3812" style="stroke: #000000; stroke-width: 1.0;"/><text fill="#000000" font-family="sans-serif" font-size="10" lengthAdjust="spacingAndGlyphs" textLength="46" x="287" y="254.5635">«extend»</text><!--MD5=[3c5ada88aef3f851dd2412f558f44f74]
link CU004_4 to CU004--><path d="M226.09,292.2813 C262.72,292.2813 314.26,292.2813 358.7,292.2813 " fill="none" id="CU004_4-&gt;CU004" style="stroke: #000000; stroke-width: 1.0; stroke-dasharray: 7.0,7.0;"/><polygon fill="#000000" points="363.81,292.2813,354.81,288.2813,358.81,292.2813,354.81,296.2813,363.81,292.2813" style="stroke: #000000; stroke-width: 1.0;"/><text fill="#000000" font-family="sans-serif" font-size="10" lengthAdjust="spacingAndGlyphs" textLength="46" x="287" y="289.5635">«extend»</text><!--MD5=[36e823bf1c72689b8ed050fa26470810]
link CU005 to CU005_1--><path d="M535.8,409.2813 C581.01,409.2813 635.37,409.2813 674.03,409.2813 " fill="none" id="CU005-&gt;CU005_1" style="stroke: #000000; stroke-width: 1.0; stroke-dasharray: 7.0,7.0;"/><polygon fill="#000000" points="679.13,409.2813,670.13,405.2813,674.13,409.2813,670.13,413.2813,679.13,409.2813" style="stroke: #000000; stroke-width: 1.0;"/><text fill="#000000" font-family="sans-serif" font-size="10" lengthAdjust="spacingAndGlyphs" textLength="45" x="570" y="406.5635">«include»</text><!--MD5=[975b12f2f797a9670d7ee2d1ca7e18fc]
link CU005_2 to CU005--><path d="M220.28,361.9713 C263.93,370.9413 332.66,385.0613 383.67,395.5513 " fill="none" id="CU005_2-&gt;CU005" style="stroke: #000000; stroke-width: 1.0; stroke-dasharray: 7.0,7.0;"/><polygon fill="#000000" points="388.87,396.6112,380.8516,390.8924,383.971,395.6114,379.2519,398.7308,388.87,396.6112" style="stroke: #000000; stroke-width: 1.0;"/><text fill="#000000" font-family="sans-serif" font-size="10" lengthAdjust="spacingAndGlyphs" textLength="46" x="287" y="373.5635">«extend»</text><!--MD5=[677fa118449aff1b2ba49d8ab6cfe847]
link CU006 to CU006_1--><path d="M528.49,485.4813 C575.48,483.7513 634.41,481.5812 675.22,480.0812 " fill="none" id="CU006-&gt;CU006_1" style="stroke: #000000; stroke-width: 1.0; stroke-dasharray: 7.0,7.0;"/><polygon fill="#000000" points="680.61,479.8812,671.4782,476.192,675.6129,480.0526,671.7523,484.1873,680.61,479.8812" style="stroke: #000000; stroke-width: 1.0;"/><text fill="#000000" font-family="sans-serif" font-size="10" lengthAdjust="spacingAndGlyphs" textLength="45" x="570" y="480.5635">«include»</text><!--MD5=[c551f0d4389c515b42469cbfa7bb8bf3]
link CU006 to CU006_2--><path d="M514.45,499.4613 C565.38,508.6512 636.24,521.4413 681.1,529.5413 " fill="none" id="CU006-&gt;CU006_2" style="stroke: #000000; stroke-width: 1.0; stroke-dasharray: 7.0,7.0;"/><polygon fill="#000000" points="686.17,530.4513,678.0194,524.9224,681.2488,529.5669,676.6044,532.7963,686.17,530.4513" style="stroke: #000000; stroke-width: 1.0;"/><text fill="#000000" font-family="sans-serif" font-size="10" lengthAdjust="spacingAndGlyphs" textLength="45" x="570" y="507.5635">«include»</text><!--MD5=[969f75aed1ee03364ac7f7f861598dad]
link CU006_3 to CU006--><path d="M220.58,542.2813 C266.11,531.5913 338.7,514.5413 390.12,502.4613 " fill="none" id="CU006_3-&gt;CU006" style="stroke: #000000; stroke-width: 1.0; stroke-dasharray: 7.0,7.0;"/><polygon fill="#000000" points="395.03,501.3113,385.3543,499.4726,390.1622,502.4533,387.1815,507.2611,395.03,501.3113" style="stroke: #000000; stroke-width: 1.0;"/><text fill="#000000" font-family="sans-serif" font-size="10" lengthAdjust="spacingAndGlyphs" textLength="46" x="287" y="514.5635">«extend»</text><!--MD5=[757ab4c982a120d7ee133964ffc2d1fb]
link CU006_4 to CU006--><path d="M237.8,488.2813 C276.27,488.2813 326.75,488.2813 368.88,488.2813 " fill="none" id="CU006_4-&gt;CU006" style="stroke: #000000; stroke-width: 1.0; stroke-dasharray: 7.0,7.0;"/><polygon fill="#000000" points="373.98,488.2813,364.98,484.2813,368.98,488.2813,364.98,492.2813,373.98,488.2813" style="stroke: #000000; stroke-width: 1.0;"/><text fill="#000000" font-family="sans-serif" font-size="10" lengthAdjust="spacingAndGlyphs" textLength="46" x="287" y="485.5635">«extend»</text><!--MD5=[ff2622ae7356e2f717780a4b317f0825]
link CU007 to CU007_1--><path d="M515.81,614.2813 C561.53,614.2813 622.74,614.2813 666.95,614.2813 " fill="none" id="CU007-&gt;CU007_1" style="stroke: #000000; stroke-width: 1.0; stroke-dasharray: 7.0,7.0;"/><polygon fill="#000000" points="671.98,614.2813,662.98,610.2813,666.98,614.2813,662.98,618.2813,671.98,614.2813" style="stroke: #000000; stroke-width: 1.0;"/><text fill="#000000" font-family="sans-serif" font-size="10" lengthAdjust="spacingAndGlyphs" textLength="45" x="570" y="611.5635">«include»</text><!--MD5=[307256cf210f6c64b7e982795ca751f9]
link CU007_2 to CU007--><path d="M227.66,666.6213 C275.16,655.4613 346.62,638.6813 395.74,627.1413 " fill="none" id="CU007_2-&gt;CU007" style="stroke: #000000; stroke-width: 1.0; stroke-dasharray: 7.0,7.0;"/><polygon fill="#000000" points="400.72,625.9713,391.0443,624.1326,395.8522,627.1133,392.8715,631.9211,400.72,625.9713" style="stroke: #000000; stroke-width: 1.0;"/><text fill="#000000" font-family="sans-serif" font-size="10" lengthAdjust="spacingAndGlyphs" textLength="46" x="287" y="640.5635">«extend»</text><!--MD5=[a6cd1de10def5a06afdb1b17da54304c]
link CU007_3 to CU007--><path d="M225.15,614.2813 C268.44,614.2813 333.09,614.2813 382.05,614.2813 " fill="none" id="CU007_3-&gt;CU007" style="stroke: #000000; stroke-width: 1.0; stroke-dasharray: 7.0,7.0;"/><polygon fill="#000000" points="387.34,614.2813,378.34,610.2813,382.34,614.2813,378.34,618.2813,387.34,614.2813" style="stroke: #000000; stroke-width: 1.0;"/><text fill="#000000" font-family="sans-serif" font-size="10" lengthAdjust="spacingAndGlyphs" textLength="46" x="287" y="611.5635">«extend»</text><!--MD5=[6c9ca06d687f651789c83c6c4d5f298d]
link CU009 to CU009_1--><path d="M533.59,787.2813 C571.27,787.2813 615.69,787.2813 652.15,787.2813 " fill="none" id="CU009-&gt;CU009_1" style="stroke: #000000; stroke-width: 1.0; stroke-dasharray: 7.0,7.0;"/><polygon fill="#000000" points="657.47,787.2813,648.47,783.2813,652.47,787.2813,648.47,791.2813,657.47,787.2813" style="stroke: #000000; stroke-width: 1.0;"/><text fill="#000000" font-family="sans-serif" font-size="10" lengthAdjust="spacingAndGlyphs" textLength="45" x="570" y="784.5635">«include»</text><!--MD5=[b227785786e21ec95c9eb9dd0e1b6f8d]
link CU009_2 to CU009--><path d="M223.3,750.6013 C265.66,757.4313 329.6,767.7613 378.87,775.7113 " fill="none" id="CU009_2-&gt;CU009" style="stroke: #000000; stroke-width: 1.0; stroke-dasharray: 7.0,7.0;"/><polygon fill="#000000" points="383.9,776.5313,375.6547,771.1447,378.9642,775.7324,374.3765,779.0419,383.9,776.5313" style="stroke: #000000; stroke-width: 1.0;"/><text fill="#000000" font-family="sans-serif" font-size="10" lengthAdjust="spacingAndGlyphs" textLength="46" x="287" y="759.5635">«extend»</text><!--MD5=[83c93d932118165329973c96970b93a6]
link CU011 to CU011_1--><path d="M531.03,1299.2813 C575.24,1299.2813 629.37,1299.2813 669.04,1299.2813 " fill="none" id="CU011-&gt;CU011_1" style="stroke: #000000; stroke-width: 1.0; stroke-dasharray: 7.0,7.0;"/><polygon fill="#000000" points="674.29,1299.2813,665.29,1295.2813,669.29,1299.2813,665.29,1303.2813,674.29,1299.2813" style="stroke: #000000; stroke-width: 1.0;"/><text fill="#000000" font-family="sans-serif" font-size="10" lengthAdjust="spacingAndGlyphs" textLength="45" x="570" y="1296.5635">«include»</text><!--MD5=[9c9cee7d8118279ddee48d533ae1c2db]
link CU011_2 to CU011--><path d="M224.53,1272.7413 C265.67,1277.5813 326.46,1284.7113 374.62,1290.3713 " fill="none" id="CU011_2-&gt;CU011" style="stroke: #000000; stroke-width: 1.0; stroke-dasharray: 7.0,7.0;"/><polygon fill="#000000" points="379.84,1290.9813,371.3698,1285.9557,374.8743,1290.3962,370.4338,1293.9007,379.84,1290.9813" style="stroke: #000000; stroke-width: 1.0;"/><text fill="#000000" font-family="sans-serif" font-size="10" lengthAdjust="spacingAndGlyphs" textLength="46" x="287" y="1277.5635">«extend»</text><!--MD5=[5c3eb1ed1c0ae32d5d91060921d2478e]
link CU011_3 to CU011--><path d="M233.05,1329.9212 C263.01,1329.6613 300.65,1328.3613 334,1324.2813 C352.77,1321.9813 372.99,1318.1413 391.23,1314.1513 " fill="none" id="CU011_3-&gt;CU011" style="stroke: #000000; stroke-width: 1.0; stroke-dasharray: 7.0,7.0;"/><polygon fill="#000000" points="396.32,1313.0213,386.6721,1311.042,391.4361,1314.0923,388.3857,1318.8563,396.32,1313.0213" style="stroke: #000000; stroke-width: 1.0;"/><text fill="#000000" font-family="sans-serif" font-size="10" lengthAdjust="spacingAndGlyphs" textLength="46" x="287" y="1321.5635">«extend»</text><!--MD5=[c0406e2637924ae437c0d5324cf38e3a]
link CU011_4 to CU011--><path d="M223.53,1382.7513 C254.9,1374.4212 297.37,1362.3713 334,1349.2813 C359.64,1340.1213 387.7,1328.1413 409.86,1318.2013 " fill="none" id="CU011_4-&gt;CU011" style="stroke: #000000; stroke-width: 1.0; stroke-dasharray: 7.0,7.0;"/><polygon fill="#000000" points="414.49,1316.1113,404.6412,1316.1427,409.9275,1318.1565,407.9136,1323.4428,414.49,1316.1113" style="stroke: #000000; stroke-width: 1.0;"/><text fill="#000000" font-family="sans-serif" font-size="10" lengthAdjust="spacingAndGlyphs" textLength="46" x="287" y="1346.5635">«extend»</text><!--MD5=[98f9306ad9fe7cfc55423169af6a30fb]
link CU013_1 to CU013--><path d="M209.8,982.6413 C241.42,970.9813 291.24,952.3513 334,935.2813 C359.11,925.2513 387.04,913.5313 409.26,904.0613 " fill="none" id="CU013_1-&gt;CU013" style="stroke: #000000; stroke-width: 1.0; stroke-dasharray: 7.0,7.0;"/><polygon fill="#000000" points="413.91,902.0713,404.0624,901.9141,409.3091,904.0288,407.1944,909.2755,413.91,902.0713" style="stroke: #000000; stroke-width: 1.0;"/><text fill="#000000" font-family="sans-serif" font-size="10" lengthAdjust="spacingAndGlyphs" textLength="46" x="287" y="932.5635">«extend»</text><!--MD5=[821cd05d51720a8bd0934a8f46e6eeec]
link CU013_2 to CU013--><path d="M217.62,876.8813 C260.15,878.6013 328.56,881.3613 380.25,883.4413 " fill="none" id="CU013_2-&gt;CU013" style="stroke: #000000; stroke-width: 1.0; stroke-dasharray: 7.0,7.0;"/><polygon fill="#000000" points="385.51,883.6613,376.6776,879.3037,380.514,883.4608,376.3569,887.2973,385.51,883.6613" style="stroke: #000000; stroke-width: 1.0;"/><text fill="#000000" font-family="sans-serif" font-size="10" lengthAdjust="spacingAndGlyphs" textLength="46" x="287" y="877.5635">«extend»</text><!--MD5=[ebef51b5a8a1fea0d7c98f69f583f03d]
link CU013_3 to CU013--><path d="M215.6,926.7913 C260.37,919.0713 335.76,906.0713 389.04,896.8813 " fill="none" id="CU013_3-&gt;CU013" style="stroke: #000000; stroke-width: 1.0; stroke-dasharray: 7.0,7.0;"/><polygon fill="#000000" points="394.12,896.0013,384.5745,893.5756,389.1915,896.8441,385.9231,901.4611,394.12,896.0013" style="stroke: #000000; stroke-width: 1.0;"/><text fill="#000000" font-family="sans-serif" font-size="10" lengthAdjust="spacingAndGlyphs" textLength="46" x="287" y="904.5635">«extend»</text><!--MD5=[2a2573151612842d63528d9f1ff968d1]
link CU015 to CU015_1--><path d="M532.12,1186.2813 C576.3,1186.2813 630.1,1186.2813 669.48,1186.2813 " fill="none" id="CU015-&gt;CU015_1" style="stroke: #000000; stroke-width: 1.0; stroke-dasharray: 7.0,7.0;"/><polygon fill="#000000" points="674.69,1186.2813,665.69,1182.2813,669.69,1186.2813,665.69,1190.2813,674.69,1186.2813" style="stroke: #000000; stroke-width: 1.0;"/><text fill="#000000" font-family="sans-serif" font-size="10" lengthAdjust="spacingAndGlyphs" textLength="45" x="570" y="1183.5635">«include»</text><!--MD5=[c71b7c22756a6cd4495103aecf374f37]
link CU015_2 to CU015--><path d="M245.71,1198.3013 C282.67,1196.1313 328.73,1193.4313 367.8,1191.1413 " fill="none" id="CU015_2-&gt;CU015" style="stroke: #000000; stroke-width: 1.0; stroke-dasharray: 7.0,7.0;"/><polygon fill="#000000" points="373.02,1190.8313,363.796,1187.379,368.029,1191.1316,364.2765,1195.3646,373.02,1190.8313" style="stroke: #000000; stroke-width: 1.0;"/><text fill="#000000" font-family="sans-serif" font-size="10" lengthAdjust="spacingAndGlyphs" textLength="46" x="287" y="1190.5635">«extend»</text><!--MD5=[e9dad116df85db5d9eceb8048a3776ff]
link CU016 to CU016_1--><path d="M521.01,1082.2813 C563.43,1082.2813 617.56,1082.2813 659.26,1082.2813 " fill="none" id="CU016-&gt;CU016_1" style="stroke: #000000; stroke-width: 1.0; stroke-dasharray: 7.0,7.0;"/><polygon fill="#000000" points="664.28,1082.2813,655.28,1078.2813,659.28,1082.2813,655.28,1086.2813,664.28,1082.2813" style="stroke: #000000; stroke-width: 1.0;"/><text fill="#000000" font-family="sans-serif" font-size="10" lengthAdjust="spacingAndGlyphs" textLength="45" x="570" y="1079.5635">«include»</text><!--MD5=[9016e82e610dfd2ae1b08e786e7fedcb]
link CU016_2 to CU016--><path d="M250.67,1066.8813 C290.35,1069.9412 339.31,1073.7113 378.84,1076.7613 " fill="none" id="CU016_2-&gt;CU016" style="stroke: #000000; stroke-width: 1.0; stroke-dasharray: 7.0,7.0;"/><polygon fill="#000000" points="384.1,1077.1613,375.4353,1072.479,379.1149,1076.7756,374.8183,1080.4551,384.1,1077.1613" style="stroke: #000000; stroke-width: 1.0;"/><text fill="#000000" font-family="sans-serif" font-size="10" lengthAdjust="spacingAndGlyphs" textLength="46" x="287" y="1067.5635">«extend»</text><!--MD5=[8a76ac398ced2406cce45c5f51aa5a00]
link CU017_1 to CU017--><path d="M229.26,1520.9313 C275.91,1508.7713 344.7,1490.8513 393.16,1478.2213 " fill="none" id="CU017_1-&gt;CU017" style="stroke: #000000; stroke-width: 1.0; stroke-dasharray: 7.0,7.0;"/><polygon fill="#000000" points="398.08,1476.9413,388.3593,1475.3577,393.2439,1478.2109,390.3907,1483.0955,398.08,1476.9413" style="stroke: #000000; stroke-width: 1.0;"/><text fill="#000000" font-family="sans-serif" font-size="10" lengthAdjust="spacingAndGlyphs" textLength="46" x="287" y="1491.5635">«extend»</text><!--MD5=[4c6a2b9e7c518440c23826156e201b5a]
link CU017_2 to CU017--><path d="M256.09,1463.2813 C291.16,1463.2813 332.57,1463.2813 368.14,1463.2813 " fill="none" id="CU017_2-&gt;CU017" style="stroke: #000000; stroke-width: 1.0; stroke-dasharray: 7.0,7.0;"/><polygon fill="#000000" points="373.34,1463.2813,364.34,1459.2813,368.34,1463.2813,364.34,1467.2813,373.34,1463.2813" style="stroke: #000000; stroke-width: 1.0;"/><text fill="#000000" font-family="sans-serif" font-size="10" lengthAdjust="spacingAndGlyphs" textLength="46" x="287" y="1460.5635">«extend»</text><text fill="#888888" font-family="sans-serif" font-size="10" lengthAdjust="spacingAndGlyphs" textLength="53" x="400.5" y="1603.5635">RACCORD</text><!--MD5=[84cc9798ab0890a058679f94f2e46d58]
@startuml CU_Onset

skinparam actorStyle hollow
skinparam usecaseBackgroundColor White
skinparam usecaseBorderColor Black
skinparam actorBorderColor Black
skinparam arrowColor Black
skinparam rectangleBackgroundColor White
skinparam rectangleBorderColor Black
skinparam defaultFontSize 10
skinparam shadowing false

title RACCORD - Diagrama de Casos de Uso\nOnset

left to right direction

actor "Onset" as Onset

rectangle "Sistema RACCORD" {

    usecase "Módulo de Gestión de\nUsuarios y Seguridad" as M1
    usecase "Módulo de\nContinuidad Visual" as M2
    usecase "Módulo de Planeación\ny Comunicación" as M3
    usecase "Módulo de Gestión\nde Guiones" as M4

    usecase "CU001 - Validar Usuario" as CU001
    usecase "Ingresar correo y contraseña" as CU001_1
    usecase "Recibir código 2FA" as CU001_2
    usecase "Recuperar contraseña" as CU001_3
    
    usecase "CU004 - Gestionar Fotografías\nde Continuidad" as CU004
    usecase "Subir fotografía" as CU004_1
    usecase "Rellenar metadatos" as CU004_2
    usecase "Eliminar fotografía" as CU004_3
    usecase "Subida masiva" as CU004_4
    
    usecase "CU005 - Buscar Fotografías\nde Continuidad" as CU005
    usecase "Aplicar filtros" as CU005_1
    usecase "Guardar búsqueda" as CU005_2
    
    usecase "CU006 - Visualizar y\nComparar Fotografías" as CU006
    usecase "Hacer zoom" as CU006_1
    usecase "Rotar imagen" as CU006_2
    usecase "Comparar 2-4 fotos" as CU006_3
    usecase "Navegar entre fotos" as CU006_4
    
    usecase "CU007 - Analizar\nFotografías con IA" as CU007
    usecase "Detectar objetos" as CU007_1
    usecase "Comparar inconsistencias" as CU007_2
    usecase "Validar alertas" as CU007_3
    
    usecase "CU009 - Notificar Cambios\nde Calendario" as CU009
    usecase "Recibir notificación push" as CU009_1
    usecase "Confirmar lectura" as CU009_2
    
    usecase "CU011 - Comunicación\nInterna por Canales" as CU011
    usecase "Enviar mensaje" as CU011_1
    usecase "Adjuntar archivo" as CU011_2
    usecase "Buscar en historial" as CU011_3
    usecase "Usar diferentes canales" as CU011_4
    
    usecase "CU013 - Gestionar\nNotas Personales" as CU013
    usecase "Crear nota privada" as CU013_1
    usecase "Editar nota" as CU013_2
    usecase "Eliminar nota" as CU013_3
    
    usecase "CU015 - Visualizar Guion\ncon Anotaciones" as CU015
    usecase "Visualizar guion" as CU015_1
    usecase "Crear anotación personal" as CU015_2
    
    usecase "CU016 - Comparar\nVersiones de Guion" as CU016
    usecase "Ver diferencias (diff)" as CU016_1
    usecase "Generar reporte de cambios" as CU016_2
    
    usecase "CU017 - Vincular Guion\ncon Continuidad" as CU017
    usecase "Ver continuidad desde guion" as CU017_1
    usecase "Acceder a escena desde foto" as CU017_2
}

Onset - - M1
Onset - - M2
Onset - - M3
Onset - - M4

M1 - - CU001

M2 - - CU004
M2 - - CU005
M2 - - CU006
M2 - - CU007

M3 - - CU009
M3 - - CU011
M3 - - CU013

M4 - - CU015
M4 - - CU016
M4 - - CU017

CU001 ..> CU001_1 : <<include>>
CU001 ..> CU001_2 : <<include>>
CU001_3 ..> CU001 : <<extend>>

CU004 ..> CU004_1 : <<include>>
CU004 ..> CU004_2 : <<include>>
CU004_3 ..> CU004 : <<extend>>
CU004_4 ..> CU004 : <<extend>>

CU005 ..> CU005_1 : <<include>>
CU005_2 ..> CU005 : <<extend>>

CU006 ..> CU006_1 : <<include>>
CU006 ..> CU006_2 : <<include>>
CU006_3 ..> CU006 : <<extend>>
CU006_4 ..> CU006 : <<extend>>

CU007 ..> CU007_1 : <<include>>
CU007_2 ..> CU007 : <<extend>>
CU007_3 ..> CU007 : <<extend>>

CU009 ..> CU009_1 : <<include>>
CU009_2 ..> CU009 : <<extend>>

CU011 ..> CU011_1 : <<include>>
CU011_2 ..> CU011 : <<extend>>
CU011_3 ..> CU011 : <<extend>>
CU011_4 ..> CU011 : <<extend>>

CU013_1 ..> CU013 : <<extend>>
CU013_2 ..> CU013 : <<extend>>
CU013_3 ..> CU013 : <<extend>>

CU015 ..> CU015_1 : <<include>>
CU015_2 ..> CU015 : <<extend>>

CU016 ..> CU016_1 : <<include>>
CU016_2 ..> CU016 : <<extend>>

CU017_1 ..> CU017 : <<extend>>
CU017_2 ..> CU017 : <<extend>>

footer RACCORD

@enduml

PlantUML version 1.2020.02(Sun Mar 01 10:22:07 UTC 2020)
(GPL source distribution)
Java Runtime: OpenJDK Runtime Environment
JVM: OpenJDK 64-Bit Server VM
Java Version: 21.0.9+10-Ubuntu-124.04
Operating System: Linux
Default Encoding: UTF-8
Language: en
Country: US
--></g></svg>