<?xml version="1.0" encoding="UTF-8" standalone="no"?><svg xmlns="http://www.w3.org/2000/svg" xmlns:xlink="http://www.w3.org/1999/xlink" contentScriptType="application/ecmascript" contentStyleType="text/css" height="1493px" preserveAspectRatio="none" style="width:832px;height:1493px;" version="1.1" viewBox="0 0 832 1493" width="832px" zoomAndPan="magnify"><defs/><g><text fill="#000000" font-family="sans-serif" font-size="10" lengthAdjust="spacingAndGlyphs" textLength="196" x="329.5" y="9.2822">RACCORD - Diagrama de Casos de Uso</text><text fill="#000000" font-family="sans-serif" font-size="10" lengthAdjust="spacingAndGlyphs" textLength="37" x="409" y="20.9229">Usuario</text><!--MD5=[7cb87ed3a4f4d0179bd434c71a59de25]
cluster Sistema RACCORD--><rect fill="#FFFFFF" height="1397" style="stroke: #000000; stroke-width: 1.5;" width="731" x="90" y="47.2813"/><text fill="#000000" font-family="sans-serif" font-size="10" font-weight="bold" lengthAdjust="spacingAndGlyphs" textLength="104" x="403.5" y="58.5635">Sistema RACCORD</text><ellipse cx="184.8969" cy="97.1661" fill="#FFFFFF" rx="76.8969" ry="19.3849" style="stroke: #000000; stroke-width: 1.5;"/><text fill="#000000" font-family="sans-serif" font-size="10" lengthAdjust="spacingAndGlyphs" textLength="105" x="132.3969" y="93.7759">Módulo de Gestión de</text><text fill="#000000" font-family="sans-serif" font-size="10" lengthAdjust="spacingAndGlyphs" textLength="103" x="133.3969" y="105.4166">Usuarios y Seguridad</text><ellipse cx="184.8" cy="426.401" fill="#FFFFFF" rx="60.8" ry="18.1197" style="stroke: #000000; stroke-width: 1.5;"/><text fill="#000000" font-family="sans-serif" font-size="10" lengthAdjust="spacingAndGlyphs" textLength="50" x="159.8" y="420.9093">Módulo de</text><text fill="#000000" font-family="sans-serif" font-size="10" lengthAdjust="spacingAndGlyphs" textLength="89" x="140.3" y="432.55">Continuidad Visual</text><ellipse cx="185.0878" cy="687.3216" fill="#FFFFFF" rx="73.0878" ry="18.5403" style="stroke: #000000; stroke-width: 1.5;"/><text fill="#000000" font-family="sans-serif" font-size="10" lengthAdjust="spacingAndGlyphs" textLength="105" x="132.5878" y="685.1667">Módulo de Planeación</text><text fill="#000000" font-family="sans-serif" font-size="10" lengthAdjust="spacingAndGlyphs" textLength="77" x="146.5878" y="696.8073">y Comunicación</text><ellipse cx="184.7694" cy="1077.4837" fill="#FFFFFF" rx="61.7694" ry="18.2025" style="stroke: #000000; stroke-width: 1.5;"/><text fill="#000000" font-family="sans-serif" font-size="10" lengthAdjust="spacingAndGlyphs" textLength="90" x="139.7694" y="1075.8462">Módulo de Gestión</text><text fill="#000000" font-family="sans-serif" font-size="10" lengthAdjust="spacingAndGlyphs" textLength="54" x="157.7694" y="1087.4869">de Guiones</text><ellipse cx="455.8387" cy="161.349" fill="#FFFFFF" rx="68.3387" ry="16.0677" style="stroke: #000000; stroke-width: 1.5;"/><text fill="#000000" font-family="sans-serif" font-size="10" lengthAdjust="spacingAndGlyphs" textLength="117" x="397.3387" y="163.6693">CU001 - Validar Usuario</text><ellipse cx="725.8083" cy="222.4429" fill="#FFFFFF" rx="78.8083" ry="18.1617" style="stroke: #000000; stroke-width: 1.5;"/><text fill="#000000" font-family="sans-serif" font-size="10" lengthAdjust="spacingAndGlyphs" textLength="140" x="655.8083" y="224.7632">Ingresar correo y contraseña</text><ellipse cx="725.7532" cy="155.3319" fill="#FFFFFF" rx="55.7532" ry="13.5506" style="stroke: #000000; stroke-width: 1.5;"/><text fill="#000000" font-family="sans-serif" font-size="10" lengthAdjust="spacingAndGlyphs" textLength="88" x="681.7532" y="157.6522">Recibir código 2FA</text><ellipse cx="184.9028" cy="167.4618" fill="#FFFFFF" rx="63.9028" ry="15.1806" style="stroke: #000000; stroke-width: 1.5;"/><text fill="#000000" font-family="sans-serif" font-size="10" lengthAdjust="spacingAndGlyphs" textLength="107" x="131.4028" y="169.7821">Recuperar contraseña</text><ellipse cx="455.7689" cy="412.435" fill="#FFFFFF" rx="83.7689" ry="19.1538" style="stroke: #000000; stroke-width: 1.5;"/><text fill="#000000" font-family="sans-serif" font-size="10" lengthAdjust="spacingAndGlyphs" textLength="135" x="388.2689" y="411.7046">CU005 - Buscar Fotografías</text><text fill="#000000" font-family="sans-serif" font-size="10" lengthAdjust="spacingAndGlyphs" textLength="73" x="419.2689" y="423.3453">de Continuidad</text><ellipse cx="726.0194" cy="412.2851" fill="#FFFFFF" rx="45.5194" ry="11.5039" style="stroke: #000000; stroke-width: 1.5;"/><text fill="#000000" font-family="sans-serif" font-size="10" lengthAdjust="spacingAndGlyphs" textLength="62" x="695.0194" y="414.6054">Aplicar filtros</text><ellipse cx="185.0901" cy="359.4993" fill="#FFFFFF" rx="56.5901" ry="13.718" style="stroke: #000000; stroke-width: 1.5;"/><text fill="#000000" font-family="sans-serif" font-size="10" lengthAdjust="spacingAndGlyphs" textLength="90" x="140.0901" y="361.8196">Guardar búsqueda</text><ellipse cx="456.2006" cy="296.3843" fill="#FFFFFF" rx="77.7006" ry="19.103" style="stroke: #000000; stroke-width: 1.5;"/><text fill="#000000" font-family="sans-serif" font-size="10" lengthAdjust="spacingAndGlyphs" textLength="98" x="407.2006" y="292.3703">CU006 - Visualizar y</text><text fill="#000000" font-family="sans-serif" font-size="10" lengthAdjust="spacingAndGlyphs" textLength="108" x="402.2006" y="304.0109">Comparar Fotografías</text><ellipse cx="725.9385" cy="291.069" fill="#FFFFFF" rx="44.4385" ry="11.2877" style="stroke: #000000; stroke-width: 1.5;"/><text fill="#000000" font-family="sans-serif" font-size="10" lengthAdjust="spacingAndGlyphs" textLength="59" x="696.4385" y="293.3893">Hacer zoom</text><ellipse cx="725.9989" cy="350.081" fill="#FFFFFF" rx="46.9989" ry="11.7998" style="stroke: #000000; stroke-width: 1.5;"/><text fill="#000000" font-family="sans-serif" font-size="10" lengthAdjust="spacingAndGlyphs" textLength="66" x="692.9989" y="352.4013">Rotar imagen</text><ellipse cx="185.061" cy="296.0935" fill="#FFFFFF" rx="59.561" ry="14.3122" style="stroke: #000000; stroke-width: 1.5;"/><text fill="#000000" font-family="sans-serif" font-size="10" lengthAdjust="spacingAndGlyphs" textLength="97" x="136.561" y="298.4138">Comparar 2-4 fotos</text><ellipse cx="184.9208" cy="232.2654" fill="#FFFFFF" rx="60.4208" ry="14.4842" style="stroke: #000000; stroke-width: 1.5;"/><text fill="#000000" font-family="sans-serif" font-size="10" lengthAdjust="spacingAndGlyphs" textLength="99" x="135.4208" y="234.5857">Navegar entre fotos</text><ellipse cx="456.2095" cy="491.4748" fill="#FFFFFF" rx="64.2095" ry="19.1936" style="stroke: #000000; stroke-width: 1.5;"/><text fill="#000000" font-family="sans-serif" font-size="10" lengthAdjust="spacingAndGlyphs" textLength="82" x="415.2095" y="487.5915">CU007 - Analizar</text><text fill="#000000" font-family="sans-serif" font-size="10" lengthAdjust="spacingAndGlyphs" textLength="88" x="412.2095" y="499.2321">Fotografías con IA</text><ellipse cx="725.8713" cy="491.2555" fill="#FFFFFF" rx="52.8713" ry="12.9743" style="stroke: #000000; stroke-width: 1.5;"/><text fill="#000000" font-family="sans-serif" font-size="10" lengthAdjust="spacingAndGlyphs" textLength="81" x="685.3713" y="493.5758">Detectar objetos</text><ellipse cx="184.9902" cy="555.4793" fill="#FFFFFF" rx="71.4902" ry="16.698" style="stroke: #000000; stroke-width: 1.5;"/><text fill="#000000" font-family="sans-serif" font-size="10" lengthAdjust="spacingAndGlyphs" textLength="124" x="122.9902" y="557.7996">Comparar inconsistencias</text><ellipse cx="185.1348" cy="491.3082" fill="#FFFFFF" rx="48.1348" ry="12.027" style="stroke: #000000; stroke-width: 1.5;"/><text fill="#000000" font-family="sans-serif" font-size="10" lengthAdjust="spacingAndGlyphs" textLength="69" x="150.6348" y="493.6285">Validar alertas</text><ellipse cx="456.2403" cy="660.1293" fill="#FFFFFF" rx="82.2403" ry="18.8481" style="stroke: #000000; stroke-width: 1.5;"/><text fill="#000000" font-family="sans-serif" font-size="10" lengthAdjust="spacingAndGlyphs" textLength="131" x="390.7403" y="659.3508">CU009 - Notificar Cambios</text><text fill="#000000" font-family="sans-serif" font-size="10" lengthAdjust="spacingAndGlyphs" textLength="67" x="422.7403" y="670.9914">de Calendario</text><ellipse cx="725.9449" cy="660.1702" fill="#FFFFFF" rx="67.4449" ry="15.889" style="stroke: #000000; stroke-width: 1.5;"/><text fill="#000000" font-family="sans-serif" font-size="10" lengthAdjust="spacingAndGlyphs" textLength="115" x="668.4449" y="662.4906">Recibir notificación push</text><ellipse cx="184.9221" cy="620.1657" fill="#FFFFFF" rx="54.9221" ry="13.3844" style="stroke: #000000; stroke-width: 1.5;"/><text fill="#000000" font-family="sans-serif" font-size="10" lengthAdjust="spacingAndGlyphs" textLength="86" x="141.9221" y="622.486">Confirmar lectura</text><ellipse cx="456.1146" cy="1176.207" fill="#FFFFFF" rx="79.6146" ry="18.9257" style="stroke: #000000; stroke-width: 1.5;"/><text fill="#000000" font-family="sans-serif" font-size="10" lengthAdjust="spacingAndGlyphs" textLength="112" x="400.1146" y="1173.4791">CU011 - Comunicación</text><text fill="#000000" font-family="sans-serif" font-size="10" lengthAdjust="spacingAndGlyphs" textLength="96" x="408.1146" y="1185.1197">Interna por Canales</text><ellipse cx="725.9674" cy="1176.2747" fill="#FFFFFF" rx="50.4674" ry="12.4935" style="stroke: #000000; stroke-width: 1.5;"/><text fill="#000000" font-family="sans-serif" font-size="10" lengthAdjust="spacingAndGlyphs" textLength="75" x="688.4674" y="1178.595">Enviar mensaje</text><ellipse cx="185.0627" cy="1143.0938" fill="#FFFFFF" rx="52.0627" ry="12.8125" style="stroke: #000000; stroke-width: 1.5;"/><text fill="#000000" font-family="sans-serif" font-size="10" lengthAdjust="spacingAndGlyphs" textLength="79" x="145.5627" y="1145.4141">Adjuntar archivo</text><ellipse cx="184.7532" cy="1205.3319" fill="#FFFFFF" rx="55.7532" ry="13.5506" style="stroke: #000000; stroke-width: 1.5;"/><text fill="#000000" font-family="sans-serif" font-size="10" lengthAdjust="spacingAndGlyphs" textLength="88" x="140.7532" y="1207.6522">Buscar en historial</text><ellipse cx="184.9992" cy="1270.0811" fill="#FFFFFF" rx="66.9992" ry="15.7998" style="stroke: #000000; stroke-width: 1.5;"/><text fill="#000000" font-family="sans-serif" font-size="10" lengthAdjust="spacingAndGlyphs" textLength="114" x="127.9992" y="1272.4014">Usar diferentes canales</text><ellipse cx="455.8293" cy="782.4833" fill="#FFFFFF" rx="66.3293" ry="19.202" style="stroke: #000000; stroke-width: 1.5;"/><text fill="#000000" font-family="sans-serif" font-size="10" lengthAdjust="spacingAndGlyphs" textLength="91" x="410.3293" y="779.3544">CU013 - Gestionar</text><text fill="#000000" font-family="sans-serif" font-size="10" lengthAdjust="spacingAndGlyphs" textLength="85" x="413.3293" y="790.995">Notas Personales</text><ellipse cx="184.9325" cy="813.1678" fill="#FFFFFF" rx="57.4325" ry="13.8865" style="stroke: #000000; stroke-width: 1.5;"/><text fill="#000000" font-family="sans-serif" font-size="10" lengthAdjust="spacingAndGlyphs" textLength="92" x="138.9325" y="815.4881">Crear nota privada</text><ellipse cx="185.1838" cy="873.5124" fill="#FFFFFF" rx="41.1838" ry="11.2312" style="stroke: #000000; stroke-width: 1.5;"/><text fill="#000000" font-family="sans-serif" font-size="10" lengthAdjust="spacingAndGlyphs" textLength="54" x="158.1838" y="875.8327">Editar nota</text><ellipse cx="184.7539" cy="752.432" fill="#FFFFFF" rx="46.2539" ry="11.6508" style="stroke: #000000; stroke-width: 1.5;"/><text fill="#000000" font-family="sans-serif" font-size="10" lengthAdjust="spacingAndGlyphs" textLength="64" x="152.7539" y="754.7523">Eliminar nota</text><ellipse cx="456.2463" cy="952.3305" fill="#FFFFFF" rx="80.7463" ry="18.5493" style="stroke: #000000; stroke-width: 1.5;"/><text fill="#000000" font-family="sans-serif" font-size="10" lengthAdjust="spacingAndGlyphs" textLength="120" x="396.2463" y="950.5828">CU015 - Visualizar Guion</text><text fill="#000000" font-family="sans-serif" font-size="10" lengthAdjust="spacingAndGlyphs" textLength="79" x="416.7463" y="962.2234">con Anotaciones</text><ellipse cx="726.0734" cy="952.1959" fill="#FFFFFF" rx="50.0734" ry="12.4147" style="stroke: #000000; stroke-width: 1.5;"/><text fill="#000000" font-family="sans-serif" font-size="10" lengthAdjust="spacingAndGlyphs" textLength="74" x="689.0734" y="954.5162">Visualizar guion</text><ellipse cx="185.0862" cy="936.2985" fill="#FFFFFF" rx="70.5862" ry="16.5172" style="stroke: #000000; stroke-width: 1.5;"/><text fill="#000000" font-family="sans-serif" font-size="10" lengthAdjust="spacingAndGlyphs" textLength="122" x="124.0862" y="938.6188">Crear anotación personal</text><ellipse cx="455.7924" cy="1032.2001" fill="#FFFFFF" rx="69.2924" ry="19.4188" style="stroke: #000000; stroke-width: 1.5;"/><text fill="#000000" font-family="sans-serif" font-size="10" lengthAdjust="spacingAndGlyphs" textLength="94" x="408.7924" y="1028.7617">CU016 - Comparar</text><text fill="#000000" font-family="sans-serif" font-size="10" lengthAdjust="spacingAndGlyphs" textLength="93" x="409.2924" y="1040.4023">Versiones de Guion</text><ellipse cx="725.9208" cy="1032.2654" fill="#FFFFFF" rx="60.4208" ry="14.4842" style="stroke: #000000; stroke-width: 1.5;"/><text fill="#000000" font-family="sans-serif" font-size="10" lengthAdjust="spacingAndGlyphs" textLength="99" x="676.4208" y="1034.5857">Ver diferencias (diff)</text><ellipse cx="184.9255" cy="1006.1663" fill="#FFFFFF" rx="77.4255" ry="17.8851" style="stroke: #000000; stroke-width: 1.5;"/><text fill="#000000" font-family="sans-serif" font-size="10" lengthAdjust="spacingAndGlyphs" textLength="137" x="116.4255" y="1008.4867">Generar reporte de cambios</text><ellipse cx="455.8569" cy="1339.2039" fill="#FFFFFF" rx="77.8569" ry="18.4227" style="stroke: #000000; stroke-width: 1.5;"/><text fill="#000000" font-family="sans-serif" font-size="10" lengthAdjust="spacingAndGlyphs" textLength="113" x="399.3569" y="1337.2275">CU017 - Vincular Guion</text><text fill="#000000" font-family="sans-serif" font-size="10" lengthAdjust="spacingAndGlyphs" textLength="78" x="416.8569" y="1348.8681">con Continuidad</text><ellipse cx="184.9655" cy="1410.0744" fill="#FFFFFF" rx="76.9655" ry="17.7931" style="stroke: #000000; stroke-width: 1.5;"/><text fill="#000000" font-family="sans-serif" font-size="10" lengthAdjust="spacingAndGlyphs" textLength="136" x="116.9655" y="1412.3947">Ver continuidad desde guion</text><ellipse cx="184.8083" cy="1339.4429" fill="#FFFFFF" rx="78.8083" ry="18.1617" style="stroke: #000000; stroke-width: 1.5;"/><text fill="#000000" font-family="sans-serif" font-size="10" lengthAdjust="spacingAndGlyphs" textLength="140" x="114.8083" y="1341.7632">Acceder a escena desde foto</text><!--MD5=[fee662a292a0353a69bd162820bae93b]
entity User--><ellipse cx="24.5" cy="584.7813" fill="#FEFECE" rx="8" ry="8" style="stroke: #000000; stroke-width: 1.5;"/><path d="M24.5,592.7813 L24.5,619.7813 M11.5,600.7813 L37.5,600.7813 M24.5,619.7813 L11.5,634.7813 M24.5,619.7813 L37.5,634.7813 " fill="none" style="stroke: #000000; stroke-width: 1.5;"/><text fill="#000000" font-family="sans-serif" font-size="10" lengthAdjust="spacingAndGlyphs" textLength="37" x="6" y="646.5635">Usuario</text><!--MD5=[5d62a2b4efceb9b80861b38387434ec8]
link User to M1--><path d="M25.02,574.9913 C24.47,474.7213 28.08,202.3012 82,134.2813 C91.83,121.8812 106.19,113.6312 121.05,108.1512 " fill="none" id="User-M1" style="stroke: #000000; stroke-width: 1.0;"/><!--MD5=[b5016e1ae7ab489cb16870539b336024]
link User to M2--><path d="M30.3,575.1013 C36.57,541.1413 50.7,491.7313 82,461.2813 C95.35,448.2913 113.73,440.1113 131.22,434.9613 " fill="none" id="User-M2" style="stroke: #000000; stroke-width: 1.0;"/><!--MD5=[a64f03f7032c4addf613c9e38d653270]
link User to M3--><path d="M43.06,626.2113 C53.84,634.2913 68.2,644.2413 82,651.2813 C99.15,660.0313 118.91,667.5413 136.46,673.4113 " fill="none" id="User-M3" style="stroke: #000000; stroke-width: 1.0;"/><!--MD5=[343c966f7f79c99a7e3a7baace9a9ce6]
link User to M4--><path d="M25.56,649.4513 C26.45,742.3513 33.51,981.4713 82,1041.2813 C93.65,1055.6513 111.43,1064.2913 128.91,1069.4813 " fill="none" id="User-M4" style="stroke: #000000; stroke-width: 1.0;"/><!--MD5=[6ee477370549f3cd51ea77f91d947e33]
link M1 to CU001--><path d="M241.74,110.5412 C290.67,122.1813 361.09,138.9413 407.43,149.9613 " fill="none" id="M1-CU001" style="stroke: #000000; stroke-width: 1.0;"/><!--MD5=[669bc8103bedb76dee342c48f1a19edc]
link M2 to CU005--><path d="M245.64,423.8412 C274.72,422.5912 310.19,420.9813 342,419.2813 C352.7,418.7113 363.96,418.0613 375.07,417.4012 " fill="none" id="M2-CU005" style="stroke: #000000; stroke-width: 1.0;"/><!--MD5=[70ba8fec04be7672640a9e3bb074ba7e]
link M2 to CU006--><path d="M245.06,422.9012 C275.29,419.3212 311.96,412.0413 342,397.2813 C352.8,391.9713 405.91,342.6412 435.31,314.9413 " fill="none" id="M2-CU006" style="stroke: #000000; stroke-width: 1.0;"/><!--MD5=[d076ab78bca3a7f2a341eb8f515f7139]
link M2 to CU007--><path d="M232.86,437.6013 C281.33,449.3113 356.69,467.5313 405.95,479.4313 " fill="none" id="M2-CU007" style="stroke: #000000; stroke-width: 1.0;"/><!--MD5=[753023e2e6b33e7ba9265ec50b6f8d2b]
link M3 to CU009--><path d="M256.37,683.3713 C283.21,681.6013 314.06,679.2413 342,676.2813 C356.68,674.7313 372.38,672.7213 387.28,670.6613 " fill="none" id="M3-CU009" style="stroke: #000000; stroke-width: 1.0;"/><!--MD5=[ad65f8b3e3caecc308e8213f26d301ff]
link M3 to CU011--><path d="M238.51,700.0213 C278.54,710.8513 328.94,727.3213 342,744.2813 C386.25,801.7413 345.37,1001.8113 372,1069.2813 C385.98,1104.7113 415.51,1138.1513 435.3,1157.9212 " fill="none" id="M3-CU011" style="stroke: #000000; stroke-width: 1.0;"/><!--MD5=[0cd7a3db6cff34f3c90528703e76777f]
link M3 to CU013--><path d="M254.66,692.9713 C282.4,696.7413 314.34,702.9713 342,713.2813 C375.39,725.7213 409.77,748.3913 431.7,764.3413 " fill="none" id="M3-CU013" style="stroke: #000000; stroke-width: 1.0;"/><!--MD5=[16e2293fd306f175b75c501008743948]
link M4 to CU015--><path d="M225.47,1063.5713 C238.54,1057.9013 252.63,1050.4713 264,1041.2813 C281.28,1027.3113 275.8,1014.0413 294,1001.2813 C321.99,981.6613 358.03,969.7413 388.91,962.5813 " fill="none" id="M4-CU015" style="stroke: #000000; stroke-width: 1.0;"/><!--MD5=[1a469dfa69dbe575eda63a4e5a120096]
link M4 to CU016--><path d="M239.15,1068.3913 C284.31,1060.8313 349.09,1050.0013 395.89,1042.1712 " fill="none" id="M4-CU016" style="stroke: #000000; stroke-width: 1.0;"/><!--MD5=[c84d1882c981c72b9e82c3e0a072822b]
link M4 to CU017--><path d="M240.13,1085.7813 C273.33,1093.5513 314.57,1108.1613 342,1135.2813 C368.41,1161.4013 355.02,1180.2513 372,1213.2813 C392.72,1253.5813 423.34,1296.9613 441.02,1320.8413 " fill="none" id="M4-CU017" style="stroke: #000000; stroke-width: 1.0;"/><!--MD5=[3f403cd8c8aafdce4005c6a6ba3a3822]
link CU001 to CU001_1--><path d="M505.84,172.4012 C550.42,182.5413 616.46,197.5712 664.39,208.4813 " fill="none" id="CU001-&gt;CU001_1" style="stroke: #000000; stroke-width: 1.0; stroke-dasharray: 7.0,7.0;"/><polygon fill="#000000" points="669.55,209.6613,661.6648,203.7601,664.6752,208.5494,659.8859,211.5599,669.55,209.6613" style="stroke: #000000; stroke-width: 1.0;"/><text fill="#000000" font-family="sans-serif" font-size="10" lengthAdjust="spacingAndGlyphs" textLength="45" x="571" y="185.5635">«include»</text><!--MD5=[fc6db7c247787b74010569958e39413f]
link CU001 to CU001_2--><path d="M524.28,159.7713 C567.49,158.8112 623.12,157.5612 664.86,156.6312 " fill="none" id="CU001-&gt;CU001_2" style="stroke: #000000; stroke-width: 1.0; stroke-dasharray: 7.0,7.0;"/><polygon fill="#000000" points="669.88,156.5113,660.7909,152.718,664.8813,156.6255,660.9738,160.7159,669.88,156.5113" style="stroke: #000000; stroke-width: 1.0;"/><text fill="#000000" font-family="sans-serif" font-size="10" lengthAdjust="spacingAndGlyphs" textLength="45" x="571" y="155.5635">«include»</text><!--MD5=[f6d99dfd49562261c9773c0bfe9f328c]
link CU001_3 to CU001--><path d="M248.73,165.8812 C288.71,164.9913 340.66,163.8312 382.42,162.9012 " fill="none" id="CU001_3-&gt;CU001" style="stroke: #000000; stroke-width: 1.0; stroke-dasharray: 7.0,7.0;"/><polygon fill="#000000" points="387.46,162.7913,378.3709,158.998,382.4613,162.9055,378.5538,166.9959,387.46,162.7913" style="stroke: #000000; stroke-width: 1.0;"/><text fill="#000000" font-family="sans-serif" font-size="10" lengthAdjust="spacingAndGlyphs" textLength="46" x="295" y="161.5635">«extend»</text><!--MD5=[36e823bf1c72689b8ed050fa26470810]
link CU005 to CU005_1--><path d="M540.33,412.2813 C584.59,412.2813 637.51,412.2813 675.32,412.2813 " fill="none" id="CU005-&gt;CU005_1" style="stroke: #000000; stroke-width: 1.0; stroke-dasharray: 7.0,7.0;"/><polygon fill="#000000" points="680.32,412.2813,671.32,408.2813,675.32,412.2813,671.32,416.2813,680.32,412.2813" style="stroke: #000000; stroke-width: 1.0;"/><text fill="#000000" font-family="sans-serif" font-size="10" lengthAdjust="spacingAndGlyphs" textLength="45" x="571" y="409.5635">«include»</text><!--MD5=[975b12f2f797a9670d7ee2d1ca7e18fc]
link CU005_2 to CU005--><path d="M229.22,367.8013 C271.79,376.1813 337.47,389.1212 387.03,398.8912 " fill="none" id="CU005_2-&gt;CU005" style="stroke: #000000; stroke-width: 1.0; stroke-dasharray: 7.0,7.0;"/><polygon fill="#000000" points="392.08,399.8812,384.0297,394.2074,387.1755,398.9089,382.474,402.0547,392.08,399.8812" style="stroke: #000000; stroke-width: 1.0;"/><text fill="#000000" font-family="sans-serif" font-size="10" lengthAdjust="spacingAndGlyphs" textLength="46" x="295" y="378.5635">«extend»</text><!--MD5=[677fa118449aff1b2ba49d8ab6cfe847]
link CU006 to CU006_1--><path d="M533.44,294.8512 C579.34,294.0013 636.37,292.9313 676.21,292.1913 " fill="none" id="CU006-&gt;CU006_1" style="stroke: #000000; stroke-width: 1.0; stroke-dasharray: 7.0,7.0;"/><polygon fill="#000000" points="681.47,292.0912,672.3918,288.272,676.471,292.1912,672.5518,296.2704,681.47,292.0912" style="stroke: #000000; stroke-width: 1.0;"/><text fill="#000000" font-family="sans-serif" font-size="10" lengthAdjust="spacingAndGlyphs" textLength="45" x="571" y="291.5635">«include»</text><!--MD5=[c551f0d4389c515b42469cbfa7bb8bf3]
link CU006 to CU006_2--><path d="M516.48,308.2613 C567.11,318.4713 638.56,332.8612 683.3,341.8812 " fill="none" id="CU006-&gt;CU006_2" style="stroke: #000000; stroke-width: 1.0; stroke-dasharray: 7.0,7.0;"/><polygon fill="#000000" points="688.35,342.9012,680.3156,337.2049,683.4482,341.9152,678.7379,345.0478,688.35,342.9012" style="stroke: #000000; stroke-width: 1.0;"/><text fill="#000000" font-family="sans-serif" font-size="10" lengthAdjust="spacingAndGlyphs" textLength="45" x="571" y="317.5635">«include»</text><!--MD5=[969f75aed1ee03364ac7f7f861598dad]
link CU006_3 to CU006--><path d="M244.7,296.2813 C282.36,296.2813 331.79,296.2813 373.26,296.2813 " fill="none" id="CU006_3-&gt;CU006" style="stroke: #000000; stroke-width: 1.0; stroke-dasharray: 7.0,7.0;"/><polygon fill="#000000" points="378.28,296.2813,369.28,292.2813,373.28,296.2813,369.28,300.2813,378.28,296.2813" style="stroke: #000000; stroke-width: 1.0;"/><text fill="#000000" font-family="sans-serif" font-size="10" lengthAdjust="spacingAndGlyphs" textLength="46" x="295" y="293.5635">«extend»</text><!--MD5=[757ab4c982a120d7ee133964ffc2d1fb]
link CU006_4 to CU006--><path d="M228.62,242.4213 C273.31,253.0512 343.92,269.8512 394.39,281.8612 " fill="none" id="CU006_4-&gt;CU006" style="stroke: #000000; stroke-width: 1.0; stroke-dasharray: 7.0,7.0;"/><polygon fill="#000000" points="399.52,283.0812,391.692,277.1044,394.6561,281.9225,389.838,284.8866,399.52,283.0812" style="stroke: #000000; stroke-width: 1.0;"/><text fill="#000000" font-family="sans-serif" font-size="10" lengthAdjust="spacingAndGlyphs" textLength="46" x="295" y="256.5635">«extend»</text><!--MD5=[ff2622ae7356e2f717780a4b317f0825]
link CU007 to CU007_1--><path d="M520.17,491.2813 C564.78,491.2813 624.09,491.2813 667.41,491.2813 " fill="none" id="CU007-&gt;CU007_1" style="stroke: #000000; stroke-width: 1.0; stroke-dasharray: 7.0,7.0;"/><polygon fill="#000000" points="672.61,491.2813,663.61,487.2813,667.61,491.2813,663.61,495.2813,672.61,491.2813" style="stroke: #000000; stroke-width: 1.0;"/><text fill="#000000" font-family="sans-serif" font-size="10" lengthAdjust="spacingAndGlyphs" textLength="45" x="571" y="488.5635">«include»</text><!--MD5=[307256cf210f6c64b7e982795ca751f9]
link CU007_2 to CU007--><path d="M235.34,543.5413 C282.12,532.4113 352.24,515.7313 400.61,504.2213 " fill="none" id="CU007_2-&gt;CU007" style="stroke: #000000; stroke-width: 1.0; stroke-dasharray: 7.0,7.0;"/><polygon fill="#000000" points="405.52,503.0513,395.838,501.2459,400.6561,504.21,397.692,509.0281,405.52,503.0513" style="stroke: #000000; stroke-width: 1.0;"/><text fill="#000000" font-family="sans-serif" font-size="10" lengthAdjust="spacingAndGlyphs" textLength="46" x="295" y="517.5635">«extend»</text><!--MD5=[a6cd1de10def5a06afdb1b17da54304c]
link CU007_3 to CU007--><path d="M233.16,491.2813 C275.62,491.2813 338.52,491.2813 386.51,491.2813 " fill="none" id="CU007_3-&gt;CU007" style="stroke: #000000; stroke-width: 1.0; stroke-dasharray: 7.0,7.0;"/><polygon fill="#000000" points="391.7,491.2813,382.7,487.2813,386.7,491.2813,382.7,495.2813,391.7,491.2813" style="stroke: #000000; stroke-width: 1.0;"/><text fill="#000000" font-family="sans-serif" font-size="10" lengthAdjust="spacingAndGlyphs" textLength="46" x="295" y="488.5635">«extend»</text><!--MD5=[6c9ca06d687f651789c83c6c4d5f298d]
link CU009 to CU009_1--><path d="M538.14,660.2813 C574.7,660.2813 617.52,660.2813 652.93,660.2813 " fill="none" id="CU009-&gt;CU009_1" style="stroke: #000000; stroke-width: 1.0; stroke-dasharray: 7.0,7.0;"/><polygon fill="#000000" points="658.1,660.2813,649.1,656.2813,653.1,660.2813,649.1,664.2813,658.1,660.2813" style="stroke: #000000; stroke-width: 1.0;"/><text fill="#000000" font-family="sans-serif" font-size="10" lengthAdjust="spacingAndGlyphs" textLength="45" x="571" y="657.5635">«include»</text><!--MD5=[b227785786e21ec95c9eb9dd0e1b6f8d]
link CU009_2 to CU009--><path d="M232.55,627.2013 C273.54,633.3013 333.93,642.2813 381.45,649.3413 " fill="none" id="CU009_2-&gt;CU009" style="stroke: #000000; stroke-width: 1.0; stroke-dasharray: 7.0,7.0;"/><polygon fill="#000000" points="386.59,650.1113,378.2695,644.8416,381.6434,649.3821,377.1029,652.7561,386.59,650.1113" style="stroke: #000000; stroke-width: 1.0;"/><text fill="#000000" font-family="sans-serif" font-size="10" lengthAdjust="spacingAndGlyphs" textLength="46" x="295" y="634.5635">«extend»</text><!--MD5=[83c93d932118165329973c96970b93a6]
link CU011 to CU011_1--><path d="M535.6,1176.2813 C578.76,1176.2813 631.23,1176.2813 669.99,1176.2813 " fill="none" id="CU011-&gt;CU011_1" style="stroke: #000000; stroke-width: 1.0; stroke-dasharray: 7.0,7.0;"/><polygon fill="#000000" points="675.12,1176.2813,666.12,1172.2813,670.12,1176.2813,666.12,1180.2813,675.12,1176.2813" style="stroke: #000000; stroke-width: 1.0;"/><text fill="#000000" font-family="sans-serif" font-size="10" lengthAdjust="spacingAndGlyphs" textLength="45" x="571" y="1173.5635">«include»</text><!--MD5=[9c9cee7d8118279ddee48d533ae1c2db]
link CU011_2 to CU011--><path d="M231.94,1148.9212 C272.48,1153.8913 332.34,1161.2313 379.84,1167.0613 " fill="none" id="CU011_2-&gt;CU011" style="stroke: #000000; stroke-width: 1.0; stroke-dasharray: 7.0,7.0;"/><polygon fill="#000000" points="384.99,1167.6913,376.5502,1162.6148,380.028,1167.0764,375.5664,1170.5541,384.99,1167.6913" style="stroke: #000000; stroke-width: 1.0;"/><text fill="#000000" font-family="sans-serif" font-size="10" lengthAdjust="spacingAndGlyphs" textLength="46" x="295" y="1153.5635">«extend»</text><!--MD5=[5c3eb1ed1c0ae32d5d91060921d2478e]
link CU011_3 to CU011--><path d="M240.35,1207.5313 C270.42,1208.0313 308.4,1207.4613 342,1203.2813 C360.94,1200.9313 381.31,1196.6213 399.47,1192.1413 " fill="none" id="CU011_3-&gt;CU011" style="stroke: #000000; stroke-width: 1.0; stroke-dasharray: 7.0,7.0;"/><polygon fill="#000000" points="404.53,1190.8713,394.8274,1189.1802,399.6801,1192.0873,396.7731,1196.94,404.53,1190.8713" style="stroke: #000000; stroke-width: 1.0;"/><text fill="#000000" font-family="sans-serif" font-size="10" lengthAdjust="spacingAndGlyphs" textLength="46" x="295" y="1200.5635">«extend»</text><!--MD5=[c0406e2637924ae437c0d5324cf38e3a]
link CU011_4 to CU011--><path d="M233.7,1259.1712 C264.9,1251.4113 306.33,1240.1613 342,1227.2813 C367.03,1218.2413 394.25,1206.0413 415.69,1195.8313 " fill="none" id="CU011_4-&gt;CU011" style="stroke: #000000; stroke-width: 1.0; stroke-dasharray: 7.0,7.0;"/><polygon fill="#000000" points="420.46,1193.5513,410.6149,1193.8225,415.9486,1195.707,414.0641,1201.0407,420.46,1193.5513" style="stroke: #000000; stroke-width: 1.0;"/><text fill="#000000" font-family="sans-serif" font-size="10" lengthAdjust="spacingAndGlyphs" textLength="46" x="295" y="1224.5635">«extend»</text><!--MD5=[98f9306ad9fe7cfc55423169af6a30fb]
link CU013_1 to CU013--><path d="M237.23,807.3813 C280.32,802.4113 342.22,795.2813 389.02,789.8813 " fill="none" id="CU013_1-&gt;CU013" style="stroke: #000000; stroke-width: 1.0; stroke-dasharray: 7.0,7.0;"/><polygon fill="#000000" points="394.07,789.3013,384.6711,786.3582,389.1029,789.8738,385.5873,794.3056,394.07,789.3013" style="stroke: #000000; stroke-width: 1.0;"/><text fill="#000000" font-family="sans-serif" font-size="10" lengthAdjust="spacingAndGlyphs" textLength="46" x="295" y="793.5635">«extend»</text><!--MD5=[821cd05d51720a8bd0934a8f46e6eeec]
link CU013_2 to CU013--><path d="M212.01,864.9913 C243.03,855.0513 296.41,837.8013 342,822.2813 C364.16,814.7413 388.66,806.1013 409.17,798.7913 " fill="none" id="CU013_2-&gt;CU013" style="stroke: #000000; stroke-width: 1.0; stroke-dasharray: 7.0,7.0;"/><polygon fill="#000000" points="414.02,797.0513,404.198,796.3245,409.3136,798.7393,406.8988,803.8548,414.02,797.0513" style="stroke: #000000; stroke-width: 1.0;"/><text fill="#000000" font-family="sans-serif" font-size="10" lengthAdjust="spacingAndGlyphs" textLength="46" x="295" y="819.5635">«extend»</text><!--MD5=[ebef51b5a8a1fea0d7c98f69f583f03d]
link CU013_3 to CU013--><path d="M227.74,756.9313 C270.75,761.7313 338.45,769.2813 388.78,774.9013 " fill="none" id="CU013_3-&gt;CU013" style="stroke: #000000; stroke-width: 1.0; stroke-dasharray: 7.0,7.0;"/><polygon fill="#000000" points="393.91,775.4713,385.4115,770.4938,388.9411,774.9144,384.5205,778.444,393.91,775.4713" style="stroke: #000000; stroke-width: 1.0;"/><text fill="#000000" font-family="sans-serif" font-size="10" lengthAdjust="spacingAndGlyphs" textLength="46" x="295" y="762.5635">«extend»</text><!--MD5=[2a2573151612842d63528d9f1ff968d1]
link CU015 to CU015_1--><path d="M536.68,952.2813 C579.95,952.2813 632.31,952.2813 670.82,952.2813 " fill="none" id="CU015-&gt;CU015_1" style="stroke: #000000; stroke-width: 1.0; stroke-dasharray: 7.0,7.0;"/><polygon fill="#000000" points="675.93,952.2813,666.93,948.2813,670.93,952.2813,666.93,956.2813,675.93,952.2813" style="stroke: #000000; stroke-width: 1.0;"/><text fill="#000000" font-family="sans-serif" font-size="10" lengthAdjust="spacingAndGlyphs" textLength="45" x="571" y="949.5635">«include»</text><!--MD5=[c71b7c22756a6cd4495103aecf374f37]
link CU015_2 to CU015--><path d="M253.53,940.3013 C289.73,942.4513 334.61,945.1213 372.81,947.3913 " fill="none" id="CU015_2-&gt;CU015" style="stroke: #000000; stroke-width: 1.0; stroke-dasharray: 7.0,7.0;"/><polygon fill="#000000" points="377.92,947.7013,369.1757,943.1694,372.929,947.4018,368.6966,951.155,377.92,947.7013" style="stroke: #000000; stroke-width: 1.0;"/><text fill="#000000" font-family="sans-serif" font-size="10" lengthAdjust="spacingAndGlyphs" textLength="46" x="295" y="940.5635">«extend»</text><!--MD5=[e9dad116df85db5d9eceb8048a3776ff]
link CU016 to CU016_1--><path d="M525.67,1032.2813 C566.93,1032.2813 619.13,1032.2813 659.77,1032.2813 " fill="none" id="CU016-&gt;CU016_1" style="stroke: #000000; stroke-width: 1.0; stroke-dasharray: 7.0,7.0;"/><polygon fill="#000000" points="665.17,1032.2813,656.17,1028.2813,660.17,1032.2813,656.17,1036.2813,665.17,1032.2813" style="stroke: #000000; stroke-width: 1.0;"/><text fill="#000000" font-family="sans-serif" font-size="10" lengthAdjust="spacingAndGlyphs" textLength="45" x="571" y="1029.5635">«include»</text><!--MD5=[9016e82e610dfd2ae1b08e786e7fedcb]
link CU016_2 to CU016--><path d="M257.03,1013.1513 C296.51,1016.9613 345.45,1021.6913 384.79,1025.4913 " fill="none" id="CU016_2-&gt;CU016" style="stroke: #000000; stroke-width: 1.0; stroke-dasharray: 7.0,7.0;"/><polygon fill="#000000" points="390.03,1026.0013,381.4478,1021.1695,385.0523,1025.5292,380.6926,1029.1337,390.03,1026.0013" style="stroke: #000000; stroke-width: 1.0;"/><text fill="#000000" font-family="sans-serif" font-size="10" lengthAdjust="spacingAndGlyphs" textLength="46" x="295" y="1014.5635">«extend»</text><!--MD5=[8a76ac398ced2406cce45c5f51aa5a00]
link CU017_1 to CU017--><path d="M236.91,1396.8413 C282.86,1384.7213 350.36,1366.9013 398.08,1354.3013 " fill="none" id="CU017_1-&gt;CU017" style="stroke: #000000; stroke-width: 1.0; stroke-dasharray: 7.0,7.0;"/><polygon fill="#000000" points="402.92,1353.0313,393.1981,1351.4548,398.0848,1354.3044,395.2352,1359.1911,402.92,1353.0313" style="stroke: #000000; stroke-width: 1.0;"/><text fill="#000000" font-family="sans-serif" font-size="10" lengthAdjust="spacingAndGlyphs" textLength="46" x="295" y="1367.5635">«extend»</text><!--MD5=[4c6a2b9e7c518440c23826156e201b5a]
link CU017_2 to CU017--><path d="M264.17,1339.2813 C298.17,1339.2813 338.04,1339.2813 372.52,1339.2813 " fill="none" id="CU017_2-&gt;CU017" style="stroke: #000000; stroke-width: 1.0; stroke-dasharray: 7.0,7.0;"/><polygon fill="#000000" points="377.57,1339.2813,368.57,1335.2813,372.57,1339.2813,368.57,1343.2813,377.57,1339.2813" style="stroke: #000000; stroke-width: 1.0;"/><text fill="#000000" font-family="sans-serif" font-size="10" lengthAdjust="spacingAndGlyphs" textLength="46" x="295" y="1336.5635">«extend»</text><text fill="#888888" font-family="sans-serif" font-size="10" lengthAdjust="spacingAndGlyphs" textLength="53" x="401" y="1479.5635">RACCORD</text><!--MD5=[0a30f48a2235a835ce133531276f16d3]
@startuml CU_Usuario_Vertical

skinparam actorStyle hollow
skinparam usecaseBackgroundColor White
skinparam usecaseBorderColor Black
skinparam actorBorderColor Black
skinparam arrowColor Black
skinparam rectangleBackgroundColor White
skinparam rectangleBorderColor Black
skinparam defaultFontSize 10
skinparam shadowing false

title RACCORD - Diagrama de Casos de Uso\nUsuario

left to right direction

actor "Usuario" as User

rectangle "Sistema RACCORD" {

    usecase "Módulo de Gestión de\nUsuarios y Seguridad" as M1
    usecase "Módulo de\nContinuidad Visual" as M2
    usecase "Módulo de Planeación\ny Comunicación" as M3
    usecase "Módulo de Gestión\nde Guiones" as M4

    usecase "CU001 - Validar Usuario" as CU001
    usecase "Ingresar correo y contraseña" as CU001_1
    usecase "Recibir código 2FA" as CU001_2
    usecase "Recuperar contraseña" as CU001_3
    
    usecase "CU005 - Buscar Fotografías\nde Continuidad" as CU005
    usecase "Aplicar filtros" as CU005_1
    usecase "Guardar búsqueda" as CU005_2
    
    usecase "CU006 - Visualizar y\nComparar Fotografías" as CU006
    usecase "Hacer zoom" as CU006_1
    usecase "Rotar imagen" as CU006_2
    usecase "Comparar 2-4 fotos" as CU006_3
    usecase "Navegar entre fotos" as CU006_4
    
    usecase "CU007 - Analizar\nFotografías con IA" as CU007
    usecase "Detectar objetos" as CU007_1
    usecase "Comparar inconsistencias" as CU007_2
    usecase "Validar alertas" as CU007_3
    
    usecase "CU009 - Notificar Cambios\nde Calendario" as CU009
    usecase "Recibir notificación push" as CU009_1
    usecase "Confirmar lectura" as CU009_2
    
    usecase "CU011 - Comunicación\nInterna por Canales" as CU011
    usecase "Enviar mensaje" as CU011_1
    usecase "Adjuntar archivo" as CU011_2
    usecase "Buscar en historial" as CU011_3
    usecase "Usar diferentes canales" as CU011_4
    
    usecase "CU013 - Gestionar\nNotas Personales" as CU013
    usecase "Crear nota privada" as CU013_1
    usecase "Editar nota" as CU013_2
    usecase "Eliminar nota" as CU013_3
    
    usecase "CU015 - Visualizar Guion\ncon Anotaciones" as CU015
    usecase "Visualizar guion" as CU015_1
    usecase "Crear anotación personal" as CU015_2
    
    usecase "CU016 - Comparar\nVersiones de Guion" as CU016
    usecase "Ver diferencias (diff)" as CU016_1
    usecase "Generar reporte de cambios" as CU016_2
    
    usecase "CU017 - Vincular Guion\ncon Continuidad" as CU017
    usecase "Ver continuidad desde guion" as CU017_1
    usecase "Acceder a escena desde foto" as CU017_2
}

User - - M1
User - - M2
User - - M3
User - - M4

M1 - - CU001

M2 - - CU005
M2 - - CU006
M2 - - CU007

M3 - - CU009
M3 - - CU011
M3 - - CU013

M4 - - CU015
M4 - - CU016
M4 - - CU017

CU001 ..> CU001_1 : <<include>>
CU001 ..> CU001_2 : <<include>>
CU001_3 ..> CU001 : <<extend>>

CU005 ..> CU005_1 : <<include>>
CU005_2 ..> CU005 : <<extend>>

CU006 ..> CU006_1 : <<include>>
CU006 ..> CU006_2 : <<include>>
CU006_3 ..> CU006 : <<extend>>
CU006_4 ..> CU006 : <<extend>>

CU007 ..> CU007_1 : <<include>>
CU007_2 ..> CU007 : <<extend>>
CU007_3 ..> CU007 : <<extend>>

CU009 ..> CU009_1 : <<include>>
CU009_2 ..> CU009 : <<extend>>

CU011 ..> CU011_1 : <<include>>
CU011_2 ..> CU011 : <<extend>>
CU011_3 ..> CU011 : <<extend>>
CU011_4 ..> CU011 : <<extend>>

CU013_1 ..> CU013 : <<extend>>
CU013_2 ..> CU013 : <<extend>>
CU013_3 ..> CU013 : <<extend>>

CU015 ..> CU015_1 : <<include>>
CU015_2 ..> CU015 : <<extend>>

CU016 ..> CU016_1 : <<include>>
CU016_2 ..> CU016 : <<extend>>

CU017_1 ..> CU017 : <<extend>>
CU017_2 ..> CU017 : <<extend>>

footer RACCORD

@enduml

PlantUML version 1.2020.02(Sun Mar 01 10:22:07 UTC 2020)
(GPL source distribution)
Java Runtime: OpenJDK Runtime Environment
JVM: OpenJDK 64-Bit Server VM
Java Version: 21.0.9+10-Ubuntu-124.04
Operating System: Linux
Default Encoding: UTF-8
Language: en
Country: US
--></g></svg>